<svg width="20" height="20" viewBox="0 0 20 20" fill="none" xmlns="http://www.w3.org/2000/svg">
<rect width="20" height="20" rx="4" fill="#67CEE5"/>
<path fill-rule="evenodd" clip-rule="evenodd" d="M5.59456 9.98022C5.63298 9.82384 6.57951 6 7.36472 6C8.66861 6 9.01753 6.3717 9.99991 6.3717C10.9823 6.3717 11.3312 6 12.6351 6C13.4203 6 14.3669 9.82392 14.4053 9.98022L14.3999 9.98515C14.3999 9.98515 13.188 11.1896 9.99991 11.1896C6.8118 11.1896 5.59996 9.98515 5.59996 9.98515L5.59456 9.98022ZM5.21141 9.99523C4.53263 10.0284 3.17521 10.1689 3.04274 10.7623C2.53546 13.0344 6.64473 14 10 14C13.3553 14 17.4645 13.0342 16.9573 10.7623C16.8248 10.1689 15.4674 10.0284 14.7886 9.99523C14.6042 10.7784 13.7678 12.4056 10.0002 12.4056C6.23258 12.4056 5.39596 10.7784 5.21179 9.99523H5.21141Z" fill="white"/>
</svg>
