<svg width="20" height="20" viewBox="0 0 20 20" fill="none" xmlns="http://www.w3.org/2000/svg">
<rect width="20" height="20" rx="4" fill="#BF2020"/>
<path d="M14.1901 8.45549C14.1428 8.17733 14.0021 7.92592 13.7931 7.74604C13.5841 7.56616 13.3204 7.46952 13.0493 7.47361H12.7793V6.89472C12.7793 5.86059 12.2495 4.90499 11.3895 4.3878C10.5296 3.87073 9.47007 3.87073 8.61029 4.3878C7.75031 4.90486 7.22053 5.86046 7.22053 6.89472V7.47361H6.95046C6.67938 7.46954 6.41575 7.56617 6.20672 7.74604C5.99771 7.92592 5.85699 8.17733 5.80973 8.45549L5.01072 13.6658C4.9653 14.0063 5.06562 14.3505 5.28516 14.6072C5.50478 14.8639 5.82147 15.0075 6.15145 14.9997H13.8486C14.1786 15.0075 14.4952 14.8639 14.7148 14.6072C14.9344 14.3504 15.0347 14.0063 14.9893 13.6658L14.1901 8.45549ZM11.6674 7.47361H8.33215V6.89472C8.33215 6.27424 8.65005 5.70088 9.16597 5.39064C9.68189 5.0804 10.3177 5.0804 10.8336 5.39064C11.3495 5.70088 11.6674 6.27424 11.6674 6.89472V7.47361Z" fill="white"/>
</svg>
