<svg width="20" height="20" viewBox="0 0 20 20" fill="none" xmlns="http://www.w3.org/2000/svg">
<rect width="20" height="20" rx="4" fill="#FF5F5F"/>
<path d="M15.5363 7.64737C15.0969 7.52351 14.6854 7.65141 14.3198 7.76524C14.1581 7.81512 14.0043 7.86305 13.8584 7.88702C13.4089 7.96086 12.9376 7.81917 12.4402 7.66925C12.0687 7.55737 11.6852 7.44159 11.2817 7.40565C11.066 7.38572 10.8502 7.38962 10.6425 7.39171C10.2011 7.3977 9.78365 7.40369 9.50192 7.19401C9.40411 7.12212 9.31215 7.01428 9.2163 6.9024C9.13841 6.81058 9.05649 6.71668 8.96258 6.62472C8.48917 6.17524 7.79811 5.98759 7.16095 6.13333C7.03709 6.16133 6.92326 6.20118 6.81347 6.23713C6.6956 6.27712 6.58372 6.31501 6.47992 6.33299C6.2003 6.38092 5.88667 6.29899 5.56316 6.20509L5.51718 6.19115C5.16566 6.0893 4.77013 5.97339 4.35075 6.00543C3.8854 6.04333 3.34008 6.31697 3.17233 6.84836C3.12845 6.9902 3.11646 7.12604 3.10838 7.23582C2.96251 9.14331 2.9646 11.0768 3.11033 12.9843C3.11437 13.0462 3.12231 13.1482 3.18222 13.256C3.31207 13.4918 3.56775 13.5436 3.66555 13.5637C4.2428 13.6794 4.83602 13.7973 5.44725 13.7973C5.56512 13.7973 5.68494 13.7933 5.80474 13.7834C6.67357 13.7115 7.42455 13.3399 7.86204 12.7647L7.88197 12.7367C7.8959 12.7188 7.91192 12.6968 7.92795 12.6768C7.94592 12.6809 7.96584 12.6888 7.98186 12.6929L8.01182 12.7029C8.45124 12.8327 8.88874 12.8187 9.31215 12.8047C9.50386 12.7987 9.68569 12.7928 9.86542 12.8007C10.185 12.8146 10.5025 12.8706 10.8382 12.9305C11.2177 12.9984 11.6112 13.0683 12.0187 13.0743C12.7358 13.0844 13.4089 12.8985 14.0621 12.7188C14.7152 12.539 15.4542 12.3352 16.0594 11.8758C16.1553 11.8039 16.2092 11.688 16.2053 11.5682C16.1953 11.3066 16.0036 11.1029 15.692 11.0209C15.6901 11.0209 15.688 11.0209 15.686 11.019L15.5502 10.6574C15.5303 10.6035 15.4524 10.6035 15.4323 10.6574L15.3204 10.955C15.1266 10.937 14.9349 10.943 14.7432 10.965L14.7013 10.8553C14.6813 10.8013 14.6034 10.8013 14.5834 10.8553L14.5295 10.9951C14.2757 11.0371 14.0241 11.0989 13.7764 11.1609L13.6985 10.9552C13.6786 10.9012 13.6007 10.9012 13.5807 10.9552L13.4748 11.2328C13.3389 11.2647 13.2071 11.2927 13.0753 11.3127C13.0114 11.3227 12.9455 11.3306 12.8796 11.3326L12.7737 11.053C12.7538 10.999 12.6759 10.999 12.6558 11.053L12.5779 11.2567C12.54 11.2346 12.5001 11.2087 12.4581 11.1828C12.3903 11.1389 12.3203 11.0949 12.2403 11.053C12.1625 11.011 12.0805 10.9791 12.0007 10.9511L11.9248 10.7494C11.9048 10.6955 11.827 10.6955 11.8069 10.7494L11.757 10.8812C11.6291 10.8532 11.5054 10.8332 11.3875 10.8133C11.2397 10.7894 11.1 10.7673 10.9701 10.7314C10.9522 10.7274 10.9361 10.7214 10.9203 10.7154L10.8723 10.5875C10.8524 10.5336 10.7745 10.5336 10.7545 10.5875L10.7345 10.6394C10.5129 10.5276 10.351 10.3639 10.1712 10.1681C10.1813 10.1641 10.1932 10.1621 10.2031 10.1581C10.269 10.1381 10.331 10.1202 10.3869 10.1061C10.5487 10.0661 10.7005 10.0143 10.8484 9.96232C10.8704 9.95438 10.8923 9.94839 10.9143 9.94031L10.9802 10.114C11.0001 10.168 11.078 10.168 11.098 10.114L11.1979 9.85044C11.2718 9.83052 11.3438 9.8145 11.4157 9.80447C11.6115 9.77646 11.8152 9.79053 12.0269 9.82244L12.1128 10.0501C12.1327 10.104 12.2106 10.104 12.2306 10.0501L12.2985 9.86828C12.3484 9.87831 12.4003 9.8882 12.4523 9.89823C12.6001 9.92819 12.7519 9.95814 12.9057 9.98016C12.9876 9.99214 13.0715 10.0022 13.1534 10.0101L13.2093 10.1579C13.2292 10.2119 13.3071 10.2119 13.3271 10.1579L13.377 10.0261C13.6427 10.0401 13.9083 10.0321 14.172 10.0041L14.23 10.1579C14.2499 10.2119 14.3278 10.2119 14.3478 10.1579L14.4178 9.97221C14.5836 9.9463 14.7473 9.9123 14.9092 9.86841L14.9911 10.0862C15.011 10.1401 15.0889 10.1401 15.109 10.0862L15.2268 9.77256C15.3467 9.73257 15.4645 9.68868 15.5803 9.63867L15.6242 9.87037C15.6362 9.93822 15.7361 9.93822 15.7481 9.87037L15.812 9.53278C15.9119 9.48485 16.0097 9.43288 16.1056 9.37896C16.1715 9.34107 16.3073 9.26513 16.3852 9.10728C16.4411 8.99749 16.4451 8.88951 16.4451 8.81762C16.4411 8.29459 16.0596 7.79525 15.5363 7.64741L15.5363 7.64737ZM13.0136 9.26521C12.8758 9.24529 12.74 9.21728 12.5941 9.18928C12.1827 9.10736 11.7572 9.02349 11.3058 9.08743C11.052 9.12338 10.8244 9.20321 10.6027 9.27915C10.4649 9.32708 10.3331 9.37096 10.2052 9.40301C10.1333 9.42098 10.0614 9.44091 9.99148 9.46292C9.82972 9.51085 9.59593 9.5787 9.49617 9.54679C9.47819 9.53286 9.45827 9.52088 9.43821 9.50681C9.42817 9.49483 9.41424 9.4749 9.40421 9.46083C9.3822 9.42892 9.35628 9.39298 9.32633 9.35703C8.87895 8.83568 8.06598 8.47815 7.37689 8.80376C7.19117 8.89167 7.11328 9.11139 7.20106 9.29515C7.28897 9.47892 7.51064 9.5568 7.69441 9.46889C7.99006 9.329 8.46739 9.49285 8.76094 9.83434C8.76693 9.84228 8.78086 9.86234 8.79284 9.87822C8.83673 9.94218 8.89664 10.028 8.9886 10.0939C9.03054 10.1279 9.07247 10.1579 9.1165 10.1818C9.28425 10.3076 9.42204 10.4595 9.56598 10.6152C9.85355 10.9289 10.1811 11.2844 10.7684 11.4482C10.9382 11.4961 11.1059 11.522 11.2697 11.548C11.5033 11.5859 11.723 11.6199 11.8989 11.7119C11.9488 11.7378 12.0007 11.7718 12.0587 11.8078C12.1766 11.8837 12.3084 11.9676 12.4741 12.0215C12.7298 12.1034 12.9814 12.0794 13.1932 12.0474C13.4589 12.0055 13.7205 11.9415 13.9741 11.8776C14.2818 11.8016 14.5794 11.7257 14.865 11.6978C14.5434 11.8236 14.2039 11.9175 13.8683 12.0114C13.2671 12.1772 12.6439 12.349 12.0326 12.341C11.6852 12.3369 11.3395 12.2751 10.9721 12.2092C10.6266 12.1473 10.2691 12.0833 9.89959 12.0693C9.69381 12.0613 9.48817 12.0673 9.29047 12.0733C8.909 12.0853 8.5494 12.0973 8.22783 12.0014L8.20191 11.9935C8.15997 11.9815 8.1101 11.9655 8.05409 11.9535C8.02009 11.9255 7.98024 11.9036 7.93427 11.8895C7.28708 11.6838 6.66989 11.0607 6.60801 10.8249C6.55604 10.6272 6.35429 10.5094 6.15464 10.5613C5.95693 10.6133 5.83906 10.815 5.89103 11.0108C6.0089 11.4603 6.59407 12.0375 7.22521 12.3809C6.90769 12.7564 6.37436 13.0001 5.74712 13.0521C5.12197 13.104 4.47479 12.9761 3.84561 12.8503C3.70782 11.0067 3.70977 9.13698 3.84965 7.29369C3.85564 7.21385 3.86163 7.13193 3.88156 7.07202C3.94342 6.88031 4.19518 6.76049 4.41282 6.74447C4.6944 6.72245 4.9941 6.81037 5.30968 6.90232L5.35761 6.91626C5.75106 7.03008 6.17254 7.13597 6.60597 7.06213C6.76982 7.03412 6.91556 6.98425 7.05545 6.93632C7.15131 6.90441 7.24327 6.87237 7.33104 6.85244C7.72257 6.76258 8.16395 6.8824 8.45361 7.15798C8.52146 7.22194 8.58541 7.29787 8.65535 7.3777C8.76918 7.5116 8.89708 7.66137 9.06481 7.78524C9.55021 8.14273 10.1394 8.13481 10.6587 8.12882C10.8585 8.12687 11.0462 8.12283 11.222 8.13885C11.5515 8.1688 11.8811 8.2687 12.2307 8.37459C12.788 8.54234 13.3653 8.71608 13.9844 8.61423C14.1821 8.58233 14.3659 8.52437 14.5456 8.46836C14.8492 8.37445 15.1109 8.29058 15.3366 8.35453C15.5223 8.4065 15.6721 8.58428 15.702 8.77598C14.8853 9.22935 13.9345 9.40308 13.0137 9.2653L13.0136 9.26521Z" fill="white"/>
<path d="M15.3593 8.52406C15.3054 8.49007 15.2415 8.47015 15.1796 8.4661C15.0897 8.46011 15.0298 8.54998 15.0718 8.62786C15.0758 8.63385 15.0778 8.6418 15.0818 8.64779C15.1317 8.73166 15.2196 8.79965 15.3255 8.77764C15.3774 8.76761 15.4153 8.72776 15.4293 8.67579C15.4492 8.61198 15.4333 8.5621 15.3593 8.52406L15.3593 8.52406Z" fill="white"/>
<path d="M7.69337 7.1958C7.48159 7.1958 7.29182 7.27773 7.16603 7.40549C7.10416 7.46944 7.10416 7.57323 7.16603 7.63719C7.29183 7.76509 7.4816 7.84687 7.69337 7.84687H7.69532C7.69337 7.82486 7.69337 7.80298 7.69337 7.77902C7.69337 7.60528 7.74729 7.4654 7.81124 7.4654C7.87714 7.4654 7.92911 7.60528 7.92911 7.77902V7.81093C8.04294 7.77498 8.14284 7.71507 8.21877 7.63719C8.28063 7.57323 8.28063 7.46944 8.21877 7.40549C8.09282 7.27759 7.90514 7.1958 7.69339 7.1958L7.69337 7.1958Z" fill="white"/>
</svg>
