<svg width="20" height="20" viewBox="0 0 20 20" fill="none" xmlns="http://www.w3.org/2000/svg">
<rect width="20" height="20" rx="4" fill="#6783E5"/>
<path d="M5.82031 11.4707H14.1797C14.7103 11.4707 15.109 11.3405 15.376 11.0801C15.6462 10.8197 15.7812 10.4404 15.7812 9.94238V8.14062C15.7812 7.97135 15.7764 7.81836 15.7666 7.68164C15.7568 7.54167 15.7308 7.41634 15.6885 7.30566C15.6494 7.19499 15.5827 7.09733 15.4883 7.0127L13.7402 5.44043C13.5579 5.27441 13.3854 5.14421 13.2227 5.0498C13.0599 4.9554 12.8841 4.88867 12.6953 4.84961C12.5098 4.80729 12.29 4.78613 12.0361 4.78613H7.95898C7.70508 4.78613 7.48535 4.80729 7.2998 4.84961C7.11426 4.88867 6.9401 4.9554 6.77734 5.0498C6.61458 5.14421 6.44206 5.27441 6.25977 5.44043L4.50684 7.0127C4.41243 7.09733 4.34408 7.19499 4.30176 7.30566C4.2627 7.41634 4.23828 7.54167 4.22852 7.68164C4.21875 7.81836 4.21387 7.97135 4.21387 8.14062V9.94238C4.21387 10.4372 4.34896 10.8164 4.61914 11.0801C4.88932 11.3405 5.28971 11.4707 5.82031 11.4707ZM10 9.21973C9.77214 9.21973 9.5752 9.16439 9.40918 9.05371C9.24316 8.93978 9.11458 8.79655 9.02344 8.62402C8.93555 8.4515 8.8916 8.27409 8.8916 8.0918V8.07227C8.8916 7.97135 8.86068 7.88184 8.79883 7.80371C8.73698 7.72559 8.6377 7.68652 8.50098 7.68652H5.50781C5.3776 7.68652 5.29622 7.65885 5.26367 7.60352C5.23112 7.54492 5.26693 7.46842 5.37109 7.37402L6.96289 5.93359C7.09961 5.8099 7.22819 5.72201 7.34863 5.66992C7.46908 5.61458 7.63346 5.58691 7.8418 5.58691H12.1533C12.3649 5.58691 12.5293 5.61458 12.6465 5.66992C12.7669 5.72201 12.8955 5.8099 13.0322 5.93359L14.624 7.36914C14.7347 7.47005 14.7721 7.54818 14.7363 7.60352C14.7005 7.65885 14.6191 7.68652 14.4922 7.68652H11.4941C11.3607 7.68652 11.263 7.72559 11.2012 7.80371C11.1393 7.88184 11.1084 7.97135 11.1084 8.07227V8.0918C11.1084 8.27409 11.0628 8.4515 10.9717 8.62402C10.8805 8.79655 10.752 8.93978 10.5859 9.05371C10.4232 9.16439 10.2279 9.21973 10 9.21973ZM5.82031 16.0557H14.1797C14.707 16.0557 15.1058 15.9206 15.376 15.6504C15.6462 15.3835 15.7812 14.9896 15.7812 14.4688V12.7598C15.7812 12.6068 15.7373 12.4766 15.6494 12.3691C15.5648 12.2585 15.446 12.2031 15.293 12.2031H11.5039C11.3672 12.2031 11.2679 12.2422 11.2061 12.3203C11.1442 12.3984 11.1133 12.488 11.1133 12.5889V12.6035C11.1133 12.7891 11.0677 12.9697 10.9766 13.1455C10.8854 13.318 10.7568 13.4613 10.5908 13.5752C10.4248 13.6891 10.2279 13.7461 10 13.7461C9.76888 13.7461 9.57031 13.6891 9.4043 13.5752C9.23828 13.4613 9.1097 13.318 9.01855 13.1455C8.93066 12.9697 8.88672 12.7891 8.88672 12.6035V12.5889C8.88672 12.488 8.85417 12.3984 8.78906 12.3203C8.72721 12.2422 8.62793 12.2031 8.49121 12.2031H4.7168C4.56055 12.2031 4.43685 12.2585 4.3457 12.3691C4.25781 12.4766 4.21387 12.6068 4.21387 12.7598V14.4688C4.21387 14.9928 4.34896 15.3883 4.61914 15.6553C4.88932 15.9222 5.28971 16.0557 5.82031 16.0557Z" fill="white"/>
</svg>
