<svg width="20" height="20" viewBox="0 0 20 20" fill="none" xmlns="http://www.w3.org/2000/svg">
<rect width="20" height="20" rx="4" fill="#3CC8BF"/>
<path d="M10.0777 4.00045C9.72163 3.99618 9.36476 4.02211 9.02349 4.07854C7.74099 4.29068 6.62393 4.87299 5.70485 5.80828C5.39196 6.12667 5.19208 6.37489 4.9619 6.73093C4.3532 7.67252 4.03099 8.71462 4.00208 9.83467C3.97084 11.0479 4.29203 12.2114 4.93596 13.2152C5.80328 14.5674 7.16508 15.5231 8.70391 15.858C8.93287 15.9078 9.34403 15.9712 9.54929 15.9877H9.54938H9.557C9.7843 16.0049 10.5061 15.9857 10.7301 15.9567H10.7302C12.0948 15.7782 13.2739 15.2001 14.2399 14.2356C15.1933 13.2839 15.7682 12.1097 15.9597 10.7266C16.0054 10.3968 16.0056 9.59385 15.9601 9.26272C15.917 8.94897 15.8414 8.57853 15.769 8.33022C15.1375 6.16021 13.3454 4.52895 11.1265 4.10416C10.7887 4.03945 10.4334 4.00497 10.0773 4.0006L10.0777 4.00045ZM10.3081 4.25283C10.7451 4.27896 11.2144 4.35676 11.6174 4.47334C11.7232 4.50392 11.8734 4.55458 11.9969 4.59967C12.0546 4.62068 12.1044 4.63992 12.1429 4.65573C12.1319 4.68417 12.1204 4.71411 12.1031 4.75659C12.0584 4.86647 11.9949 5.0167 11.9241 5.18003C11.8531 5.34364 11.7872 5.49321 11.7384 5.60197C11.7269 5.62762 11.7201 5.64203 11.7107 5.66277C11.6926 5.6452 11.6797 5.63302 11.6566 5.61052C11.5645 5.52044 11.4359 5.3929 11.2892 5.2462C10.9955 4.95272 10.6288 4.58199 10.3318 4.27707L10.3082 4.25281L10.3081 4.25283ZM9.68295 4.25423L9.46468 4.46962C9.24501 4.6864 8.89688 5.02942 8.69124 5.23189C8.42639 5.49265 8.30686 5.60988 8.2387 5.67197C8.22522 5.64138 8.21118 5.60913 8.19259 5.56664C8.14527 5.45797 8.08429 5.31705 8.02387 5.17666C7.96344 5.03629 7.90357 4.89649 7.85849 4.79042C7.8385 4.74347 7.82288 4.70639 7.80996 4.67561C7.85254 4.65526 7.91705 4.62876 7.99495 4.60022C8.15392 4.54212 8.36549 4.47565 8.5609 4.42592C8.94307 4.32859 9.28609 4.27765 9.68285 4.25431L9.68295 4.25423ZM9.99744 4.29216L10.7764 5.07871C11.0089 5.31353 11.2202 5.52827 11.3733 5.68501C11.4415 5.75482 11.4929 5.80809 11.5345 5.85141C11.5014 5.86805 11.4709 5.88358 11.424 5.90654C11.2867 5.97402 11.0968 6.06559 10.8881 6.16496C10.47 6.36399 10.0808 6.54908 10.0264 6.57464L9.96544 6.60327L9.85324 6.54982C9.65663 6.45602 9.30355 6.28581 8.83392 6.05861C8.64317 5.96629 8.47862 5.88821 8.40974 5.85725C8.4103 5.85642 8.41067 5.85632 8.41132 5.85549C8.46375 5.80185 8.53673 5.72887 8.61695 5.65013C8.77833 5.49182 9.17007 5.10649 9.48773 4.79379L9.99734 4.29207L9.99744 4.29216ZM12.3777 4.75584C12.3844 4.75825 12.3837 4.75723 12.392 4.76067C12.4538 4.78614 12.5602 4.83978 12.7211 4.92633C13.1368 5.1499 13.5814 5.467 13.9043 5.76697L12.97 5.76753L11.9383 5.76809L11.9414 5.76083C12.032 5.54833 12.1448 5.28721 12.2366 5.07664C12.2824 4.97141 12.323 4.87882 12.3529 4.81141C12.3632 4.78808 12.3703 4.77237 12.3778 4.75573L12.3777 4.75584ZM7.58051 4.77164C7.58246 4.77573 7.58414 4.77768 7.5859 4.78196C7.60803 4.83495 7.72033 5.0945 7.83847 5.36594C7.8975 5.50166 7.95226 5.62743 7.99279 5.72067C8.00302 5.74419 8.00162 5.74113 8.01017 5.76065C7.98117 5.76158 7.96555 5.76306 7.92214 5.76381C7.75128 5.76688 7.46348 5.76781 7.00544 5.76753L6.09776 5.76697C6.36177 5.5248 6.67662 5.2833 6.97272 5.10165C7.07813 5.03704 7.24128 4.94603 7.3808 4.8724C7.45053 4.83559 7.51458 4.80287 7.56217 4.78C7.56989 4.77628 7.57379 4.7748 7.58058 4.77163L7.58051 4.77164ZM5.922 6.01045H6.99068C7.31064 6.01045 7.60162 6.01166 7.81226 6.01324C7.90373 6.01407 7.97187 6.01482 8.02867 6.01584C8.00859 6.08212 7.98163 6.1696 7.95161 6.2661C7.88988 6.46457 7.82202 6.68378 7.80045 6.75479C7.72841 6.99101 7.6611 7.20631 7.61035 7.36398C7.58497 7.44281 7.56368 7.50742 7.54825 7.5525C7.54165 7.57175 7.53672 7.58532 7.53244 7.59666C7.51989 7.60233 7.49907 7.61116 7.45677 7.62687C7.3627 7.66183 7.1845 7.72439 6.84871 7.8418C6.59157 7.93169 6.25292 8.05068 6.09581 8.10626C6.03055 8.12932 5.97542 8.14856 5.92643 8.16548C5.92569 8.10747 5.92485 8.03915 5.9243 7.94665C5.9229 7.73107 5.92197 7.43342 5.92197 7.10601L5.922 6.01045ZM12.965 6.01045H14.0423V6.41268C14.0423 6.68757 14.0474 7.21558 14.0535 7.58826C14.0569 7.79017 14.0582 7.9588 14.0574 8.07583C14.0572 8.10168 14.0567 8.11441 14.0562 8.13496C14.0074 8.11916 13.9505 8.10056 13.8776 8.07621C13.7084 8.01969 13.486 7.94429 13.2646 7.86853C13.0431 7.79277 12.8224 7.71654 12.6563 7.65825C12.5733 7.62916 12.5039 7.60443 12.4551 7.58667C12.4375 7.58026 12.426 7.57589 12.4144 7.57152C12.4128 7.56743 12.4121 7.56557 12.4103 7.56083C12.3996 7.53173 12.385 7.48944 12.3676 7.43803C12.3328 7.33503 12.2873 7.19493 12.2397 7.04341C12.1253 6.67908 12.0363 6.39417 11.9757 6.19922C11.9508 6.11881 11.934 6.06368 11.919 6.01478C11.9764 6.01395 12.045 6.0132 12.1372 6.01265C12.3494 6.01125 12.6425 6.01051 12.9649 6.01051L12.965 6.01045ZM8.2723 6.06427C8.31051 6.08166 8.35327 6.10146 8.40468 6.126C8.89551 6.36045 9.25024 6.53057 9.48349 6.64313C9.56446 6.68218 9.61205 6.70551 9.66421 6.73098C9.54977 6.77783 9.17385 6.93159 8.67361 7.13609C8.39863 7.24849 8.14689 7.35065 7.96284 7.42474C7.90771 7.44696 7.87304 7.46062 7.8313 7.47726C7.83706 7.45914 7.8405 7.44854 7.84701 7.42799C7.88912 7.29441 7.9461 7.11212 8.00792 6.91308C8.143 6.47774 8.21625 6.24199 8.25623 6.11463C8.2646 6.08804 8.26655 6.08218 8.27231 6.06424L8.2723 6.06427ZM11.6749 6.06511C11.687 6.10276 11.7 6.14301 11.7175 6.19832C11.7619 6.33814 11.8211 6.52583 11.8815 6.7176C11.9881 7.05608 12.079 7.34703 12.1168 7.47069C11.9862 7.41835 11.7081 7.30698 11.2158 7.10991C10.9191 6.9911 10.6454 6.88132 10.4437 6.80034C10.3716 6.77134 10.3216 6.75135 10.2701 6.73053C10.3646 6.686 10.5119 6.616 10.6946 6.52862C11.0337 6.3664 11.3026 6.23876 11.4869 6.15232C11.5691 6.11384 11.628 6.0866 11.6751 6.06522L11.6749 6.06511ZM14.2856 6.1616C14.5184 6.42217 14.764 6.74715 14.9476 7.05282C15.0028 7.14485 15.0827 7.29237 15.1524 7.42856C15.2166 7.55415 15.267 7.6632 15.2859 7.71098C15.2854 7.71107 15.2854 7.71107 15.2845 7.71135C15.2551 7.72325 15.2154 7.73952 15.168 7.75913C15.0732 7.79827 14.9477 7.8506 14.8143 7.90675C14.5715 8.00901 14.3695 8.09305 14.301 8.12103V7.75513C14.301 7.47503 14.2968 6.94516 14.2916 6.57572L14.2856 6.1616ZM5.67926 6.19888L5.67945 7.02327H5.67935V7.11883C5.67945 7.4428 5.67917 7.7373 5.67842 7.95055C5.67824 8.03478 5.67787 8.09418 5.6775 8.14986C5.67322 8.14791 5.67136 8.14707 5.66699 8.14512C5.57961 8.10552 5.4595 8.05095 5.32796 7.99099C5.06452 7.87088 4.80245 7.75291 4.73618 7.72466L4.71117 7.71407C4.75886 7.59424 4.93614 7.2462 5.04863 7.05684C5.21716 6.77312 5.43682 6.47992 5.67937 6.19889L5.67926 6.19888ZM9.96125 6.87546C9.96394 6.87639 9.96552 6.87704 9.96896 6.87825C9.98523 6.88429 10.0091 6.8934 10.0396 6.90511C10.1004 6.92854 10.1872 6.96247 10.2933 7.00421C10.5054 7.08769 10.7946 7.20268 11.1097 7.32884L12.2183 7.77272L12.6343 8.79556C12.8716 9.37881 13.0808 9.89372 13.0963 9.93221L13.1122 9.97209L13.0622 10.0888C13.026 10.1737 12.81 10.6817 12.5819 11.2187L12.1823 12.1594L11.3027 12.5259C10.7992 12.7357 10.2793 12.9519 10.1486 13.0058L9.94599 13.0893L9.40541 12.8687C8.67231 12.5694 8.24302 12.3938 7.99528 12.2911C7.87146 12.2397 7.79291 12.2065 7.7454 12.1856C7.72597 12.1769 7.71482 12.1719 7.70534 12.1673C7.70301 12.1627 7.70134 12.1594 7.69836 12.1528C7.68674 12.1281 7.67047 12.0923 7.65114 12.0486C7.61256 11.9613 7.5618 11.8426 7.50816 11.7144C7.40042 11.4569 7.19163 10.9593 7.04401 10.6083C6.97029 10.4331 6.90336 10.2718 6.85492 10.1535C6.83066 10.0943 6.81114 10.0458 6.79775 10.0121C6.79413 10.0029 6.79227 9.99811 6.78967 9.99123C6.7958 9.97599 6.80361 9.95712 6.8144 9.93109C6.83884 9.87206 6.87435 9.78737 6.91833 9.68354C7.00617 9.47587 7.1273 9.19159 7.26061 8.881L7.73008 7.78703L7.87017 7.72995C8.31584 7.5483 9.43918 7.08881 9.59367 7.02493C9.76398 6.95456 9.86195 6.9145 9.91773 6.89339C9.96914 6.87387 9.97351 6.87638 9.96133 6.87545L9.96125 6.87546ZM12.5329 7.88726C12.5639 7.8973 12.5859 7.90418 12.6233 7.91636C12.7868 7.96953 13.0046 8.0412 13.2227 8.11343C13.4407 8.18576 13.659 8.25864 13.8235 8.31414C13.8953 8.3384 13.9509 8.35755 13.9975 8.37363C13.9935 8.38088 13.9916 8.3846 13.9873 8.3926C13.9484 8.46408 13.894 8.5629 13.8335 8.67222C13.7125 8.89096 13.5667 9.15218 13.4702 9.32193C13.4297 9.39323 13.348 9.54021 13.2877 9.65037C13.2792 9.6658 13.2735 9.67528 13.2654 9.68969C13.2642 9.6869 13.2636 9.68597 13.2625 9.683C13.2169 9.57498 13.155 9.42531 13.0881 9.26077C12.9541 8.93086 12.7575 8.44726 12.6514 8.18605C12.6043 8.07032 12.565 7.97038 12.5329 7.88717L12.5329 7.88726ZM7.40867 7.90808C7.399 7.93132 7.39705 7.93718 7.3845 7.96702C7.30195 8.16317 7.15358 8.50935 6.89507 9.10997C6.80555 9.31802 6.72346 9.50785 6.6635 9.64581C6.6542 9.66719 6.64946 9.67788 6.64128 9.69666C6.63366 9.68215 6.63078 9.67723 6.62204 9.66077C6.54674 9.51761 6.4311 9.29395 6.26833 8.97677C6.18169 8.80795 6.0693 8.59136 6.01762 8.49374C6.00042 8.4612 5.98796 8.43592 5.97485 8.4097C6.02115 8.39269 6.07915 8.37177 6.15241 8.34575C6.31369 8.2883 6.5277 8.213 6.74151 8.13826C6.95532 8.06361 7.16885 7.98961 7.3292 7.93486C7.36201 7.92361 7.38061 7.91757 7.40849 7.90808L7.40867 7.90808ZM15.3801 7.93718C15.3964 7.98682 15.419 8.05431 15.457 8.16624C15.6252 8.66152 15.7112 9.1124 15.7481 9.68281C15.7223 9.65762 15.7054 9.64135 15.6745 9.61096C15.5271 9.4664 15.325 9.267 15.1036 9.04751L14.3984 8.34854C14.4543 8.32437 14.534 8.29025 14.6249 8.25205C14.7373 8.20491 14.9663 8.10842 15.1341 8.03749C15.2174 8.00226 15.2954 7.97028 15.3534 7.94732C15.3644 7.94295 15.3705 7.94072 15.38 7.93709L15.3801 7.93718ZM4.6212 7.94406C4.65011 7.95661 4.67986 7.96953 4.72104 7.98766C4.82925 8.03535 4.97268 8.09921 5.11621 8.16354C5.25973 8.22787 5.40364 8.29266 5.51249 8.3423C5.54159 8.3556 5.5599 8.36406 5.58333 8.37484C5.55767 8.40105 5.54038 8.41927 5.49557 8.4639C5.34916 8.60994 5.09027 8.86475 4.64627 9.30073C4.46044 9.48321 4.33475 9.60463 4.25091 9.68521C4.27378 9.32248 4.32509 8.9564 4.40011 8.64264C4.42633 8.53313 4.4874 8.33272 4.54374 8.16361C4.57191 8.07902 4.59914 8.00167 4.61997 7.94701C4.62052 7.94562 4.62071 7.94525 4.62118 7.94404L4.6212 7.94406ZM14.209 8.514C14.2507 8.55425 14.3034 8.60547 14.3718 8.67231C14.5222 8.81938 14.7285 9.0224 14.9542 9.2457L15.7063 9.98987L14.9549 10.726C14.7293 10.947 14.523 11.1479 14.3725 11.2935C14.3048 11.3589 14.253 11.4086 14.2114 11.4483C14.1883 11.4083 14.1629 11.3643 14.1289 11.3046C14.045 11.1568 13.9339 10.9589 13.8229 10.76C13.7119 10.561 13.6009 10.3609 13.5173 10.2083C13.4754 10.1321 13.4405 10.0677 13.4158 10.0216C13.406 10.0032 13.3993 9.99005 13.3931 9.97806C13.3933 9.97806 13.3933 9.97806 13.3934 9.97601C13.4042 9.95194 13.4241 9.91224 13.454 9.856C13.5139 9.74342 13.6141 9.56326 13.7697 9.28773C13.8649 9.11919 14.0148 8.85322 14.103 8.69639C14.1433 8.62481 14.1794 8.56262 14.2088 8.51317L14.209 8.514ZM5.76708 8.54858C5.77033 8.55444 5.77191 8.55704 5.77535 8.56345C5.81458 8.63568 5.86747 8.73636 5.92418 8.84689C6.03824 9.06934 6.22277 9.42735 6.33441 9.64272L6.51466 9.99067L6.13463 10.7423C6.02419 10.9607 5.92259 11.1594 5.84784 11.3031C5.82014 11.3563 5.80089 11.3926 5.78165 11.4289C5.76473 11.413 5.75284 11.4018 5.73136 11.3815C5.64528 11.2996 5.52434 11.1836 5.38351 11.0479C5.10193 10.7764 4.74077 10.4257 4.41792 10.1094L4.2954 9.98934L4.53719 9.75154C5.04968 9.2476 5.37681 8.92651 5.57695 8.73175C5.66675 8.64437 5.72336 8.58989 5.76696 8.54843L5.76708 8.54858ZM13.2597 10.2573C13.2792 10.2917 13.2957 10.3208 13.3206 10.3652C13.4037 10.5133 13.513 10.7093 13.6215 10.9049C13.73 11.1004 13.8377 11.2955 13.9178 11.4418C13.9507 11.5019 13.975 11.5466 13.9967 11.5867C13.9783 11.5928 13.9658 11.5969 13.9433 11.6044C13.8457 11.6365 13.7115 11.6802 13.5643 11.7279C13.2745 11.8218 12.886 11.9486 12.6856 12.0145H12.6852L12.6707 12.0195C12.5987 12.0432 12.5409 12.0618 12.4835 12.0802C12.4982 12.0454 12.5109 12.0153 12.5303 11.9696C12.5924 11.823 12.676 11.6261 12.7656 11.415C12.9449 10.993 13.1487 10.5144 13.2532 10.2704C13.2557 10.2646 13.2571 10.2625 13.2595 10.2574L13.2597 10.2573ZM4.25043 10.2878C4.29421 10.3303 4.33762 10.3728 4.40855 10.4418C4.80829 10.831 5.22911 11.2402 5.47518 11.4792C5.52798 11.5305 5.57326 11.5755 5.61044 11.6131C5.57195 11.6346 5.53468 11.6553 5.44869 11.7012C5.25719 11.8034 5.21266 11.8277 4.84129 12.0313C4.76915 12.0708 4.70324 12.1066 4.65397 12.1328C4.64124 12.1016 4.62804 12.069 4.61139 12.0236C4.56789 11.9044 4.51518 11.7474 4.47149 11.6019C4.35677 11.2202 4.28222 10.7706 4.25033 10.2879L4.25043 10.2878ZM6.64261 10.2898C6.66975 10.3534 6.69773 10.4191 6.73557 10.5085C6.83485 10.7429 6.9636 11.0491 7.08435 11.3377C7.13139 11.4502 7.23402 11.6944 7.31248 11.8807C7.34158 11.9498 7.36463 12.0061 7.38722 12.0612C7.2963 12.0287 6.92753 11.8989 6.5634 11.7713C6.3812 11.7076 6.21497 11.6489 6.09403 11.606C6.05192 11.5911 6.02375 11.5809 5.99391 11.5702C6.01213 11.5328 6.03221 11.4918 6.06057 11.4346C6.13084 11.2932 6.22864 11.0985 6.33693 10.8851C6.44523 10.6718 6.54433 10.4784 6.61666 10.3391C6.62753 10.3182 6.63292 10.3082 6.6425 10.2898L6.64261 10.2898ZM15.7473 10.2966C15.7073 10.9224 15.6075 11.4094 15.3961 11.9959C15.3782 12.0454 15.3611 12.0868 15.3461 12.1215C15.3248 12.111 15.3039 12.1008 15.2791 12.0874C15.2016 12.0458 14.9487 11.9146 14.7125 11.7934C14.5949 11.7331 14.4879 11.6771 14.4108 11.6358C14.403 11.6317 14.3998 11.6297 14.3926 11.6258C14.3979 11.6203 14.4003 11.6178 14.4062 11.6118C14.4665 11.5508 14.5502 11.4674 14.6422 11.3768C15.2612 10.7682 15.6308 10.4079 15.7473 10.2965L15.7473 10.2966ZM5.94413 11.8187C5.98457 11.8323 6.02455 11.8458 6.08144 11.8654C6.23724 11.9189 6.44529 11.9912 6.65492 12.0644C6.86455 12.1376 7.07567 12.2117 7.23759 12.2693C7.31856 12.298 7.38717 12.3226 7.437 12.3407C7.46191 12.3497 7.48208 12.3571 7.49649 12.3625C7.50207 12.3646 7.49993 12.3645 7.50411 12.3655C7.51192 12.3804 7.52652 12.4152 7.54743 12.4742C7.58908 12.5922 7.65759 12.8078 7.77788 13.1927C7.8517 13.4289 7.91881 13.645 7.96753 13.8029C7.98603 13.863 7.99895 13.9052 8.0115 13.9462C7.95526 13.9483 7.88786 13.9487 7.79713 13.9496C7.58806 13.9521 7.29904 13.9534 6.98131 13.9534H5.92108L5.93177 12.8715C5.93503 12.5475 5.93837 12.2525 5.94107 12.0384C5.94228 11.9458 5.94321 11.8768 5.94414 11.8187L5.94413 11.8187ZM14.0538 11.8326C14.0547 11.8916 14.0558 11.963 14.0571 12.0579C14.0598 12.2736 14.0632 12.5709 14.0664 12.8972L14.0773 13.9876H12.9744C12.6449 13.9876 12.3452 13.9855 12.1284 13.9838C12.0313 13.9838 11.9579 13.9817 11.899 13.9804C11.9003 13.9763 11.9006 13.9745 11.9018 13.9704C11.9232 13.8959 11.9527 13.7947 11.9851 13.685C12.0503 13.4647 12.166 13.0697 12.2425 12.8068L12.3674 12.3774L13.2458 12.0922C13.5004 12.0095 13.7322 11.9348 13.9006 11.8812C13.9652 11.8606 14.0103 11.8465 14.0538 11.8328L14.0538 11.8326ZM5.69687 11.8469L5.68683 12.854C5.68367 13.1753 5.68033 13.4679 5.67754 13.6804C5.67698 13.7268 5.67661 13.7522 5.67596 13.7904C5.61246 13.7177 5.54191 13.6359 5.49087 13.5724C5.35264 13.4001 5.18902 13.1634 5.06008 12.9487C5.01016 12.8655 4.92454 12.7064 4.85296 12.5668C4.81717 12.4971 4.78454 12.4318 4.76149 12.3832C4.75749 12.375 4.75582 12.3707 4.75247 12.3633C4.77357 12.3503 4.79188 12.3386 4.83958 12.3118C4.97251 12.2372 5.22044 12.1032 5.67279 11.8598L5.69696 11.8468L5.69687 11.8469ZM14.2982 11.8556L14.3494 11.8826C14.4573 11.9396 14.7201 12.0757 14.9354 12.1861C15.0428 12.2411 15.141 12.2916 15.2126 12.3285C15.2298 12.3375 15.2398 12.3426 15.2537 12.3499C15.2421 12.3755 15.2305 12.4012 15.2138 12.4358C15.1678 12.5309 15.1072 12.6502 15.055 12.7463C14.9298 12.9771 14.6928 13.3357 14.5199 13.5562C14.462 13.63 14.3826 13.7217 14.3193 13.7932L14.3189 13.537C14.3186 13.259 14.3131 12.7316 14.3068 12.363L14.2983 11.8555L14.2982 11.8556ZM12.0855 12.47C12.0019 12.7539 11.7595 13.5793 11.7035 13.7715C11.6849 13.8352 11.6681 13.889 11.6536 13.934C11.6073 13.9116 11.5491 13.8831 11.4764 13.8473C11.3175 13.7689 11.1076 13.6647 10.8986 13.5603C10.6896 13.456 10.4817 13.3517 10.3263 13.273C10.2936 13.2564 10.2752 13.2469 10.2476 13.2329C10.2704 13.2233 10.2842 13.2173 10.3106 13.206C10.4594 13.1432 10.663 13.0581 10.8851 12.9663C11.0442 12.9005 11.266 12.8084 11.3784 12.7616C11.4906 12.7148 11.7374 12.6118 11.927 12.5328C12.0026 12.5012 12.038 12.4884 12.0856 12.4699L12.0855 12.47ZM7.81616 12.4915C7.91879 12.5308 8.05414 12.5836 8.20419 12.6432C8.5158 12.7672 8.87741 12.9144 9.06873 12.9971C9.11548 13.0173 9.29983 13.0931 9.48705 13.1691C9.54849 13.1941 9.59553 13.2135 9.64592 13.2343C9.5497 13.2797 9.37493 13.3635 9.22638 13.4355C9.0676 13.5125 8.86103 13.6121 8.76817 13.6564C8.67456 13.701 8.50026 13.7844 8.38062 13.8418C8.33293 13.8646 8.29361 13.8833 8.25726 13.9004C8.24453 13.8607 8.23077 13.8178 8.21162 13.7573C8.16374 13.6058 8.09821 13.3966 8.02663 13.1664C7.95505 12.9362 7.88914 12.7245 7.84052 12.569C7.83039 12.5366 7.82472 12.5185 7.81616 12.4913L7.81616 12.4915ZM9.95047 13.3706C9.96367 13.3764 9.98021 13.3841 10.0022 13.3945C10.0514 13.4175 10.1201 13.4505 10.2014 13.4898C10.3639 13.5687 10.5769 13.6733 10.7886 13.7782C11.0003 13.8831 11.2107 13.9882 11.3679 14.0678C11.4313 14.0999 11.4778 14.1238 11.5202 14.1459C11.4998 14.1674 11.4829 14.1853 11.4556 14.2138C11.3643 14.309 11.2382 14.4392 11.0993 14.5807C10.8212 14.8643 10.4445 15.2481 10.2623 15.4336L9.99788 15.7026L9.18651 14.8996C8.94473 14.6603 8.72495 14.4416 8.56581 14.282C8.49395 14.2099 8.43938 14.1546 8.39588 14.1105C8.41131 14.1026 8.42052 14.0978 8.43883 14.0885C8.53439 14.0407 8.66686 13.976 8.81243 13.906C9.10451 13.766 9.48409 13.5837 9.65596 13.501C9.74074 13.4603 9.82124 13.4237 9.8813 13.3982C9.9102 13.3858 9.93382 13.3765 9.95036 13.3705L9.95047 13.3706ZM6.98808 14.1963C7.44601 14.1963 7.73382 14.1963 7.90478 14.2001C7.94941 14.2001 7.96595 14.2022 7.99533 14.2032C7.89846 14.4383 7.59607 15.1695 7.5756 15.2178C7.54837 15.2054 7.51843 15.1918 7.48357 15.1744C6.93574 14.9008 6.45737 14.5688 6.0713 14.1967H6.98807L6.98808 14.1963ZM11.9217 14.2298H13.8896C13.5134 14.5855 12.9904 14.9443 12.4884 15.1869H12.4867C12.448 15.2055 12.4149 15.2208 12.3848 15.2345C12.375 15.2146 12.3667 15.1979 12.3539 15.171C12.3119 15.083 12.2555 14.9623 12.1955 14.833C12.0902 14.6057 11.9875 14.3783 11.9216 14.228L11.9217 14.2298ZM8.2194 14.3032C8.26262 14.3436 8.3144 14.3925 8.38338 14.459C8.54206 14.6117 8.75967 14.8247 8.99758 15.0605L9.16036 15.2218L9.68625 15.7431C9.6222 15.7398 9.58873 15.7399 9.40448 15.7225C9.05819 15.6897 8.63996 15.6047 8.29358 15.4967C8.2142 15.4718 8.07512 15.4231 7.95568 15.3793C7.89934 15.3585 7.84877 15.3394 7.80907 15.3238C7.82004 15.2938 7.83166 15.2623 7.84849 15.2185C7.8919 15.1058 7.9514 14.9553 8.01219 14.8044C8.07299 14.6535 8.13509 14.502 8.18352 14.3869C8.19793 14.3526 8.20787 14.3301 8.2194 14.3033L8.2194 14.3032ZM11.6977 14.3272C11.7276 14.3948 11.8264 14.6139 11.9277 14.8374C12.0307 15.0644 12.1313 15.2861 12.1541 15.3366L12.0417 15.3793C11.5155 15.5792 10.9852 15.6964 10.408 15.7402C10.3614 15.7436 10.3471 15.7439 10.3038 15.7466C10.4429 15.6012 10.7712 15.2651 11.1036 14.9274C11.2813 14.7468 11.4521 14.5739 11.5788 14.4462C11.6283 14.3965 11.6639 14.3609 11.6976 14.3272L11.6977 14.3272Z" fill="white" stroke="white" stroke-width="0.2"/>
</svg>
