<svg width="20" height="20" viewBox="0 0 20 20" fill="none" xmlns="http://www.w3.org/2000/svg">
<rect width="20" height="20" rx="4" fill="#CC6011"/>
<path d="M16 7.18527L14.5532 5.351C14.2415 5.47828 13.8977 5.54995 13.5356 5.54995C12.4417 5.54995 11.5107 4.90632 11.1365 4H8.86348C8.48936 4.90631 7.55827 5.54995 6.46426 5.54995C6.10222 5.54995 5.7585 5.47818 5.44668 5.351L4 7.18552C5.06711 7.87172 5.80415 9.33021 5.80415 11.0205C5.80415 12.3175 5.36977 13.4778 4.68551 14.2584L6.68343 15.6114C7.0386 15.2971 7.58013 15.0958 8.18746 15.0958C9.01799 15.0958 9.72433 15.4721 9.99995 16C10.2756 15.4721 10.9819 15.0958 11.8124 15.0958C12.4199 15.0958 12.9613 15.2971 13.3165 15.6114L15.3143 14.2584C14.6302 13.4778 14.1957 12.3175 14.1957 11.0205C14.1957 9.33021 14.9328 7.87163 15.9999 7.18539L16 7.18527Z" fill="white"/>
</svg>
