<svg width="20" height="20" viewBox="0 0 20 20" fill="none" xmlns="http://www.w3.org/2000/svg">
<rect width="20" height="20" rx="4" fill="#A9846F"/>
<path d="M11.9991 7C11.9991 6.60444 11.8818 6.21776 11.6622 5.88886C11.4425 5.55996 11.1303 5.30362 10.765 5.15224C10.3997 5.00087 9.99778 4.96126 9.61 5.03843C9.22221 5.1156 8.866 5.30608 8.58643 5.58579C8.30685 5.86549 8.11645 6.22186 8.03932 6.60982C7.96218 6.99778 8.00177 7.39992 8.15308 7.76537C8.30438 8.13082 8.56061 8.44318 8.88936 8.66294C9.21811 8.8827 9.60462 9 10 9V10.3333M10 10.3333L4.25327 13.992C4.15344 14.0555 4.0769 14.1497 4.03516 14.2604C3.99341 14.3712 3.98871 14.4924 4.02176 14.6061C4.05482 14.7197 4.12384 14.8195 4.21845 14.8906C4.31307 14.9616 4.42817 15 4.54647 15H15.4535C15.5718 15 15.6869 14.9616 15.7815 14.8906C15.8762 14.8195 15.9452 14.7197 15.9782 14.6061C16.0113 14.4924 16.0066 14.3712 15.9648 14.2604C15.9231 14.1497 15.8466 14.0555 15.7467 13.992L10 10.3333Z" stroke="white" stroke-linecap="round" stroke-linejoin="round"/>
</svg>
