<svg width="20" height="20" viewBox="0 0 20 20" fill="none" xmlns="http://www.w3.org/2000/svg">
<rect width="20" height="20" rx="4" fill="#1E9314"/>
<path fill-rule="evenodd" clip-rule="evenodd" d="M11.0753 6C11.1203 6.00077 11.1532 6.00651 11.1712 6.01378C11.2072 6.02833 11.2069 6.01991 11.2121 6.08334V6.08359C11.2442 6.46238 11.5669 6.75818 11.9901 7.01637C12.4133 7.27457 12.9637 7.4919 13.5425 7.63865C14.1212 7.78554 14.7272 7.86148 15.2632 7.8237C15.741 7.79001 16.1741 7.66775 16.4656 7.39235C16.5031 7.43842 16.5525 7.5164 16.6014 7.61658C16.7121 7.84349 16.8254 8.18322 16.9022 8.5639C17.0482 9.28749 17.0542 10.16 16.7571 10.7393H12.3093C12.3022 10.7394 12.2952 10.7401 12.2881 10.7411C12.2625 10.7374 12.2363 10.7391 12.2114 10.7462C12.2114 10.7462 10.3317 11.2622 8.15961 12.0524H8.15949C7.8994 12.1467 7.61901 12.1379 7.36389 12.1379C5.93379 12.1379 4.52882 12.173 3.61297 12.1565C3.29098 12.1499 3.01712 12.1493 2.8091 12.1333C2.60108 12.1173 2.46312 12.0768 2.42215 12.0468V12.0469H2.42202C2.21017 11.8925 2.0828 11.7188 2.02958 11.5353C1.97637 11.3519 1.99194 11.1511 2.10092 10.9212H2.10118C2.15338 10.81 2.18656 10.7814 2.257 10.7385C2.32745 10.6957 2.44588 10.6486 2.60655 10.5566L2.60642 10.5564H2.60693C3.25178 10.1841 4.60559 9.92049 5.38969 9.78533C5.39543 9.78431 5.40117 9.78303 5.40679 9.7815C5.691 9.70404 6.0703 9.56213 6.4284 9.37351C6.78624 9.18502 7.12406 8.95709 7.31688 8.66446C7.31688 8.66433 7.31701 8.66433 7.31714 8.66407C7.31714 8.66395 7.31726 8.66395 7.31726 8.66395C7.40966 8.5251 7.78397 8.0991 8.34038 7.58555C8.43763 7.49596 8.53908 7.40739 8.64309 7.32061L8.64322 7.32048L8.64437 7.32163L9.65066 8.34475C9.68448 8.37997 9.73106 8.40001 9.77981 8.40064C9.82869 8.40128 9.87565 8.3824 9.91049 8.34806C9.94533 8.31386 9.96499 8.26715 9.96512 8.2184C9.96537 8.16952 9.94597 8.12269 9.91152 8.08823L8.93064 7.09089C9.05405 6.99632 9.17938 6.90533 9.30508 6.81867L10.2654 7.79344C10.2994 7.82866 10.346 7.84883 10.3948 7.84946C10.4437 7.8501 10.4908 7.83109 10.5257 7.79676C10.5605 7.76255 10.5801 7.71572 10.5801 7.66684C10.5803 7.61796 10.5609 7.57099 10.5262 7.53666L9.61661 6.61358C9.68438 6.57109 9.75176 6.52999 9.81838 6.49094H9.81851C10.2426 6.24272 10.6414 6.07004 10.907 6.01797C10.9733 6.00495 11.0304 6.00061 11.0754 6.00138L11.0753 6Z" fill="white"/>
<path fill-rule="evenodd" clip-rule="evenodd" d="M12.4923 11H16.8362C16.8463 11.0015 16.8566 11.0022 16.8668 11.002V12.1141H12.4922L12.4923 11Z" fill="white"/>
</svg>
