<svg width="20" height="20" viewBox="0 0 20 20" fill="none" xmlns="http://www.w3.org/2000/svg">
<rect width="20" height="20" rx="4" fill="#00CB82"/>
<path d="M14.9021 6.262L10.497 3.72613C10.1441 3.53009 9.7127 3.53009 9.37289 3.72613L4.96779 6.262C4.61484 6.45804 4.40576 6.83717 4.40576 7.24236V12.3272C4.40576 12.7324 4.62797 13.0984 4.96779 13.3075L9.37289 15.8434C9.54285 15.948 9.73889 16.0002 9.93492 16.0002C10.131 16.0002 10.3271 15.948 10.4969 15.8434L14.9023 13.2945C15.2552 13.0984 15.4643 12.7193 15.4643 12.3141V7.24236C15.4643 6.83717 15.2421 6.45812 14.9023 6.262H14.9021ZM9.81732 4.49739C9.85653 4.47122 9.89573 4.47122 9.93494 4.47122C9.97415 4.47122 10.0134 4.48426 10.0526 4.49739L14.1178 6.85026L9.93492 9.25542L5.75204 6.85026L9.81732 4.49739ZM5.42529 12.5233C5.35992 12.4841 5.30767 12.4057 5.30767 12.3273V7.62152L9.49055 10.0398V14.8631L5.42529 12.5233ZM14.4446 12.5233L10.3794 14.8762V10.0397L14.5623 7.62148V12.3142C14.5623 12.4057 14.5231 12.4711 14.4447 12.5234L14.4446 12.5233Z" fill="white"/>
</svg>
