<svg width="20" height="20" viewBox="0 0 20 20" fill="none" xmlns="http://www.w3.org/2000/svg">
<rect width="20" height="20" rx="4" fill="#E0AF00"/>
<path d="M12.4661 7.84863V6.39046C12.4661 6.19921 12.3107 6.0558 12.1315 6.0558H11.8804L11.8805 4.33466C11.8805 4.14341 11.7251 4 11.5459 4H9.45423C9.26297 4 9.11956 4.1554 9.11956 4.33466V6.04378H8.86853C8.67727 6.04378 8.53386 6.19919 8.53386 6.37844V7.83661C7.02791 8.58962 6 10.1195 6 11.8884C6 13.1792 6.56175 14.4103 7.54179 15.2709C7.60157 15.3307 7.68519 15.3546 7.7689 15.3546H13.243C13.3267 15.3546 13.4103 15.3187 13.4701 15.2709C14.4502 14.4103 15 13.1792 15 11.8884C14.988 10.1194 13.9601 8.58966 12.4661 7.84863ZM9.78885 4.6813H11.1873V6.05576H9.78885V4.6813ZM9.20317 6.73699H11.7848V7.58564C11.3785 7.46608 10.9482 7.39438 10.494 7.39438C10.0398 7.39438 9.60952 7.46608 9.20317 7.58564V6.73699Z" fill="white"/>
<path d="M10.4948 9C10.3036 9 10.1602 9.1554 10.1602 9.33466C10.1602 9.52592 10.3156 9.66932 10.4948 9.66932C11.7617 9.66932 12.7896 10.6972 12.7896 11.9641C12.7896 12.1554 12.945 12.2988 13.1243 12.2988C13.3156 12.2988 13.459 12.1434 13.459 11.9641C13.459 10.3267 12.1323 9 10.4948 9Z" fill="#E0AF00"/>
<path d="M10.8051 5.31074C10.8051 5.4824 10.666 5.62147 10.4943 5.62147C10.3227 5.62147 10.1836 5.48241 10.1836 5.31074C10.1836 5.13907 10.3227 5 10.4943 5C10.666 5 10.8051 5.13906 10.8051 5.31074Z" fill="white"/>
</svg>
