<svg width="20" height="20" viewBox="0 0 20 20" fill="none" xmlns="http://www.w3.org/2000/svg">
<rect width="20" height="20" rx="4" fill="#9F217C"/>
<path d="M7.55051 10.9166C9.09026 10.4366 9.43782 10.4067 10.6016 8.99991C10.8375 8.71475 12.0465 6.9593 12.2896 6.65603C12.6904 6.15703 13.1045 5.64111 13.5482 5.12806C13.683 4.97254 13.917 4.95623 14.0708 5.09252C14.0744 5.0957 14.0768 5.09949 14.0801 5.10266C14.6296 5.43129 15 6.03405 15 6.72636C15 7.28233 14.9461 7.96764 14.5679 8.31333L14.1975 12.9914H13.6419V8.85029C12.6161 8.95007 11.4888 9.55191 10.5326 12.1841C10.5268 12.2005 10.3346 12.5908 10.3265 12.6062C10.2013 12.8425 10.1057 13 6.24865 13C5.9918 13 5 12.9916 5 12.6039C5.00205 12.5432 5.02277 12.4637 5.04016 12.4103C5.3434 11.2275 5.66288 11.505 7.55039 10.9167L7.55051 10.9166Z" fill="white"/>
</svg>
