<svg width="13" height="14" viewBox="0 0 13 14" fill="none" xmlns="http://www.w3.org/2000/svg">
<path d="M6.5 13.8916C7.38444 13.8916 8.21598 13.7223 8.99463 13.3838C9.77751 13.0452 10.4673 12.5776 11.064 11.981C11.6606 11.3843 12.1283 10.6966 12.4668 9.91797C12.8053 9.13509 12.9746 8.30143 12.9746 7.41699C12.9746 6.53255 12.8053 5.70101 12.4668 4.92236C12.1283 4.13949 11.6606 3.44971 11.064 2.85303C10.4673 2.25635 9.77751 1.78874 8.99463 1.4502C8.21175 1.11165 7.37809 0.942383 6.49365 0.942383C5.60921 0.942383 4.77555 1.11165 3.99268 1.4502C3.21403 1.78874 2.52637 2.25635 1.92969 2.85303C1.33724 3.44971 0.871745 4.13949 0.533203 4.92236C0.194661 5.70101 0.0253906 6.53255 0.0253906 7.41699C0.0253906 8.30143 0.194661 9.13509 0.533203 9.91797C0.871745 10.6966 1.33936 11.3843 1.93604 11.981C2.53271 12.5776 3.22038 13.0452 3.99902 13.3838C4.7819 13.7223 5.61556 13.8916 6.5 13.8916ZM6.5 12.8125C5.75098 12.8125 5.05062 12.6729 4.39893 12.3936C3.74723 12.1143 3.17383 11.7292 2.67871 11.2383C2.18783 10.7432 1.80273 10.1698 1.52344 9.51807C1.24837 8.86637 1.11084 8.16602 1.11084 7.41699C1.11084 6.66797 1.24837 5.96761 1.52344 5.31592C1.80273 4.66423 2.18783 4.09082 2.67871 3.5957C3.1696 3.10059 3.74089 2.71549 4.39258 2.44043C5.04427 2.16113 5.74463 2.02148 6.49365 2.02148C7.24268 2.02148 7.94303 2.16113 8.59473 2.44043C9.24642 2.71549 9.81982 3.10059 10.3149 3.5957C10.8101 4.09082 11.1973 4.66423 11.4766 5.31592C11.7559 5.96761 11.8955 6.66797 11.8955 7.41699C11.8955 8.16602 11.7559 8.86637 11.4766 9.51807C11.2015 10.1698 10.8164 10.7432 10.3213 11.2383C9.8304 11.7292 9.257 12.1143 8.60107 12.3936C7.94938 12.6729 7.24902 12.8125 6.5 12.8125ZM6.49365 11.0415C6.57829 11.0415 6.64811 11.014 6.70312 10.959C6.76237 10.904 6.79199 10.832 6.79199 10.7432V10.2988C7.28711 10.248 7.70182 10.0851 8.03613 9.81006C8.37467 9.53076 8.54395 9.15202 8.54395 8.67383C8.54395 8.24219 8.4043 7.89518 8.125 7.63281C7.8457 7.37044 7.43099 7.19059 6.88086 7.09326L6.79199 7.07422V5.30322C7.02051 5.34554 7.21094 5.43441 7.36328 5.56982C7.51986 5.70101 7.62988 5.8724 7.69336 6.08398C7.7653 6.29134 7.89437 6.39502 8.08057 6.39502C8.19059 6.39502 8.27946 6.36117 8.34717 6.29346C8.41911 6.22152 8.45508 6.13053 8.45508 6.02051C8.45508 5.98665 8.45085 5.95492 8.44238 5.92529C8.43815 5.89144 8.4318 5.85758 8.42334 5.82373C8.3387 5.48096 8.14616 5.19954 7.8457 4.97949C7.54948 4.75521 7.19824 4.61979 6.79199 4.57324V4.13525C6.79199 4.04639 6.76237 3.97445 6.70312 3.91943C6.64811 3.86442 6.57829 3.83691 6.49365 3.83691C6.29476 3.83691 6.19531 3.93636 6.19531 4.13525V4.57324C5.71289 4.62826 5.31722 4.79753 5.0083 5.08105C4.69938 5.36035 4.54492 5.71582 4.54492 6.14746C4.54492 6.54948 4.68034 6.87533 4.95117 7.125C5.22201 7.37467 5.62191 7.56087 6.15088 7.68359L6.19531 7.69629V9.5752C5.90755 9.53288 5.67904 9.43766 5.50977 9.28955C5.34473 9.14144 5.23682 8.96159 5.18604 8.75C5.14795 8.64421 5.09505 8.56592 5.02734 8.51514C4.96387 8.46012 4.88558 8.43262 4.79248 8.43262C4.68669 8.43262 4.59782 8.46859 4.52588 8.54053C4.45817 8.60824 4.42432 8.6971 4.42432 8.80713C4.42432 8.84098 4.42643 8.87484 4.43066 8.90869C4.43913 8.93831 4.44759 8.97005 4.45605 9.00391C4.54492 9.37207 4.75016 9.66829 5.07178 9.89258C5.39339 10.1126 5.7679 10.2438 6.19531 10.2861V10.7432C6.19531 10.832 6.22282 10.904 6.27783 10.959C6.33708 11.014 6.40902 11.0415 6.49365 11.0415ZM6.19531 6.91553L6.15088 6.90283C5.86735 6.8182 5.65788 6.7124 5.52246 6.58545C5.39128 6.45426 5.32568 6.29557 5.32568 6.10938C5.32568 5.91471 5.40186 5.74333 5.5542 5.59521C5.71077 5.4471 5.92448 5.34977 6.19531 5.30322V6.91553ZM6.79199 7.84863L6.93164 7.88037C7.23633 7.96501 7.45003 8.07503 7.57275 8.21045C7.69548 8.34587 7.75684 8.51514 7.75684 8.71826C7.75684 8.94255 7.67643 9.13298 7.51562 9.28955C7.35905 9.44189 7.11784 9.53711 6.79199 9.5752V7.84863Z" fill="white"/>
</svg>
