<svg width="13" height="14" viewBox="0 0 13 14" fill="none" xmlns="http://www.w3.org/2000/svg">
<path d="M6.5 13.8916C7.38444 13.8916 8.21598 13.7223 8.99463 13.3838C9.77751 13.0452 10.4673 12.5776 11.064 11.981C11.6606 11.3843 12.1283 10.6966 12.4668 9.91797C12.8053 9.13509 12.9746 8.30143 12.9746 7.41699C12.9746 6.53255 12.8053 5.70101 12.4668 4.92236C12.1283 4.13949 11.6606 3.44971 11.064 2.85303C10.4673 2.25635 9.77751 1.78874 8.99463 1.4502C8.21175 1.11165 7.37809 0.942383 6.49365 0.942383C5.60921 0.942383 4.77555 1.11165 3.99268 1.4502C3.21403 1.78874 2.52637 2.25635 1.92969 2.85303C1.33724 3.44971 0.871745 4.13949 0.533203 4.92236C0.194661 5.70101 0.0253906 6.53255 0.0253906 7.41699C0.0253906 8.30143 0.194661 9.13509 0.533203 9.91797C0.871745 10.6966 1.33936 11.3843 1.93604 11.981C2.53271 12.5776 3.22038 13.0452 3.99902 13.3838C4.7819 13.7223 5.61556 13.8916 6.5 13.8916ZM6.5 12.8125C5.75098 12.8125 5.05062 12.6729 4.39893 12.3936C3.74723 12.1143 3.17383 11.7292 2.67871 11.2383C2.18783 10.7432 1.80273 10.1698 1.52344 9.51807C1.24837 8.86637 1.11084 8.16602 1.11084 7.41699C1.11084 6.66797 1.24837 5.96761 1.52344 5.31592C1.80273 4.66423 2.18783 4.09082 2.67871 3.5957C3.1696 3.10059 3.74089 2.71549 4.39258 2.44043C5.04427 2.16113 5.74463 2.02148 6.49365 2.02148C7.24268 2.02148 7.94303 2.16113 8.59473 2.44043C9.24642 2.71549 9.81982 3.10059 10.3149 3.5957C10.8101 4.09082 11.1973 4.66423 11.4766 5.31592C11.7559 5.96761 11.8955 6.66797 11.8955 7.41699C11.8955 8.16602 11.7559 8.86637 11.4766 9.51807C11.2015 10.1698 10.8164 10.7432 10.3213 11.2383C9.8304 11.7292 9.257 12.1143 8.60107 12.3936C7.94938 12.6729 7.24902 12.8125 6.5 12.8125ZM7.37598 10.4766C7.52832 10.4766 7.66162 10.4681 7.77588 10.4512C7.89437 10.4342 7.9917 10.4089 8.06787 10.375C8.24561 10.3031 8.33447 10.1846 8.33447 10.0195C8.33447 9.90951 8.2985 9.82487 8.22656 9.76562C8.15885 9.70215 8.06999 9.67041 7.95996 9.67041C7.88802 9.67041 7.80339 9.67676 7.70605 9.68945C7.61296 9.70215 7.50081 9.7085 7.36963 9.7085C6.90413 9.7085 6.49365 9.59212 6.13818 9.35938C5.78271 9.12663 5.53516 8.77751 5.39551 8.31201H7.36963C7.4585 8.31201 7.53044 8.28239 7.58545 8.22314C7.64469 8.15967 7.67432 8.0835 7.67432 7.99463C7.67432 7.90153 7.64469 7.82747 7.58545 7.77246C7.53044 7.71322 7.4585 7.68359 7.36963 7.68359H5.2749C5.27067 7.64128 5.26644 7.59896 5.26221 7.55664C5.26221 7.51009 5.26221 7.46566 5.26221 7.42334C5.26221 7.37256 5.26221 7.32601 5.26221 7.28369C5.26644 7.23714 5.27067 7.19059 5.2749 7.14404H7.36963C7.4585 7.14404 7.53044 7.11442 7.58545 7.05518C7.64469 6.9917 7.67432 6.91764 7.67432 6.83301C7.67432 6.73991 7.64469 6.66374 7.58545 6.60449C7.53044 6.54525 7.4585 6.51562 7.36963 6.51562H5.40186C5.54574 6.05859 5.79329 5.71582 6.14453 5.4873C6.5 5.25456 6.90837 5.13818 7.36963 5.13818C7.50081 5.13818 7.61507 5.14453 7.7124 5.15723C7.80973 5.16992 7.89225 5.17627 7.95996 5.17627C8.06999 5.17627 8.15885 5.14665 8.22656 5.0874C8.2985 5.02393 8.33447 4.93717 8.33447 4.82715C8.33447 4.74674 8.31543 4.6748 8.27734 4.61133C8.23926 4.54785 8.1652 4.49495 8.05518 4.45264C7.979 4.42301 7.8859 4.40186 7.77588 4.38916C7.66585 4.37223 7.53255 4.36377 7.37598 4.36377C6.93164 4.36377 6.51481 4.44417 6.12549 4.60498C5.73617 4.76579 5.39974 5.00488 5.11621 5.32227C4.83691 5.63965 4.64014 6.03743 4.52588 6.51562H3.80859C3.72396 6.51562 3.65202 6.54525 3.59277 6.60449C3.53353 6.66374 3.50391 6.73991 3.50391 6.83301C3.50391 6.91764 3.53353 6.9917 3.59277 7.05518C3.65202 7.11442 3.72396 7.14404 3.80859 7.14404H4.43701C4.43278 7.19059 4.43066 7.23503 4.43066 7.27734C4.43066 7.31966 4.43066 7.36621 4.43066 7.41699C4.43066 7.47201 4.43066 7.52279 4.43066 7.56934C4.4349 7.61589 4.43701 7.65397 4.43701 7.68359H3.80859C3.72396 7.68359 3.65202 7.71322 3.59277 7.77246C3.53353 7.82747 3.50391 7.90153 3.50391 7.99463C3.50391 8.0835 3.53353 8.15967 3.59277 8.22314C3.65202 8.28239 3.72396 8.31201 3.80859 8.31201H4.52588C4.69515 9.03564 5.04427 9.57731 5.57324 9.93701C6.10221 10.2967 6.70312 10.4766 7.37598 10.4766Z" fill="black"/>
</svg>
