<svg width="13" height="14" viewBox="0 0 13 14" fill="none" xmlns="http://www.w3.org/2000/svg">
<path d="M6.5 13.8916C7.38444 13.8916 8.21598 13.7223 8.99463 13.3838C9.77751 13.0452 10.4673 12.5776 11.064 11.981C11.6606 11.3843 12.1283 10.6966 12.4668 9.91797C12.8053 9.13509 12.9746 8.30143 12.9746 7.41699C12.9746 6.53255 12.8053 5.70101 12.4668 4.92236C12.1283 4.13949 11.6606 3.44971 11.064 2.85303C10.4673 2.25635 9.77751 1.78874 8.99463 1.4502C8.21175 1.11165 7.37809 0.942383 6.49365 0.942383C5.60921 0.942383 4.77555 1.11165 3.99268 1.4502C3.21403 1.78874 2.52637 2.25635 1.92969 2.85303C1.33724 3.44971 0.871745 4.13949 0.533203 4.92236C0.194661 5.70101 0.0253906 6.53255 0.0253906 7.41699C0.0253906 8.30143 0.194661 9.13509 0.533203 9.91797C0.871745 10.6966 1.33936 11.3843 1.93604 11.981C2.53271 12.5776 3.22038 13.0452 3.99902 13.3838C4.7819 13.7223 5.61556 13.8916 6.5 13.8916ZM6.5 12.8125C5.75098 12.8125 5.05062 12.6729 4.39893 12.3936C3.74723 12.1143 3.17383 11.7292 2.67871 11.2383C2.18783 10.7432 1.80273 10.1698 1.52344 9.51807C1.24837 8.86637 1.11084 8.16602 1.11084 7.41699C1.11084 6.66797 1.24837 5.96761 1.52344 5.31592C1.80273 4.66423 2.18783 4.09082 2.67871 3.5957C3.1696 3.10059 3.74089 2.71549 4.39258 2.44043C5.04427 2.16113 5.74463 2.02148 6.49365 2.02148C7.24268 2.02148 7.94303 2.16113 8.59473 2.44043C9.24642 2.71549 9.81982 3.10059 10.3149 3.5957C10.8101 4.09082 11.1973 4.66423 11.4766 5.31592C11.7559 5.96761 11.8955 6.66797 11.8955 7.41699C11.8955 8.16602 11.7559 8.86637 11.4766 9.51807C11.2015 10.1698 10.8164 10.7432 10.3213 11.2383C9.8304 11.7292 9.257 12.1143 8.60107 12.3936C7.94938 12.6729 7.24902 12.8125 6.5 12.8125ZM6.5 10.6289C6.61426 10.6289 6.70947 10.5908 6.78564 10.5146C6.86182 10.4385 6.8999 10.3369 6.8999 10.21V9.28955H8.07422C8.16732 9.28955 8.24137 9.25993 8.29639 9.20068C8.35563 9.13721 8.38525 9.06104 8.38525 8.97217C8.38525 8.8833 8.35563 8.80924 8.29639 8.75C8.24137 8.69076 8.16732 8.66113 8.07422 8.66113H6.8999V8.17236H8.07422C8.16732 8.17236 8.24137 8.14274 8.29639 8.0835C8.35563 8.02425 8.38525 7.9502 8.38525 7.86133C8.38525 7.76823 8.35563 7.69206 8.29639 7.63281C8.24137 7.57357 8.16732 7.54395 8.07422 7.54395H7.19189L8.73438 5.06201C8.78516 4.97738 8.81055 4.89062 8.81055 4.80176C8.81055 4.7002 8.77246 4.61344 8.69629 4.5415C8.62012 4.46533 8.5249 4.42725 8.41064 4.42725C8.33447 4.42725 8.26676 4.44417 8.20752 4.47803C8.14827 4.50765 8.09749 4.56055 8.05518 4.63672L6.5 7.24561L4.94482 4.63037C4.89827 4.5542 4.84538 4.5013 4.78613 4.47168C4.73112 4.43783 4.66553 4.4209 4.58936 4.4209C4.47087 4.4209 4.37354 4.45687 4.29736 4.52881C4.22119 4.60075 4.18311 4.68962 4.18311 4.79541C4.18311 4.84196 4.18945 4.88639 4.20215 4.92871C4.21484 4.97103 4.23389 5.01335 4.25928 5.05566L5.80811 7.54395H4.93848C4.84538 7.54395 4.77132 7.57357 4.71631 7.63281C4.6613 7.69206 4.63379 7.76823 4.63379 7.86133C4.63379 7.9502 4.6613 8.02425 4.71631 8.0835C4.77555 8.14274 4.84961 8.17236 4.93848 8.17236H6.1001V8.66113H4.93848C4.84538 8.66113 4.77132 8.69076 4.71631 8.75C4.6613 8.80924 4.63379 8.8833 4.63379 8.97217C4.63379 9.06104 4.6613 9.13721 4.71631 9.20068C4.77555 9.25993 4.84961 9.28955 4.93848 9.28955H6.1001V10.2036C6.1001 10.3306 6.13607 10.4342 6.20801 10.5146C6.28418 10.5908 6.38151 10.6289 6.5 10.6289Z" fill="black"/>
</svg>
