<svg width="20" height="20" viewBox="0 0 20 20" fill="none" xmlns="http://www.w3.org/2000/svg">
<g clip-path="url(#clip0_7109_1378)">
<path d="M2.50001 17.5C1.94418 16.9442 5.21835 12.3034 12.3208 3.57588C12.574 3.26498 12.8885 3.00961 13.2448 2.82572C13.6011 2.64184 13.9914 2.53338 14.3915 2.50712C14.7916 2.48086 15.1928 2.53736 15.57 2.6731C15.9473 2.80884 16.2925 3.02091 16.5841 3.29605C16.8757 3.57119 17.1075 3.9035 17.2649 4.27222C17.4224 4.64095 17.5021 5.03818 17.4991 5.4391C17.4962 5.84002 17.4106 6.23602 17.2477 6.60238C17.0848 6.96874 16.8482 7.29758 16.5525 7.56838C7.74001 14.745 3.05585 18.0559 2.50001 17.5Z" stroke="black" stroke-linecap="round" stroke-linejoin="round"/>
<path d="M14.5833 5.41663L13.75 6.24996" stroke="black" stroke-linecap="round" stroke-linejoin="round"/>
<path d="M14.1667 5.83333C12.2225 3.61083 11.25 2.5 10 2.5C8.75001 2.5 8.33334 3.33333 8.33334 4.16667C8.33334 7.5 15.1342 11.1717 13.3333 13.3333C12.4533 14.39 10.5308 14.4042 8.54168 14.0067" stroke="black" stroke-linecap="round" stroke-linejoin="round"/>
<path d="M4.78249 12.8542C3.62166 12.3833 1.66666 11.25 1.66666 10" stroke="black" stroke-linecap="round" stroke-linejoin="round"/>
<path d="M16.25 7.91663L17.5 9.16663" stroke="black" stroke-linecap="round" stroke-linejoin="round"/>
</g>
<defs>
<clipPath id="clip0_7109_1378">
<rect width="20" height="20" fill="white"/>
</clipPath>
</defs>
</svg>
