<svg width="21" height="20" viewBox="0 0 21 20" fill="none" xmlns="http://www.w3.org/2000/svg">
<g clip-path="url(#clip0_7153_577)">
<path d="M3.8335 15.8334C3.8335 16.2754 4.00909 16.6994 4.32165 17.0119C4.63421 17.3245 5.05814 17.5001 5.50016 17.5001C5.94219 17.5001 6.36611 17.3245 6.67867 17.0119C6.99124 16.6994 7.16683 16.2754 7.16683 15.8334C7.16683 15.3914 6.99124 14.9675 6.67867 14.6549C6.36611 14.3423 5.94219 14.1667 5.50016 14.1667C5.05814 14.1667 4.63421 14.3423 4.32165 14.6549C4.00909 14.9675 3.8335 15.3914 3.8335 15.8334Z" stroke="black" stroke-linecap="round" stroke-linejoin="round"/>
<path d="M13 15.8334C13 16.2754 13.1756 16.6994 13.4882 17.0119C13.8007 17.3245 14.2246 17.5001 14.6667 17.5001C15.1087 17.5001 15.5326 17.3245 15.8452 17.0119C16.1577 16.6994 16.3333 16.2754 16.3333 15.8334C16.3333 15.3914 16.1577 14.9675 15.8452 14.6549C15.5326 14.3423 15.1087 14.1667 14.6667 14.1667C14.2246 14.1667 13.8007 14.3423 13.4882 14.6549C13.1756 14.9675 13 15.3914 13 15.8334Z" stroke="black" stroke-linecap="round" stroke-linejoin="round"/>
<path d="M14.6668 14.1667H5.50016V2.5H3.8335" stroke="black" stroke-linecap="round" stroke-linejoin="round"/>
<path d="M5.5 4.16675L17.1667 5.00008L16.3333 10.8334H5.5" stroke="black" stroke-linecap="round" stroke-linejoin="round"/>
</g>
<defs>
<clipPath id="clip0_7153_577">
<rect width="20" height="20" fill="white" transform="translate(0.5)"/>
</clipPath>
</defs>
</svg>
