<svg width="21" height="20" viewBox="0 0 21 20" fill="none" xmlns="http://www.w3.org/2000/svg">
<g clip-path="url(#clip0_7153_590)">
<path d="M5.77575 6.66675H15.2249C15.4652 6.66672 15.7027 6.71866 15.9211 6.819C16.1394 6.91934 16.3335 7.06571 16.49 7.24808C16.6465 7.43045 16.7617 7.64451 16.8277 7.87557C16.8937 8.10663 16.9089 8.34923 16.8724 8.58675L15.8266 15.3801C15.7358 15.9705 15.4366 16.5088 14.9832 16.8977C14.5299 17.2866 13.9522 17.5003 13.3549 17.5001H7.64492C7.04775 17.5001 6.47032 17.2863 6.01711 16.8974C5.5639 16.5086 5.26486 15.9703 5.17409 15.3801L4.12825 8.58675C4.09173 8.34923 4.10699 8.10663 4.17301 7.87557C4.23902 7.64451 4.35422 7.43045 4.51071 7.24808C4.66719 7.06571 4.86127 6.91934 5.07962 6.819C5.29798 6.71866 5.53545 6.66672 5.77575 6.66675Z" stroke="black" stroke-linecap="round" stroke-linejoin="round"/>
<path d="M8 9.16667V5C8 4.33696 8.26339 3.70107 8.73223 3.23223C9.20107 2.76339 9.83696 2.5 10.5 2.5C11.163 2.5 11.7989 2.76339 12.2678 3.23223C12.7366 3.70107 13 4.33696 13 5V9.16667" stroke="black" stroke-linecap="round" stroke-linejoin="round"/>
</g>
<defs>
<clipPath id="clip0_7153_590">
<rect width="20" height="20" fill="white" transform="translate(0.5)"/>
</clipPath>
</defs>
</svg>
