<svg width="35" height="36" viewBox="0 0 35 36" fill="none" xmlns="http://www.w3.org/2000/svg">
<rect y="0.5" width="35" height="35" rx="4" fill="#63C8BE"/>
<g clip-path="url(#clip0_7069_4011)">
<path d="M16.6665 10.5H24.9998V17.1667H22.4998L19.1665 18.8333V17.1667H16.6665V10.5Z" stroke="white" stroke-linecap="round" stroke-linejoin="round"/>
<path d="M19.9998 21.3334V24.6667C19.9998 24.8878 19.912 25.0997 19.7558 25.256C19.5995 25.4123 19.3875 25.5001 19.1665 25.5001H12.4998C12.2788 25.5001 12.0669 25.4123 11.9106 25.256C11.7543 25.0997 11.6665 24.8878 11.6665 24.6667V13.0001C11.6665 12.7791 11.7543 12.5671 11.9106 12.4108C12.0669 12.2545 12.2788 12.1667 12.4998 12.1667H14.1665" stroke="white" stroke-linecap="round" stroke-linejoin="round"/>
<path d="M15.8335 23V23.0092" stroke="white" stroke-linecap="round" stroke-linejoin="round"/>
</g>
<defs>
<clipPath id="clip0_7069_4011">
<rect width="20" height="20" fill="white" transform="translate(7.5 8)"/>
</clipPath>
</defs>
</svg>
