<svg width="35" height="36" viewBox="0 0 35 36" fill="none" xmlns="http://www.w3.org/2000/svg">
<rect y="0.5" width="35" height="35" rx="4" fill="#63C8BE"/>
<path d="M13.8761 12.2247H18.5952C18.7628 12.2247 18.8936 12.2744 18.9878 12.3739C19.0873 12.4734 19.137 12.6121 19.137 12.7901V14.0386C19.137 14.2061 19.0873 14.3422 18.9878 14.4469C18.8936 14.5516 18.7628 14.6039 18.5952 14.6039H13.8761C13.7033 14.6039 13.5672 14.5516 13.4678 14.4469C13.3735 14.3422 13.3264 14.2061 13.3264 14.0386V12.7901C13.3264 12.6121 13.3735 12.4734 13.4678 12.3739C13.5672 12.2744 13.7033 12.2247 13.8761 12.2247ZM13.8761 15.2714H21.1393C21.3069 15.2714 21.4377 15.3237 21.532 15.4284C21.6314 15.5279 21.6812 15.664 21.6812 15.8367V17.0852C21.6812 17.258 21.6314 17.3967 21.532 17.5014C21.4377 17.6008 21.3069 17.6506 21.1393 17.6506H13.8761C13.7033 17.6506 13.5672 17.6008 13.4678 17.5014C13.3735 17.3967 13.3264 17.258 13.3264 17.0852V15.8367C13.3264 15.664 13.3735 15.5279 13.4678 15.4284C13.5672 15.3237 13.7033 15.2714 13.8761 15.2714ZM13.8761 18.3337H19.828C19.9955 18.3337 20.1264 18.3834 20.2206 18.4829C20.3201 18.5771 20.3698 18.7106 20.3698 18.8834V20.1397C20.3698 20.3125 20.3201 20.4486 20.2206 20.548C20.1264 20.6475 19.9955 20.6972 19.828 20.6972H13.8761C13.7033 20.6972 13.5672 20.6475 13.4678 20.548C13.3735 20.4486 13.3264 20.3125 13.3264 20.1397V18.8834C13.3264 18.7106 13.3735 18.5771 13.4678 18.4829C13.5672 18.3834 13.7033 18.3337 13.8761 18.3337ZM13.8761 21.3804H17.3939C17.5614 21.3804 17.6949 21.4327 17.7943 21.5374C17.8938 21.6369 17.9435 21.773 17.9435 21.9457V23.1942C17.9435 23.367 17.8938 23.5057 17.7943 23.6104C17.6949 23.7099 17.5614 23.7596 17.3939 23.7596H13.8761C13.7033 23.7596 13.5672 23.7099 13.4678 23.6104C13.3735 23.5057 13.3264 23.367 13.3264 23.1942V21.9457C13.3264 21.773 13.3735 21.6369 13.4678 21.5374C13.5672 21.4327 13.7033 21.3804 13.8761 21.3804ZM10.7666 23.9245C10.7666 24.7725 10.9812 25.4138 11.4105 25.8483C11.8397 26.2828 12.4758 26.5 13.3186 26.5H21.6812C22.524 26.5 23.16 26.2828 23.5892 25.8483C24.0185 25.4138 24.2331 24.7725 24.2331 23.9245V12.0755C24.2331 11.2327 24.0185 10.5941 23.5892 10.1596C23.16 9.71986 22.524 9.5 21.6812 9.5H13.3186C12.4758 9.5 11.8397 9.71986 11.4105 10.1596C10.9812 10.5941 10.7666 11.2327 10.7666 12.0755V23.9245Z" fill="white"/>
</svg>
