<svg xmlns="http://www.w3.org/2000/svg" xmlns:xlink="http://www.w3.org/1999/xlink" width="80" height="80" viewBox="0 0 80 80">
    <defs>
        <path id="a" d="M9.999 20.5c0 6.575 3.097 12.428 7.911 16.18C8.154 39.538 1.313 45.749 1.01 53H.999v8A3 3 0 1 0 7 61v-8h.021C7.534 46.972 17.239 41 30 41s22.466 5.972 22.978 12H53v8a3 3 0 0 0 6 0v-8h-.01c-.295-7.072-6.81-13.156-16.184-16.103C47.782 33.157 51 27.204 51 20.5 51 9.178 41.822 0 30.5 0 19.179 0 9.999 9.178 9.999 20.5zm6.001 0C16 12.492 22.492 6 30.5 6 38.509 6 45 12.492 45 20.5S38.509 35 30.5 35C22.492 35 16 28.508 16 20.5z"/>
    </defs>
    <use fill="#19110B" fill-rule="evenodd" transform="translate(11 8)" xlink:href="#a"/>
</svg>
