<svg xmlns="http://www.w3.org/2000/svg" width="16" height="16" viewBox="0 0 16 16">
    <path fill="#19110B" fill-rule="evenodd" d="M2.563 0A2.562 2.562 0 0 0 0 2.564v10.873A2.563 2.563 0 0 0 2.563 16h10.874A2.563 2.563 0 0 0 16 13.437v-.111c-.048-.02-4.158-1.735-6.248-2.74-1.41 1.735-3.227 2.788-5.115 2.788-3.192 0-4.276-2.794-2.764-4.633.33-.401.89-.784 1.76-.998 1.36-.335 3.527.208 5.557.878.365-.672.673-1.413.901-2.202H3.835v-.634h3.226V4.65H3.154v-.634H7.06v-1.62s0-.274.277-.274h1.577v1.894h3.863v.634H8.915v1.136h3.153a12.898 12.898 0 0 1-1.335 3.373c.957.346 1.816.674 2.456.889 2.135.714 2.734.802 2.811.81V2.565A2.562 2.562 0 0 0 13.438 0H2.563zm1.87 8.597a4.819 4.819 0 0 0-.413.023c-.398.04-1.147.213-1.556.57-1.226 1.057-.492 2.99 1.99 2.99 1.443 0 2.884-.912 4.017-2.372-1.46-.703-2.718-1.226-4.039-1.21z"/>
</svg>
