<svg xmlns="http://www.w3.org/2000/svg" xmlns:xlink="http://www.w3.org/1999/xlink" width="80" height="80" viewBox="0 0 80 80">
    <defs>
        <radialGradient id="b" cx="0%" cy="0%" r="183.965%" fx="0%" fy="0%" gradientTransform="matrix(.54358 .54358 -.56555 1.34844 0 0)">
            <stop offset="0%" stop-color="#FFF"/>
            <stop offset="100%" stop-color="#F3F3F3"/>
        </radialGradient>
        <rect id="a" width="80" height="51.81" rx="2"/>
        <radialGradient id="e" cx="21.026%" cy="16.539%" r="88.134%" fx="21.026%" fy="16.539%" gradientTransform="matrix(.43623 .76117 -.55932 .70853 .211 -.112)">
            <stop offset="0%" stop-color="#65BCF2"/>
            <stop offset="100%" stop-color="#004FC5"/>
        </radialGradient>
        <path id="d" d="M0 0v53.81h80V0H0z"/>
    </defs>
    <g fill="none" fill-rule="evenodd" transform="translate(0 14)">
        <mask id="c" fill="#fff">
            <use xlink:href="#a"/>
        </mask>
        <use fill="url(#b)" xlink:href="#a"/>
        <g mask="url(#c)">
            <g transform="translate(0 -1.84)">
                <mask id="f" fill="#fff">
                    <use xlink:href="#d"/>
                </mask>
                <use fill="url(#e)" xlink:href="#d"/>
                <g mask="url(#f)">
                    <path fill="#FFF" d="M18.744 25.436h1.132l.322-.741.003.741h18.421v-3.401h.62l.21.002c.002.089 0 .177 0 .248l-.002.196.021 2.955h9.3v-1.01c1.248.828 2.783 1.01 3.691 1.01h3.752l.821-2.09h2.232l.856 2.09H67.5l-.002-2.42 1.435 2.42h5.838V12.513h-5.73v1.92l-1.136-1.92H61.83v1.97l-.825-1.97h-8.381c-1.61 0-2.873.347-3.852 1.028v-1.028h-5.725v.589c-1.03-.524-2.11-.589-3.306-.589H19.377l-1.554 3.742-1.69-3.742h-6.45v2.005l-.843-2.005H3.275l-5.418 12.923h6.19l.85-2.09H7.14l.84 2.09h7.378v-.746l.326.746h3.06zm30.028-9.343a3.91 3.91 0 0 1 .516-.707c.712-.75 1.822-1.096 3.336-1.096h2.123v2.007H52.67c-.8 0-1.26.124-1.698.557-.368.398-.627 1.142-.627 2.125 0 1.006.19 1.725.607 2.2.331.367.948.482 1.527.482h.988l3.095-7.371h3.292l3.717 8.864V14.29h3.351l3.86 6.525V14.29h2.248v9.372h-3.114l-4.163-7.028.004 7.028h-4.475l-.855-2.092h-4.57l-.822 2.092h-2.574c-1.07 0-2.423-.244-3.183-1.032-.78-.804-1.176-1.874-1.176-3.584 0-1.084.159-2.087.669-2.953zm-3.983 3.588V14.29h2.24v9.372h-2.24v-3.981zM34.687 14.29h5.054c1.117 0 1.95.035 2.66.453.696.415 1.112 1.028 1.112 2.078 0 .653-.205 1.15-.466 1.543-.331.5-.762.822-1.08.953.479.186.888.51 1.08.79.311.458.37.884.37 1.71v1.845H41.2l-.008-1.181c0-.558.056-1.372-.353-1.819-.32-.333-.804-.404-1.596-.404H36.88v3.404h-2.193V14.29zm-8.862 0h7.338v1.958h-5.139v1.683h5.013v1.925l-5.013-.006v1.871h5.14v1.941h-7.339V14.29zm-12.21 2.025v7.347H9.15l-.84-2.092H3.731l-.847 2.092H.496l3.928-9.372h3.269l3.732 8.877V14.29h3.593l2.87 6.361 2.643-6.361h3.659v9.372h-2.25l-.013-7.332-3.183 7.332h-1.927l-3.201-7.347z"/>
                    <path fill="#FFF" d="M4.267 19.327h3.03l-1.52-3.524-1.51 3.524M40.861 17.737c.29-.145.464-.437.464-.809 0-.357-.178-.619-.466-.745-.27-.133-.678-.145-1.075-.145h-2.77v1.871h2.734c.442 0 .808-.014 1.113-.172M58.096 15.803l-1.505 3.524h3.03l-1.525-3.524M34.333 38.712v-7.637L31.07 34.83l3.263 3.883M39.134 31.898h-2.936v2.584h2.913c.863 0 1.398-.458 1.398-1.338 0-.892-.561-1.246-1.375-1.246M20.232 31.898v1.64h4.762v1.844h-4.762v1.802h5.331l2.477-2.653-2.373-2.633h-5.435"/>
                    <path fill="#FFF" d="M80.027 33.918h.247v-5.545h-6.123c-1.028 0-1.862.242-2.554.617v-.617h-6.121c-.971 0-1.772.216-2.442.553v-.553H52.26v.57c-1.053-.505-2.092-.57-3.235-.57h-6.782v.608c-.746-.37-1.715-.608-2.981-.608h-7.745l-2.004 2.209-1.936-2.209H16.27v12.923h11.155l.516-.57 1.5-1.663 1.941 2.233h6.759v-3.143h.995c1.336 0 2.333-.255 3.107-.641v3.784h5.664v-3.425h.607c.086 0 .16.003.223.005.002.102 0 .206 0 .284v3.136h18.13c1.042 0 1.928-.202 2.679-.548v.548h6c3.236 0 5.168-1.771 5.168-4.737 0-1.067-.22-1.924-.687-2.64zm-38.356 1.909c-.065.038-.139.069-.208.102a3.472 3.472 0 0 1-.484.2c-.084.024-.167.049-.254.07-.177.045-.36.079-.546.103-.08.011-.156.027-.238.036-.265.024-.534.04-.805.04h-2.73v3.143h-4.245l-2.695-3.1-2.8 3.1h-8.662v-9.372h8.8l2.688 3.068 2.782-3.068h6.988c.245 0 .496.013.746.038.073.006.143.02.217.03.18.025.357.059.53.1a3.253 3.253 0 0 1 .73.27c.062.03.125.055.181.09.213.125.408.269.577.453.432.466.703 1.141.703 2.109 0 1.347-.516 2.135-1.275 2.588zm10.628.127c.31.459.36.885.365 1.713v1.854h-2.192v-1.175c0-.563.05-1.394-.356-1.829-.319-.344-.807-.421-1.602-.421h-2.342v3.425H43.98v-9.372h5.045c1.11 0 1.92.047 2.635.448.236.145.43.322.6.522.32.377.519.86.519 1.558 0 1.49-.972 2.253-1.55 2.486.236.09.444.211.622.344.195.145.353.302.448.447zm9-5.465v1.602h-5.123v1.698h4.996V35.7h-4.996v1.867l5.124.01v1.944h-7.305v-9.372H61.3v.34zm8.247 8.121c-.12.125-.258.23-.408.327-.21.14-.438.264-.7.353-.107.033-.226.055-.34.082a5.138 5.138 0 0 1-1.23.149h-4.265V37.51h4.248c.42 0 .709-.056.893-.234a.815.815 0 0 0 .26-.608.785.785 0 0 0-.271-.619c-.167-.149-.395-.209-.776-.213-.336-.011-.688-.022-1.039-.036l-.126-.006c-.752-.038-1.49-.138-2.094-.424h-.002a2.272 2.272 0 0 1-.79-.608c-.338-.418-.557-.99-.557-1.827s.321-1.703 1.106-2.242c.002-.002.002-.005.004-.005.148-.1.313-.184.49-.26.02-.008.037-.02.057-.028.167-.067.358-.113.553-.156.04-.006.076-.022.117-.03.245-.043.51-.065.8-.065h4.386v1.993h-4.011c-.401 0-.66.018-.88.169-.237.153-.326.382-.326.68 0 .348.204.59.477.694.23.082.475.104.848.109l1.182.03c.277.007.531.027.765.056.215.027.406.067.588.111.013.003.028.005.041.01.462.117.833.299 1.1.574.433.457.656 1.028.656 1.984 0 .908-.281 1.568-.756 2.051zm6 .91H71.28v-2.01h4.248c.42 0 .707-.056.893-.234a.813.813 0 0 0 .258-.608c0-.273-.113-.495-.269-.619-.167-.149-.394-.209-.776-.213-.316-.011-.646-.02-.976-.033-.028 0-.056-.003-.084-.005a10.99 10.99 0 0 1-.989-.089l-.015-.002c-1.381-.195-2.543-.779-2.543-2.772 0-.606.18-1.223.57-1.725.115-.146.25-.282.403-.406.013-.009.024-.02.035-.029.14-.109.299-.202.475-.284.034-.018.065-.038.1-.053.164-.071.348-.125.544-.17.056-.012.104-.032.162-.043.254-.047.531-.076.835-.076h4.389v1.993h-4.012c-.4 0-.659.018-.88.169-.236.153-.325.382-.325.68 0 .348.201.59.477.694.23.082.475.104.848.109l1.181.03c1.19.034 2 .243 2.494.751.431.457.657 1.028.657 1.984 0 2.02-1.232 2.962-3.435 2.962z"/>
                    <path fill="#FFF" d="M50.182 32.046c-.266-.142-.672-.148-1.072-.148h-2.774v1.891h2.739c.435 0 .81-.016 1.107-.172a.894.894 0 0 0 .466-.81c0-.362-.174-.622-.466-.761"/>
                    <path fill="#2584BA" d="M42.024 18.892c.29-.118.682-.408.983-.857-.301.45-.693.739-.983.857M68.556 38.947c-.095.032-.208.048-.311.074.105-.024.214-.044.311-.074M66.863 35.572c-.307-.01-.628-.018-.949-.032.321.012.642.022.95.032M65.847 35.569c-.686-.038-1.365-.122-1.914-.382.553.258 1.226.348 1.914.382M75.896 35.57c-.29-.01-.59-.016-.892-.03.301.012.602.02.892.03M51.813 30.488"/>
                </g>
            </g>
        </g>
    </g>
</svg>
