<svg xmlns="http://www.w3.org/2000/svg" width="16" height="16" viewBox="0 0 16 16">
    <path fill="#19110B" fill-rule="evenodd" d="M14.9 11.617v2.579a.705.705 0 0 1-.704.704H1.804a.705.705 0 0 1-.704-.704v-2.579h13.8zM1.1 1.805c0-.389.316-.705.704-.705h12.392c.388 0 .704.316.704.705v8.712H1.1V1.805zM14.196 0C15.19 0 16 .81 16 1.805v12.39c0 .996-.81 1.805-1.804 1.805H1.804C.809 16 0 15.19 0 14.196V1.805C0 .809.81 0 1.804 0h12.392zm-.76 4.732H9.611a.55.55 0 0 0 0 1.1h3.825a.55.55 0 0 0 0-1.1zM6.795 3.548v3.393a.179.179 0 0 1-.174.174H3.228a.174.174 0 0 1-.174-.174V3.548c0-.095.078-.173.174-.173h3.393c.096 0 .174.078.174.173zm-.174-1.273H3.228c-.702 0-1.273.571-1.273 1.273v3.393c0 .703.571 1.274 1.273 1.274h3.393c.702 0 1.274-.571 1.274-1.274V3.548c0-.702-.572-1.273-1.274-1.273zm6.815 4.269H9.611a.55.55 0 0 0 0 1.1h3.825a.55.55 0 0 0 0-1.1zm0-3.624H9.611a.55.55 0 0 0 0 1.1h3.825a.55.55 0 0 0 0-1.1z"/>
</svg>
