<svg xmlns="http://www.w3.org/2000/svg" width="16" height="16" viewBox="0 0 16 16">
    <path fill="#19110B" fill-rule="evenodd" d="M2.564 0h10.872c.892 0 1.215.093 1.54.267.327.174.583.43.757.756.174.326.267.65.267 1.54v10.873c0 .892-.093 1.215-.267 1.54-.174.327-.43.583-.756.757-.326.174-.65.267-1.54.267H2.563c-.892 0-1.215-.093-1.54-.267a1.817 1.817 0 0 1-.757-.756C.093 14.65 0 14.327 0 13.437V2.563c0-.892.093-1.215.267-1.54.174-.327.43-.583.756-.757C1.35.093 1.673 0 2.563 0zm2.185 9.707v1.312h.98L5.71 4.8H4.66L.8 11.019H2l.8-1.312h1.949zm.01-.977H3.487l1.272-2.232V8.73zm1.906 2.289h1.367c.94 0 1.619-.214 2.214-.717a3.122 3.122 0 0 0 1.125-2.39c0-.93-.409-1.814-1.106-2.382-.586-.483-1.312-.716-2.224-.716H6.665v6.205zm1.009-1.052V5.865H7.8c.78 0 1.255.14 1.655.503.419.372.67.948.67 1.544 0 .595-.251 1.19-.67 1.562-.381.345-.874.493-1.655.493h-.126zm3.87 1.052h.41c.776-.905 1.21-1.858 1.21-3.062 0-1.069-.34-2.31-.96-3.157h-.935c.688.825 1.079 2.069 1.079 3.157 0 1.225-.495 2.2-1.361 3.062h.569-.011zm1.636 0h.41c.776-.905 1.21-1.858 1.21-3.062 0-1.069-.34-2.31-.96-3.157h-.935c.687.825 1.078 2.069 1.078 3.157 0 1.225-.495 2.2-1.36 3.062h.569-.012z"/>
</svg>
