<svg xmlns="http://www.w3.org/2000/svg" width="80" height="80" viewBox="0 0 80 80">
    <path fill="#19110B" fill-rule="evenodd" d="M71.875 21A3.124 3.124 0 0 1 75 24.125v31.25a3.123 3.123 0 0 1-3.126 3.126H3.125A3.123 3.123 0 0 1 0 55.375v-31.25A3.124 3.124 0 0 1 3.125 21h68.75zm1.562 34.375l.002-31.25c0-.864-.698-1.563-1.564-1.563H3.125c-.864 0-1.562.7-1.562 1.563v31.25c0 .864.698 1.564 1.562 1.564h68.75c.864 0 1.562-.7 1.562-1.564zM3.125 24.125h37.5v31.25h-37.5v-31.25zm73.438 10.938c2.59 0 3.039 1.233 3.04 4.687 0 3.454-.449 4.687-3.04 4.687v-9.374z"/>
</svg>
