<svg xmlns="http://www.w3.org/2000/svg" width="80" height="80" viewBox="0 0 80 80">
    <path fill="#19110B" fill-rule="evenodd" d="M48.8 71.027V22.69l15.886-12.154V58.87L48.8 71.027zm-2.147-51.829l10.562-9.64v1.646l-9.027 6.908-1.535 1.086zm-2.078 5.92v49.118c-1.355 1.181-3.07 1.822-4.807 1.76a7.205 7.205 0 0 1-4.644-1.758v-34.62l.087-14.462a12.941 12.941 0 0 0 9.364-.037zM29.573 16.47L22 10.75V9.557l7.572 6.912zm1.538 6.17v16.94l-.185 31.465L15.014 58.87V10.498L31.111 22.64zM61.228 8.133V.468l-8.849 8.075V0L39.608 19.124 26.837 0v8.544L17.987.469V7.72L11 2.451v58.396L32.687 77.44a15.33 15.33 0 0 0 1.977 1.283l.236.127A11.219 11.219 0 0 0 39.72 80l.133.001c.856 0 1.707-.098 2.537-.29 1.323-.305 2.54-.957 3.624-1.773l22.37-16.85.316-.238V2.415l-7.472 5.717z"/>
</svg>
