<svg xmlns="http://www.w3.org/2000/svg" width="80" height="80" viewBox="0 0 80 80">
    <path fill="#19110B" fill-rule="evenodd" d="M29.09 9c-1.131.033-2.042.735-2.442 1.506L22.84 18.09H8.18C3.697 18.09 0 21.787 0 26.273v36.363c0 4.486 3.696 8.182 8.182 8.182h63.636c4.486 0 8.182-3.696 8.182-8.182V26.273c0-4.486-3.696-8.182-8.182-8.182H57.16l-3.807-7.585A2.789 2.789 0 0 0 50.91 9H29.091zm1.705 5.455h18.41l3.806 7.585a2.789 2.789 0 0 0 2.444 1.505h16.363c1.558 0 2.727 1.17 2.727 2.728v36.363c0 1.559-1.169 2.728-2.727 2.728H8.182c-1.558 0-2.727-1.17-2.727-2.728V26.273c0-1.558 1.169-2.728 2.727-2.728h16.363a2.792 2.792 0 0 0 2.444-1.505l3.806-7.585zM40 26.273c-9.507 0-17.273 7.765-17.273 17.272 0 9.508 7.766 17.273 17.273 17.273s17.273-7.765 17.273-17.273c0-9.507-7.766-17.272-17.273-17.272zm0 5.454c6.56 0 11.818 5.26 11.818 11.818 0 6.56-5.259 11.819-11.818 11.819a11.777 11.777 0 0 1-11.818-11.819c0-6.559 5.259-11.818 11.818-11.818z"/>
</svg>
