<svg xmlns="http://www.w3.org/2000/svg" width="80" height="80" viewBox="0 0 80 80">
    <path fill="#19110B" fill-rule="evenodd" d="M53.914 30c-.79-9.17-6.947-16-13.914-16s-13.124 6.83-13.914 16H28a1 1 0 0 1 1-1h22a1 1 0 0 1 1 1h1.914zm6.018 0h4.128c.932 0 1.727.694 1.877 1.64l6.038 38.093c.169 1.064-.535 2.068-1.572 2.242a1.853 1.853 0 0 1-.305.025H9.902C8.852 72 8 71.125 8 70.047c0-.106.008-.21.025-.314l6.038-38.093c.15-.946.944-1.64 1.877-1.64h4.128C20.915 17.68 29.516 8 40 8c10.484 0 19.085 9.68 19.932 22zM28 35.86h-8.825l-4.8 30.28h51.25l-4.8-30.28H52v3.06a1 1 0 0 1-.513.873C47.658 41.93 43.83 43 40 43c-3.83 0-7.659-1.07-11.488-3.207a1 1 0 0 1-.512-.874V35.86z"/>
</svg>
