<svg xmlns="http://www.w3.org/2000/svg" width="16" height="16" viewBox="0 0 16 16">
    <path fill="#19110B" fill-rule="evenodd" d="M14.971 8a6.98 6.98 0 0 1-6.97 6.971A6.98 6.98 0 0 1 1.028 8 6.98 6.98 0 0 1 8 1.029 6.98 6.98 0 0 1 14.971 8m-6.97-8C12.41 0 16 3.589 16 8s-3.589 8-8 8c-4.41 0-8-3.589-8-8s3.59-8 8-8zm-.037 4.614c-.72 0-1.375.342-1.752.913-.227.335-.29.626-.345 1.151l-.017.163h1.007l.01-.137c.028-.374.084-.521.186-.678.18-.294.532-.476.92-.476.626 0 1.116.465 1.116 1.059 0 .432-.247.85-1.058 1.788l-2.49 2.891h4.52v-.944H7.61l1.069-1.226c1.133-1.296 1.393-1.762 1.393-2.49 0-1.13-.925-2.014-2.107-2.014z"/>
</svg>
