<svg xmlns="http://www.w3.org/2000/svg" width="80" height="80" viewBox="0 0 80 80">
    <g fill="none" fill-rule="evenodd">
        <path fill="#FFF" d="M28.75 40.5a3.75 3.75 0 1 0 0-7.5 3.75 3.75 0 0 0 0 7.5zm11.25 0a3.75 3.75 0 1 1 0-7.5 3.75 3.75 0 0 1 0 7.5zm11.25 0a3.75 3.75 0 1 1 0-7.5 3.75 3.75 0 0 1 0 7.5z"/>
        <path fill="#19110B" d="M28.794 53.782a9.86 9.86 0 0 0 7.747 6.335 5.029 5.029 0 0 1-3.934 1.916 5.013 5.013 0 0 1-5.008-5.007c0-1.21.44-2.355 1.195-3.244m4.661-6.888l.09-.609-.445-.421c-1.896-1.797-6.817-7.245-6.838-10.835l-.003-.476-.332-.34c-.63-.645-2.379-2.81-2.168-4.251.044-.29.185-.722.917-1.126l.625-.346-.019-.716c-.102-3.96 1.557-7.39 2.517-9.424 1.613 1.882 4.118 3.879 10.558 3.633 4.396-.172 11.826.372 12.149 5.922l.053.919.905.17c.004 0 .216.051.453.178-.019.052-.03.106-.048.158l.448.158c.074.086.142.182.186.296.145.385.262 1.552-1.745 4.092l-.236.3-.017.38c-.004.065-.373 6.661-6.174 10.915l-.557.406.082.683c.02.166-.025 3.113 1.818 5.276-.594 3.063-2.938 5.63-5.933 6.282l-.062.013a5.782 5.782 0 0 1-2.56-.004l-.037-.009c-3.09-.398-5.633-2.712-6.46-5.69.467-.328 2.333-2.22 2.833-5.534M38.16 7.958c8.399 0 14.731 6.585 14.731 15.32 0 1.038-.084 2.064-.254 3.07-1.1-4.6-6.246-7.04-14.372-6.717-7.398.28-9.272-3.57-9.396-3.777l-.62-1.087-1.048.686c-1.881 1.235-3.115 4.515-3.756 7.465.173-8.553 6.434-14.96 14.715-14.96m.456-5.645c2.942 0 5.432 1.963 6.234 4.647a17.314 17.314 0 0 0-6.69-1.315c-2.001 0-3.891.337-5.646.936.915-2.488 3.301-4.268 6.102-4.268m8.908 50.99a5.012 5.012 0 0 1-3.354 8.729 5.02 5.02 0 0 1-4.015-2.018c3.481-.75 6.302-3.349 7.369-6.71m12.707 5.16c-4.554-1.058-8.275-3.833-10.111-5.417a7.125 7.125 0 0 0-2.156-2.103c-1.96-1.001-1.38-2.876-1.648-4.03 5.42-4.331 6.355-10.275 6.51-11.866 1.852-2.431 2.485-4.479 1.881-6.09-.052-.14-.13-.253-.196-.379.456-1.713.693-3.49.693-5.302 0-6.467-3.044-11.896-7.793-14.957C47.149 3.69 43.31 0 38.616 0c-4.492 0-8.205 3.38-8.744 7.728-5.304 2.92-8.756 8.653-8.756 15.55 0 1.78.238 3.529.68 5.221-.204.4-.315.79-.365 1.126-.352 2.41 1.667 4.96 2.5 5.896.368 4.5 5.425 9.924 7.058 11.567-.645 1.83-1.81 3.591-2.75 4.259l-.008-.004.001.008a7.181 7.181 0 0 0-1.573 1.692c-1.834 1.584-5.555 4.362-10.115 5.42C10.019 59.976 9 65.117 9 65.117S18.04 79.523 38.353 80h.069c20.314-.477 29.353-14.883 29.353-14.883s-1.019-5.141-7.544-6.654"/>
        <circle cx="38.5" cy="69" r="3" fill="#D6852A"/>
    </g>
</svg>
