<svg xmlns="http://www.w3.org/2000/svg" width="80" height="80" viewBox="0 0 80 80">
    <path fill="#19110B" fill-rule="evenodd" d="M58.226 10.841v58.317a4.959 4.959 0 0 1-4.953 4.954H24.841a4.96 4.96 0 0 1-4.954-4.954V10.841a4.96 4.96 0 0 1 4.954-4.954h28.432a4.959 4.959 0 0 1 4.953 4.954M53.273 0c5.978 0 10.84 4.863 10.84 10.841v58.317c0 5.979-4.862 10.842-10.84 10.842H24.841C18.863 80 14 75.137 14 69.158V10.841C14 4.863 18.863 0 24.841 0h28.432zm-7.437 63.554H32.673a2.947 2.947 0 0 0-2.943 2.944 2.948 2.948 0 0 0 2.943 2.944h13.163a2.948 2.948 0 0 0 2.944-2.944 2.948 2.948 0 0 0-2.944-2.944zm0-54.12H32.673a2.947 2.947 0 0 0-2.943 2.943 2.948 2.948 0 0 0 2.943 2.945h13.163a2.948 2.948 0 0 0 2.944-2.945 2.948 2.948 0 0 0-2.944-2.943z"/>
</svg>
