<svg xmlns="http://www.w3.org/2000/svg" xmlns:xlink="http://www.w3.org/1999/xlink" width="80" height="80" viewBox="0 0 80 80">
    <defs>
        <path id="a" d="M58.182 21V0h-58v21z"/>
        <path id="c" d="M35.573 2.86c-2.544 0-4.61 2.58-4.61 5.757 0 3.383 1.977 5.909 4.61 5.909 2.568 0 4.598-2.56 4.598-5.842 0-3.26-2.016-5.824-4.598-5.824"/>
    </defs>
    <g fill="none" fill-rule="evenodd" transform="translate(0 14)">
        <rect width="80" height="52" fill="#FFF" rx="6"/>
        <g transform="translate(19.818 29.063)">
            <mask id="b" fill="#fff">
                <use xlink:href="#a"/>
            </mask>
            <path fill="#F4811F" d="M58.929-1S38.117 14.604 0 21.587h58.929V-1z" mask="url(#b)"/>
        </g>
        <path fill="#D8D8D8" fill-rule="nonzero" d="M2 0h76a2 2 0 0 1 2 2v48a2 2 0 0 1-2 2H2a2 2 0 0 1-2-2V2a2 2 0 0 1 2-2zm1 2a1 1 0 0 0-1 1v46a1 1 0 0 0 1 1h74a1 1 0 0 0 1-1V3a1 1 0 0 0-1-1H3z"/>
        <g transform="translate(5.714 12.952)">
            <path fill="#001722" d="M4.726 3.074H1.71v11.199H4.71c1.596 0 2.744-.4 3.754-1.292 1.2-1.056 1.91-2.655 1.91-4.302 0-3.306-2.32-5.605-5.647-5.605zm2.4 8.412c-.65.622-1.484.891-2.811.891h-.551v-7.41h.55c1.328 0 2.13.253 2.812.907.709.674 1.132 1.715 1.132 2.79 0 1.076-.423 2.153-1.132 2.822zM11.319 3.074h2.05v11.199h-2.05zM18.387 7.37c-1.233-.486-1.595-.807-1.595-1.408 0-.708.645-1.245 1.533-1.245.614 0 1.119.268 1.656.904l1.07-1.49c-.88-.827-1.938-1.245-3.092-1.245-1.859 0-3.28 1.376-3.28 3.205 0 1.547.662 2.337 2.587 3.078.805.3 1.216.501 1.421.638.409.287.617.687.617 1.157 0 .91-.682 1.581-1.598 1.581-.977 0-1.765-.522-2.239-1.495l-1.322 1.36c.942 1.478 2.079 2.134 3.643 2.134 2.13 0 3.626-1.513 3.626-3.678 0-1.782-.691-2.588-3.027-3.497M22.062 8.679c0 3.295 2.427 5.847 5.553 5.847.883 0 1.64-.186 2.57-.654v-2.57c-.82.874-1.547 1.225-2.478 1.225-2.065 0-3.532-1.596-3.532-3.864 0-2.149 1.513-3.846 3.44-3.846.977 0 1.719.37 2.57 1.26V3.506c-.897-.485-1.64-.684-2.521-.684-3.11 0-5.602 2.603-5.602 5.858M46.813 10.598l-2.81-7.524h-2.238L46.23 14.56h1.103l4.542-11.485h-2.222l-2.84 7.524M52.808 14.273h5.822v-1.896h-3.772V9.353h3.627V7.454h-3.627V4.967h3.772V3.074h-5.822v11.199M66.75 6.377c0-2.097-1.353-3.303-3.72-3.303h-3.046v11.199h2.052V9.77h.268l2.839 4.502h2.524l-3.315-4.719c1.55-.336 2.398-1.462 2.398-3.177zM62.633 8.23h-.597V4.833h.631c1.279 0 1.975.573 1.975 1.663 0 1.124-.696 1.733-2.009 1.733z"/>
            <path fill="#231F20" d="M68.238 3.927c0-.211-.131-.323-.37-.323h-.317V4.65h.233v-.406l.274.406h.292l-.328-.433a.284.284 0 0 0 .216-.29zm-.413.14h-.041v-.274h.046c.115 0 .172.049.172.136 0 .09-.06.137-.177.137z"/>
            <path fill="#231F20" d="M67.894 3.232c-.447 0-.81.384-.81.862 0 .48.365.863.81.863.44 0 .798-.388.798-.863 0-.472-.358-.862-.798-.862zm0 1.57c-.363 0-.65-.315-.65-.705 0-.395.287-.708.65-.708.348 0 .636.32.636.708 0 .387-.288.705-.636.705z"/>
            <use fill="#F58220" xlink:href="#c"/>
        </g>
    </g>
</svg>
