<svg xmlns="http://www.w3.org/2000/svg" width="16" height="16" viewBox="0 0 16 16">
    <path fill="#19110B" fill-rule="evenodd" d="M6.201 11.679l-2.252.443.381-2.33 8.548-8.553 1.882 1.882L6.2 11.679zm9.54-9.234a.904.904 0 0 1 .257.71 1.12 1.12 0 0 1-.332.717l-8.637 8.636c-.162.162-.37.275-.585.317l-2.619.516c-.067.013-.133.02-.198.02a.906.906 0 0 1-.635-.252.917.917 0 0 1-.258-.819l.443-2.706c.038-.227.152-.446.323-.617l8.63-8.63c.182-.182.415-.299.657-.33a.915.915 0 0 1 .77.255l2.183 2.183zm-1.05 5.162c.322 0 .585.263.585.586v5.968c0 .994-.808 1.803-1.802 1.803H1.802A1.804 1.804 0 0 1 0 14.16V2.49C0 1.496.808.688 1.802.688h5.841a.586.586 0 0 1 0 1.17h-5.84a.632.632 0 0 0-.632.632V14.16c0 .349.283.631.631.631h11.672a.632.632 0 0 0 .63-.63v-5.97c0-.322.264-.585.587-.585z"/>
</svg>
