<svg xmlns="http://www.w3.org/2000/svg" width="80" height="80" viewBox="0 0 80 80">
    <path fill="#19110B" fill-rule="evenodd" d="M59.53.017L49.428 0C38.08 0 30.745 7.728 30.745 19.688v9.078H20.588c-.877 0-1.588.73-1.588 1.632V43.55c0 .901.712 1.631 1.588 1.631h10.157V78.37c0 .901.71 1.631 1.589 1.631h13.251c.878 0 1.589-.73 1.589-1.631V45.18h11.875c.878 0 1.589-.73 1.589-1.631l.005-13.152c0-.433-.168-.848-.466-1.154a1.568 1.568 0 0 0-1.124-.478h-11.88V21.07c0-3.7.859-5.577 5.55-5.577l6.805-.002c.877 0 1.588-.73 1.588-1.631V1.648c0-.9-.71-1.63-1.586-1.631z"/>
</svg>
