<svg xmlns="http://www.w3.org/2000/svg" width="80" height="80" viewBox="0 0 80 80">
    <path fill="#19110B" fill-rule="evenodd" d="M40.394 74.762c-14.423 0-26.156-11.733-26.156-26.156 0-14.422 11.733-26.155 26.156-26.155 14.423 0 26.156 11.733 26.156 26.155 0 14.423-11.733 26.156-26.156 26.156zm-4.89-69.524l-1.24 2.773h-1.131l1.455-2.773h.915zm12.15 2.773h-1.1l-1.216-2.773h.862l1.455 2.773zm-7.652 0l.42-.942.413.942h-.833zm4.319 5.238l-3.949 2.705-3.931-2.705h7.88zm2.509 4.63l8.768-6.005L49.365 0H31.423l-6.23 11.87 8.742 6.015C19.712 20.87 9 33.509 9 48.606 9 65.917 23.083 80 40.394 80s31.394-14.083 31.394-31.394c0-15.104-10.724-27.75-24.958-30.727z"/>
</svg>
