<svg xmlns="http://www.w3.org/2000/svg" width="80" height="80" viewBox="0 0 80 80">
    <path fill="#19110B" fill-rule="evenodd" d="M32.821 27.367c0 2.292 1.89 4.156 4.21 4.156h17.973l-2.89 14.957H38.36c-1.172 0-2.303.49-3.102 1.342L18.261 66.069l.111-57.814H59.5l-2.89 14.955H37.032c-2.322 0-4.21 1.864-4.21 4.157M68.053 1.482A4.244 4.244 0 0 0 64.814 0H18.55C13.835 0 10 3.734 10 8.325v67.557c0 1.687 1.084 3.23 2.696 3.84a4.27 4.27 0 0 0 1.52.278 4.274 4.274 0 0 0 3.098-1.327l23.09-24.46h15.412c2.017 0 3.761-1.405 4.14-3.343l8.997-45.98a4.032 4.032 0 0 0-.9-3.408"/>
</svg>
