<svg xmlns="http://www.w3.org/2000/svg" width="80" height="80" viewBox="0 0 80 80">
    <path fill="#19110B" fill-rule="evenodd" d="M59.028 72.59a2.159 2.159 0 0 1-2.163 2.163H23.409a2.159 2.159 0 0 1-2.162-2.162V35.923c0-5.783 4.712-10.495 10.495-10.495h2.623v-7.84H45.91v7.84h2.624c5.783 0 10.495 4.712 10.495 10.495V72.59zM36.464 7.452c1.07 0 2.298-.01 3.726-.02l3.62-.032v2.844h-7.346V7.45zM51.157 17.59h2.623v-7.346h-4.722V7.346h1.574V0h-20.99v7.346h1.575v2.897h-4.722v7.346h2.623V20.4C21.688 21.65 16 28.136 16 35.923V72.59C16 76.673 19.327 80 23.41 80h33.455c4.083 0 7.41-3.327 7.41-7.41V35.924c0-7.787-5.678-14.274-13.118-15.522V17.59z"/>
</svg>
