<svg xmlns="http://www.w3.org/2000/svg" width="80" height="80" viewBox="0 0 80 80">
    <path fill="#19110B" fill-rule="evenodd" d="M42.272 39.907c0-.557.008-1.116.016-1.675.009-.65.018-1.315.015-1.99l15.177-6.688v8.015c0 .613.267 1.218.732 1.661.415.397.934.613 1.47.613l.093-.002c1.26-.058 2.25-1.056 2.25-2.272V27.552l12.077-5.321.072-.033c.42-.183.84-.363 1.263-.544v32.92c0 .563-.005 1.125-.01 1.686-.006.656-.011 1.312-.01 1.98l-2.566 1.128a8365.621 8365.621 0 0 1-9.023 3.974l-12.992 5.73a2678.397 2678.397 0 0 1-7.302 3.211c-.419.184-.84.364-1.262.545V39.907zm21.556-18.106l-4.005 1.767-26.929-11.081c-1.642-.677-3.286-1.353-4.931-2.028a3327.75 3327.75 0 0 1 8.06-3.18l1.3-.512c.597-.235 1.192-.468 1.785-.705.166-.066.333-.13.502-.193.134-.05.268-.1.404-.154l5.214 2.059c2.29.902 4.58 1.806 6.866 2.716l11.244 4.436c2.83 1.12 5.661 2.24 8.492 3.351a5680.06 5680.06 0 0 1-8.002 3.524zM8.16 18.281l.674-.267c2.288-.903 4.58-1.807 6.866-2.715l6.203-2.449L48.87 23.948c1.738.717 3.478 1.433 5.221 2.148l-3.255 1.436a2678.397 2678.397 0 0 1-7.302 3.212c-.478.21-.96.413-1.445.617-.695.294-1.407.604-2.121.93L15.223 21.387c-2.354-1.038-4.706-2.076-7.063-3.107zM37.72 72.841l-22.496-9.915a3319.71 3319.71 0 0 0-7.204-3.17c-.53-.231-1.057-.474-1.584-.717-.611-.282-1.236-.57-1.873-.844V23.293c0-.548.008-1.1.016-1.65l9.462 4.173c3.635 1.6 7.27 3.2 10.908 4.809 3.127 1.378 6.256 2.757 9.396 4.143l.98.432c.179.082.356.16.535.243.61.281 1.236.57 1.869.842V71.19c0 .551-.004 1.102-.01 1.653zM79.98 18.164c0-.022-.008-.042-.01-.063a2.266 2.266 0 0 0-.067-.514l-.003-.016a1.952 1.952 0 0 0-.23-.564 2.656 2.656 0 0 0-.295-.372c-.05-.055-.106-.105-.164-.155a2.054 2.054 0 0 0-.201-.158c-.053-.039-.098-.088-.156-.123-.173-.1-.35-.174-.535-.223l-3.728-1.471a6768.53 6768.53 0 0 0-9.031-3.565l-20.33-8.028c-.483-.19-.964-.39-1.448-.59-1.007-.418-2.05-.85-3.098-1.204-.755-.259-1.29-.04-1.808.169l-.108.043c-.781.311-1.562.621-2.346.925L17.044 9.908c-3.27 1.29-6.533 2.579-9.804 3.877-1.172.46-2.345.924-3.513 1.387l-2.03.802c-.188.05-.375.123-.555.227a2.27 2.27 0 0 0-.951 1.15l-.018.043c-.09.246-.153.501-.153.77v36.41c0 .563-.005 1.125-.01 1.686-.01 1.13-.02 2.26.01 3.444 0 .725.402 1.64 1.174 1.99l26.107 11.503c2.324 1.025 4.645 2.048 6.97 3.066 1.52.675 3.05 1.352 4.538 2.003l.062.027a2.06 2.06 0 0 0 1.06.298l.092-.001c.14-.007.272-.041.404-.069.03-.007.06-.009.091-.015.03-.008.062-.007.09-.016.168-.039.327-.103.48-.18l.009-.002 26.107-11.504c2.323-1.024 4.643-2.048 6.97-3.066.475-.208.955-.41 1.435-.613 1.045-.44 2.124-.896 3.194-1.431.498-.218.887-.684 1.066-1.28.023-.071.04-.144.055-.217.037-.158.057-.324.057-.493V23.293c0-.562.005-1.123.009-1.685.01-1.131.02-2.26-.01-3.444z"/>
</svg>
