<svg xmlns="http://www.w3.org/2000/svg" xmlns:xlink="http://www.w3.org/1999/xlink" width="16" height="16" viewBox="0 0 16 16">
    <defs>
        <path id="a" d="M0 0h16v16H0z"/>
    </defs>
    <g fill="none" fill-rule="evenodd">
        <g>
            <mask id="b" fill="#fff">
                <use xlink:href="#a"/>
            </mask>
            <use fill="#F6F6F6" xlink:href="#a"/>
            <g stroke="#000" stroke-width=".25" mask="url(#b)" opacity=".3">
                <path d="M.8 0v16M1.6 0v16M2.4 0v16M3.2 0v16M4 0v16M4.8 0v16M5.6 0v16M6.4 0v16M7.2 0v16M8 0v16M8.8 0v16M9.6 0v16M10.4 0v16M11.2 0v16M12 0v16M12.8 0v16M13.6 0v16M14.4 0v16M15.2 0v16"/>
                <g>
                    <path d="M0 15.2h16M0 14.4h16M0 13.6h16M0 12.8h16M0 12h16M0 11.2h16M0 10.4h16M0 9.6h16M0 8.8h16M0 8h16M0 7.2h16M0 6.4h16M0 5.6h16M0 4.8h16M0 4h16M0 3.2h16M0 2.4h16M0 1.6h16M0 .8h16"/>
                </g>
            </g>
        </g>
        <path stroke="#000" stroke-width=".2" d="M8 11.2a3.2 3.2 0 1 1 0-6.4 3.2 3.2 0 0 1 0 6.4"/>
        <path stroke="#000" stroke-width=".2" d="M14.063 15.2H1.937A1.14 1.14 0 0 1 .8 14.063V1.937A1.14 1.14 0 0 1 1.937.8h12.126A1.14 1.14 0 0 1 15.2 1.937v12.126a1.14 1.14 0 0 1-1.137 1.137"/>
        <path stroke="#000" stroke-width=".2" d="M8.5 8.25a.25.25 0 1 0-.5 0 .25.25 0 0 0 .5 0z"/>
        <path stroke="#000" stroke-width=".5" d="M.25.25h15.5v15.5H.25z"/>
    </g>
</svg>
d="M.25.25h79.5v79.5H.25z"/>
    </g>
</svg>
ath stroke="#000" stroke-width=".5" d="M.25.25h71.5v71.5H.25z"/>
    </g>
</svg>
.5H.25z"/>
    </g>
</svg>
