<svg xmlns="http://www.w3.org/2000/svg" width="80" height="80" viewBox="0 0 80 80">
    <path fill="#19110B" fill-rule="evenodd" d="M63.296 30.707c0 7.53-3.694 16.336-10.982 26.173-4.484 6.054-9.32 11.062-12.302 13.956-2.98-2.89-7.81-7.895-12.3-13.956-7.288-9.838-10.984-18.644-10.984-26.173 0-11.293 7.668-20.938 18.646-23.457a20.703 20.703 0 0 1 4.638-.522c1.574 0 3.135.176 4.64.522C55.63 9.77 63.297 19.414 63.297 30.707M46.157.69C60.21 3.916 70.025 16.26 70.025 30.707c0 20.988-23.117 43.034-27.751 47.24L40.012 80l-2.261-2.053C33.117 73.742 10 51.699 10 30.707 10 16.259 19.815 3.917 33.866.69a27.655 27.655 0 0 1 12.29 0h.001zm.332 28.07a6.483 6.483 0 0 1-6.477 6.477 6.483 6.483 0 0 1-6.475-6.477 6.483 6.483 0 0 1 6.475-6.477 6.483 6.483 0 0 1 6.477 6.477zm-6.477-13.205c-7.28 0-13.205 5.924-13.205 13.205 0 7.282 5.924 13.206 13.205 13.206 7.283 0 13.205-5.924 13.205-13.206 0-7.281-5.922-13.205-13.205-13.205z"/>
</svg>
