<svg xmlns="http://www.w3.org/2000/svg" width="80" height="80" viewBox="0 0 80 80">
    <path fill="#19110B" fill-rule="evenodd" d="M65.87 29h7.023c.011 2.35.024 4.71.047 7.06 2.35.023 4.71.023 7.06.047v7.024c-2.35.024-4.699.036-7.06.06-.023 2.36-.036 4.71-.047 7.059h-7.036c-.024-2.35-.024-4.699-.048-7.048l-7.059-.071v-7.024c2.35-.024 4.699-.035 7.06-.047.011-2.361.035-4.71.06-7.06zM.07 38.343C.294 25.142 12.674 13.58 26.141 14.02c6.452-.293 12.517 2.459 17.46 6.325-2.11 2.35-4.293 4.613-6.627 6.73-5.941-4.026-14.39-5.176-20.331-.528-8.5 5.763-8.886 19.368-.711 25.57 7.95 7.073 22.976 3.56 25.173-7.267-4.98-.073-9.972 0-14.952-.158-.012-2.912-.025-5.824-.012-8.736 8.324-.024 16.649-.036 24.986.025.499 6.851-.425 14.143-4.718 19.807-6.503 8.967-19.557 11.586-29.741 7.745-10.222-3.817-17.46-14.4-16.6-25.191z"/>
</svg>
