<svg xmlns="http://www.w3.org/2000/svg" width="16" height="16" viewBox="0 0 16 16">
    <path fill="#19110B" fill-rule="evenodd" d="M14.972 8A6.98 6.98 0 0 1 8 14.972 6.98 6.98 0 0 1 1.03 8 6.979 6.979 0 0 1 8 1.029 6.98 6.98 0 0 1 14.972 8zM8 0c4.411 0 8 3.589 8 8s-3.589 8-8 8-8-3.589-8-8S3.59 0 8 0zm.393 11.376a.696.696 0 0 1-1.38.17.702.702 0 0 1 .613-.77.69.69 0 0 1 .767.6zM7.22 9.92c-.275-.9.046-1.379 1.063-2.086.764-.528.797-.567.972-.812.184-.262.229-.643.114-1.019-.222-.725-.889-1.08-1.6-.862-.672.205-1.013.853-.826 1.53.003.007-1.005.005-1.005.003-.153-1.205.338-2.09 1.574-2.468 1.25-.382 2.456.248 2.833 1.484.218.712.101 1.482-.316 1.992-.243.309-.411.434-1.215.974-.578.368-.766.763-.614 1.26l-.98.004z"/>
</svg>
