<svg xmlns="http://www.w3.org/2000/svg" xmlns:xlink="http://www.w3.org/1999/xlink" width="80" height="52" viewBox="0 0 80 52">
    <defs>
        <path id="a" d="M.014 6.642h50.353V.034H.014z"/>
        <path id="c" d="M0 42.993h53.675V0H0z"/>
    </defs>
    <g fill="none" fill-rule="evenodd">
        <rect width="80" height="51.81" fill="#000" rx="2"/>
        <g transform="translate(13 4.317)">
            <g transform="translate(2.765 36.35)">
                <mask id="b" fill="#fff">
                    <use xlink:href="#a"/>
                </mask>
                <path fill="#FFF" d="M44.752 4.129c0-.855.526-1.54 1.375-1.54.812 0 1.347.656 1.347 1.54 0 .883-.535 1.539-1.347 1.539-.849 0-1.375-.684-1.375-1.54zm3.571 0V.034h-.886V2.41c-.304-.408-.802-.665-1.43-.665-1.236 0-2.177.998-2.177 2.385 0 1.387.94 2.384 2.177 2.384.628 0 1.126-.256 1.43-.665V6.4h.886V4.13zm-12.474 0c0-.855.526-1.54 1.375-1.54.811 0 1.347.656 1.347 1.54 0 .883-.536 1.539-1.347 1.539-.85 0-1.375-.684-1.375-1.54zm3.57 0V1.858h-.885v.551c-.305-.408-.803-.665-1.43-.665-1.237 0-2.178.998-2.178 2.385 0 1.387.941 2.384 2.178 2.384.627 0 1.125-.256 1.43-.665V6.4h.886V4.13zm10.427 1.93v.112h.1a.096.096 0 0 0 .055-.014c.013-.01.02-.024.02-.043a.048.048 0 0 0-.02-.041.1.1 0 0 0-.055-.014h-.1zm.101-.079c.052 0 .093.012.12.037a.121.121 0 0 1 .043.097.117.117 0 0 1-.033.086.159.159 0 0 1-.097.041l.134.158h-.105l-.123-.157h-.04V6.4h-.086V5.98h.187zm-.026.563a.317.317 0 0 0 .133-.028.351.351 0 0 0 .206-.323.357.357 0 0 0-.1-.249.334.334 0 0 0-.482 0 .354.354 0 0 0-.099.249.357.357 0 0 0 .099.248.35.35 0 0 0 .243.103zm0-.802a.432.432 0 0 1 .316.132.461.461 0 0 1 .13.319.445.445 0 0 1-.13.317.46.46 0 0 1-.142.097.431.431 0 0 1-.492-.097.455.455 0 0 1 0-.636.438.438 0 0 1 .318-.132zm-7.106-3.997c-.553 0-.95.266-1.2.665v-.551h-.876v4.541h.886V3.844c0-.751.35-1.235.978-1.235.194 0 .396.028.6.113l.295-.854a2.002 2.002 0 0 0-.683-.124zM8.769 4.13c0-.855.526-1.54 1.375-1.54.812 0 1.347.656 1.347 1.54 0 .883-.535 1.539-1.347 1.539-.849 0-1.375-.684-1.375-1.54zm3.571 0V1.858h-.886v.551c-.304-.408-.803-.665-1.43-.665-1.236 0-2.177.998-2.177 2.385 0 1.387.941 2.384 2.177 2.384.627 0 1.126-.256 1.43-.665V6.4h.886V4.13zm11.94-1.54c.654 0 1.097.438 1.162 1.15H23.06c.083-.665.508-1.15 1.218-1.15zm.018-.845c-1.292 0-2.178.96-2.178 2.375 0 1.444.923 2.394 2.242 2.394.665 0 1.273-.17 1.809-.636l-.471-.675c-.37.305-.84.475-1.283.475-.618 0-1.245-.36-1.356-1.178h3.294c.01-.123.018-.247.018-.38-.009-1.416-.84-2.375-2.075-2.375zm6.2 2.385c0 1.378.894 2.384 2.315 2.384.665 0 1.108-.152 1.587-.541l-.46-.713c-.36.266-.739.409-1.154.409-.766-.01-1.366-.627-1.366-1.54 0-.911.6-1.529 1.366-1.538.415 0 .793.142 1.153.408l.461-.712c-.48-.39-.922-.542-1.587-.542-1.42 0-2.315 1.007-2.315 2.385zm-13.379-1.91c-.461-.314-1.098-.475-1.799-.475-1.116 0-1.799.542-1.799 1.444 0 .741.498 1.188 1.486 1.33l.452.067c.525.076.812.266.812.522 0 .352-.388.58-1.043.58-.692 0-1.144-.219-1.467-.475l-.452.713c.655.493 1.44.588 1.91.588 1.273 0 1.974-.607 1.974-1.472 0-.798-.535-1.207-1.504-1.35l-.452-.066c-.415-.057-.784-.19-.784-.494 0-.332.35-.56.876-.56.563 0 1.107.218 1.375.39l.415-.742zm12.373-.475c-.554 0-.95.266-1.2.665v-.551h-.876v4.541h.886V3.844c0-.751.35-1.235.978-1.235.193 0 .397.028.6.113l.295-.854a1.998 1.998 0 0 0-.683-.124zm-8.184.114h-1.605V.481h-.895v1.377h-.932v.827h.932v2.147c0 1.054.36 1.681 1.494 1.681.415 0 .896-.133 1.2-.351l-.277-.808c-.286.171-.6.257-.849.257-.48 0-.673-.304-.673-.76V2.685h1.605v-.827zM6.934 6.399V3.54c0-1.073-.628-1.785-1.698-1.795-.563-.01-1.145.171-1.55.808-.305-.504-.785-.808-1.458-.808-.47 0-.969.133-1.329.665v-.551H.014v4.541h.894V3.796c0-.788.462-1.206 1.117-1.206.636 0 .996.427.996 1.197v2.612h.895V3.796c0-.788.48-1.206 1.117-1.206.655 0 1.005.427 1.005 1.197v2.612h.896z" mask="url(#b)"/>
            </g>
            <mask id="d" fill="#fff">
                <use xlink:href="#c"/>
            </mask>
            <path fill="#FF5F00" d="M18.854 30.509h15.968V3.652H18.854z" mask="url(#d)"/>
            <path fill="#EB001B" d="M20.502 17.08c0-5.449 2.478-10.3 6.336-13.428C24.016 1.364 20.456 0 16.586 0 7.426 0 0 7.647 0 17.08c0 9.433 7.426 17.08 16.586 17.08 3.87 0 7.43-1.364 10.252-3.652-3.858-3.127-6.336-7.98-6.336-13.428" mask="url(#d)"/>
            <path fill="#F79E1B" d="M53.157 27.831v-.83h-.168l-.194.571-.193-.571h-.168v.83h.119v-.626l.181.54h.123l.181-.541v.627h.12zm-1.065 0v-.689h.216v-.14h-.548v.14h.215v.69h.117zM53.675 17.08c0 9.433-7.426 17.08-16.586 17.08-3.87 0-7.43-1.364-10.251-3.652 3.858-3.127 6.335-7.98 6.335-13.428 0-5.449-2.477-10.3-6.335-13.428C29.658 1.364 33.219 0 37.088 0c9.16 0 16.587 7.647 16.587 17.08" mask="url(#d)"/>
        </g>
    </g>
</svg>
