<svg xmlns="http://www.w3.org/2000/svg" width="16" height="16" viewBox="0 0 16 16">
    <path fill="#19110B" fill-rule="evenodd" d="M14.4 4.64v6.72a3.008 3.008 0 0 1-3.04 3.04H4.64a3.008 3.008 0 0 1-3.04-3.04V4.64A3.008 3.008 0 0 1 4.64 1.6h6.72a3.008 3.008 0 0 1 3.04 3.04M11.413 0A4.592 4.592 0 0 1 16 4.587v6.826A4.592 4.592 0 0 1 11.413 16H4.587A4.592 4.592 0 0 1 0 11.413V4.587A4.592 4.592 0 0 1 4.587 0h6.826zM12 2.24c-.706 0-1.28.574-1.28 1.28 0 .706.574 1.28 1.28 1.28.706 0 1.28-.574 1.28-1.28 0-.706-.574-1.28-1.28-1.28zM10.56 8A2.563 2.563 0 0 1 8 10.56 2.563 2.563 0 0 1 5.44 8 2.563 2.563 0 0 1 8 5.44 2.563 2.563 0 0 1 10.56 8zM8 3.84A4.165 4.165 0 0 0 3.84 8 4.165 4.165 0 0 0 8 12.16 4.165 4.165 0 0 0 12.16 8 4.165 4.165 0 0 0 8 3.84z"/>
</svg>
