<svg xmlns="http://www.w3.org/2000/svg" width="16" height="16" viewBox="0 0 16 16">
    <path fill="#19110B" fill-rule="evenodd" d="M16 7.921C16 3.557 12.418.02 8 .02S0 3.557 0 7.92s3.582 7.901 8 7.901 8-3.537 8-7.901zm-1.58 3.002a8.568 8.568 0 0 0-2.32-1.086c.084-.635.124-1.275.12-1.916-.005-.64-.045-1.28-.12-1.916a8.57 8.57 0 0 0 2.32-1.067 6.837 6.837 0 0 1 0 5.985zm-3.08-3.002c.001.561-.032 1.122-.1 1.679a14.936 14.936 0 0 0-2.78-.336V6.578a14.936 14.936 0 0 0 2.78-.336c.068.557.101 1.118.1 1.679zm-6.66 0c-.001-.561.032-1.122.1-1.679.912.207 1.844.32 2.78.336v2.686c-.935.025-1.866.137-2.78.336a13.64 13.64 0 0 1-.12-1.679h.02zm3.76-2.232V.968c1.2.355 2.2 2.094 2.64 4.405-.867.194-1.751.3-2.64.316zM7.56.968v4.72a14.733 14.733 0 0 1-2.64-.315c.44-2.311 1.44-4.03 2.64-4.405zm0 9.185v4.721c-1.2-.355-2.2-2.094-2.64-4.385.865-.209 1.75-.321 2.64-.336zm.88 4.721v-4.72c.888.025 1.772.13 2.64.315-.44 2.311-1.44 4.05-2.64 4.405zM14 4.148a6.795 6.795 0 0 1-2.04.988c-.32-1.6-.9-2.943-1.64-3.852A7.266 7.266 0 0 1 14 4.148zM5.68 1.284c-.74.889-1.32 2.252-1.64 3.852A7.7 7.7 0 0 1 2 4.148a7.266 7.266 0 0 1 3.68-2.864zm-4.1 3.654A8.568 8.568 0 0 0 3.9 6.025a14.069 14.069 0 0 0-.12 1.916c.005.64.045 1.28.12 1.916a8.57 8.57 0 0 0-2.32 1.066 6.837 6.837 0 0 1 0-5.985zM2 11.674a7.217 7.217 0 0 1 2.04-.988c.32 1.6.9 2.944 1.64 3.852A7.106 7.106 0 0 1 2 11.674zm8.32 2.884c.74-.909 1.32-2.252 1.64-3.852a7.7 7.7 0 0 1 2.04.988 7.266 7.266 0 0 1-3.68 2.864z"/>
</svg>
