<svg xmlns="http://www.w3.org/2000/svg" width="16" height="16" viewBox="0 0 16 16">
    <path fill="#19110B" fill-rule="evenodd" d="M16 14.75c0 .69-.56 1.25-1.25 1.25H1.25C.56 16 0 15.44 0 14.75V1.25C0 .56.56 0 1.25 0h13.5C15.44 0 16 .56 16 1.25v13.5zM8 2.25c-3.59 0-6.5 2.295-6.5 5.125 0 1.83 1.217 3.436 3.047 4.342-.1.344-.64 2.21-.662 2.356 0 0-.012.11.059.152.071.042.155.01.155.01.204-.03 2.371-1.551 2.747-1.816.374.053.76.081 1.154.081 3.59 0 6.5-2.294 6.5-5.125 0-2.83-2.91-5.125-6.5-5.125zM4.406 9.164a.367.367 0 0 1-.375-.358V6.578h-.585a.368.368 0 0 1 0-.734h1.92a.368.368 0 0 1 0 .734h-.585v2.228a.367.367 0 0 1-.375.358zm3.288-.005c-.156 0-.276-.063-.312-.165l-.185-.487H6.053l-.186.487c-.035.102-.155.165-.311.165a.572.572 0 0 1-.239-.052c-.103-.047-.203-.178-.089-.532l.897-2.361a.565.565 0 0 1 .5-.37c.245.005.437.19.5.37l.896 2.36c.115.355.015.486-.088.534a.574.574 0 0 1-.239.051zM7 7.843L6.625 6.78 6.25 7.843H7zM8.625 9.11a.352.352 0 0 1-.36-.343V6.219a.38.38 0 0 1 .383-.375.38.38 0 0 1 .383.375v2.203h.797c.198 0 .36.154.36.344 0 .19-.162.343-.36.343H8.625zm2.083.05a.375.375 0 0 1-.375-.375V6.22a.375.375 0 0 1 .75 0v.806l1.047-1.046a.291.291 0 0 1 .208-.084.37.37 0 0 1 .258.11.37.37 0 0 1 .11.239.292.292 0 0 1-.083.228l-.854.854.923 1.223a.372.372 0 0 1-.074.525.372.372 0 0 1-.525-.073l-.88-1.165-.13.13v.818a.376.376 0 0 1-.375.375z"/>
</svg>
