<svg xmlns="http://www.w3.org/2000/svg" width="80" height="80" viewBox="0 0 80 80">
    <path fill="#19110B" fill-rule="evenodd" d="M38.886 9.607c6.656 0 9.484 5.296 9.977 10.257a32.741 32.741 0 0 0-2.762-.12H32.983c-1.352 0-2.723.086-4.09.256.456-5.031 3.264-10.393 9.993-10.393zM28.818 32.27v-6.595a27.314 27.314 0 0 1 4.165-.324h13.118c.927 0 1.883.051 2.853.152v6.767h5.608v-5.61c11.564 3.65 19.831 14.417 19.831 26.068v17.799H5.608v-17.8A27.33 27.33 0 0 1 23.21 27.16v5.111h5.608zm25.735-11.434C54.28 10.886 47.915 4 38.886 4c-9.148 0-15.563 7.071-15.674 17.232C9.507 25.492 0 38.338 0 52.728v23.407h80V52.728c0-14.756-10.656-28.05-25.447-31.892z"/>
</svg>
