<svg xmlns="http://www.w3.org/2000/svg" width="16" height="16" viewBox="0 0 16 16">
    <path fill="#19110B" fill-rule="evenodd" d="M13.106 0H2.916C1.316-.002.002 1.294 0 2.894v10.19c-.002 1.6 1.294 2.914 2.894 2.916h10.19A2.91 2.91 0 0 0 16 13.106V2.916A2.91 2.91 0 0 0 13.106 0zm.693 7.297c0 1.043-.404 1.982-1.248 2.908-1.222 1.407-3.955 3.12-4.577 3.382-.622.262-.53-.166-.505-.314l.083-.498c.02-.149.04-.38-.018-.527-.066-.162-.324-.246-.514-.287-2.799-.37-4.871-2.327-4.871-4.664 0-2.607 2.613-4.728 5.825-4.728s5.825 2.121 5.825 4.728zM6.79 6.037h-.408a.114.114 0 0 0-.114.113V8.69c0 .062.051.113.114.113h.408c.063 0 .114-.05.114-.113V6.15a.113.113 0 0 0-.114-.113zm2.813 0h-.409a.113.113 0 0 0-.113.113v1.508l-1.163-1.57a.102.102 0 0 0-.016-.02l-.003-.002a.065.065 0 0 0-.006-.005L7.89 6.06l-.006-.004a.083.083 0 0 0-.01-.005l-.003-.002a.067.067 0 0 0-.006-.003l-.004-.001-.007-.002-.004-.002-.006-.001a.07.07 0 0 0-.005 0l-.006-.001h-.006l-.004-.001h-.408a.114.114 0 0 0-.114.113V8.69c0 .062.051.113.114.113h.408c.063 0 .114-.05.114-.113V7.18L9.1 8.754a.112.112 0 0 0 .03.029l.007.004.004.002a.048.048 0 0 0 .005.002l.006.003.003.001a.125.125 0 0 0 .008.003h.001c.01.002.02.004.03.004h.408c.063 0 .113-.05.113-.113V6.15a.113.113 0 0 0-.113-.113zm-3.798 2.13h-1.11V6.15a.113.113 0 0 0-.113-.113h-.409a.113.113 0 0 0-.113.113v2.538a.113.113 0 0 0 .033.08l.002.002c.02.02.047.032.078.032h1.632c.063 0 .114-.051.114-.114V8.28a.113.113 0 0 0-.114-.114zm6.054-1.494c.063 0 .114-.051.114-.114v-.408a.113.113 0 0 0-.114-.114h-1.632a.113.113 0 0 0-.079.032l-.001.001-.002.002a.113.113 0 0 0-.031.078v2.538a.113.113 0 0 0 .035.082c.02.02.047.032.078.032h1.632c.063 0 .114-.051.114-.114V8.28a.113.113 0 0 0-.114-.114h-1.11v-.429h1.11c.063 0 .114-.05.114-.113v-.409a.113.113 0 0 0-.114-.113h-1.11v-.43h1.11z"/>
</svg>
