<svg xmlns="http://www.w3.org/2000/svg" width="80" height="80" viewBox="0 0 80 80">
    <path fill="#19110B" fill-rule="evenodd" d="M40 8c15.464 0 28 12.475 28 27.864C68 59.747 40 72 40 72S12 59.747 12 35.864C12 20.475 24.536 8 40 8zm-4.103 41.03c-.291 0-.48-.09-.364-.442a.32.32 0 0 0 .017-.089l1.246-3.221 1.057 2.523 2.69.044 7.9-17.974c.527-.79 1.09-1.034 1.468-1.101h.946v-1.341h-5.75v1.34h.88c.51.08 1.134.44.503 1.856-.087.194-.158.37-.216.53l-5.931 13.494a.378.378 0 0 0-.033.056c-.154.323-.276.221-.362.01a.097.097 0 0 0-.022-.035l-1.509-3.597 2.984-7.716c.547-1.138 1.202-1.541 1.697-1.669h1.117l.618-1.495H37.72l-.618 1.495h.81c.312.069.629.297.435.983l-1.64 4.323-3.008-7.18a1.201 1.201 0 0 0-.049-.135c-.378-.892.214-.916.795-.916a.488.488 0 0 0 .062-.003h.33v-1.341H28v1.34h.726c.561.11 1.329.509 1.86 1.777.087.208.177.393.27.557l4.247 10.135-1.967 5.187c-.072.141-.14.296-.206.466-.695 1.802-1.732 2.103-2.665 2.141h-.58c-.107-.002-.21-.004-.31-.004a.34.34 0 0 0-.053.004h-.737l-.515 1.192h19.732l2.899-5.704h-1.524l-.368.951c-.608 1.323-2.02 3.557-4.634 3.561h-8.257a.197.197 0 0 0-.021-.001z"/>
</svg>
