<svg xmlns="http://www.w3.org/2000/svg">
    <svg id="settings" viewBox="0 0 80 80">
        <path fill-rule="evenodd" d="M72.949 41.421l-6.162.761-.968 4.048a26.169 26.169 0 0 1-2.937 7.255l-2.084 3.522 4.4 5.636-2.011 2.011-5.565-4.344-3.564 2.236a26.191 26.191 0 0 1-7.75 3.276l-4.024.982L41.396 74h-2.843l-.888-7.194-4.023-.983a26.245 26.245 0 0 1-7.006-2.83l-3.511-2.046-6.063 4.733-2.011-2.01 4.66-5.969-2.25-3.569a26.13 26.13 0 0 1-3.331-7.9l-.97-4.05-6.16-.76v-2.843l6.16-.759.97-4.05a26.202 26.202 0 0 1 2.993-7.35l2.103-3.529-4.174-5.348 2.009-2.01 5.293 4.133 3.563-2.228a26.185 26.185 0 0 1 7.72-3.258l4.028-.98.888-7.2h2.843l.888 7.2 4.028.98a26.13 26.13 0 0 1 7.85 3.344l3.574 2.267 5.452-4.259 2.01 2.011-4.326 5.545 2.059 3.513a26.137 26.137 0 0 1 2.887 7.17l.969 4.05 6.162.758v2.842zm1.97-8.645l-3.265-.402a32.21 32.21 0 0 0-3.546-8.807l2.586-3.314a4.14 4.14 0 0 0 1.12-2.848 4.148 4.148 0 0 0-1.221-2.953l-4.315-4.315a4.151 4.151 0 0 0-2.952-1.22 4.15 4.15 0 0 0-2.848 1.12l-3.1 2.42a32.15 32.15 0 0 0-9.646-4.106l-.534-4.32a4.18 4.18 0 0 0-4.172-4.03h-6.102a4.18 4.18 0 0 0-4.173 4.03l-.533 4.32a32.185 32.185 0 0 0-9.482 4l-2.964-2.315a4.15 4.15 0 0 0-2.848-1.119 4.156 4.156 0 0 0-2.954 1.22l-4.313 4.315a4.182 4.182 0 0 0-.102 5.8l2.415 3.093a32.196 32.196 0 0 0-3.675 9.03l-3.265.401A4.182 4.182 0 0 0 1 36.95v6.101a4.179 4.179 0 0 0 4.03 4.172l3.265.404a32.136 32.136 0 0 0 4.09 9.706l-2.83 3.626a4.183 4.183 0 0 0 .102 5.801l4.313 4.314a4.153 4.153 0 0 0 2.954 1.222 4.15 4.15 0 0 0 2.848-1.12l3.843-3a32.21 32.21 0 0 0 8.603 3.475l.533 4.32a4.18 4.18 0 0 0 4.173 4.03h6.102a4.18 4.18 0 0 0 4.172-4.03l.534-4.32a32.175 32.175 0 0 0 9.515-4.022l3.23 2.521a4.18 4.18 0 0 0 5.8-.102l4.315-4.313a4.143 4.143 0 0 0 1.223-2.954 4.148 4.148 0 0 0-1.12-2.848l-2.65-3.392a32.191 32.191 0 0 0 3.609-8.914l3.265-.404a4.179 4.179 0 0 0 4.03-4.172v-6.1a4.182 4.182 0 0 0-4.03-4.175zM39.975 52.114c-6.68 0-12.115-5.433-12.115-12.113s5.434-12.114 12.114-12.114c6.68 0 12.115 5.434 12.115 12.114 0 6.68-5.434 12.114-12.114 12.114m0-30.229c-9.989 0-18.115 8.127-18.115 18.115 0 9.988 8.127 18.114 18.114 18.114 9.989 0 18.115-8.127 18.115-18.114 0-9.988-8.127-18.114-18.114-18.114"/>
    </svg>
    <svg id="wishlist" viewBox="0 0 80 80">
        <path fill-rule="evenodd" d="M39.783 72l-1.336-.82C37 70.29 3 49.195 3 31.1c0-5.924 1.86-11.508 5.24-15.722C12.109 10.55 17.525 8 23.9 8c7.986 0 13.111 4.7 15.831 8.22C42.382 12.68 47.482 8 55.924 8c13.418 0 20.657 11.902 20.657 23.101 0 18.345-34.01 39.206-35.458 40.085l-1.34.814zm.023-7.076c1.238-.8 2.594-1.708 4.035-2.713 4.002-2.792 7.957-5.835 11.597-9.028C64.989 44.803 70.58 36.88 70.58 31.1 70.58 21.546 64.568 14 55.924 14c-5.034 0-8.696 2.218-11.388 5.815l-4.728 6.316-4.823-6.243C32.166 16.241 28.53 14 23.9 14c-4.572 0-8.26 1.737-10.98 5.132C10.418 22.254 9 26.509 9 31.1c0 5.667 5.598 13.578 15.147 21.989 3.642 3.208 7.6 6.272 11.603 9.089a141.277 141.277 0 0 0 4.05 2.749l.006-.004z"/>
    </svg>
    <svg id="checkbox-off" viewBox="0 0 16 16">
        <path fill="currentColor" fill-rule="evenodd" d="M1.2 1.2v13.6h13.6V1.2H1.2zM0 0h16v16H0V0z"/>
    </svg>
    <svg id="checkbox-on" viewBox="0 0 16 16">
        <path fill="currentColor" fill-rule="evenodd" d="M1.2 1.2v13.6h13.6V1.2H1.2zM0 0h16v16H0V0zm12.042 4.148l.86.853-6.86 6.919-2.944-2.967.86-.854 2.084 2.1 6-6.051z"/>
    </svg>
    <svg id="close" viewBox="0 0 14 14">
        <path fill="currentColor" fill-rule="evenodd" d="M7 6.151L12.515.636l.849.849L7.849 7l5.515 5.515-.849.849L7 7.849l-5.515 5.515-.849-.849L6.151 7 .636 1.485l.849-.849L7 6.151z"/>
    </svg>
    <svg id="geolocalisation" viewBox="0 0 80 80">
        <path fill="currentColor" fill-rule="evenodd" d="M63.296 30.707c0 7.53-3.694 16.336-10.982 26.173-4.484 6.054-9.32 11.062-12.302 13.956-2.98-2.89-7.81-7.895-12.3-13.956-7.288-9.838-10.984-18.644-10.984-26.173 0-11.293 7.668-20.938 18.646-23.457a20.703 20.703 0 0 1 4.638-.522c1.574 0 3.135.176 4.64.522C55.63 9.77 63.297 19.414 63.297 30.707M46.157.69C60.21 3.916 70.025 16.26 70.025 30.707c0 20.988-23.117 43.034-27.751 47.24L40.012 80l-2.261-2.053C33.117 73.742 10 51.699 10 30.707 10 16.259 19.815 3.917 33.866.69a27.655 27.655 0 0 1 12.29 0h.001zm.332 28.07a6.483 6.483 0 0 1-6.477 6.477 6.483 6.483 0 0 1-6.475-6.477 6.483 6.483 0 0 1 6.475-6.477 6.483 6.483 0 0 1 6.477 6.477zm-6.477-13.205c-7.28 0-13.205 5.924-13.205 13.205 0 7.282 5.924 13.206 13.205 13.206 7.283 0 13.205-5.924 13.205-13.206 0-7.281-5.922-13.205-13.205-13.205z"/>
    </svg>
</svg>
