<svg xmlns="http://www.w3.org/2000/svg" width="80" height="80" viewBox="0 0 80 80">
    <g fill="none" fill-rule="evenodd" transform="translate(0 14)">
        <rect width="80" height="51.81" fill="#000" rx="2"/>
        <path fill="#FFF" d="M51.986 42.216c.193 0 .468.037.68.122l-.294.918a1.53 1.53 0 0 0-.597-.113c-.625 0-.938.413-.938 1.153v2.512h-.955v-4.48h.946v.544c.248-.394.607-.656 1.158-.656zm-3.307 1.002h-1.562v2.025c0 .45.156.75.634.75.248 0 .56-.085.845-.253l.276.834c-.303.215-.78.347-1.194.347-1.13 0-1.525-.619-1.525-1.66v-2.043h-.892v-.89h.892V40.97h.964v1.36h1.562v.89zm-4.591.254a2.787 2.787 0 0 0-1.37-.384c-.523 0-.835.196-.835.524 0 .3.33.385.744.44l.45.066c.956.14 1.534.553 1.534 1.34 0 .854-.735 1.463-2.003 1.463-.716 0-1.378-.188-1.902-.582l.45-.759c.322.253.8.469 1.462.469.652 0 1.001-.197 1.001-.544 0-.253-.248-.393-.771-.468l-.45-.066c-.984-.14-1.517-.59-1.517-1.321 0-.89.717-1.434 1.829-1.434.698 0 1.332.16 1.791.468l-.413.788zm-7.295.702h2.278c-.1-.693-.496-1.086-1.111-1.086-.68 0-1.066.44-1.167 1.086zm3.27.394c0 .132-.008.253-.018.375h-3.261c.138.806.698 1.096 1.314 1.096.44 0 .91-.168 1.277-.468l.468.722c-.533.459-1.14.628-1.8.628-1.315 0-2.252-.928-2.252-2.353 0-1.396.9-2.352 2.187-2.352 1.231 0 2.077.956 2.086 2.352zm15.247-1.436c-.196 0-.377.035-.545.105a1.29 1.29 0 0 0-.436.295 1.372 1.372 0 0 0-.289.454c-.07.176-.106.37-.106.582 0 .212.036.407.106.582.07.177.167.328.289.454.122.127.267.225.436.295.168.07.35.105.545.105.196 0 .378-.035.546-.105a1.315 1.315 0 0 0 .73-.749c.07-.175.104-.37.104-.582 0-.212-.035-.406-.105-.582a1.322 1.322 0 0 0-.73-.749 1.406 1.406 0 0 0-.545-.105zm0-.922c.34 0 .654.06.942.18.29.12.54.286.75.496.211.21.377.46.495.746.12.288.18.6.18.936 0 .337-.06.649-.18.936a2.274 2.274 0 0 1-.495.746c-.21.21-.46.375-.75.496a2.43 2.43 0 0 1-.942.18c-.34 0-.653-.06-.942-.18a2.274 2.274 0 0 1-.748-.496c-.21-.21-.374-.46-.493-.746a2.417 2.417 0 0 1-.179-.936c0-.337.06-.648.18-.936.118-.286.283-.535.492-.746.21-.21.459-.375.748-.495s.603-.18.942-.18zM31.31 44.568c0 .787.505 1.434 1.332 1.434.79 0 1.323-.619 1.323-1.434s-.533-1.434-1.323-1.434c-.827 0-1.332.647-1.332 1.434zm3.555 0v2.24h-.955v-.543c-.303.403-.763.656-1.388.656-1.23 0-2.195-.984-2.195-2.353 0-1.368.964-2.352 2.195-2.352.625 0 1.085.253 1.388.656v-.544h.955v2.24zm-5.384 2.24v-2.811c0-1.06-.661-1.772-1.727-1.781-.56-.01-1.14.169-1.544.796-.303-.497-.78-.796-1.451-.796-.469 0-.928.14-1.286.665v-.553h-.956v4.48h.965v-2.483c0-.779.422-1.19 1.075-1.19.634 0 .955.42.955 1.18v2.493h.965v-2.483c0-.779.441-1.19 1.075-1.19.652 0 .965.42.965 1.18v2.493h.964z"/>
        <path fill="#7673C0" d="M32.829 34.701H47.32V8.137H32.83z"/>
        <path fill="#EB001B" d="M33.749 21.419c0-5.39 2.474-10.189 6.326-13.283A16.285 16.285 0 0 0 29.84 4.524c-9.147 0-16.56 7.564-16.56 16.895 0 9.33 7.413 16.894 16.56 16.894 3.863 0 7.417-1.35 10.235-3.612-3.852-3.093-6.326-7.893-6.326-13.282"/>
        <path fill="#00A1DF" d="M66.87 21.419c0 9.33-7.414 16.894-16.56 16.894-3.864 0-7.418-1.35-10.235-3.612 3.852-3.093 6.325-7.893 6.325-13.282 0-5.39-2.473-10.189-6.325-13.283A16.284 16.284 0 0 1 50.31 4.524c9.146 0 16.56 7.564 16.56 16.895"/>
    </g>
</svg>
