<svg xmlns="http://www.w3.org/2000/svg" width="80" height="80" viewBox="0 0 80 80">
    <path fill="#19110B" fill-rule="evenodd" d="M22.78 71.46l-1.456-.494-2.042 2.038a1.267 1.267 0 0 1-.908.377H4.938v-5.603H18.88c.413 0 .826.063 1.227.187 3.397 1.055 15.429 4.449 29.594 4.449 8.152 0 17.01-1.127 25.335-4.468v2.4c-26.038 9.812-51.99 1.203-52.256 1.115zM8.642 49.278l.635-.706V29.99c.471.01 1.007.02 1.578.033-.063 7.05-.092 14.561.059 15.467.346 2.083 2.273 2.881 6.926 4.806 1.244.515 2.66 1.101 4.208 1.78 1.202.53 2.23.73 3.1.73 1.255 0 2.179-.42 2.815-.88 2.527-1.836 2.297-5.52 2.226-6.24l-3.177-15.31 1.09.025c1.254 7.828 3.487 13.509 7.132 18.225C38.52 52.879 51.352 61.19 65.22 62.613c3.133.321 5.277.775 6.755 1.227-20.963 7.787-45.439.952-50.404-.59a9.052 9.052 0 0 0-2.692-.41H6.295c-.658-9.796 2.346-13.558 2.348-13.563zm16.641-2.994c.03.513-.056 1.256-.21 1.583-.156-.01-.485-.069-1.04-.312a214.345 214.345 0 0 0-4.305-1.822c-1.483-.613-3.125-1.293-3.961-1.737-.044-2.156-.025-8.017.027-13.866l6.154.134 3.335 16.02zm53.924 16.428c-1.749-2.621-6.16-4.26-13.485-5.012-12.963-1.328-24.416-9.291-26.581-12.093-2.288-2.962-5.09-7.68-6.45-17.952l-.278-2.099-2.116-.045C27.95 25.457 7.33 25 6.808 25H4.34v21.817C3.126 48.667.77 53.527 1.343 62.84H0v11.428a4.056 4.056 0 0 0 4.051 4.052h14.323c1.615 0 3.136-.61 4.297-1.722 3.565 1.046 13.065 3.443 25.196 3.443 9.163 0 19.827-1.369 30.565-5.72l1.542-.624v-8.07c.077-.647.028-1.725-.766-2.915z"/>
</svg>
