<svg xmlns="http://www.w3.org/2000/svg" width="80" height="80" viewBox="0 0 80 80">
    <path fill="#19110B" fill-rule="evenodd" d="M28.893 36.995V16.02c0-6.044 4.916-10.961 10.957-10.961 6.045 0 10.961 4.917 10.961 10.96v20.976c0 6.041-4.916 10.956-10.96 10.956-6.042 0-10.958-4.915-10.958-10.956M39.85 53.009c-8.833 0-16.019-7.185-16.019-16.014V16.02C23.831 7.186 31.017 0 39.851 0c8.832 0 16.018 7.186 16.018 16.02v20.975c0 8.83-7.186 16.014-16.019 16.014zm2.74 10.65l-.258.027v11.256h9.713a2.51 2.51 0 0 1 2.538 2.537c0 1.414-1.115 2.521-2.538 2.521H27.568c-1.423 0-2.538-1.107-2.538-2.52a2.51 2.51 0 0 1 2.538-2.538h9.712V63.687l-.261-.028A26.733 26.733 0 0 1 13 36.99c0-1.414 1.115-2.521 2.537-2.521 1.425 0 2.54 1.107 2.54 2.521 0 11.997 9.759 21.756 21.756 21.756 11.995 0 21.755-9.76 21.755-21.756 0-1.409 1.111-2.516 2.53-2.521.71.003 1.356.272 1.823.755a2.38 2.38 0 0 1 .67 1.757c0 13.781-10.328 25.258-24.022 26.678z"/>
</svg>
