<svg xmlns="http://www.w3.org/2000/svg" width="80" height="80" viewBox="0 0 80 80">
    <path fill="#19110B" fill-rule="evenodd" d="M74.394 70.527H31.883L7.6 42.465a27.34 27.34 0 0 1 15.61-15.306v5.111h5.608v-6.595a27.389 27.389 0 0 1 4.166-.324h13.118c.927 0 1.883.051 2.853.153v6.766h5.607v-5.609c11.564 3.648 19.832 14.416 19.832 26.066v17.8zM5.608 62.668l6.596 7.859H5.608v-7.859zm.286-13.83l18.769 21.689h-5.256L5.608 54.083v-1.356c0-1.316.104-2.614.286-3.889zM38.887 9.607c6.656 0 9.484 5.296 9.977 10.257a32.728 32.728 0 0 0-2.762-.121H32.984a33.21 33.21 0 0 0-4.09.257c.456-5.032 3.264-10.393 9.993-10.393zm15.667 11.229C54.281 10.886 47.916 4 38.887 4c-9.149 0-15.563 7.071-15.675 17.232C9.508 25.492 0 38.338 0 52.727v23.407h80V52.727c0-14.756-10.655-28.049-25.446-31.891z"/>
</svg>
