<svg xmlns="http://www.w3.org/2000/svg" width="80" height="80" viewBox="0 0 80 80">
    <path fill="#19110B" fill-rule="evenodd" d="M40.045 57.79a5.885 5.885 0 1 1 0 11.77 5.885 5.885 0 0 1 0-11.77zm0-15.96c6.687 0 12.838 3.032 17.118 8.292.535.713.446 1.783-.178 2.407L54.4 55.115a1.76 1.76 0 0 1-1.248.535h-.089c-.535 0-1.07-.267-1.337-.713-2.764-3.745-7.044-5.885-11.68-5.885-4.637 0-8.916 2.14-11.681 5.885-.356.446-.802.713-1.338.713h-.088c-.446 0-.891-.178-1.249-.535l-2.585-2.586c-.713-.713-.713-1.694-.178-2.407 4.19-5.26 10.432-8.292 17.119-8.292zm0-15.335c10.609 0 20.774 4.636 27.907 12.66.624.714.534 1.784-.09 2.408l-2.585 2.586a1.764 1.764 0 0 1-1.25.535h-.087c-.446 0-.892-.268-1.25-.624a29.953 29.953 0 0 0-22.645-10.343c-8.738 0-16.94 3.745-22.647 10.343a1.56 1.56 0 0 1-1.248.624h-.09a1.76 1.76 0 0 1-1.248-.535l-2.585-2.586c-.714-.624-.714-1.694-.09-2.407 7.044-8.025 17.208-12.661 27.908-12.661zm39.497.98a1.807 1.807 0 0 1-.089 2.497l-2.585 2.586a1.76 1.76 0 0 1-1.249.534c-.445-.089-.891-.267-1.248-.624-8.827-9.718-21.398-15.335-34.416-15.335-13.017 0-25.5 5.617-34.326 15.246-.268.446-.803.624-1.248.624a1.76 1.76 0 0 1-1.249-.535L.547 29.972a1.807 1.807 0 0 1-.09-2.497C10.623 16.42 25.067 10 40.046 10c14.978 0 29.333 6.42 39.497 17.475z"/>
</svg>
