<svg xmlns="http://www.w3.org/2000/svg" width="80" height="80" viewBox="0 0 80 80">
    <path fill="#19110B" fill-rule="evenodd" d="M22.085 73.262c-.525.621-1.358 1.255-3.548 1.255l-9.103.001c-1.387.047-2.533-.335-3.347-1.115-.878-.838-1.363-2.136-1.403-3.718V42.837c.137-3.38 2.511-4.891 4.803-4.891H23.31c-.009 7.277-.005 14.744-.002 21.704l.005 9.96c-.077 1.512-.513 2.809-1.228 3.652m50.31-22.827c-.629.217-1.138.71-1.395 1.355a2.327 2.327 0 0 0 .074 1.932l.055.105c.46.9.655 1.281.602 3.182-.05.645-.222.893-.589 1.205-.523.447-1.512.861-2.419 1.212-.753.295-1.296 1.005-1.42 1.849-.123.844.196 1.678.81 2.158.324.263 1.056 1.108.931 3.284-.104.457-.567 1.191-1.405 1.873-.82.666-1.926 1.222-2.86 1.441l-30.982.002c-.537-.027-2.42-.148-4.122-.575-.657-.165-1.257-.38-1.645-.594l-.034-.019V41.362l1.669-1.12c.348-.238.625-.565.795-.932l10.764-22.433a2.32 2.32 0 0 0 .222-1.007V6.403c.138-.243.683-.697 2.095-.718 2.837.188 5.832 2.47 5.775 8.295-.244 3.615-.918 6.918-1.63 10.415-.36 1.763-.732 3.586-1.044 5.459a2.323 2.323 0 0 0 .555 1.885c.46.533 1.09.823 1.769.825h21.546c1.794 0 3.244.473 4.083 1.33.478.486.732 1.082.72 1.72.011 1.637-.36 2.33-.725 2.791-.319.403-.782.746-1.318 1.143-.214.159-.433.321-.637.481-.64.486-.971 1.312-.864 2.155.107.843.635 1.56 1.37 1.868.724.308 1.24.577 1.574.962.289.333.617.886.6 2.309.02.903-.238 1.356-.66 1.794-.48.497-1.27.957-2.26 1.318m5.596-8.769c.098-.106.197-.22.296-.345 1.147-1.452 1.724-3.368 1.713-5.694.027-1.827-.702-3.59-2.056-4.966-1.766-1.794-4.415-2.78-7.46-2.78H51.802c.15-.776.305-1.548.462-2.322.718-3.561 1.461-7.242 1.731-11.324l.002-.11c.118-8.642-5.246-12.86-10.318-13.124L43.58 1c-4.042.021-6.308 2.302-6.747 4.487a2.411 2.411 0 0 0-.07.546v9.313l-9.139 19.007c-.421-.651-1.155-1.093-1.969-1.093H9.515C5.074 33.26.23 36.567 0 42.75v26.993c.062 2.881 1.05 5.316 2.857 7.041 1.645 1.57 3.889 2.423 6.311 2.423.115 0 .23 0 .347-.004h8.966c3.076 0 5.55-1 7.156-2.894.644-.76 1.15-1.657 1.531-2.716.419.151.87.287 1.357.409 2.097.525 4.246.674 5.07.714l31.51.002c.22 0 .403-.04.458-.057 1.756-.36 3.538-1.22 5.02-2.424 1.807-1.468 2.858-3.113 3.124-4.889l.018-.294c.11-1.678-.14-3.158-.762-4.48a6.102 6.102 0 0 0 1.203-.785c1.327-1.13 2.123-2.73 2.246-4.584.05-1.459-.09-2.512-.314-3.356.636-.36 1.321-.834 1.926-1.462 1.301-1.347 2.002-3.164 1.976-5.142.017-2.688-.945-4.366-1.755-5.302a6.264 6.264 0 0 0-.254-.277"/>
</svg>
