<svg xmlns="http://www.w3.org/2000/svg" width="80" height="80" viewBox="0 0 80 80">
    <path fill="#19110B" fill-rule="evenodd" d="M64 42V20.364A4.364 4.364 0 0 0 59.636 16H20.364A4.364 4.364 0 0 0 16 20.364V42h48zm0 6H16v11.636A4.364 4.364 0 0 0 20.364 64h39.272A4.364 4.364 0 0 0 64 59.636V48zM20.714 10h38.572C65.203 10 70 14.797 70 20.714v38.572C70 65.203 65.203 70 59.286 70H20.714C14.797 70 10 65.203 10 59.286V20.714C10 14.797 14.797 10 20.714 10zM26.5 36a6.5 6.5 0 1 1 0-13 6.5 6.5 0 0 1 0 13zM40 22h16a3 3 0 0 1 0 6H40a3 3 0 0 1 0-6zm0 9h16a3 3 0 0 1 0 6H40a3 3 0 0 1 0-6z"/>
</svg>
