<svg xmlns="http://www.w3.org/2000/svg" width="48" height="48" viewBox="0 0 48 48">
    <path fill="#19110B" fill-rule="evenodd" d="M22.77 8l-.203.065L.143 15.287 0 15.333v17.572l25.344 7.614L48 32.89V15.308L34.214 11.44l-.164-.049-11.072-3.329L22.769 8zm-8.14 3.784l8.15-2.49 9.18 2.754-7.818 2.606-9.512-2.87zm19.584-.344l-.054.197.054-.197zM2.129 15.842L12.751 12.5l9.33 2.82-10.8 3.27-9.152-2.75zm24.06-.574l7.817-2.605 11.76 3.26-8.237 2.747-11.34-3.402zm-13.06 3.88l11.032-3.204 11.34 3.403-10.28 3.426-12.092-3.626zM1.232 28.564V16.86l9.435 2.831v11.705l-9.435-2.831zm36.923-8.806l8.614-2.872v15.117l-8.614 2.872V19.759zM11.897 31.765V20.06l12.718 3.816V35.58l-12.718-3.815zm13.95-7.904l11.076-3.692v15.117l-11.077 3.692V23.861zM1.231 31.99v-2.14l9.435 2.832v2.14l-9.435-2.832zm10.665 3.2V33.05l12.718 3.816v2.139l-12.718-3.816z"/>
</svg>
