<svg xmlns="http://www.w3.org/2000/svg" width="48" height="48" viewBox="0 0 48 48">
    <path fill="#19110B" fill-rule="evenodd" d="M43.577 34.998V18.149c0-.727-.592-1.32-1.32-1.32h-3.354v12.226a2.688 2.688 0 0 1 1.994 2.587 2.692 2.692 0 0 1-2.69 2.69 2.67 2.67 0 0 1-1.55-.5 2.688 2.688 0 0 1-3.706-.578 2.697 2.697 0 0 1-.438-.919H10.521v2.663c0 .728.592 1.32 1.32 1.32h30.415c.729 0 1.321-.592 1.321-1.32zM4.424 29.592c0 .728.592 1.32 1.32 1.32H36.16c.729 0 1.321-.592 1.321-1.32v-8.658H4.424v8.658zm1.32-18.169c-.728 0-1.32.593-1.32 1.321v2.701H37.48v-2.7c0-.73-.592-1.322-1.32-1.322H5.744zM38.737 30.5a2.739 2.739 0 0 1-1.671 1.67c.202.434.635.739 1.143.739.698 0 1.266-.569 1.266-1.267 0-.508-.305-.94-.738-1.142zM4.424 19.51H37.48v-2.642H4.424v2.642zM35.62 32.335h-1.565c.013.022.02.046.035.066.39.522 1.104.638 1.653.311a2.595 2.595 0 0 1-.123-.377zm6.635-16.93A2.747 2.747 0 0 1 45 18.15v16.849a2.747 2.747 0 0 1-2.744 2.743H11.842a2.747 2.747 0 0 1-2.745-2.743v-2.663H5.745A2.747 2.747 0 0 1 3 29.592V12.744A2.748 2.748 0 0 1 5.745 10h30.414a2.747 2.747 0 0 1 2.744 2.744v2.662h3.353zM32.11 26.812c.699 0 1.267-.568 1.267-1.266a1.268 1.268 0 0 0-2.532 0c0 .698.567 1.266 1.265 1.266zm0-3.956a2.693 2.693 0 0 1 2.69 2.69 2.692 2.692 0 0 1-2.69 2.689 2.692 2.692 0 0 1-2.688-2.689 2.693 2.693 0 0 1 2.688-2.69zM7.268 26.468v-1.423h12.11v1.423H7.268z"/>
</svg>
