<svg xmlns="http://www.w3.org/2000/svg" width="80" height="80" viewBox="0 0 80 80">
    <path fill="#19110B" fill-rule="evenodd" d="M21.471 66.554c.952-4.002 6.371-26.864 6.371-26.864s-1.582-3.148-1.582-7.801c0-7.306 4.253-12.762 9.549-12.762 4.503 0 6.68 3.368 6.68 7.401 0 4.508-2.888 11.251-4.373 17.497-1.24 5.23 2.633 9.495 7.814 9.495 9.381 0 15.7-11.997 15.7-26.212 0-10.805-7.31-18.893-20.603-18.893-15.019 0-24.375 11.153-24.375 23.61 0 4.295 1.272 7.325 3.264 9.67.916 1.077 1.043 1.511.711 2.748-.237.907-.782 3.09-1.008 3.957-.33 1.248-1.346 1.694-2.48 1.233C10.223 46.821 7 39.278 7 30.798 7 16.793 18.862 0 42.386 0c18.903 0 31.345 13.62 31.345 28.242 0 19.34-10.798 33.79-26.715 33.79-5.346 0-10.374-2.878-12.096-6.146 0 0-2.875 11.36-3.484 13.553-1.049 3.801-3.104 7.6-4.983 10.561-5.869-3.548-5.869-9.7-4.982-13.446z"/>
</svg>
