<svg xmlns="http://www.w3.org/2000/svg" width="80" height="80" viewBox="0 0 80 80">
    <path fill="#19110B" fill-rule="evenodd" d="M26 22c0-7.732 6.268-14 14-14s14 6.268 14 14v2.02C66.91 28.062 76 37.724 76 49v23H5V49c0-10.983 8.623-20.435 21-24.652V22zm6 0v.779A46.29 46.29 0 0 1 40.5 22c2.573 0 5.082.208 7.5.604V22a8 8 0 1 0-16 0zm22 8.35V36h-6v-7.308A40.455 40.455 0 0 0 40.5 28c-2.969 0-5.82.314-8.5.894V36h-6v-5.26C16.965 34.424 11 41.396 11 49v17h59V49c0-7.882-6.408-15.083-16-18.65z"/>
</svg>
