<svg xmlns="http://www.w3.org/2000/svg" width="80" height="80" viewBox="0 0 80 80">
    <g fill="#19110B" fill-rule="evenodd">
        <path d="M31.857 0H50.33c2.977 7.716 10.082 11.777 21.315 12.183.135-.136 1.083 3.452 2.842 10.761-9.203 5.144-13.398 11.844-12.586 20.102.812 8.257 5.007 15.16 12.586 20.71l-7.511 10.356C55.743 68.29 47.082 70.254 40.992 80c0-.203-6.699-15.431-25.375-5.888l-8.12-10.356c8.662-7.039 12.992-13.942 12.992-20.71 0-10.153-2.436-16.447-12.991-20.102-.136-.135 1.015-3.722 3.45-10.761 5.82-.136 10.353-1.286 13.601-3.452C27.797 6.565 30.233 3.655 31.857 0zm2.452 4a23.844 23.844 0 0 1-7.54 8.059c-3.37 2.247-7.683 3.548-12.917 3.977a358.846 358.846 0 0 0-1.529 4.55c8.878 4.188 12.166 11.058 12.166 22.46 0 7.274-3.927 14.338-11.486 21.248l3.813 4.864c8.132-3.33 15.131-2.759 20.692.902 1.32.87 2.575 1.973 3.666 3.147 6.382-6.736 14.798-8.126 24.5-4.113l3.342-4.608c-6.54-5.78-10.289-12.84-11.096-21.049-.895-9.104 3.273-16.68 11.99-22.396-.518-2.116-.94-3.799-1.267-5.046C58.657 15.05 51.54 11.055 47.768 4H34.309z"/>
        <path d="M39.705 8V7h-4v1h4zm-4 1h4V8h-4v1zm11.476-1.464L46.901 7H43.704v1h3.725a23.472 23.472 0 0 1-.249-.464zM43.705 9h2.59V8l-.886.464c.23.44.47.866.719 1.28l.857-.514a23.862 23.862 0 0 1-.69-1.23h-2.59v1zm4.916 4.127a19.19 19.19 0 0 0 3.151 2.805l.578-.816a18.191 18.191 0 0 1-2.987-2.66l-.742.671zm6.877 4.864c1.255.525 2.59.936 4.003 1.233l.206-.979a21.124 21.124 0 0 1-3.823-1.176l-.386.922zm8.998 5.218l.702-.4-.246-.772c-.442-1.387-.737-2.369-.882-2.934l-.07.018v4.378c.16-.095.324-.192.496-.29zm-2.363-3.61c.157.613.46 1.624.914 3.046l.953-.304-.496-.868c-.275.156-.534.31-.783.462l.523.853c.247-.152.499-.3.756-.446-.448-1.405-.748-2.402-.899-2.991l-.968.248zm-2.77 4.85a18.45 18.45 0 0 0-2.78 3.186l.825.565a17.45 17.45 0 0 1 2.63-3.014l-.676-.737zM54.61 31.43a19.83 19.83 0 0 0-1.041 4.081l.989.146a18.83 18.83 0 0 1 .988-3.876l-.936-.351zm-1.287 8.227c.012.535.039 1.078.08 1.63.066.85.153 1.672.262 2.48l.991-.134a42.189 42.189 0 0 1-.254-2.41 28.692 28.692 0 0 1-.079-1.587l-1 .021zm1.108 8.151c.34 1.367.752 2.68 1.24 3.936l.932-.361a31.603 31.603 0 0 1-1.201-3.815l-.97.24zm3.011 7.698a27.43 27.43 0 0 0 2.302 3.455l.788-.616a26.43 26.43 0 0 1-2.218-3.329l-.872.49zm6.898 6.594l.461-.71-.623-.572-.179-.166v1.971l.34-.523zm-1.802-.077c.095.09.19.18.287.268l.676-.737-.838-.545-1.974 3.036.838.545 1.976-3.034a27.36 27.36 0 0 1-.279-.26l-.686.727zm-4.423 2.345l.276-.96a23.684 23.684 0 0 0-4.097-.811l-.102.995c1.258.129 2.566.388 3.923.776zm-8.075-1.716a14.961 14.961 0 0 0-4.119 1.183l.412.911a13.962 13.962 0 0 1 3.844-1.103l-.137-.99zm-10.149 6.745c.076.096.113.142.148.183.041.048.041.048.127.132.066.06.066.06.25.168.393.173.393.173 1.196-.252.185-.217.373-.426.564-.629h-2.61c.106.125.204.245.325.398zm2.42-3.276a18.877 18.877 0 0 0-2.112 2.083l-.012-.014.749-.663a14.273 14.273 0 0 1 .586.707c.463-.486.94-.935 1.431-1.347l-.642-.766zM40.835 69c.224-.263.452-.516.684-.76a310.26 310.26 0 0 0-.012-.012c-.054-.05-.054-.05-.23-.152-.36-.16-.384-.17-1.037.174.397.455.595.75.595.75zm-3.158-4.24a15.015 15.015 0 0 0-3.906-1.763l-.276.961a14.047 14.047 0 0 1 3.646 1.646l.536-.844zm-8.152-2.356a18.095 18.095 0 0 0-4.203.507l.23.973a17.09 17.09 0 0 1 3.972-.48l.001-1zm-8.187 1.856c-.146.065-.293.13-.44.198 1.396.333 1.396.333 1.179.262l-.095-.127-.393-.53-1.573-2.132-.805.594 2.098 2.844c.144-.066.288-.13.43-.192l-.4-.917zm-.118-3.992a28.456 28.456 0 0 0 2.58-3.245l-.827-.563a27.456 27.456 0 0 1-2.489 3.131l.736.677zm4.655-6.853a27.976 27.976 0 0 0 1.503-3.866l-.956-.293a26.976 26.976 0 0 1-1.45 3.728l.903.431zm2.45-7.963c.213-1.325.348-2.691.406-4.099l-1-.04a33.756 33.756 0 0 1-.394 3.98l.988.159zm.351-8.16a26.66 26.66 0 0 0-.603-4.112l-.974.226c.285 1.23.478 2.549.58 3.957l.997-.072zm-2.88-7.678l.903-.43a15.576 15.576 0 0 0-2.335-3.578l-.753.658a14.577 14.577 0 0 1 2.186 3.35zM18 21.173l-.67-.168-.277 1.105-.209.839.8.328.356.151v-2.255zm3.107 1.647a17.193 17.193 0 0 0-2.703-1.393l-.38.925.97.242.276-1.105-.97-.242-.3 1.095c.922.378 1.78.818 2.57 1.322l.537-.844zm-.588-3.344a41.62 41.62 0 0 0 4.001-.891l-.27-.963a40.63 40.63 0 0 1-3.904.869l.173.985zm7.926-2.343c1.112-.545 2.042-1.158 2.788-1.843.259-.24.494-.464.727-.695l-.703-.71c-.222.22-.45.436-.681.65-.675.624-1.532 1.19-2.572 1.7l.44.898zm6.37-9.59c-.084.153-.17.306-.257.457h1.09l-.833-.457zm-.936 3.316l.805.594a25.998 25.998 0 0 0 1.885-2.949l-.877-.48c-.54.985-1.145 1.93-1.813 2.835z"/>
    </g>
</svg>
