<svg xmlns="http://www.w3.org/2000/svg" width="80" height="80" viewBox="0 0 80 80">
    <path fill="#19110B" fill-rule="evenodd" d="M32.855 33.39c1.644.686 3.957 1.338 6.814 1.338 2.597 0 5.3-.544 8.048-1.615 3.103 8.638 14.867 25.877 20.56 33.961-4.89 2.693-15.711 7.754-27.94 7.76-12.202-.006-23.04-5.068-27.939-7.762C18.006 59.11 29.601 42.13 32.855 33.39zm-.18-25.029l5.31 9.182h4.704l5.308-9.181L49.87 13.1c-.618 2.45-2.265 9.286-2.807 14.665-6.984 3.194-11.677 1.282-13.426.265-.515-5.435-2.2-12.434-2.833-14.932l1.872-4.737zm41.44 58.013C63.362 51.326 51.886 32.996 52.091 29.62c.349-5.761 2.714-14.984 2.986-16.03l.218-.821-2.234-5.65V0h-6.2l-6.525 11.288L33.812 0H27.61v7.119l-2.232 5.65.221.835c.267 1.032 2.632 10.255 2.982 16.016.205 3.376-11.27 21.706-22.022 36.754L5 68.558l2.241 1.475c.616.407 15.302 9.955 33.113 9.967 17.8-.012 32.464-9.561 33.078-9.967l2.241-1.475-1.559-2.184z"/>
</svg>
