<svg xmlns="http://www.w3.org/2000/svg" width="80" height="80" viewBox="0 0 80 80">
    <path fill="#19110B" fill-rule="evenodd" d="M5.248 66.149c-.558-19.49 5.309-36.984 8.898-45.758 1.441 6.767 3.41 17.542 4.175 28.848-.625 9.114-3.951 15.89-5.71 18.892L5.249 66.15zM56.52 47.995l-.075 1.093c-.486 7.49-.393 14.292.277 20.23-.337.187-.758.411-1.252.66-9.694 4.834-21.263 4.834-30.947-.005a33.682 33.682 0 0 1-1.245-.654c.673-5.96.766-12.792.282-20.323L23.483 48c-1.103-15.326-4.305-29.406-5.53-34.38l9.878-5.75c5.38 1.583 18.96 1.582 24.341.001l9.878 5.75c-1.225 4.97-4.427 19.043-5.53 34.373zm10.863 20.137C65.63 65.147 62.309 58.4 61.68 49.26c.763-11.324 2.734-22.1 4.176-28.864 3.587 8.773 9.453 26.264 8.896 45.754l-7.368 1.983zM52.434 2l-1.298.727c-2.701 1.516-19.562 1.515-22.273-.002L27.567 2l-15.4 10.06C9.538 17.271-1.261 40.52.123 68.294l.094 1.893 14.619 3.936 1.053-1.447c.062-.084.992-1.376 2.184-3.65-.052.442-.106.878-.164 1.306l-.217 1.597 1.332.906c.121.082 1.232.827 3.174 1.797 5.47 2.731 11.625 4.176 17.802 4.176 6.172 0 12.326-1.443 17.797-4.172 1.847-.922 2.967-1.657 3.183-1.8l1.333-.908-.218-1.596c-.058-.426-.112-.86-.163-1.298 1.192 2.275 2.12 3.559 2.18 3.643l1.053 1.446 14.62-3.936.094-1.893c1.382-27.76-9.414-51.017-12.045-56.23L52.435 2z"/>
</svg>
