<svg xmlns="http://www.w3.org/2000/svg" width="16" height="16" viewBox="0 0 16 16">
    <path fill="#19110B" fill-rule="evenodd" d="M4.587 3.27v-.877h6.825v.877h1.075v-.877h1.218c.672 0 1.218.546 1.218 1.217v1.218H1.075V3.61a1.22 1.22 0 0 1 1.219-1.218h1.218v.878h1.075zm10.336 2.634v7.802c0 .67-.546 1.217-1.218 1.217H2.294a1.22 1.22 0 0 1-1.219-1.217V5.904h13.848zm-2.436-4.587V0h-1.075v1.317H4.587V0H3.512v1.317H2.294A2.296 2.296 0 0 0 0 3.611v10.095A2.296 2.296 0 0 0 2.294 16h11.411A2.296 2.296 0 0 0 16 13.706V3.61a2.297 2.297 0 0 0-2.294-2.293h-1.218z"/>
</svg>
