<svg xmlns="http://www.w3.org/2000/svg" width="24" height="24" viewBox="0 0 24 24">
    <path fill="#19110B" fill-rule="evenodd" d="M1.677 16.678c.097.217.196.434.307.647l-.613.322A11.826 11.826 0 0 1 .6 8.405L.6 8.397l.002-.003c.157-.471.345-.934.562-1.386.004-.015.004-.03.01-.044.02-.038.042-.074.061-.112.04-.08.083-.155.124-.233.099-.19.193-.38.3-.563.009-.014.021-.021.03-.033.238-.395.507-.775.793-1.145a.342.342 0 0 1 .049-.097c.21-.269.435-.532.67-.782a.33.33 0 0 1 .093-.067c.067-.07.128-.145.197-.214.25-.25.51-.484.776-.708.017-.024.033-.05.057-.069.263-.218.539-.427.82-.62a.333.333 0 0 1 .104-.045c.371-.252.753-.484 1.146-.69.023-.021.045-.044.074-.059.305-.156.619-.3.934-.43.026-.01.051-.01.077-.015.422-.17.854-.308 1.29-.428a.343.343 0 0 1 .097-.047c.268-.071.54-.132.815-.184l.19-.035c.027-.005.053 0 .08.002.45-.075.904-.119 1.36-.14.031-.011.061-.023.095-.024a12.305 12.305 0 0 1 1.03.003c.032.002.06.013.088.023.454.024.908.072 1.36.15.028-.002.056-.008.086-.002.336.06.675.134 1.004.222a.347.347 0 0 1 .111.055c.418.117.832.254 1.241.418a.344.344 0 0 1 .11.022c.05.02.098.046.148.067l-.301-.98.661-.204.494 1.606c.094.085.133.21.103.333l.062.202-2.057.632-.204-.66.936-.289A11.15 11.15 0 0 0 3.982 4.207a11.288 11.288 0 0 0-2.03 2.772c-.03.057-.063.113-.09.17-.24.48-.44.972-.607 1.476-.097.302-.184.612-.257.92-.003.016-.012.028-.017.043-.106.452-.175.911-.223 1.373 0 .006.003.012.002.02-.033.32-.051.646-.056.967 0 .012-.006.022-.007.033-.006.467.02.936.074 1.403.001.006.005.01.005.015.038.322.09.644.154.957v.01c.095.457.213.911.368 1.36.004.011.013.02.017.031.105.303.225.606.357.9.003.008.002.015.005.021zm22.093-4.636a11.95 11.95 0 0 1-.088 1.51l.007.002c-.01.074-.027.146-.037.22-.03.207-.063.414-.103.619-.012.06-.018.123-.03.183-.003.015-.012.028-.017.041-.104.483-.235.96-.398 1.427-.002.006 0 .012-.003.018-.018.05-.04.098-.06.147-.09.248-.187.492-.294.734-.011.024-.02.05-.03.074-.004.01-.011.017-.017.026a11.836 11.836 0 0 1-2.402 3.48 11.861 11.861 0 0 1-6.634 3.329c-.006.001-.01.005-.015.005l-.033.005-.127.015c-.535.073-1.072.123-1.613.123a11.83 11.83 0 0 1-5.358-1.285l.28 1.027-.667.182-.47-1.715c-.12-.075-.246-.143-.362-.22a.346.346 0 0 1 .384-.576c.115.076.237.142.355.215l1.58-.432.182.668-.924.252c.297.15.598.285.902.405.017.004.034.003.051.009.301.117.61.222.918.312.025.007.045.023.067.035.428.122.86.214 1.296.283.019 0 .037-.006.056-.003a11.724 11.724 0 0 0 .964.11c.014 0 .026.007.04.01.45.028.902.038 1.352.012.02-.005.04-.015.062-.016.314-.02.632-.052.944-.098.011-.002.021.002.032.002.468-.071.93-.172 1.387-.301.008-.003.013-.008.02-.01.311-.09.62-.193.92-.307.016-.007.032-.005.048-.009.428-.165.844-.363 1.252-.581.008-.005.012-.013.02-.017.284-.153.564-.32.832-.497.01-.006.02-.007.03-.012.376-.249.743-.516 1.092-.814.013-.017.022-.036.039-.05.244-.21.482-.433.707-.664.008-.008.02-.011.029-.019.327-.339.63-.694.908-1.064.004-.006.005-.013.009-.02.194-.259.378-.528.547-.8.007-.01.017-.015.024-.024.262-.427.489-.87.69-1.324a11.267 11.267 0 0 0 .854-2.986 11.193 11.193 0 0 0-.312-4.623c-.016-.057-.03-.115-.048-.173a11.15 11.15 0 0 0-.616-1.595l.005-.002c-.134-.28-.28-.56-.439-.83a.346.346 0 0 1 .597-.35c.174.296.336.602.481.91.008.016.007.032.012.048.204.432.373.874.521 1.32.013.022.03.04.037.066.024.075.04.152.063.228l.058.207c.052.186.11.37.153.557.004.017 0 .033.001.05.106.468.178.94.227 1.413.006.02.016.039.018.06.01.094.008.189.015.283.01.139.016.277.021.416.004.11.017.22.018.33 0 .017-.008.032-.01.049zm-4.705-8.534a11.272 11.272 0 0 0-.77-.59.346.346 0 0 1 .397-.567c.28.196.555.406.817.626a.346.346 0 1 1-.444.53zm1.68 1.742a10.98 10.98 0 0 0-.627-.74.346.346 0 1 1 .51-.469c.232.252.455.516.664.786a.345.345 0 1 1-.548.423zM3.828 19.86c.223.232.459.457.701.67a.346.346 0 0 1-.456.52 12.04 12.04 0 0 1-.744-.71.346.346 0 1 1 .5-.48zM2.35 17.944c.168.273.35.543.542.804a.347.347 0 0 1-.557.41 11.866 11.866 0 0 1-.575-.853.345.345 0 1 1 .59-.361zm7.84-11.157L8.22 8.443H10.623l.348-1.656h-.78zm1.922 0h-.435l-.348 1.656h1.132l-.349-1.656zm1.488 0h-.78l.349 1.656h2.401L13.6 6.787zm-2.351 4.836h1.293V9.135h-1.293v2.488zm4.432 3.923v-6.41h-2.447v3.18h-2.678v-3.18H8.109v6.41h7.572zm-8.264.692V8.443h.012a.342.342 0 0 1 .111-.333l2.398-2.015H13.852l2.397 2.015c.1.085.136.213.112.333h.012v7.795H7.417z"/>
</svg>
