<svg xmlns="http://www.w3.org/2000/svg" width="80" height="80" viewBox="0 0 80 80">
    <path fill="#19110B" fill-rule="evenodd" d="M21.293 22.293C21.293 12.206 29.498 4 39.585 4h1.075c10.087 0 18.292 8.206 18.292 18.293v13.543h-37.66V22.293zm45.774 13.543h-4.113V22.293C62.953 10 52.951 0 40.66 0h-1.074C27.294 0 17.293 10 17.293 22.293v13.543h-4.115C9.779 35.836 7 38.616 7 42.014v31.808C7 77.22 9.78 80 13.178 80h53.89c3.398 0 6.178-2.78 6.178-6.178V42.014c0-3.398-2.78-6.178-6.178-6.178z"/>
</svg>
