<svg xmlns="http://www.w3.org/2000/svg" width="80" height="80" viewBox="0 0 80 80">
    <path fill="#19110B" fill-rule="evenodd" d="M66.56 41.137l-4.93.609-.775 3.238a20.935 20.935 0 0 1-2.35 5.804l-1.667 2.818 3.521 4.508-1.61 1.61-4.451-3.476-2.852 1.789a20.953 20.953 0 0 1-6.199 2.62l-3.22.786-.71 5.757h-2.275l-.71-5.755-3.218-.787a20.996 20.996 0 0 1-5.605-2.264L26.7 56.758l-4.85 3.786-1.61-1.609 3.729-4.774-1.8-2.855a20.904 20.904 0 0 1-2.665-6.321l-.775-3.24-4.929-.608v-2.274l4.929-.607.775-3.24a20.962 20.962 0 0 1 2.394-5.88l1.683-2.823-3.34-4.279 1.608-1.608 4.234 3.307 2.85-1.783a20.948 20.948 0 0 1 6.177-2.606l3.222-.785.71-5.759h2.275l.71 5.76 3.223.784a20.904 20.904 0 0 1 6.28 2.675l2.859 1.814 4.361-3.407 1.608 1.608-3.46 4.436 1.647 2.81a20.91 20.91 0 0 1 2.31 5.736l.775 3.24 4.93.607v2.274zm1.575-6.916l-2.612-.322a25.768 25.768 0 0 0-2.837-7.045l2.07-2.652c.578-.618.896-1.423.896-2.278 0-.894-.348-1.733-.978-2.362l-3.452-3.452a3.32 3.32 0 0 0-2.361-.976 3.32 3.32 0 0 0-2.279.895l-2.48 1.937a25.72 25.72 0 0 0-7.716-3.285l-.428-3.456A3.344 3.344 0 0 0 42.621 8h-4.882a3.345 3.345 0 0 0-3.338 3.225l-.427 3.456a25.748 25.748 0 0 0-7.585 3.2l-2.371-1.852a3.32 3.32 0 0 0-2.279-.895c-.893 0-1.733.347-2.363.976l-3.45 3.452a3.345 3.345 0 0 0-.082 4.64l1.932 2.474a25.757 25.757 0 0 0-2.94 7.223l-2.612.322A3.346 3.346 0 0 0 9 37.56v4.88a3.343 3.343 0 0 0 3.224 3.338l2.612.324a25.709 25.709 0 0 0 3.273 7.764l-2.265 2.901a3.346 3.346 0 0 0 .082 4.641l3.45 3.451c.63.63 1.47.978 2.363.978a3.32 3.32 0 0 0 2.279-.896l3.074-2.4a25.768 25.768 0 0 0 6.882 2.78l.427 3.456A3.344 3.344 0 0 0 37.739 72h4.882a3.344 3.344 0 0 0 3.337-3.223l.428-3.456a25.74 25.74 0 0 0 7.612-3.218l2.584 2.017a3.345 3.345 0 0 0 4.64-.082l3.452-3.45c.63-.629.978-1.468.978-2.363 0-.855-.318-1.659-.896-2.279l-2.12-2.713a25.753 25.753 0 0 0 2.887-7.131l2.612-.324a3.343 3.343 0 0 0 3.224-3.337V37.56a3.346 3.346 0 0 0-3.224-3.34zM40.18 49.69c-5.344 0-9.691-4.347-9.691-9.69 0-5.344 4.347-9.692 9.69-9.692 5.345 0 9.692 4.348 9.692 9.691 0 5.344-4.347 9.692-9.691 9.692m0-24.183c-7.99 0-14.491 6.5-14.491 14.491 0 7.99 6.5 14.492 14.49 14.492 7.991 0 14.492-6.501 14.492-14.492 0-7.99-6.5-14.49-14.491-14.49"/>
</svg>
