<svg xmlns="http://www.w3.org/2000/svg" width="48" height="48" viewBox="0 0 48 48">
    <path fill="#19110B" fill-rule="evenodd" d="M41.644 32.886c2.782 0 2.891-2.115 2.894-2.205V13.155c0-.832-.233-1.487-.694-1.945-.794-.79-2.042-.81-2.058-.81h-22.88c-.288 1.398-1.06 4.99-1.845 7.287-.912 2.67-2.893 2.834-3.365 2.834-.055 0-.09-.003-.1-.003l-6.643.002-3.552 4.766v5.98c0 .851.78 1.268 1.384 1.464.404-2.183 2.315-3.844 4.613-3.844 2.352 0 4.288 1.742 4.63 4h16.741c.341-2.258 2.277-4 4.629-4 2.352 0 4.288 1.742 4.63 4h1.616zm-6.246 4c1.82 0 3.3-1.48 3.3-3.3 0-1.82-1.48-3.3-3.3-3.3a3.303 3.303 0 0 0-3.299 3.3c0 1.82 1.48 3.3 3.299 3.3zm-26 0c1.82 0 3.3-1.48 3.3-3.3 0-1.82-1.48-3.3-3.3-3.3a3.303 3.303 0 0 0-3.299 3.3c0 1.82 1.48 3.3 3.299 3.3zm2.545-25.202L7.8 19.12h5.848c.178.013 1.442.005 2.088-1.884.703-2.057 1.419-5.307 1.74-6.835H16.17c-3.311 0-4.218 1.272-4.227 1.284zm32.889-1.466c.734.731 1.106 1.72 1.106 2.937v17.552c-.045 1.254-1 3.58-4.294 3.58h-1.616c-.342 2.258-2.278 4-4.63 4s-4.288-1.742-4.629-4H14.028c-.342 2.258-2.278 4-4.63 4-2.389 0-4.346-1.799-4.64-4.11C3.58 33.89 2 33.054 2 31.264v-6.443l4.048-5.42 4.696-8.437C10.878 10.743 12.057 9 16.17 9h25.613c.048-.002 1.829.002 3.049 1.218zm-7.154 7.312c.687 0 1.246-.559 1.246-1.246 0-.687-.559-1.246-1.246-1.246-.687 0-1.246.56-1.246 1.246 0 .687.56 1.246 1.246 1.246zm0-3.893a2.65 2.65 0 0 1 2.646 2.647 2.649 2.649 0 0 1-2.646 2.646 2.649 2.649 0 0 1-2.646-2.646 2.65 2.65 0 0 1 2.646-2.647z"/>
</svg>
