<svg xmlns="http://www.w3.org/2000/svg" xmlns:xlink="http://www.w3.org/1999/xlink" width="80" height="80" viewBox="0 0 80 80">
    <defs>
        <path id="a" d="M0 0h80v56H0z"/>
    </defs>
    <g fill="none" fill-rule="evenodd" transform="translate(0 12)">
        <mask id="b" fill="#fff">
            <use xlink:href="#a"/>
        </mask>
        <use fill="#D8D8D8" xlink:href="#a"/>
        <g mask="url(#b)">
            <path fill="#ED2939" fill-rule="nonzero" d="M-2 0h84v56H-2z"/>
            <path fill="#FFF" fill-rule="nonzero" d="M-2 28h84v28H-2zM27 14.5C27 20.299 22.299 25 16.5 25S6 20.299 6 14.5a10.5 10.5 0 0 1 21 0z"/>
            <path fill="#ED2939" fill-rule="nonzero" d="M30 14c0 5.523-4.477 10-10 10s-10-4.477-10-10S14.477 4 20 4s10 4.477 10 10z"/>
            <path fill="#FFF" fill-rule="nonzero" d="M18.046 14L16.5 12.813 14.955 14l.595-1.912L14 10.91l1.913.004L16.5 9l.587 1.914L19 10.909l-1.55 1.18zM29.042 13.98l-1.54-1.18-1.538 1.181.593-1.904-1.544-1.173 1.905.004.584-1.906.585 1.906 1.905-.005-1.543 1.174zM23.042 9.98l-1.54-1.18-1.538 1.181.593-1.904-1.544-1.173 1.905.004.584-1.906.585 1.906 1.905-.005-1.543 1.174zM20.042 20.98l-1.54-1.18-1.538 1.181.593-1.904-1.544-1.173 1.905.004.584-1.906.585 1.906 1.905-.005-1.543 1.174zM27.042 20.98l-1.54-1.18-1.538 1.181.593-1.904-1.544-1.173 1.905.004.584-1.906.585 1.906 1.905-.005-1.543 1.174z"/>
        </g>
        <path stroke="#19110B" stroke-width=".2" d="M.1.1h79.8v55.8H.1z" mask="url(#b)"/>
    </g>
</svg>
