<svg xmlns="http://www.w3.org/2000/svg" width="80" height="80" viewBox="0 0 80 80">
    <path fill="#19110B" fill-rule="evenodd" d="M49.99 12.1l7.534-7.534 17.452 17.452L22.62 74.373 5.169 56.92l2.952-2.952 4.905 4.906c.566.566 1.52.743 2.064.2.466-.467.46-1.404-.2-2.065l-4.905-4.905 1.787-1.787 38.217-38.217zm-7.488 7.488l1.956-1.956 4.905 4.906c.566.566 1.523.74 2.071.193.47-.47.467-1.41-.193-2.071l-4.905-4.905 1.8-1.8-5.634 5.633zm-7.198 7.199l5.477-5.477-1.8 1.8 4.905 4.905c.66.66.663 1.601.193 2.07-.547.548-1.505.373-2.07-.193l-4.906-4.905-1.8 1.8zm27.328-7.52s-.094-.095 0 0a2.107 2.107 0 0 0-3.019 0 2.107 2.107 0 0 0 0 3.018c.85.849 2.17.849 3.02 0a2.107 2.107 0 0 0 0-3.019zm-5.188 5.188c-2.076-2.076-2.076-5.472 0-7.358 1.98-1.981 5.377-1.981 7.358 0 1.98 1.98 1.98 5.377 0 7.358-1.981 1.98-5.283 2.075-7.358 0zM27.87 34.22l1.956-1.956 4.905 4.905c.644.488 1.507.568 2.055.02.375-.563.31-1.254-.177-1.898l-4.906-4.905 1.8-1.8-5.633 5.634zm-7.277 7.276l1.8-1.8 4.905 4.906c.644.488 1.507.568 2.055.02.375-.563.31-1.254-.177-1.898l-4.905-4.905 1.8-1.8-5.478 5.477zm-7.354 7.355l1.956-1.956L20.1 51.8c.566.566 1.523.74 2.07.193.47-.47.468-1.41-.192-2.07l-4.906-4.906 1.8-1.8-5.633 5.634zM1.76 55.99c-.47.47-.468 1.411.098 1.977l19.716 19.716c.566.566 1.523.74 2.07.193l54.691-54.69c.47-.47.467-1.411-.193-2.071L58.426 1.4c-.566-.566-1.523-.74-2.07-.193L1.759 55.992z"/>
</svg>
