<svg xmlns="http://www.w3.org/2000/svg" width="80" height="80" viewBox="0 0 80 80">
    <path fill="#19110B" fill-rule="evenodd" d="M58.68 74.343h-1.103v-.004h-6.504v.004h-29.74a4.262 4.262 0 0 1-4.256-4.258V20.48h4.38c3.014 0 5.487-2.452 5.513-5.465l.036-4.013h25.858l.036 4.013c.026 3.013 2.499 5.465 5.513 5.465h4.525v49.605a4.263 4.263 0 0 1-4.258 4.258zm-3.18 2.338c0 .647-.527 1.175-1.175 1.175a1.177 1.177 0 0 1-1.175-1.175v-.261h2.35v.26zM21.334 11h3.595l-.035 3.995a3.448 3.448 0 0 1-3.437 3.408h-4.38v-3.145a4.261 4.261 0 0 1 4.257-4.257zM20.2 7.374h1.038a3.225 3.225 0 0 1 3.22-3.22h30.94a3.224 3.224 0 0 1 3.218 3.22h1.039v1.635a6.291 6.291 0 0 0-.975-.083H21.334c-.388 0-.766.04-1.134.107v-1.66zm42.738 11.03h-4.525a3.448 3.448 0 0 1-3.437-3.407l-.035-3.994h3.739a4.262 4.262 0 0 1 4.258 4.257v3.145zM26.994 76.749a1.176 1.176 0 0 1-2.35 0v-.265h2.35v.265zM61.731 9.712v-2.34h1.039C62.77 3.309 59.463 0 55.398 0h-30.94c-4.065 0-7.373 3.308-7.373 7.373h1.038v2.435A6.332 6.332 0 0 0 15 15.258v54.827a6.341 6.341 0 0 0 6.334 6.335h1.234v.328A3.256 3.256 0 0 0 25.82 80a3.255 3.255 0 0 0 3.25-3.252v-.328h22.003v.26a3.256 3.256 0 0 0 3.252 3.253 3.256 3.256 0 0 0 3.252-3.252v-.261h1.103a6.342 6.342 0 0 0 6.334-6.335V15.26a6.337 6.337 0 0 0-3.283-5.547z"/>
</svg>
