<svg xmlns="http://www.w3.org/2000/svg" width="80" height="80" viewBox="0 0 80 80">
    <path fill="#19110B" fill-rule="evenodd" d="M72.63 77.956H40.696v-.684a.366.366 0 0 0-.732 0v.684H8.348c-1.269 0-2.3-1.029-2.3-2.293v-6.63a.366.366 0 0 0 .367-.366c0-.014-.015-.023-.016-.04.013.004.027.008.04.008a.365.365 0 0 0 .347-.248c.217-.638.456-1.275.71-1.894a.364.364 0 0 0-.199-.475.368.368 0 0 0-.477.198c-.26.634-.505 1.285-.726 1.937-.02.06.002.116.01.173-.02-.003-.033-.024-.055-.024V47.565c0-8.864 5.933-16.5 14.476-18.739l-1.993 5.733 6.916 8.653 6.918-8.654-2.254-6.383h21.043L48.9 34.558l6.918 8.654 6.916-8.653-1.932-5.556c7.979 2.401 13.81 9.794 13.81 18.525v20.774a.366.366 0 1 0 0 .73v1.061c-.008.002-.014-.005-.021-.002a.363.363 0 0 0-.264.443c.109.422.194.853.284 1.282v4.164a1.98 1.98 0 0 1-1.981 1.976zM39.982 2.086c.025.178.162.323.348.323.2 0 .362-.16.364-.36 8.086.043 15 8.417 16.046 19.246h-1.88c-.95-10.469-6.904-18.248-14.14-18.248-7.237 0-13.19 7.78-14.14 18.248h-2.057c1.022-10.565 7.63-18.772 15.459-19.209zm18.905 24.045H52.75v-.897c0-.558.252-1.046.637-1.393a2.977 2.977 0 0 0 2.495 1.35 3 3 0 0 0 2.182-.946c.103-.108.183-.23.266-.35.344.341.557.814.557 1.336v.9zm-36.392-.897c0-.487.198-.922.5-1.257.068.09.126.185.204.268.563.602 1.36.946 2.182.946h.176a2.984 2.984 0 0 0 2.48-1.324c.363.346.594.825.594 1.364v.9h-6.136v-.897zm.42 2.957l5.024-.014 2.118 5.99-4.609 5.767-4.611-5.768 2.078-5.975zm17.415-4.37a.366.366 0 0 0-.366.364v1.946H30.68v-.9c0-1.498-.852-2.787-2.088-3.451.733-9.016 5.58-16.062 11.372-16.633V6.87a.366.366 0 0 0 .732 0V5.092l.023-.001c6.118 0 11.352 7.267 12.126 16.66-1.267.655-2.145 1.963-2.145 3.483v.897H40.696v-1.946a.366.366 0 0 0-.366-.365zM60.43 34.165l-4.611 5.768-4.609-5.766 2.118-5.991 2.025.005c1.057.01 2.086.116 3.096.285l1.981 5.7zm.506-7.238c9.053 2.508 15.725 10.783 15.725 20.6V75.98A4.03 4.03 0 0 1 72.63 80H8.348c-1.382 0-2.6-.657-3.397-1.661-.038.013-.067.045-.11.045a.365.365 0 0 1-.365-.365c0-.133.011-.266.013-.4A4.26 4.26 0 0 1 4 75.663V47.565c0-9.952 6.761-18.515 16.445-20.838v-1.493c0-1.447.794-2.7 1.964-3.386C23.304 9.384 31.118 0 40.632 0c9.497 0 17.296 9.349 18.217 21.78 1.235.665 2.086 1.954 2.086 3.45v1.698zm-39.75 41.374h-2.078a.366.366 0 1 0 0 .73h2.079a.366.366 0 1 0 0-.73zm5.046 0h-2.077a.365.365 0 1 0 0 .73h2.077a.366.366 0 1 0 0-.73zm5.046 0H29.2a.365.365 0 1 0 0 .73h2.077a.366.366 0 1 0 0-.73zm5.045 0h-2.076a.365.365 0 1 0 0 .73h2.076a.366.366 0 1 0 0-.73zm35.321 0h-2.078a.366.366 0 1 0 0 .73h2.078a.366.366 0 1 0 0-.73zm-30.274 0h-.672v-.683a.366.366 0 0 0-.732 0v.683h-.674a.366.366 0 1 0 0 .73h.674v.574a.366.366 0 1 0 .732 0v-.574h.672a.366.366 0 1 0 0-.73zm-30.275 0H9.016a.366.366 0 1 0 0 .73h2.078a.366.366 0 1 0 0-.73zm5.046 0h-2.078a.366.366 0 1 0 0 .73h2.078a.366.366 0 1 0 0-.73zm35.32 0h-2.078a.366.366 0 1 0 0 .73h2.078a.366.366 0 1 0 0-.73zm5.045 0h-2.078a.366.366 0 1 0 0 .73h2.078a.366.366 0 1 0 0-.73zm10.092 0H64.52a.365.365 0 1 0 0 .73h2.077a.366.366 0 1 0 0-.73zm-20.183 0h-2.078a.366.366 0 1 0 0 .73h2.078a.366.366 0 1 0 0-.73zm15.137 0h-2.077a.365.365 0 1 0 0 .73h2.077a.366.366 0 1 0 0-.73zM40.331 36.19a.366.366 0 0 0 .365-.365v-1.987a.365.365 0 0 0-.366-.365.365.365 0 0 0-.366.365v1.987c0 .201.164.365.366.365zm0 19.304a.366.366 0 0 0 .365-.365v-1.987a.365.365 0 0 0-.366-.365.365.365 0 0 0-.366.365v1.987c0 .201.164.365.366.365zm0 4.826a.366.366 0 0 0 .365-.365v-1.987a.365.365 0 0 0-.366-.365.365.365 0 0 0-.366.365v1.987c0 .201.164.365.366.365zm0-28.956a.366.366 0 0 0 .365-.365v-1.987a.365.365 0 0 0-.366-.365.365.365 0 0 0-.366.365V31c0 .202.164.365.366.365zm0 9.652a.366.366 0 0 0 .365-.365v-1.987a.365.365 0 0 0-.366-.365.365.365 0 0 0-.366.365v1.987c0 .201.164.365.366.365zm0 24.13a.366.366 0 0 0 .365-.366v-1.986a.365.365 0 0 0-.366-.365.365.365 0 0 0-.366.365v1.986c0 .202.164.365.366.365zm0-19.304a.366.366 0 0 0 .365-.365V43.49a.366.366 0 0 0-.732 0v1.987c0 .201.164.365.366.365zm0 26.238a.366.366 0 0 0-.367.365v1.987c0 .203.164.365.366.365a.365.365 0 0 0 .366-.365v-1.987a.366.366 0 0 0-.366-.365zm0-60.02a.366.366 0 0 0 .365-.365V9.708a.365.365 0 0 0-.366-.364.365.365 0 0 0-.366.364v1.987c0 .202.164.365.366.365zm0 38.608a.366.366 0 0 0 .365-.365v-1.987a.365.365 0 0 0-.366-.365.365.365 0 0 0-.366.365v1.987c0 .202.164.365.366.365zm0-33.782a.366.366 0 0 0 .365-.365v-1.987a.365.365 0 0 0-.366-.365.365.365 0 0 0-.366.365v1.987c0 .202.164.365.366.365zm.365 2.474a.366.366 0 0 0-.732 0v1.987a.366.366 0 0 0 .732 0V19.36zM72.92 65.426a.365.365 0 0 0-.19.48c.27.615.52 1.246.747 1.875a.368.368 0 0 0 .47.219.364.364 0 0 0 .22-.467c-.233-.644-.49-1.29-.766-1.918a.367.367 0 0 0-.481-.189zm-3.59-6.648a34.072 34.072 0 0 0-1.316-1.596.365.365 0 0 0-.55.48c.44.504.875 1.028 1.287 1.563a.367.367 0 0 0 .514.065.366.366 0 0 0 .066-.512zm-3.613-3.1a.366.366 0 0 0 .263-.113.362.362 0 0 0-.01-.516c-.493-.473-1.01-.94-1.537-1.387a.364.364 0 0 0-.515.041.363.363 0 0 0 .041.514c.515.44 1.021.895 1.504 1.358.07.069.163.102.254.102zm-5.332-4.99a.365.365 0 1 0-.392.616c.575.363 1.136.741 1.684 1.134a.368.368 0 0 0 .51-.085.363.363 0 0 0-.084-.508 34.578 34.578 0 0 0-1.718-1.156zm10.649 10.503a.365.365 0 1 0-.616.394c.365.571.714 1.157 1.034 1.735a.366.366 0 0 0 .641-.352 32.454 32.454 0 0 0-1.06-1.777zm-61.311.935a.366.366 0 0 0-.625-.381 32.579 32.579 0 0 0-1.022 1.797.364.364 0 0 0 .324.534c.131 0 .257-.07.323-.194.312-.593.648-1.182 1-1.756zm19.303-15.142a.37.37 0 0 0-.46-.238c-.66.21-1.31.438-1.952.683a.364.364 0 0 0-.21.472.364.364 0 0 0 .47.21c.63-.24 1.268-.463 1.914-.668a.365.365 0 0 0 .238-.459zm19.38-1.172a38.633 38.633 0 0 0-2.031-.383.37.37 0 0 0-.42.304.366.366 0 0 0 .304.417c.67.108 1.335.232 1.993.374a.364.364 0 0 0 .154-.712zm-24.02 2.95a.365.365 0 0 0-.488-.171c-.625.297-1.24.611-1.84.941a.365.365 0 1 0 .351.64 37.39 37.39 0 0 1 1.804-.923.363.363 0 0 0 .173-.486zm-10.092 7.371a.365.365 0 0 0 .26-.106c.472-.472.967-.936 1.473-1.384a.363.363 0 0 0 .032-.514.363.363 0 0 0-.516-.032c-.517.457-1.025.933-1.508 1.413a.367.367 0 0 0 .26.623zm24.132-11.145c-.694.03-1.38.081-2.062.15a.364.364 0 0 0 .035.727l.038-.001a38.474 38.474 0 0 1 2.02-.148.365.365 0 0 0 .35-.381c-.008-.2-.15-.355-.381-.347zm-4.989.555c-.682.121-1.357.26-2.024.417a.364.364 0 1 0 .167.71c.654-.153 1.317-.29 1.986-.409a.365.365 0 0 0 .295-.423.37.37 0 0 0-.424-.295zm10.005-.467a38.474 38.474 0 0 0-2.064-.115c-.213.022-.371.153-.376.354a.364.364 0 0 0 .355.376 38.59 38.59 0 0 1 2.056.114.365.365 0 0 0 .03-.728zm12.526 3.231a.37.37 0 0 0-.484.181.364.364 0 0 0 .181.483c.618.28 1.225.577 1.822.888a.364.364 0 0 0 .34-.645 37.04 37.04 0 0 0-1.859-.907zm-35.936 2.85a.366.366 0 0 0-.506-.103 35.3 35.3 0 0 0-1.69 1.184.364.364 0 0 0 .218.657.368.368 0 0 0 .218-.071 35.72 35.72 0 0 1 1.657-1.161.364.364 0 0 0 .103-.505zm-7.998 6.524c-.446.53-.878 1.074-1.282 1.619a.362.362 0 0 0 .075.51.367.367 0 0 0 .512-.074c.395-.534.818-1.067 1.256-1.585a.365.365 0 0 0-.044-.514.368.368 0 0 0-.517.044zM53.23 47.195a37.216 37.216 0 0 0-1.963-.648.366.366 0 0 0-.456.245.364.364 0 0 0 .245.454c.65.194 1.292.406 1.926.635a.365.365 0 0 0 .249-.686z"/>
</svg>
