<svg xmlns="http://www.w3.org/2000/svg" width="80" height="80" viewBox="0 0 80 80">
    <path fill="#19110B" fill-rule="evenodd" d="M40.505 78c-.206 0-.409-.006-.611-.016h-.001c-.129.01-.264.016-.4.016-4.738 0-7.78-2.176-10.722-4.281-2.031-1.453-3.948-2.824-6.206-3.205a19.786 19.786 0 0 0-3.259-.278c-1.91 0-3.416.298-4.516.516-.668.132-1.245.246-1.683.246-.458 0-.954-.1-1.17-.846a26.908 26.908 0 0 1-.453-1.876c-.335-1.558-.574-2.516-1.219-2.616C2.748 64.485.597 62.883.117 61.746a1.473 1.473 0 0 1-.116-.487.854.854 0 0 1 .708-.893c11.555-1.926 16.737-13.88 16.952-14.387l.019-.041c.707-1.45.845-2.71.413-3.742-.793-1.892-3.38-2.723-5.092-3.273-.418-.134-.816-.26-1.129-.386-3.416-1.367-3.7-2.77-3.566-3.485.229-1.218 1.838-2.067 3.14-2.067.356 0 .67.064.934.188 1.537.729 2.922 1.098 4.117 1.098 1.651 0 2.372-.702 2.46-.794-.042-.792-.094-1.618-.147-2.471-.345-5.53-.771-12.4.957-16.322C24.947 2.928 35.932 2.015 39.176 2.015l1.422-.014L40.79 2c3.25 0 14.26.915 19.442 12.677 1.73 3.924 1.301 10.8.957 16.325l-.015.24c-.047.77-.093 1.518-.132 2.234.083.085.745.73 2.242.789h.002c1.138-.044 2.445-.411 3.88-1.092.42-.198.888-.24 1.206-.24.485 0 .977.095 1.386.268l.025.01c1.16.416 1.92 1.24 1.937 2.1.015.81-.596 2.028-3.593 3.226-.311.124-.708.251-1.129.386-1.714.55-4.299 1.381-5.091 3.272-.434 1.032-.295 2.29.412 3.742.007.014.014.027.019.042.215.507 5.392 12.457 16.953 14.385a.856.856 0 0 1 .708.894c-.01.164-.05.329-.118.49-.477 1.128-2.627 2.728-10.146 3.904-.615.096-.853.906-1.22 2.605a26.545 26.545 0 0 1-.453 1.864c-.16.555-.502.814-1.076.814h-.094c-.398 0-.964-.072-1.682-.215-1.273-.252-2.7-.484-4.516-.484-1.06 0-2.158.094-3.26.278-2.257.381-4.172 1.75-6.2 3.2C48.288 75.824 45.247 78 40.505 78"/>
</svg>
