<svg xmlns="http://www.w3.org/2000/svg" xmlns:xlink="http://www.w3.org/1999/xlink" width="16" height="16" viewBox="0 0 16 16">
    <defs>
        <path id="a" d="M.046 7.936a7.891 7.891 0 1 0 15.782 0 7.891 7.891 0 1 0-15.782 0"/>
    </defs>
    <g fill="none" fill-rule="evenodd">
        <mask id="b" fill="#fff">
            <use xlink:href="#a"/>
        </mask>
        <path fill="#E8463D" d="M8.394 15.858a12.8 12.8 0 0 1-1.136-.017c-.07-.009-.14-.023-.212-.019l-.373-.052-.316-.056-.375-.085a1.758 1.758 0 0 0-.28-.075c-.148-.021-.29-.072-.43-.122-.12-.044-.24-.086-.357-.136-.034-.017-.07-.027-.104-.044a.79.79 0 0 0-.078-.037c-.067-.025-.128-.06-.193-.087a2.768 2.768 0 0 1-.32-.158c-.074-.044-.152-.084-.227-.126-.044-.023-.086-.049-.128-.073-.124-.074-.243-.155-.367-.23-.016-.01-.031-.025-.047-.037-.11-.07-.21-.151-.317-.224l-.16-.129c-.066-.052-.133-.103-.195-.16-.08-.06-.15-.133-.229-.196a4.784 4.784 0 0 0-.127-.127c-.075-.077-.152-.153-.229-.229a4.73 4.73 0 0 0-.127-.127c-.062-.079-.135-.148-.196-.229a1.786 1.786 0 0 1-.16-.195c-.044-.051-.084-.107-.125-.161-.077-.1-.149-.202-.224-.302l-.04-.061c-.076-.123-.158-.241-.23-.366-.025-.043-.05-.085-.073-.128-.048-.074-.082-.154-.125-.23-.064-.1-.11-.21-.158-.318-.03-.065-.065-.129-.09-.196-.025-.055-.052-.108-.074-.164-.051-.14-.12-.275-.141-.425L.234 9.88l-.086-.375-.058-.334-.05-.355-.002-.036c-.016-.036.003-.076-.013-.112-.002-.07.003-.14-.017-.208l-.003-.052C0 8.03-.007 7.652.02 7.274l.02-.23.05-.356.06-.332.085-.377c.023-.068.047-.136.055-.209.026-.172.087-.334.14-.498.045-.12.087-.242.14-.359.026-.059.046-.12.076-.178.031-.06.051-.126.084-.185.055-.11.104-.222.164-.329.038-.074.077-.147.12-.219.024-.047.056-.09.08-.139.08-.129.158-.259.244-.384l.02-.03c.075-.107.149-.213.228-.316.042-.054.08-.11.125-.161.053-.067.107-.132.162-.195.062-.079.136-.147.195-.228l.126-.128.23-.23c.043-.04.084-.084.127-.125.082-.058.149-.134.228-.195.062-.057.13-.106.195-.16.055-.042.107-.087.162-.128.106-.079.21-.16.323-.229.13-.094.27-.176.406-.263.048-.024.095-.05.14-.079.074-.036.143-.084.218-.12.111-.052.22-.11.33-.164.063-.024.125-.052.184-.084.06-.024.12-.05.178-.077.118-.05.241-.088.36-.138.148-.053.3-.097.45-.143a.43.43 0 0 1 .12-.015.381.381 0 0 0 .137-.037l.394-.087.315-.057.376-.05.262-.022c.308-.022.615-.016.923-.018l.283.018.262.022.377.05.315.057.393.088c.15.045.298.092.447.134.061.017.067.033.03.087-.296.431-.589.865-.882 1.298-.008.012-.013.026-.02.04-.05.137-.15.244-.227.365-.11.173-.235.339-.348.51-.023.035-.043.073-.09.081-.167-.014-.33-.062-.496-.09a6.374 6.374 0 0 0-4.554.978 6.396 6.396 0 0 0-2.84 4.725c-.039.427-.034.854.008 1.282a6.29 6.29 0 0 0 1.532 3.52 6.356 6.356 0 0 0 4.091 2.158c.25.03.5.05.75.046a6.527 6.527 0 0 0 2.451-.497 6.328 6.328 0 0 0 1.804-1.142 6.4 6.4 0 0 0 1.888-3.038c.114-.402.183-.812.215-1.23.021-.283.022-.567.01-.85a5.694 5.694 0 0 0-.158-1.095 6.246 6.246 0 0 0-.462-1.31.218.218 0 0 1-.026-.074c-.002-.032.013-.056.03-.081.288-.435.583-.866.876-1.299a.38.38 0 0 1 .051-.06.173.173 0 0 0 .057-.09c.154-.252.332-.488.494-.734.025-.039.048-.08.078-.117.047-.05.085-.043.118.015.02.036.042.071.064.107.025.043.05.086.077.128.036.075.076.148.12.219.053.11.111.22.165.33.023.063.051.125.084.184.025.06.047.12.074.18.054.12.096.247.14.373.055.14.104.28.124.43.014.09.04.177.07.262l.088.394.057.314.05.377.023.262c.021.319.016.638.017.958-.008.088-.023.176-.018.266l-.021.244-.05.377-.057.315-.088.393a1.434 1.434 0 0 0-.07.263c-.02.155-.077.298-.124.445-.048.12-.09.24-.139.359a3.258 3.258 0 0 0-.076.178c-.035.058-.053.124-.084.185-.056.11-.111.218-.164.329-.037.075-.083.144-.12.219a1.21 1.21 0 0 0-.08.139c-.076.117-.145.238-.224.353-.015.02-.028.04-.04.06-.08.104-.145.217-.23.317-.045.051-.081.11-.125.161-.052.067-.11.129-.16.195-.062.08-.137.147-.195.228l-.126.128-.23.23c-.043.04-.084.084-.127.125-.082.058-.149.134-.228.195-.062.057-.13.106-.195.16-.05.047-.107.085-.161.127a7.176 7.176 0 0 1-.357.255c-.121.084-.248.16-.374.238-.048.023-.09.056-.139.08a5.299 5.299 0 0 1-.218.12 5.02 5.02 0 0 1-.328.163c-.05.024-.1.045-.149.07-.07.034-.143.06-.214.09-.12.046-.238.098-.36.139-.141.047-.28.102-.43.123a1.53 1.53 0 0 0-.278.074l-.376.085-.333.06-.355.049-.356.032-.07.004z" mask="url(#b)"/>
        <path fill="#FEFEFE" d="M8.804 2.735c.117-.169 1.572-2.34 1.582-2.33.12.03.4.09.501.131.038.016.034-.028.037-.053.008-.06-.017-.124.024-.18h.354c.05.108.027.22.018.33-.026.052-.074.048-.118.046.056.055.083 0 .117-.034a.96.96 0 0 1 .32-.003c.01.003.019.01.026.017.023.04.016.085.017.129.001.136.046.184.185.199.046.005.094-.006.138.017.044.168.202.206.332.3.01-.076.003-.137.006-.197.003-.04-.004-.084.04-.109.114-.015.228-.03.34.012.045.11.027.223.014.336-.021.04-.058.044-.098.045-.055 0-.11 0-.178-.002.082.053.147.112.227.154.029-.063-.02-.143.052-.19a.672.672 0 0 1 .336.01c.048.11.027.222.018.334-.031.065-.096.039-.154.054a.43.43 0 0 0 .105.081c.016-.046 0-.102.053-.126.112-.013.224-.028.333.013.047.108.027.22.017.332-.019.04-.053.05-.103.045.02.019.034.034.058.049.01-.032.015-.07.05-.084.112-.013.224-.029.333.013.047.108.026.22.017.331-.015.036-.048.048-.086.05.01.027.023.042.046.06.002-.042.005-.081.046-.1.112-.012.223-.029.332.014.046.109.027.221.016.333-.024.055-.079.04-.127.053.019.044.056.067.084.106.01-.058-.012-.118.047-.15.113-.014.225-.03.335.012.046.11.027.223.015.336-.044.076-.125.027-.19.056.036.078.093.14.15.225.002-.068 0-.12 0-.173.002-.04.003-.078.043-.1.113-.016.226-.03.336.01.048.112.027.226.016.34-.014.031-.042.038-.073.04-.03.003-.059 0-.088.003-.044.003-.103-.021-.126.012-.023.035.032.068.051.103.03.054-.003.089-.028.128l-.451.676-.119.173c-.02.028-.028.064-.055.088-.322.47-.648.939-.957 1.418-.05.135-.146.243-.224.36-.171.254-.345.507-.517.761-.181.27-.545.267-.715-.008-.1-.162-.068-.329.032-.477l.865-1.275c.068-.1.07-.099-.004-.2l-.005-.006c-.115-.164-.11-.17-.229 0-.022.024-.046.048-.06.08-.144.244-.312.473-.47.707l-.762 1.122-.772 1.135c-.122.18-.315.254-.49.184-.26-.104-.336-.336-.231-.59.066-.16.193-.288.285-.436.028-.045.057-.09.09-.132.022-.025.046-.048.06-.079.162-.264.346-.513.517-.77.226-.342.463-.676.689-1.017.044-.067.09-.132.138-.195.038-.044.06-.097.093-.145.11-.16.217-.323.328-.482.055-.08.051-.096-.027-.16-.159-.13-.153-.126-.27.043-.212.306-.416.616-.627.921-.161.233-.315.47-.479.701-.022.024-.044.047-.058.078-.09.158-.202.304-.302.457-.166.25-.337.498-.507.746-.035.046-.072.09-.097.144-.1.142-.184.296-.297.43a.391.391 0 0 1-.388.143.405.405 0 0 1-.317-.265c-.062-.151-.02-.278.06-.401.168-.257.342-.51.515-.764.251-.368.503-.736.753-1.106.373-.553.75-1.104 1.124-1.657a.92.92 0 0 0 .047-.075c.028-.065-.03-.075-.064-.1-.153-.13-.15-.128-.266.038-.325.472-.644.948-.966 1.421-.404.594-.812 1.183-1.205 1.783-.138.21-.492.27-.66.075-.018-.028-.04-.054-.06-.081-.095-.158-.076-.31.023-.458.404-.6.811-1.198 1.217-1.796l1.015-1.495c.072-.107.067-.12-.054-.17-.024-.01-.05-.017-.074-.028-.067-.03-.108-.007-.148.051-.391.57-.774 1.145-1.165 1.714-.134.195-.263.393-.397.587-.031.046-.066.088-.096.134a.41.41 0 0 1-.462.136c-.25-.075-.36-.386-.219-.61.11-.174.232-.341.347-.513.211-.317.43-.628.64-.945.186-.278.377-.55.564-.827a.256.256 0 0 1 .066-.07" mask="url(#b)"/>
        <path fill="#F49C39" d="M8.407 3.33c-.363.54-.729 1.079-1.094 1.618-.036.054-.079.104-.11.16a.38.38 0 0 0-.003.395c.07.125.176.188.323.196.14.008.243-.052.335-.147a.387.387 0 0 0 .091-.125c.14-.237.302-.458.456-.685.365-.54.733-1.08 1.1-1.619.07-.105.07-.105.192-.058.214.083.216.084.086.276l-1.81 2.666c-.133.196-.268.39-.397.587a.403.403 0 0 0 .041.5c.183.146.347.158.527.038.082-.054.121-.144.174-.221.32-.465.636-.931.952-1.397l1.191-1.76c.082-.12.086-.12.2-.028.02.016.037.036.056.054.03.032.089.045.072.108-.099.178-.222.34-.336.509-.46.68-.921 1.358-1.382 2.037-.239.352-.473.706-.718 1.054-.17.24-.074.48.08.586A.38.38 0 0 0 8.957 8c.107-.137.202-.283.303-.425.03-.047.071-.087.091-.14l.763-1.127.052-.08c.018-.024.04-.045.053-.073l1.097-1.619c.157-.233.116-.204.318-.05.054.04.09.08.045.146-.117.173-.237.344-.356.516-.045.037-.06.094-.092.14-.244.361-.487.722-.732 1.082-.204.302-.41.603-.615.905-.017.025-.04.045-.053.072l-.353.53c-.109.164-.09.437.117.569a.4.4 0 0 0 .538-.126c.41-.602.818-1.205 1.227-1.808l.71-1.047.082-.124c.019-.023.04-.045.054-.072.12-.197.12-.197.26-.018.096.126.095.124.005.256-.29.426-.581.852-.87 1.281a.388.388 0 0 0-.027.42.38.38 0 0 0 .39.207.38.38 0 0 0 .286-.173l.705-1.04c.02-.029.043-.055.065-.083.105.234.212.467.296.71.13.377.229.76.293 1.154a6.535 6.535 0 0 1-.093 2.456 6.382 6.382 0 0 1-1.406 2.743c-.41.466-.87.872-1.394 1.204a6.282 6.282 0 0 1-2.143.87c-.251.05-.503.09-.76.11-.196.013-.393.033-.59.028a6.514 6.514 0 0 1-2.506-.53 6.4 6.4 0 0 1-2.565-2.016 6.333 6.333 0 0 1-1.21-2.787 6.682 6.682 0 0 1-.083-1.444c.017-.403.082-.801.18-1.193a6.28 6.28 0 0 1 .477-1.3c.212-.426.466-.826.77-1.195.232-.283.483-.548.758-.79a6.4 6.4 0 0 1 1.044-.74 6.261 6.261 0 0 1 1.629-.654 6.63 6.63 0 0 1 1.742-.186 6.42 6.42 0 0 1 1.292.168l.053.01c-.12.205-.264.396-.397.594z" mask="url(#b)"/>
        <path fill="#FEFEFE" d="M11.635 9.748v.815c-.001.457-.337.876-.785.955-.57.1-1.055-.256-1.147-.775-.104-.588.261-1.023.758-1.134.22-.05.447-.028.67-.028.132 0 .132 0 .131-.13 0-.186.004-.372-.002-.558-.002-.08.026-.104.102-.097.061.005.124.005.186 0 .073-.007.09.025.089.093-.003.286-.001.573-.002.859M4.205 10.564c-.035-.485.414-.965.953-.966.53-.002.998.416.988.977a.971.971 0 0 1-.972.97c-.555.006-1-.471-.969-.981M8.574 13.123c-.02-.458.361-.869.805-.908.342-.031.608.093.834.335.045.047.018.074-.016.109-.297.295-.593.592-.89.889-.077.078-.077.095.027.125.211.063.395 0 .553-.146.13-.12.128-.123.255.007.115.116.115.116-.003.234a.874.874 0 0 1-.867.249.862.862 0 0 1-.675-.676c-.007-.029-.02-.057-.022-.086-.003-.044 0-.088 0-.132M8.211 13.477c0 .16-.002.319.001.478.001.062-.021.081-.083.082-.27.004-.27.006-.27-.264 0-.219-.005-.438.002-.656a.56.56 0 0 0-.506-.561c-.352-.012-.612.203-.625.531-.011.283-.006.567-.003.85 0 .077-.018.11-.099.1-.043-.006-.088-.001-.132-.001-.122 0-.122 0-.122-.118v-.78c.001-.498.351-.888.847-.933.512-.047.996.363.99.9-.002.124 0 .248 0 .372zM6.303 10.204c0-.21.003-.375-.002-.54-.001-.067.022-.09.087-.084a.847.847 0 0 0 .168 0c.088-.01.118.016.116.11-.007.29-.004.579-.002.868a.6.6 0 0 0 .48.59.6.6 0 0 0 .725-.587c.001-.299.002-.597 0-.895-.002-.065.014-.092.083-.087.076.006.154.003.23 0 .044 0 .065.011.065.06-.002.322.01.644-.005.966a.964.964 0 0 1-.78.912c-.528.091-.982-.184-1.135-.705-.062-.214-.013-.435-.03-.608" mask="url(#b)"/>
        <path fill="#F49C39" d="M5.77 10.558a.594.594 0 0 1-.598.612.605.605 0 0 1-.61-.602.6.6 0 0 1 .596-.596c.374-.01.63.322.611.586" mask="url(#b)"/>
        <path fill="#FEFEFE" d="M4.972 12.87c0-.36.002-.72-.001-1.08 0-.067.019-.09.086-.085.067.006.135.003.203 0 .051-.002.07.02.066.069v.035c0 .703-.002 1.406.002 2.108 0 .09-.024.117-.115.114-.24-.007-.24-.002-.24-.24v-.92M8.387 10.912c.013-.165-.021-.366.021-.565.07-.327.268-.545.566-.68.156-.07.324-.084.493-.087.052-.001.077.013.075.07a3.575 3.575 0 0 0 0 .247c.002.053-.023.066-.07.067-.09.002-.181-.005-.272.019a.578.578 0 0 0-.435.53 25.62 25.62 0 0 0-.001.905c0 .083-.02.121-.11.111-.084-.01-.192.034-.248-.017-.058-.052-.014-.161-.017-.246-.005-.106-.002-.212-.002-.354" mask="url(#b)"/>
        <path fill="#FEFEFD" d="M5.681 13.11c0-.272.002-.543 0-.815-.002-.07.013-.106.09-.097.084.01.192-.036.247.02.05.053.015.158.015.24.001.493-.001.986.002 1.479 0 .072-.018.1-.093.093a.99.99 0 0 0-.177 0c-.068.005-.085-.025-.085-.088.003-.277.001-.555.001-.832" mask="url(#b)"/>
        <path fill="#F49C39" d="M10.89 9.964h.301c.04 0 .07.007.07.056 0 .206.019.415-.006.62a.57.57 0 0 1-.39.484.57.57 0 0 1-.61-.118.562.562 0 0 1-.175-.611.568.568 0 0 1 .457-.422c.113-.022.235-.003.353-.003v-.006" mask="url(#b)"/>
        <path fill="#FEFEFE" d="M2.576 10.343c.04.032.086.034.134.034h.753c.295 0 .543.2.583.469a.593.593 0 0 1-.43.674.513.513 0 0 1-.14.014H2.438c-.102 0-.135-.031-.142-.134-.015-.23-.015-.23.212-.23.319-.002.638-.002.957-.007.132-.002.212-.087.212-.21s-.079-.203-.216-.205c-.254-.004-.508-.002-.762-.002a.562.562 0 0 1-.524-.303.555.555 0 0 1 .047-.632c.121-.167.3-.226.497-.229.354-.005.709 0 1.063-.002.058 0 .08.017.077.075-.004.065-.007.13 0 .195.01.089-.019.117-.111.116-.346-.005-.691-.002-1.037-.002-.191 0-.277.127-.206.307.017.03.042.053.07.072" mask="url(#b)"/>
        <path fill="#F49D39" d="M8.921 13.127c-.036-.313.299-.67.723-.55.086.025.094.047.032.108-.207.207-.414.413-.622.618-.02.02-.04.053-.072.043-.037-.012-.047-.05-.052-.086-.005-.044-.006-.088-.009-.133" mask="url(#b)"/>
    </g>
</svg>
