<svg xmlns="http://www.w3.org/2000/svg" width="80" height="80" viewBox="0 0 80 80">
    <path fill="#19110B" fill-rule="evenodd" d="M47.132 69.174H5.018V56.592c0-6.431 3.678-12.01 9.034-14.774v3.978h5.018v-5.61c.841-.133 1.698-.221 2.575-.221h8.86c.878 0 1.733.088 2.575.22v5.611H38.1v-3.978c5.356 2.764 9.033 8.343 9.033 14.774v12.582zM26.076 29.18c3.493 0 6.388 2.573 6.91 5.922a21.536 21.536 0 0 0-2.48-.154h-8.861c-.84 0-1.666.06-2.482.154.524-3.349 3.42-5.922 6.913-5.922zm12.023 7.17c8.194 3.084 14.052 10.983 14.052 20.243v17.6H0v-17.6c0-9.26 5.857-17.158 14.052-20.243v-.165c0-6.63 5.394-12.024 12.024-12.024 6.629 0 12.023 5.394 12.023 12.024v.165zm36.883 13.665V37.432c0-6.431-3.678-12.01-9.034-14.775v27.357h9.034zM58.355 15.786c.84 0 1.666.06 2.481.155-.523-3.35-3.418-5.923-6.91-5.923-3.495 0-6.39 2.574-6.913 5.923a21.536 21.536 0 0 1 2.481-.155h8.861zm7.593 1.402C74.143 20.273 80 28.17 80 37.432v17.6l-25.549-.021c.01-2.048-.299-3.523-.873-4.997h7.352V21.025a16.509 16.509 0 0 0-2.575-.22h-8.86c-.878 0-1.733.088-2.574.22v17.577c-1.55-1.553-3.655-2.845-5.019-3.39V22.657c-1.57.81-3.654 2.403-4.885 3.646-1.048-1.746-1.747-2.386-3.667-3.318 2.22-2.302 5.502-4.649 8.552-5.797v-.164C41.902 10.394 47.295 5 53.925 5s12.023 5.394 12.023 12.024v.164z"/>
</svg>
