<svg xmlns="http://www.w3.org/2000/svg" width="80" height="80" viewBox="0 0 80 80">
    <path fill="#19110B" fill-rule="evenodd" d="M26.69 44V33.38l1.8.09c3.96 0 6.66-2.7 6.66-6.75 0-3.42-2.52-5.94-6.12-5.94-3.87 0-6.21 2.52-6.39 6.84H8.15c.54-4.41 1.35-6.93 3.06-9.81C14.81 11.6 21.83 8 30.29 8c11.7 0 19.35 6.84 19.35 17.28 0 5.76-1.98 9.63-6.39 12.51 2.7.9 4.05 1.71 5.58 3.6 2.7 3.15 4.23 7.38 4.23 11.79 0 11.61-9.72 19.8-23.49 19.8-9.63 0-16.83-3.96-21.42-11.7C5.99 57.59 5.09 54.8 5 51.11h15.93c.36 5.31 3.51 8.37 8.55 8.37 4.68 0 8.1-3.33 8.1-7.83s-3.69-8.1-8.19-8.1c-.9 0-1.44.09-2.7.45zm33.97 10.28h16v16h-16v-16z"/>
</svg>
