<svg xmlns="http://www.w3.org/2000/svg" width="80" height="80" viewBox="0 0 80 80">
    <path fill="#19110B" fill-rule="evenodd" d="M40.5 43.86c6.161 0 11.156-4.995 11.156-11.157 0-6.161-4.995-11.156-11.156-11.156-6.161 0-11.156 4.995-11.156 11.156 0 6.162 4.995 11.156 11.156 11.156zm0-6.376a4.781 4.781 0 1 1 0-9.562 4.781 4.781 0 0 1 0 9.562zm2.193 31.798L40.5 71.36l-2.193-2.078-.272-.261a142.723 142.723 0 0 1-3.318-3.339 147.02 147.02 0 0 1-7.842-8.81c-2.61-3.194-4.885-6.304-6.732-9.277C16.843 42.284 15 37.59 15 33.5 15 19.417 26.417 8 40.5 8S66 19.417 66 33.5c0 4.089-1.843 8.784-5.143 14.095-1.847 2.973-4.122 6.083-6.732 9.277a147.02 147.02 0 0 1-7.841 8.81 142.723 142.723 0 0 1-3.319 3.339l-.272.261zm-3.382-8.02c.41.428.808.835 1.189 1.223.381-.388.778-.795 1.189-1.222 2.559-2.661 5.118-5.51 7.499-8.424 2.448-2.997 4.567-5.892 6.254-8.608 2.728-4.39 4.183-8.098 4.183-10.731 0-10.562-8.563-19.125-19.125-19.125S21.375 22.938 21.375 33.5c0 2.633 1.455 6.34 4.183 10.731 1.687 2.716 3.806 5.611 6.254 8.608a140.748 140.748 0 0 0 7.5 8.424z"/>
</svg>
