<svg xmlns="http://www.w3.org/2000/svg" width="16" height="16" viewBox="0 0 16 16">
    <path fill="#19110B" fill-rule="evenodd" d="M2.564 0h10.872c.892 0 1.215.093 1.54.267.327.174.583.43.757.756.174.326.267.65.267 1.54v10.873c0 .892-.093 1.215-.267 1.54-.174.327-.43.583-.756.757-.326.174-.65.267-1.54.267H2.563c-.892 0-1.215-.093-1.54-.267a1.817 1.817 0 0 1-.757-.756C.093 14.65 0 14.327 0 13.437V2.563c0-.892.093-1.215.267-1.54.174-.327.43-.583.756-.757C1.35.093 1.673 0 2.563 0zm4.615 4.996c-.56-.28-1.005-.396-1.576-.396A3.396 3.396 0 0 0 2.2 8.003c0 1.866 1.499 3.336 3.403 3.336.542 0 .996-.106 1.576-.377v-1.48c-.512.513-.937.707-1.547.707-1.218 0-2.136-.938-2.136-2.195 0-1.267.918-2.243 2.107-2.243.6 0 1.054.212 1.576.725v-1.48zm5.821 0c-.56-.28-1.006-.396-1.576-.396a3.396 3.396 0 0 0-3.403 3.403c0 1.866 1.498 3.336 3.403 3.336.541 0 .996-.106 1.576-.377v-1.48c-.512.513-.938.707-1.547.707-1.218 0-2.137-.938-2.137-2.195 0-1.267.919-2.243 2.108-2.243.6 0 1.054.212 1.576.725v-1.48z"/>
</svg>
