<svg xmlns="http://www.w3.org/2000/svg" width="80" height="80" viewBox="0 0 80 80">
    <path fill="#19110B" fill-rule="evenodd" d="M31.451 68.748c-3.398 4.93-9.572 7.275-15.435 5.753-5.872-1.525-10.113-6.582-10.683-12.542l26.118 6.789zm43.216-6.79c-.568 5.96-4.81 11.017-10.68 12.543-5.873 1.526-12.038-.825-15.437-5.753l26.117-6.79zm5.192-3.706l-.362-2.99-5.318 1.382-20.75-20.748A6.42 6.42 0 0 0 48.858 34a6.426 6.426 0 0 0-4.574 1.896l-2.333 2.332 3.725 3.724 2.333-2.33c.445-.446 1.254-.444 1.697-.002l18.56 18.56-22.893 5.951c-1.568-.903-3.2-1.395-4.858-1.462-1.93-.086-3.838.428-5.668 1.519l-23.429-6.09L29.896 39.62a1.202 1.202 0 0 1 1.697 0l2.331 2.332 3.726-3.724-2.332-2.331A6.418 6.418 0 0 0 30.744 34a6.423 6.423 0 0 0-4.573 1.896L5.504 56.562l-5.002-1.3-.362 2.99C-1.03 67.964 5.225 77.141 14.69 79.6a19.43 19.43 0 0 0 4.899.628 19.657 19.657 0 0 0 17.873-11.46c.966-.588 1.904-.858 2.82-.836.697.025 1.416.225 2.142.593 3.14 7.121 10.163 11.703 17.989 11.703 1.652 0 3.3-.211 4.896-.628 9.467-2.458 15.721-11.635 14.55-21.347z"/>
</svg>
