<svg xmlns="http://www.w3.org/2000/svg" width="80" height="80" viewBox="0 0 80 80">
    <path fill="#19110B" fill-rule="evenodd" d="M69.714 8A2.285 2.285 0 0 1 72 10.286v24.016c0 1.872-.73 3.632-2.054 4.955L39.255 69.951a7.013 7.013 0 0 1-9.908 0L10.055 50.658a7.004 7.004 0 0 1 0-9.913l30.691-30.692A6.957 6.957 0 0 1 45.701 8h24.013zM66 14H45.701a.962.962 0 0 0-.712.295l-30.69 30.691c-.399.4-.398 1.032-.001 1.43L33.59 65.707a1.013 1.013 0 0 0 1.422 0l30.692-30.694a.963.963 0 0 0 .296-.712V14zM37.046 31.528l11.428 11.43a2.285 2.285 0 1 1-3.232 3.231L33.814 34.76a2.285 2.285 0 1 1 3.232-3.232zm2.285 20.573a2.285 2.285 0 1 1-3.232 3.232l-11.428-11.43a2.285 2.285 0 1 1 3.232-3.232l11.428 11.43zm16.67-21.243a6.865 6.865 0 0 1-6.857-6.857A6.865 6.865 0 0 1 56 17.143a6.865 6.865 0 0 1 6.857 6.858A6.865 6.865 0 0 1 56 30.858zm0-9.143a2.288 2.288 0 0 0-2.286 2.286A2.288 2.288 0 0 0 56 26.287 2.288 2.288 0 0 0 58.286 24 2.288 2.288 0 0 0 56 21.715z"/>
</svg>
