<svg xmlns="http://www.w3.org/2000/svg" width="80" height="80" viewBox="0 0 80 80">
    <path fill="#19110B" fill-rule="evenodd" d="M29.463 74.728l-3.37-10.387a27.963 27.963 0 0 0 14.126 3.8c5.01 0 9.84-1.306 14.124-3.8l-3.368 10.387H29.463zM50.975 5.272l3.308 10.2a27.955 27.955 0 0 0-14.064-3.768 27.951 27.951 0 0 0-14.064 3.768l3.308-10.2h21.512zM40.219 62.87c-12.653 0-22.948-10.293-22.948-22.946 0-12.654 10.295-22.946 22.948-22.946s22.947 10.292 22.947 22.946c0 12.653-10.294 22.946-22.947 22.946zm21.693-40.967a28.222 28.222 0 0 1 6.525 18.02 28.23 28.23 0 0 1-6.445 17.929L54.806 80H25.633l-7.185-22.148A28.23 28.23 0 0 1 12 39.922a28.21 28.21 0 0 1 6.527-18.02L25.633 0h29.173l7.106 21.902zM39.583 39.904l-7.988-7.99-3.728 3.729 11.716 11.716 15.164-15.164-3.727-3.727-11.437 11.436z"/>
</svg>
