<svg xmlns="http://www.w3.org/2000/svg" width="16" height="16" viewBox="0 0 16 16">
    <path fill="#19110B" fill-rule="evenodd" d="M8.006 8.692A.683.683 0 0 1 7.316 8c0-.387.303-.691.69-.691.387 0 .69.304.69.69 0 .388-.303.692-.69.692m0-2.481c.986 0 1.789.803 1.789 1.79s-.803 1.79-1.79 1.79c-.986 0-1.789-.803-1.789-1.79s.803-1.79 1.79-1.79zM13.124 8a5.126 5.126 0 0 0-5.118-5.122 5.126 5.126 0 0 0-5.12 5.122 5.126 5.126 0 0 0 5.12 5.122A5.126 5.126 0 0 0 13.124 8zm2.708-.387A.55.55 0 0 1 16 8a.55.55 0 0 1-.168.387.557.557 0 0 1-.39.163h-1.244c-.262 2.98-2.665 5.384-5.643 5.646v1.248a.549.549 0 0 1-.162.387.549.549 0 0 1-.387.168.55.55 0 0 1-.387-.168.552.552 0 0 1-.163-.39v-1.245c-2.978-.262-5.381-2.667-5.643-5.646H.566A.556.556 0 0 1 0 8.027a.564.564 0 0 1 .524-.576h1.289c.262-2.98 2.665-5.384 5.643-5.646V.557a.567.567 0 0 1 .49-.554.547.547 0 0 1 .426.146c.12.11.186.26.183.412v1.244c2.978.262 5.381 2.666 5.643 5.646h1.247a.569.569 0 0 1 .387.163z"/>
</svg>
