<svg xmlns="http://www.w3.org/2000/svg" width="80" height="80" viewBox="0 0 80 80">
    <path fill="#19110B" fill-rule="evenodd" d="M60.595 70.607c0 2.1-1.708 3.808-3.807 3.808H23.443a3.812 3.812 0 0 1-3.807-3.808V20.721h9.309v-8.163a6.98 6.98 0 0 1 6.972-6.973h8.397a6.98 6.98 0 0 1 6.972 6.973v8.163h9.309v49.886zm6.516-55.47h-10.24v-2.58C56.871 5.635 51.238 0 44.314 0h-8.397C28.993 0 23.36 5.634 23.36 12.558v2.578H13.12a5.087 5.087 0 0 0-3.624 1.499A5.158 5.158 0 0 0 8 20.256a5.126 5.126 0 0 0 5.12 5.12h.93v45.231c0 5.179 4.214 9.393 9.393 9.393h33.345c5.179 0 9.392-4.214 9.392-9.393V25.376h.931c1.35 0 2.672-.547 3.622-1.498a5.084 5.084 0 0 0 1.498-3.622 5.126 5.126 0 0 0-5.12-5.12zM40.115 26.643a2.792 2.792 0 0 0-2.792 2.792V63.34a2.792 2.792 0 1 0 5.585 0V29.436a2.792 2.792 0 0 0-2.793-2.792m6.517 2.792V63.34a2.792 2.792 0 1 0 5.585 0V29.436a2.792 2.792 0 1 0-5.585 0m-15.825-2.792a2.792 2.792 0 0 0-2.793 2.792V63.34a2.792 2.792 0 1 0 5.585 0V29.436a2.792 2.792 0 0 0-2.792-2.792"/>
</svg>
