<svg xmlns="http://www.w3.org/2000/svg" width="80" height="80" viewBox="0 0 80 80">
    <path fill="#19110B" fill-rule="evenodd" d="M55.45 8c4.455 0 8.341 1.61 11.659 4.832.19.19.38.285.569.285h.19c3.317-.758 6.16-1.895 8.72-3.222.094-.095 1.042-.568 1.232-.663-1.327 3.885-3.697 6.822-7.11 9.001a36.56 36.56 0 0 0 4.645-.853c1.517-.379 3.034-.947 4.645-1.61-.758 1.137-1.517 2.179-2.37 3.127-1.611 1.895-3.507 3.6-5.497 5.116-.19.19-.285.284-.285.569v2.842c-.379 11.276-4.265 21.32-11.564 30.037-5.971 6.917-13.365 11.654-22.275 14.023-2.748.758-5.592 1.232-8.34 1.516h-7.963c-2.275 0-4.455-.379-6.635-.853C9.763 71.01 4.93 69.02.284 66.177L0 65.895c1.232.094 2.37.19 3.602.19 3.033 0 6.161-.38 9.1-1.233 4.17-1.137 7.962-3.032 11.374-5.78-7.488-.663-12.607-4.453-15.26-11.37.947.19 1.99.19 2.938.19 1.421 0 2.938-.19 4.36-.569-3.792-.853-6.92-2.842-9.384-5.874-2.465-3.033-3.602-6.538-3.602-10.518 2.275 1.232 4.74 1.99 7.299 1.99-3.508-2.558-5.782-5.78-6.73-9.95-.948-4.168-.285-8.148 1.8-11.938.285.284.475.474.664.758 6.92 8.054 15.545 13.17 25.972 15.445 2.275.473 4.455.758 6.73.947h.379c.19 0 .19-.095.19-.379-.285-1.421-.38-2.937-.285-4.358.284-4.643 2.18-8.433 5.687-11.465 2.56-2.274 5.498-3.601 8.91-3.885.38 0 1.043-.095 1.706-.095z"/>
</svg>
