<svg xmlns="http://www.w3.org/2000/svg" width="80" height="80" viewBox="0 0 80 80">
    <g fill="none" fill-rule="evenodd">
        <g transform="translate(0 14)">
            <rect width="80" height="52" fill="#FFF" rx="6"/>
            <path fill="#FFF" d="M55.836 28.167l-1.577 6.816h.548l-.335 1.405h-.546l-.1.433h-1.942l.105-.433h-3.945l.31-1.297.402-.008 1.607-6.916.318-1.392h1.983l-.158.712s.501-.39.983-.513c.496-.14 3.363-.181 3.363-.181l-.328 1.374h-.688zm-3.49 0l-.396 1.746s.56-.264.878-.354c.318-.088.801-.122.801-.122l.297-1.27h-1.58zm-.608 2.613l-.418 1.808s.576-.315.899-.397c.315-.088.799-.14.799-.14l.297-1.27h-1.577zm-.97 4.218h1.574l.353-1.529h-1.58L50.769 35zM56.96 26.793h2.106l.028.787c-.015.13.103.2.343.205h.361l-.32 1.306h-1.146c-.983.078-1.36-.359-1.331-.836l-.041-1.462"/>
            <path fill="#FFF" d="M57.318 33.01h-2.015l.27-1.168h2.298l.25-1.07h-2.27l.31-1.311h6.317l-.312 1.312h-2.114l-.254 1.069h2.122l-.27 1.167h-2.297l-.384.491h.934l.328 1.475c.03.147.049.235.095.3.043.054.327.082.494.082h.284l-.338 1.434h-.714c-.11 0-.277 0-.507-.031-.213-.01-.376-.143-.53-.212a.763.763 0 0 1-.412-.499l-.323-1.467-.936 1.45c-.31.451-.735.795-1.498.795h-1.464l.294-1.274h.563a.832.832 0 0 0 .4-.11.723.723 0 0 0 .304-.262l1.375-2.172M35.053 29.812h5.335l-.305 1.289h-2.147l-.254 1.09h2.168l-.317 1.332H37.36l-.418 1.772c-.05.202.53.225.74.225l1.078-.15-.348 1.462h-2.453c-.202 0-.345-.023-.563-.078-.21-.049-.31-.144-.417-.281-.09-.145-.238-.261-.161-.571l.558-2.36h-1.211l.317-1.351h1.221l.256-1.09h-1.213l.307-1.289M38.501 27.503h2.189l-.315 1.343h-2.99l-.307.282c-.125.139-.18.087-.35.178-.167.085-.513.26-.976.26H34.8l.307-1.29h.279c.25 0 .412-.021.494-.076.09-.062.19-.193.294-.415l.492-1.016h2.173l-.338.734M41.583 26.78h1.874l-.22.95s.553-.472.967-.633c.395-.162 1.321-.3 1.321-.3l3.013-.022-.82 3.46c-.137.592-.309.972-.432 1.155a1.25 1.25 0 0 1-.48.462c-.244.135-.477.21-.69.246-.194.01-.501.015-.926.018h-2.895l-.653 2.732c-.067.274-.09.4-.036.47a.35.35 0 0 0 .284.148l1.27-.13-.338 1.496h-1.444c-.45 0-.788-.005-1.01-.023-.226-.018-.464 0-.625-.124-.136-.117-.346-.266-.354-.43.008-.152.054-.402.12-.735l2.074-8.74zm4.17 3.492h-3.046l-.149.617h2.645c.304-.031.373.015.391 0l.159-.617zm-2.92-.56s.56-.543 1.576-.727c.228-.051 1.692-.03 1.692-.03l.164-.737h-3.072l-.36 1.493z"/>
            <path fill="#FFF" d="M47.36 32.361l-.117.834c-.067.25-.115.447-.292.618-.2.17-.428.356-.988.356l-1.024.041.041.938c.01.266.074.237.12.276.057.05.09.073.141.088l.33-.015.976-.065-.318 1.377H45.1c-.796 0-1.395-.018-1.592-.166-.2-.134-.23-.292-.243-.54l-.156-3.667h1.815l.02.76h.433c.153 0 .248-.021.312-.065.046-.036.08-.096.113-.194l.128-.576h1.43M21.51 14.04c-.07.301-1.227 5.7-1.232 5.7-.25 1.102-.44 1.877-1.041 2.386a1.962 1.962 0 0 1-1.237.423c-.763 0-1.21-.377-1.293-1.11l-.017-.246s.235-1.456.235-1.467c0 0 1.221-4.927 1.444-5.578.005-.034.013-.052.02-.075-2.373.026-2.795.008-2.823-.044a11.97 11.97 0 0 0-.077.361l-1.244 5.558-.118.468-.194 1.542c0 .45.084.831.263 1.136.566 1.01 2.189 1.16 3.1 1.16 1.18 0 2.278-.258 3.028-.718 1.298-.77 1.641-1.989 1.936-3.058l.14-.548s1.262-5.119 1.475-5.782c.005-.034.015-.052.02-.075-1.717.023-2.222 0-2.385-.034M28.45 24.197a26.083 26.083 0 0 0-2.118.034l-.046-.067c.09-.385.184-.755.269-1.137l.118-.511c.184-.814.368-1.741.378-2.03.02-.166.075-.594-.407-.594-.202 0-.417.098-.634.196a66.99 66.99 0 0 0-.471 2.175c-.241 1.157-.264 1.286-.369 1.851l-.072.083a27.031 27.031 0 0 0-2.16.034l-.044-.08c.162-.687.33-1.374.484-2.064.423-1.852.522-2.565.635-3.507l.08-.068c.977-.123 1.21-.162 2.265-.38l.084.104-.161.597c.182-.114.358-.22.54-.32a3.35 3.35 0 0 1 1.352-.31c.455 0 .957.126 1.17.666.212.48.069 1.067-.195 2.237l-.128.594c-.28 1.294-.318 1.536-.471 2.414l-.1.083M31.866 24.197c-.509-.008-.832-.013-1.149-.008-.317.008-.63.016-1.098.042l-.028-.042-.026-.038c.126-.496.195-.667.259-.84.064-.173.125-.351.238-.852.143-.646.238-1.098.3-1.498.07-.385.107-.71.155-1.093l.046-.03.031-.029c.51-.072.827-.121 1.16-.178.322-.054.66-.109 1.185-.212l.015.05.023.04c-.107.406-.197.811-.297 1.222-.094.398-.187.806-.276 1.206-.2.858-.264 1.18-.312 1.397-.041.225-.052.344-.128.78l-.046.044-.052.04M39.423 21.273c.297-1.312.074-1.919-.218-2.29-.445-.569-1.21-.747-2.02-.747-.48 0-1.622.052-2.52.883-.64.602-.956 1.42-1.127 2.209-.182.798-.394 2.247.914 2.774.407.167.988.222 1.359.222.968 0 1.95-.269 2.685-1.067.579-.638.835-1.583.927-1.984m-2.197-.098c-.048.217-.238 1.051-.499 1.392-.179.256-.394.411-.62.411-.068 0-.488 0-.498-.628 0-.307.053-.62.133-.968.22-.987.486-1.81 1.15-1.81.524 0 .557.612.334 1.603M57.968 22.67c-.169.249-.58.398-.809.398-.069 0-.481 0-.491-.612-.005-.304.051-.62.13-.968.215-.964.482-1.79 1.155-1.79.427 0 .64.426.58 1.123-.038.155-.058.303-.099.489-.074.297-.159.601-.233.904-.064.178-.138.34-.233.457m3.34-4.37c-1.057.199-1.336.23-2.339.369l-.087.075c-.005.083-.02.16-.033.243a1.346 1.346 0 0 0-.727-.62c-.456-.184-1.508.052-2.406.888-.646.592-.942 1.408-1.132 2.183-.174.79-.386 2.234.92 2.745.414.178.793.227 1.164.21.412-.024.773-.236 1.121-.528-.038.13-.064.248-.097.37l.059.082c.942-.049 1.233-.049 2.25-.036l.092-.077c.143-.873.292-1.73.673-3.415.184-.805.374-1.603.57-2.401l-.027-.088M45.172 24.197a26.224 26.224 0 0 0-2.122.034l-.036-.067c.09-.385.184-.755.269-1.137l.12-.511c.174-.814.361-1.741.384-2.03.008-.166.062-.594-.42-.594-.197 0-.417.098-.635.196-.11.431-.353 1.627-.47 2.175-.233 1.157-.254 1.286-.359 1.851l-.08.083a27.13 27.13 0 0 0-2.16.034l-.046-.08c.17-.687.333-1.374.487-2.064.422-1.852.52-2.565.64-3.507l.079-.068a22.615 22.615 0 0 0 2.265-.38l.082.104-.156.597c.166-.114.348-.22.527-.32a3.374 3.374 0 0 1 1.35-.31c.46 0 .967.126 1.177.666.202.48.072 1.067-.195 2.237l-.133.594a47.844 47.844 0 0 0-.468 2.414l-.1.083M53.376 17.198c-.151.674-.579 1.247-1.142 1.521-.463.235-1.018.253-1.607.253h-.382l.036-.152s.691-3.04.691-3.03l.016-.147.015-.13.28.024s1.43.137 1.46.142c.561.212.8.788.633 1.519m-.914-3.174l-.696.015c-1.82.023-2.545.013-2.852-.028-.025.137-.074.374-.074.374s-.645 3.05-.645 3.056c0 0-1.559 6.482-1.633 6.782 1.58-.018 2.237-.026 2.506.008.064-.297.435-2.11.438-2.11 0 0 .312-1.33.335-1.374 0 0 .087-.143.194-.194h.149c1.364 0 2.913 0 4.129-.904.821-.612 1.38-1.521 1.64-2.63.06-.276.11-.596.11-.924 0-.416-.084-.845-.327-1.175-.612-.868-1.846-.88-3.274-.896M32.79 18.983c.553-.383.63-.93.16-1.207-.477-.281-1.306-.193-1.867.194-.566.393-.625.93-.154 1.214.471.279 1.3.191 1.861-.201M68.317 18.288l-.09-.096c-1.036.215-1.223.248-2.18.375l-.075.07c0 .02 0 .03-.002.046l-.005-.016c-.714 1.661-.686 1.3-1.265 2.606-.007-.062-.007-.105-.007-.162l-.146-2.823-.09-.096c-1.085.215-1.116.248-2.114.375l-.082.07c-.01.033-.016.072-.02.11l.01.016c.122.646.094.509.222 1.526.054.501.133 1.008.19 1.511.105.814.161 1.232.276 2.49-.678 1.136-.837 1.565-1.484 2.552v.01l-.461.728c-.054.088-.1.14-.17.158a.727.727 0 0 1-.301.047h-.348l-.302 1.33 1.31-.024c.763-.007 1.247-.38 1.505-.857l.812-1.413 4.817-8.533"/>
            <path fill="#D80029" d="M19.523 4.527h16.73c2.338 0 3.79 1.919 3.244 4.285l-7.792 33.743c-.548 2.358-2.88 4.277-5.212 4.277H9.755c-2.332 0-3.786-1.919-3.24-4.277l7.794-33.743c.543-2.366 2.875-4.285 5.214-4.285"/>
            <path fill="#0E2E62" d="M34.869 4.527h16.73c2.332 0 3.797 1.919 3.239 4.285l-7.785 33.743c-.55 2.358-2.89 4.277-5.23 4.277H25.099c-2.337 0-3.788-1.919-3.24-4.277l7.786-33.743c.546-2.366 2.888-4.285 5.225-4.285"/>
            <path fill="#0C606C" d="M53.353 4.527h16.715c2.337 0 3.796 1.919 3.246 4.285l-7.79 33.743c-.542 2.358-2.882 4.277-5.216 4.277H43.57c-2.335 0-3.794-1.919-3.244-4.277l7.79-33.743c.545-2.366 2.887-4.285 5.237-4.285"/>
            <path fill="#FFF" d="M55.836 29.437l-1.577 6.803h.548l-.335 1.416h-.546l-.1.434h-1.942l.105-.434h-3.945l.31-1.305.402-.002 1.607-6.912.318-1.39h1.983l-.158.7s.501-.387.983-.513c.496-.134 3.363-.183 3.363-.183l-.328 1.386h-.688zm-3.49 0l-.396 1.741s.56-.268.878-.351c.318-.088.801-.132.801-.132l.297-1.258h-1.58zm-.608 2.614l-.418 1.795s.576-.305.899-.398c.315-.082.799-.136.799-.136l.297-1.26h-1.577zm-.97 4.215h1.574l.353-1.534h-1.58l-.347 1.534zM56.96 28.058h2.106l.028.788c-.015.132.103.194.343.199h.361l-.32 1.31h-1.146c-.983.074-1.36-.355-1.331-.837l-.041-1.46"/>
            <path fill="#FFF" d="M57.318 34.272h-2.015l.27-1.162h2.298l.25-1.067h-2.27l.31-1.317h6.317l-.312 1.317h-2.114l-.254 1.067h2.122l-.27 1.162h-2.297l-.384.496h.934l.328 1.472c.03.142.049.238.095.303.043.046.327.072.494.072h.284l-.338 1.441h-.714c-.11 0-.277-.003-.507-.026-.213-.015-.376-.15-.53-.214a.768.768 0 0 1-.412-.504l-.323-1.462-.936 1.442c-.31.457-.735.8-1.498.8h-1.464l.294-1.27h.563a.831.831 0 0 0 .4-.122.647.647 0 0 0 .304-.253l1.375-2.175M35.053 31.08h5.335l-.305 1.281h-2.147l-.254 1.1h2.168l-.317 1.323H37.36l-.418 1.774c-.05.196.53.233.74.233l1.078-.153-.348 1.454h-2.453c-.202 0-.345-.015-.563-.067a.7.7 0 0 1-.417-.287c-.09-.14-.238-.268-.161-.573l.558-2.36h-1.211l.317-1.344h1.221l.256-1.1h-1.213l.307-1.28M38.501 28.774h2.189l-.315 1.335h-2.99l-.307.29c-.125.134-.18.08-.35.17a1.972 1.972 0 0 1-.976.258H34.8l.307-1.284h.279c.25 0 .412-.03.494-.082.09-.055.19-.194.294-.416l.492-1.002h2.173l-.338.73M41.583 28.048h1.874l-.22.953s.553-.483.967-.64c.395-.16 1.321-.298 1.321-.298l3.013-.015-.82 3.45c-.137.6-.309.977-.432 1.147a1.199 1.199 0 0 1-.48.473 1.74 1.74 0 0 1-.69.237c-.194.024-.501.024-.926.026h-2.895l-.653 2.733c-.067.274-.09.4-.036.475.044.06.149.134.284.134l1.27-.124-.338 1.506h-1.444c-.45 0-.788-.013-1.01-.03-.226-.019-.464 0-.625-.125-.136-.124-.346-.271-.354-.429a6.12 6.12 0 0 1 .12-.728l2.074-8.745zm4.17 3.492h-3.046l-.149.617h2.645c.304-.028.373.01.391-.003l.159-.614zm-2.92-.558s.56-.553 1.576-.736c.228-.039 1.692-.029 1.692-.029l.164-.738h-3.072l-.36 1.503z"/>
            <path fill="#FFF" d="M47.36 33.624l-.117.83c-.067.255-.115.454-.292.63-.2.167-.428.348-.988.348l-1.024.041.041.935c.01.277.074.246.12.287a.33.33 0 0 0 .141.08l.33-.015.976-.06-.318 1.377H45.1c-.796 0-1.395-.024-1.592-.179-.2-.129-.23-.276-.243-.529l-.156-3.665h1.815l.02.75h.433c.153 0 .248-.011.312-.053.046-.046.08-.1.113-.19l.128-.587h1.43M21.51 15.3c-.07.31-1.227 5.705-1.232 5.71-.25 1.09-.44 1.87-1.041 2.376a1.908 1.908 0 0 1-1.237.429c-.763 0-1.21-.377-1.293-1.103l-.017-.253.235-1.46s1.221-4.932 1.444-5.586a.32.32 0 0 1 .02-.08c-2.373.029-2.795.01-2.823-.033-.016.051-.077.364-.077.364l-1.244 5.547-.118.473-.194 1.534c0 .46.084.834.263 1.15.566.996 2.189 1.144 3.1 1.144 1.18 0 2.278-.259 3.028-.708 1.298-.783 1.641-1.991 1.936-3.06l.14-.55s1.262-5.12 1.475-5.78c.005-.037.015-.063.02-.08-1.717.025-2.222.01-2.385-.034M28.45 25.46a26.083 26.083 0 0 0-2.118.034l-.046-.068c.09-.382.184-.759.269-1.136l.118-.511c.184-.806.368-1.736.378-2.025.02-.17.075-.597-.407-.597-.202 0-.417.096-.634.2-.11.423-.361 1.626-.471 2.171-.241 1.157-.264 1.292-.369 1.855l-.072.077a27.031 27.031 0 0 0-2.16.034l-.044-.078c.162-.697.33-1.376.484-2.066.423-1.854.522-2.56.635-3.502l.08-.065c.977-.134 1.21-.168 2.265-.387l.084.098-.161.6c.182-.104.358-.213.54-.31a3.303 3.303 0 0 1 1.352-.321c.455 0 .957.134 1.17.666.212.48.069 1.072-.195 2.24l-.128.586c-.28 1.304-.318 1.544-.471 2.428l-.1.077M31.866 25.46c-.509-.013-.832-.013-1.149 0-.317 0-.63.01-1.098.034l-.028-.047-.026-.03c.126-.492.195-.667.259-.838.064-.175.125-.348.238-.85.143-.645.238-1.11.3-1.5.07-.393.107-.713.155-1.09l.046-.033.031-.04c.51-.061.827-.11 1.16-.17.322-.046.66-.106 1.185-.204l.015.04.023.043c-.107.405-.197.808-.297 1.216-.094.406-.187.811-.276 1.212-.2.852-.264 1.177-.312 1.402-.041.22-.052.33-.128.778l-.046.043-.052.034M39.423 22.539c.297-1.312.074-1.924-.218-2.288-.445-.571-1.21-.757-2.02-.757-.48 0-1.622.054-2.52.896-.64.597-.956 1.42-1.127 2.198-.182.8-.394 2.252.914 2.776.407.174.988.23 1.359.23.968 0 1.95-.273 2.685-1.074.579-.628.835-1.591.927-1.981m-2.197-.093c-.048.212-.238 1.038-.499 1.387-.179.248-.394.403-.62.403-.068 0-.488 0-.498-.617 0-.31.053-.625.133-.969.22-.976.486-1.808 1.15-1.808.524 0 .557.602.334 1.604M57.968 23.936c-.169.248-.58.4-.809.4-.069 0-.481 0-.491-.609-.005-.312.051-.625.13-.966.215-.976.482-1.8 1.155-1.8.427 0 .64.426.58 1.126-.038.155-.058.3-.099.48-.074.308-.159.607-.233.907-.064.18-.138.351-.233.462m3.34-4.375c-1.057.194-1.336.245-2.339.382l-.087.06c-.005.085-.02.162-.033.25a1.397 1.397 0 0 0-.727-.625c-.456-.17-1.508.052-2.406.891-.646.594-.942 1.4-1.132 2.188-.174.782-.386 2.229.92 2.74.414.178.793.23 1.164.21.412-.016.773-.23 1.121-.53-.038.124-.064.25-.097.377l.059.072A32.136 32.136 0 0 1 60 25.55l.092-.08c.143-.875.292-1.735.673-3.422.184-.8.374-1.598.57-2.4l-.027-.087M45.172 25.46a26.224 26.224 0 0 0-2.122.034l-.036-.068c.09-.382.184-.759.269-1.136l.12-.511c.174-.806.361-1.736.384-2.025.008-.17.062-.597-.42-.597-.197 0-.417.096-.635.2-.11.423-.353 1.626-.47 2.171-.233 1.157-.254 1.292-.359 1.855l-.08.077a27.13 27.13 0 0 0-2.16.034l-.046-.078a114 114 0 0 0 .487-2.066c.422-1.854.52-2.56.64-3.502l.079-.065a25.222 25.222 0 0 0 2.265-.387l.082.098-.156.6c.166-.104.348-.213.527-.31a3.328 3.328 0 0 1 1.35-.321c.46 0 .967.134 1.177.666.202.48.072 1.072-.195 2.24l-.133.586a48.976 48.976 0 0 0-.468 2.428l-.1.077M53.376 18.469c-.151.674-.579 1.237-1.142 1.52-.463.233-1.018.251-1.607.251h-.382l.036-.152s.691-3.037.691-3.032l.016-.155.015-.116.28.018s1.43.129 1.46.14c.561.219.8.782.633 1.526m-.914-3.18l-.696.016c-1.82.023-2.545.015-2.852-.029-.025.137-.074.375-.074.375l-.645 3.055-1.633 6.788c1.58-.031 2.237-.031 2.506.005.064-.305.435-2.113.438-2.123 0 0 .312-1.328.335-1.361 0 0 .087-.145.194-.202h.149c1.364 0 2.913 0 4.129-.904.821-.604 1.38-1.526 1.64-2.626.06-.272.11-.594.11-.922 0-.419-.084-.837-.327-1.18-.612-.871-1.846-.876-3.274-.892M32.79 20.25c.553-.387.63-.927.16-1.216-.477-.271-1.306-.188-1.867.204-.566.382-.625.927-.154 1.212.471.281 1.3.188 1.861-.2M68.317 19.558l-.09-.1a22.356 22.356 0 0 1-2.18.377l-.075.062c0 .018 0 .039-.002.051l-.005-.012c-.714 1.658-.686 1.296-1.265 2.603-.007-.065-.007-.111-.007-.165l-.146-2.816-.09-.1c-1.085.217-1.116.248-2.114.377l-.082.062c-.01.046-.016.077-.02.119l.01.013c.122.65.094.503.222 1.523.054.496.133 1.008.19 1.506.105.827.161 1.237.276 2.492-.678 1.145-.837 1.568-1.484 2.56l-.461.741a.376.376 0 0 1-.17.158.772.772 0 0 1-.301.046h-.348l-.302 1.325 1.31-.026c.763 0 1.247-.382 1.505-.865l.812-1.407 4.817-8.524"/>
        </g>
        <path fill="#D8D8D8" fill-rule="nonzero" d="M2 14h76a2 2 0 0 1 2 2v48a2 2 0 0 1-2 2H2a2 2 0 0 1-2-2V16a2 2 0 0 1 2-2zm1 2a1 1 0 0 0-1 1v46a1 1 0 0 0 1 1h74a1 1 0 0 0 1-1V17a1 1 0 0 0-1-1H3z"/>
    </g>
</svg>
