<svg xmlns="http://www.w3.org/2000/svg" width="80" height="80" viewBox="0 0 80 80">
    <path fill="#19110B" fill-rule="evenodd" d="M62.794 49.218c-7.803 6-15.464 9.045-22.77 9.045-3.644 0-7.386-.774-11.198-2.306l2.92-2.921a15.528 15.528 0 0 0 8.298 2.406c8.624 0 15.64-7.015 15.64-15.64 0-3.05-.89-5.888-2.406-8.296l4.547-4.548a57.038 57.038 0 0 1 4.969 3.426 68.776 68.776 0 0 1 9.94 9.417c-1.521 1.773-5.098 5.693-9.94 9.417zm-32.631-9.415c0-5.45 4.43-9.882 9.88-9.882 1.426 0 2.778.309 4.003.855l-13.03 13.029a9.817 9.817 0 0 1-.853-4.002zm19.763 0c0 5.449-4.433 9.88-9.882 9.88a9.816 9.816 0 0 1-4.062-.882l13.06-13.061a9.809 9.809 0 0 1 .884 4.063zm-32.557 9.413c-4.58-3.53-8.05-7.204-9.965-9.408 4.437-5.072 17.59-18.466 32.62-18.466 3.65 0 7.389.759 11.189 2.267l-2.927 2.926a15.53 15.53 0 0 0-8.242-2.373c-8.624 0-15.64 7.016-15.64 15.64 0 3.027.878 5.846 2.373 8.243l-4.542 4.54a57.402 57.402 0 0 1-4.866-3.37zm61.386-11.113l-.001-.001c-.102-.14-6.658-8.762-16.777-15.295l8.825-8.825L65.82 9 55.565 19.256c-4.734-2.194-9.98-3.673-15.54-3.673-20.521 0-36.844 20.15-38.637 22.448L0 39.806l1.39 1.772c1.079 1.377 7.393 9.157 16.678 15.176l-8.87 8.869 4.982 4.98 10.288-10.287c4.745 2.212 9.999 3.705 15.557 3.705 21.553 0 38.56-22.288 38.727-22.515L80 39.805l-1.245-1.702z"/>
</svg>
