<svg xmlns="http://www.w3.org/2000/svg" width="80" height="80" viewBox="0 0 80 80">
    <g fill="none" fill-rule="evenodd" transform="translate(0 14)">
        <rect width="80" height="52" fill="#FFF" rx="6"/>
        <g fill="#16216A">
            <path d="M53.866 18.075c-.945-.357-2.424-.742-4.274-.742-4.708 0-8.028 2.386-8.056 5.808-.028 2.527 2.368 3.938 4.176 4.781 1.855.862 2.483 1.412 2.473 2.182-.014 1.179-1.484 1.717-2.856 1.717-1.903 0-2.916-.268-4.484-.923l-.613-.277-.67 3.938c1.11.49 3.17.916 5.31.937 5.012 0 8.264-2.358 8.301-6.012.017-1.999-1.25-3.523-4-4.78-1.67-.814-2.689-1.357-2.682-2.18 0-.731.868-1.513 2.732-1.513a8.748 8.748 0 0 1 3.568.671l.427.205.648-3.812M66.087 17.657h-3.681c-1.141 0-1.995.315-2.494 1.458L52.83 35.24h5.007s.817-2.168 1.004-2.642l6.103.007c.142.615.581 2.635.581 2.635h4.424l-3.862-17.583zM60.21 29c.397-1.017 1.9-4.922 1.9-4.922-.026.05.391-1.017.63-1.68l.324 1.518L64.17 29h-3.96zM27.812 17.652l-4.666 11.999-.5-2.438c-.865-2.809-3.574-5.857-6.6-7.381l4.265 15.387 5.044-.005 7.506-17.562h-5.049"/>
            <path d="M18.816 17.643h-7.69l-.059.364c5.98 1.456 9.94 4.979 11.58 9.206l-1.67-8.086c-.29-1.115-1.125-1.444-2.161-1.484M31.811 35.233l2.98-17.592h4.769l-2.987 17.592h-4.762"/>
        </g>
        <path fill="#D8D8D8" fill-rule="nonzero" d="M2 0h76a2 2 0 0 1 2 2v48a2 2 0 0 1-2 2H2a2 2 0 0 1-2-2V2a2 2 0 0 1 2-2zm1 2a1 1 0 0 0-1 1v46a1 1 0 0 0 1 1h74a1 1 0 0 0 1-1V3a1 1 0 0 0-1-1H3z"/>
    </g>
</svg>
