<svg xmlns="http://www.w3.org/2000/svg" width="80" height="80" viewBox="0 0 80 80">
    <path fill="#19110B" fill-rule="evenodd" d="M62.794 49.635C54.99 55.636 47.33 58.68 40.025 58.68c-7.242 0-14.863-3.045-22.656-9.047-4.58-3.53-8.05-7.204-9.965-9.408 4.437-5.072 17.59-18.467 32.621-18.467 7.306 0 14.967 3.043 22.769 9.043a68.902 68.902 0 0 1 9.94 9.416c-1.521 1.775-5.098 5.694-9.94 9.418zm15.961-11.116L80 40.222l-1.248 1.7c-.167.228-17.174 22.516-38.727 22.516-20.459 0-36.834-20.146-38.635-22.443L0 40.223l1.387-1.775C3.18 36.15 19.504 16 40.025 16c21.62 0 38.564 22.294 38.73 22.518v.001zM40.043 24.58c-8.623 0-15.64 7.016-15.64 15.64 0 8.625 7.017 15.64 15.64 15.64 8.625 0 15.641-7.015 15.641-15.64 0-8.624-7.016-15.64-15.64-15.64zm9.883 15.64c0 5.45-4.433 9.882-9.883 9.882-5.449 0-9.88-4.432-9.88-9.881 0-5.45 4.431-9.882 9.88-9.882 5.45 0 9.883 4.433 9.883 9.882z"/>
</svg>
