<svg xmlns="http://www.w3.org/2000/svg" width="16" height="16" viewBox="0 0 16 16">
    <path fill="#19110B" fill-rule="evenodd" d="M16 13.6a2.4 2.4 0 0 1-2.4 2.4H2.4A2.4 2.4 0 0 1 0 13.6V2.4A2.4 2.4 0 0 1 2.4 0h11.2A2.4 2.4 0 0 1 16 2.4v11.2zm-5.412-7.534a3.865 3.865 0 0 0-.802-2.04C8.536 2.387 6.224 1.7 4.168 2.373 2.66 2.868 1.552 3.814 1.1 5.376.612 7.064 1.264 8.703 2.812 9.8c.24.17.277.316.198.579-.107.357-.167.728-.26 1.151.509-.319.938-.605 1.386-.859.135-.076.325-.095.484-.082.461.04 1.111.058 1.615.12-.114-1.358.114-2.404 1.033-3.298.91-.885 2.031-1.277 3.32-1.344zM4.656 5.54a.587.587 0 0 1-.607.557.578.578 0 0 1 .036-1.153c.316.009.583.287.571.596zm3.095-.597a.574.574 0 0 1 .589.57.57.57 0 0 1-.574.586.58.58 0 0 1-.596-.568.596.596 0 0 1 .581-.588zm5.736 8.94c-.027-.109-.032-.217-.079-.302-.254-.463-.111-.752.284-1.103 1.367-1.214 1.498-3.131.379-4.575-1.283-1.656-3.952-2.053-5.771-.86-2.047 1.342-2.3 3.853-.53 5.491.93.861 2.058 1.212 3.318 1.083.413-.042.829-.27 1.224-.229.396.042.77.313 1.175.494zM8.863 9.401a.482.482 0 0 1-.48-.461.487.487 0 0 1 .484-.496.48.48 0 0 1-.003.957zm2.981-.956a.475.475 0 0 1 .468.499.466.466 0 0 1-.474.454.47.47 0 0 1-.468-.495.478.478 0 0 1 .474-.458z"/>
</svg>
