<svg xmlns="http://www.w3.org/2000/svg" width="80" height="80" viewBox="0 0 80 80">
    <path fill="#19110B" fill-rule="evenodd" d="M52.434 59.707c-4.872 5.701-15.135 9.431-25.39 8.721-8.874-.61-20.958-5.993-18.706-17.443 1-5.09 5.024-8.475 8.462-10.554 4.213-2.549 8.251-3.854 14.254-4.362 10.975-.93 24.919 3.284 24.941 14.69.011 3.695-1.78 6.866-3.56 8.948m6.012-22.031c5.562 3.135 12.242 4.696 11.135 14.002-.265 2.23-1.574 5.209-2.893 7.111-9.4 13.56-37.752 19.26-55.457 8.953C5.294 64.284-.851 59.226.097 49.148c.816-8.672 6.475-15.39 12.028-21.112 5.297-5.462 10.883-9.736 18.484-11.705 8.247-2.138 10.684 4.948 8.463 11.934 4.776-.33 14.9-5.825 19.375-.459 1.973 2.365 1.218 6.6 0 9.87zm21.475-10.69c.347 4.637-.414 10.193-3.387 10.465-4.853.445-2.322-5.059-2.256-8.371.176-9.604-7.784-16.276-15.582-16.276-2.211 0-7.342 1.541-6.551-3.257.356-2.114 2.096-2.085 3.838-2.323 13.115-1.802 23.017 7.49 23.938 19.762zM66.04 33.653c-3.204.223-2.005-2.297-2.2-5.294-.121-1.845-1.582-3.978-2.859-4.604-2.503-1.226-6.377.894-6.377-2.76 0-2.714 2.25-2.43 3.52-2.533 5.569-.443 9.684 3.574 10.334 8.515.461 3.505-.498 6.542-2.418 6.676zM31.402 52.307c-.02-2.325 2.83-2.568 3.07-.918.2 1.426-2.079 2.718-3.07.918zm-3.947 7.822c-5.718 1.426-6.721-6.32-1.534-7.591 6.176-1.515 5.626 6.57 1.534 7.591zm2.632-17.482c-7.446.818-14.595 7.588-11.618 16.1 4.45 12.728 28.783 5.84 24.113-8.97-1.4-4.428-6.138-7.829-12.495-7.13z"/>
</svg>
