<svg xmlns="http://www.w3.org/2000/svg" width="16" height="16" viewBox="0 0 16 16">
    <path fill="#19110B" fill-rule="evenodd" d="M8.144 0c4.338 0 7.854 3.49 7.854 7.794 0 4.305-3.516 7.794-7.854 7.794a7.866 7.866 0 0 1-3.796-.97L0 16l1.417-4.182A7.713 7.713 0 0 1 .29 7.794C.29 3.49 3.807 0 8.144 0zm0 14.347c3.641 0 6.603-2.94 6.603-6.553s-2.962-6.553-6.603-6.553c-3.64 0-6.603 2.94-6.603 6.553 0 1.434.467 2.762 1.258 3.842l-.825 2.433 2.538-.806a6.6 6.6 0 0 0 3.632 1.084zM6.302 4.57c.16.383.546 1.323.594 1.418.048.096.091.228.027.355-.064.128-.118.187-.214.299-.096.111-.187.196-.286.315-.087.104-.19.218-.077.409a5.76 5.76 0 0 0 1.071 1.323c.736.65 1.335.858 1.549.948.162.069.35.051.467-.072.15-.156.33-.42.517-.678.136-.186.299-.206.475-.142.177.063 1.123.526 1.316.621.192.096.32.144.369.223.048.08.048.462-.112.908s-.793.814-1.297.923c-.346.076-.796.131-2.313-.492-1.944-.8-3.193-2.757-3.29-2.884-.095-.128-.785-1.036-.785-1.976s.481-1.398.674-1.593c.158-.16.42-.235.674-.235.08 0 .153.003.22.006.197.01.294.02.421.324z"/>
</svg>
