<svg id="wishlist" xmlns="http://www.w3.org/2000/svg" viewBox="0 0 80 80">
    <path fill-rule="evenodd" d="M39.783 72l-1.336-.82C37 70.29 3 49.195 3 31.1c0-5.924 1.86-11.508 5.24-15.722C12.109 10.55 17.525 8 23.9 8c7.986 0 13.111 4.7 15.831 8.22C42.382 12.68 47.482 8 55.924 8c13.418 0 20.657 11.902 20.657 23.101 0 18.345-34.01 39.206-35.458 40.085l-1.34.814zm.023-7.076c1.238-.8 2.594-1.708 4.035-2.713 4.002-2.792 7.957-5.835 11.597-9.028C64.989 44.803 70.58 36.88 70.58 31.1 70.58 21.546 64.568 14 55.924 14c-5.034 0-8.696 2.218-11.388 5.815l-4.728 6.316-4.823-6.243C32.166 16.241 28.53 14 23.9 14c-4.572 0-8.26 1.737-10.98 5.132C10.418 22.254 9 26.509 9 31.1c0 5.667 5.598 13.578 15.147 21.989 3.642 3.208 7.6 6.272 11.603 9.089a141.277 141.277 0 0 0 4.05 2.749l.006-.004z"/>
</svg>
