<svg xmlns="http://www.w3.org/2000/svg" width="80" height="80" viewBox="0 0 80 80">
    <path fill="#19110B" fill-rule="evenodd" d="M22.725 10.581c-11.255 0-17.144 9.827-17.144 19.535 0 13.14 23.602 30.982 34.427 37.907 10.822-6.856 34.41-24.582 34.41-37.907 0-9.708-5.797-19.535-16.877-19.535-10.775 0-14.926 9.619-14.966 9.716l-2.44 5.83-2.665-5.73c-.186-.392-4.766-9.816-14.745-9.816zm17.267 64.002l-1.452-.892C36.967 72.724 0 49.79 0 30.116c0-6.44 2.023-12.511 5.697-17.094C9.903 7.774 15.792 5 22.725 5c8.682 0 14.255 5.11 17.212 8.937C42.817 10.089 48.362 5 57.54 5 72.13 5 80 17.94 80 30.116 80 50.061 43.022 72.742 41.448 73.7l-1.456.884z"/>
</svg>
