<svg xmlns="http://www.w3.org/2000/svg" width="80" height="80" viewBox="0 0 80 80">
    <path fill="#19110B" fill-rule="evenodd" d="M74.193 73.713c-1.578.968-11.422 1.456-29.262 1.456H44.109a465.288 465.288 0 0 0-4.322.007c-1.195-.027-6.238-5.8-13.44-22.775-1.034-2.443-2.763-4.139-4.868-4.776-1.902-.574-2.81-.23-4.293.97-4.888 3.967-4.886 17.956-4.365 26.636l-1.225-.001c.097-6.188.027-11.53-.21-15.897-.29-5.347-1.837-10.672-4.599-15.825-3.089-5.772-.563-11.551 2.1-15.385.712-1.022 1.35-2.046 1.912-2.948.48-.769.919-1.473 1.336-2.075a8453.505 8453.505 0 0 0 21.372 30.055c6.708 9.381 13.964 11.941 18.87 12.435 3.815.38 6.859-.41 8.285-.89 10.725 4.83 10.96 5.08 13.535 7.816.325.345.5.606.584.762-.103.1-.289.253-.586.434l-.002.001zm3.76-4.732h-.003c-3.28-3.482-3.822-3.878-16.163-9.429L60.7 59.07l-1.07.51c-.463.219-11.462 5.214-21.927-9.425a8288.487 8288.487 0 0 1-23.264-32.73L12.72 15l-2.161 2.043C8.9 18.493-5.426 31.62 2.242 45.94c2.402 4.485 3.746 9.084 3.995 13.67.263 4.828.314 10.916.154 18.094L6.33 80.3l11.952.05-.122-2.715c-.917-10.457-1.176-23.01 1.315-25.032.107-.089.18-.143.509-.042.597.18 1.2.874 1.616 1.853 10.997 25.925 16.466 25.915 18.217 25.92 1.142-.008 2.606-.007 4.285-.008 16.55-.016 29.473-.188 32.78-2.214 1.822-1.113 2.856-2.504 3.074-4.134.226-1.688-.43-3.322-2.005-4.996z"/>
</svg>
