<svg xmlns="http://www.w3.org/2000/svg" width="80" height="80" viewBox="0 0 80 80">
    <path fill="#19110B" fill-rule="evenodd" d="M37.193 24.86c-3.335 1.107-5.684 4.294-5.684 7.858 0 4.56 3.712 8.272 8.274 8.272 4.56 0 8.272-3.711 8.272-8.272 0-3.562-2.347-6.75-5.68-7.857V14.137l17.434 27.657c-5.604 6.744-8.272 15.734-9.167 19.335H29.638c-.897-3.607-3.571-12.616-9.193-19.366l16.748-27.764V24.86zm2.59 10.95a3.096 3.096 0 0 1-3.093-3.092 3.096 3.096 0 0 1 3.093-3.092 3.095 3.095 0 0 1 3.091 3.092 3.095 3.095 0 0 1-3.09 3.091zM21.84 74.82h35.886V66.31H21.839v8.508zm44.467-32.437L39.585 0 14.46 41.654l-.46.757 1.366 1.434c5.05 5.3 7.758 13.155 8.905 17.284h-7.614V80h46.249V61.13h-6.899c1.147-4.13 3.854-11.985 8.906-17.285l1.393-1.462z"/>
</svg>
