<svg xmlns="http://www.w3.org/2000/svg" width="80" height="80" viewBox="0 0 80 80">
    <path fill="#19110B" fill-rule="evenodd" d="M28.69 38.767c.196-.246.196-1.321 0-1.569-.076-3.542-3.83-5.095-6.006-3.018-2.652 2.531-1.392 8.882 2.592 8.693 2.08-.099 3.158-1.85 3.414-4.106m36.976 4.308c.095 1.492-1.04 2.93-3.08 2.5-1.253-.264-2.394-1.987-3.587-3.053-1.24-1.11-2.613-2.116-3.587-3.054-.665-.982-.48.667-.48 1.644v2.82c-.127 1.008-.689 1.593-1.673 1.76h-1.436c-1.035-.118-1.466-.83-1.674-1.76V30.894c.018-2.491 4.766-2.491 4.784 0v4.58c.765-.382 1.227-1.064 1.793-1.644a8.145 8.145 0 0 0 1.316-1.291 24.512 24.512 0 0 0 2.273-2.232c.798-1.626 3.552-1.783 4.553-.355 1.003-1.53 4.337-1.301 4.234.971.078 2.83-.159 5.97.117 8.606-.11 3.422 6.042 3.487 6.04.117.275-2.637.04-5.778.119-8.607-.042-2.752 4.792-2.732 4.617.117v8.373c-.288 3.983-2.803 5.776-6.75 6.163h-2.013c-2.5-.239-4.421-1.047-5.566-2.617zm-1.185-9.74c-1.258 1.604-3.694 2.572-4.286 3.902 1.056 1.393 3.287 2.46 4.557 3.881a8.599 8.599 0 0 1-.27-1.822v-5.961zm-20.127-1.812c-.32-3.025 4.84-2.784 4.593 0v8.936c-.402 4.015-2.908 5.873-6.949 6.158h-1.53c-4.137-.269-6.665-2.182-6.83-6.52-.078-.448.15-1.203-.119-1.45h-.117c-.548 5.006-3.07 7.85-7.655 8.21-6.978.55-11.182-6.882-7.89-13.522 1.221-2.47 3.75-4.2 6.83-4.348 5.07-.24 8.107 3.462 8.832 8.694.274-1.73.04-3.985.119-5.916-.347-3.168 4.956-3.186 4.592 0 .079 2.98-.158 6.278.118 9.055.346 2.937 5.899 2.833 5.888-.36.275-2.739.038-6 .118-8.937zM17.8 29.861c.384 1.949-1.425 4.492-2.176 6.213-1.808 4.142-3.29 7.602-5.039 11.608-.855 1.956-1.521 4.119-3.092 5.158-6.493.415-1.648-6.906-.687-9.497-1.477-2.849-3.41-6.164-5.155-9.262-.794-1.41-2.777-4.104-.801-5.627.73-.563 2.351-.58 3.092 0 2.293 1.796 3.593 6.699 5.497 8.91.705-1.224 1.34-2.903 2.062-4.572.656-1.516 1.2-3.647 2.175-4.338 1.495-1.056 3.818-.139 4.124 1.407z"/>
</svg>
