<svg xmlns="http://www.w3.org/2000/svg" width="16" height="16" viewBox="0 0 16 16">
    <path fill="#19110B" fill-rule="evenodd" d="M6.645 12.327C3.521 12.327.98 9.782.98 6.654S3.521.98 6.645.98c3.124 0 5.666 2.545 5.666 5.673a5.64 5.64 0 0 1-1.66 4.011 5.625 5.625 0 0 1-4.006 1.662zM16 15.307l-.692.693-4.313-4.318a6.59 6.59 0 0 1-4.35 1.626C2.981 13.308 0 10.323 0 6.654 0 2.984 2.981 0 6.645 0c3.664 0 6.646 2.985 6.646 6.654a6.607 6.607 0 0 1-1.605 4.333L16 15.307zM7.135 4.645h-.98v1.519H4.64v.98h1.517v1.518h.979V7.144H8.65v-.98H7.135V4.645z"/>
</svg>
