
<svg width="20" height="12" viewBox="0 0 20 12" fill="none" xmlns="http://www.w3.org/2000/svg">
<path d="M10 11.9741C9.06738 11.9741 8.18604 11.8618 7.35596 11.6372C6.53076 11.4126 5.76416 11.1147 5.05615 10.7437C4.35303 10.3726 3.7207 9.96484 3.15918 9.52051C2.59766 9.07617 2.11914 8.62939 1.72363 8.18018C1.32812 7.73096 1.02539 7.31592 0.81543 6.93506C0.605469 6.54932 0.500488 6.23926 0.500488 6.00488C0.500488 5.77051 0.605469 5.46289 0.81543 5.08203C1.02539 4.69629 1.32812 4.27881 1.72363 3.82959C2.12402 3.38037 2.60498 2.93359 3.1665 2.48926C3.72803 2.04004 4.36035 1.63232 5.06348 1.26611C5.77148 0.899902 6.53809 0.604492 7.36328 0.379883C8.18848 0.155273 9.06738 0.0429688 10 0.0429688C10.9375 0.0429688 11.8213 0.155273 12.6514 0.379883C13.4863 0.604492 14.2554 0.899902 14.9585 1.26611C15.6665 1.63232 16.2988 2.04004 16.8555 2.48926C17.4121 2.93359 17.8857 3.38037 18.2764 3.82959C18.6719 4.27881 18.9722 4.69629 19.1772 5.08203C19.3872 5.46289 19.4922 5.77051 19.4922 6.00488C19.4922 6.23926 19.3872 6.54932 19.1772 6.93506C18.9722 7.31592 18.6743 7.73096 18.2837 8.18018C17.8931 8.62939 17.417 9.07617 16.8555 9.52051C16.2988 9.96484 15.6689 10.3726 14.9658 10.7437C14.2627 11.1147 13.4937 11.4126 12.6587 11.6372C11.8237 11.8618 10.9375 11.9741 10 11.9741ZM10 10.751C10.7422 10.751 11.4575 10.6582 12.146 10.4727C12.8345 10.2871 13.479 10.043 14.0796 9.74023C14.6802 9.4375 15.2246 9.10547 15.7129 8.74414C16.2061 8.38281 16.6284 8.02393 16.98 7.66748C17.3315 7.31104 17.6025 6.98633 17.793 6.69336C17.9834 6.39551 18.0786 6.16602 18.0786 6.00488C18.0786 5.86816 17.9834 5.66064 17.793 5.38232C17.6025 5.09912 17.3315 4.77686 16.98 4.41553C16.6284 4.0542 16.2061 3.69043 15.7129 3.32422C15.2246 2.95801 14.6802 2.61865 14.0796 2.30615C13.479 1.98877 12.8345 1.73486 12.146 1.54443C11.4575 1.354 10.7422 1.25879 10 1.25879C9.24805 1.25879 8.52783 1.354 7.83936 1.54443C7.15088 1.73486 6.50391 1.98877 5.89844 2.30615C5.29785 2.61865 4.75342 2.95801 4.26514 3.32422C3.77686 3.69043 3.35449 4.0542 2.99805 4.41553C2.64648 4.77686 2.37549 5.09912 2.18506 5.38232C1.99951 5.66064 1.90674 5.86816 1.90674 6.00488C1.90674 6.16602 1.99951 6.39551 2.18506 6.69336C2.37549 6.98633 2.64648 7.31104 2.99805 7.66748C3.35449 8.02393 3.77686 8.38281 4.26514 8.74414C4.75342 9.10547 5.29785 9.4375 5.89844 9.74023C6.50391 10.043 7.15088 10.2871 7.83936 10.4727C8.52783 10.6582 9.24805 10.751 10 10.751ZM10 9.80615C9.46777 9.80615 8.96973 9.70605 8.50586 9.50586C8.04688 9.30566 7.6416 9.03223 7.29004 8.68555C6.94336 8.33398 6.67236 7.92871 6.47705 7.46973C6.28174 7.01074 6.18408 6.52246 6.18408 6.00488C6.18408 5.29688 6.35254 4.65723 6.68945 4.08594C7.03125 3.50977 7.49023 3.05322 8.06641 2.71631C8.64746 2.37939 9.29199 2.21094 10 2.21094C10.7031 2.21094 11.3428 2.37939 11.9189 2.71631C12.4951 3.05322 12.9541 3.50977 13.2959 4.08594C13.6377 4.65723 13.8086 5.29688 13.8086 6.00488C13.8086 6.52246 13.7109 7.01074 13.5156 7.46973C13.3203 7.92871 13.0469 8.33398 12.6953 8.68555C12.3486 9.03223 11.9434 9.30566 11.4795 9.50586C11.0205 9.70605 10.5273 9.80615 10 9.80615ZM10 7.24268C10.3418 7.24268 10.6348 7.12305 10.8789 6.88379C11.1279 6.63965 11.2524 6.34668 11.2524 6.00488C11.2524 5.66309 11.1279 5.37012 10.8789 5.12598C10.6348 4.88184 10.3418 4.75977 10 4.75977C9.64844 4.75977 9.35059 4.88184 9.10645 5.12598C8.8623 5.37012 8.74023 5.66309 8.74023 6.00488C8.74023 6.34668 8.8623 6.63965 9.10645 6.88379C9.35059 7.12305 9.64844 7.24268 10 7.24268Z" fill="black"/>
</svg>
