<svg width="16" height="10" viewBox="0 0 16 10" fill="none" xmlns="http://www.w3.org/2000/svg">
<path d="M7.51758 9.45703C6.78711 9.45703 6.09375 9.36719 5.4375 9.1875C4.78516 9.00781 4.17969 8.77148 3.62109 8.47852C3.0625 8.18555 2.55859 7.86328 2.10938 7.51172C1.66406 7.15625 1.2832 6.80078 0.966797 6.44531C0.654297 6.08984 0.414062 5.76172 0.246094 5.46094C0.0820312 5.15625 0 4.91016 0 4.72266C0 4.53906 0.0839844 4.29688 0.251953 3.99609C0.419922 3.69141 0.662109 3.36133 0.978516 3.00586C1.29492 2.64648 1.67578 2.29102 2.12109 1.93945C2.56641 1.58398 3.06836 1.26172 3.62695 0.972656C4.18555 0.679688 4.79102 0.445312 5.44336 0.269531C6.0957 0.0898438 6.78711 0 7.51758 0C8.25586 0 8.95312 0.0898438 9.60938 0.269531C10.2656 0.445312 10.873 0.679688 11.4316 0.972656C11.9902 1.26172 12.4902 1.58398 12.9316 1.93945C13.373 2.29102 13.75 2.64648 14.0625 3.00586C14.3789 3.36133 14.6191 3.69141 14.7832 3.99609C14.9473 4.29688 15.0293 4.53906 15.0293 4.72266C15.0293 4.91016 14.9473 5.15625 14.7832 5.46094C14.6191 5.76172 14.3809 6.08984 14.0684 6.44531C13.7598 6.80078 13.3828 7.15625 12.9375 7.51172C12.4922 7.86328 11.9902 8.18555 11.4316 8.47852C10.877 8.77148 10.2695 9.00781 9.60938 9.1875C8.95312 9.36719 8.25586 9.45703 7.51758 9.45703ZM7.51758 8.64844C8.13086 8.64844 8.71875 8.57227 9.28125 8.41992C9.84766 8.26367 10.377 8.06055 10.8691 7.81055C11.3613 7.55664 11.8086 7.28125 12.2109 6.98438C12.6133 6.68359 12.957 6.38672 13.2422 6.09375C13.5312 5.79688 13.7539 5.52734 13.9102 5.28516C14.0664 5.04297 14.1445 4.85547 14.1445 4.72266C14.1445 4.60938 14.0664 4.43555 13.9102 4.20117C13.7539 3.9668 13.5312 3.70117 13.2422 3.4043C12.957 3.10742 12.6133 2.80664 12.2109 2.50195C11.8086 2.19727 11.3613 1.91602 10.8691 1.6582C10.377 1.40039 9.84766 1.19336 9.28125 1.03711C8.71875 0.880859 8.13086 0.802734 7.51758 0.802734C6.90039 0.802734 6.30859 0.880859 5.74219 1.03711C5.17969 1.19336 4.65039 1.40039 4.1543 1.6582C3.66211 1.91602 3.21484 2.19727 2.8125 2.50195C2.41406 2.80664 2.07031 3.10742 1.78125 3.4043C1.49219 3.70117 1.27148 3.9668 1.11914 4.20117C0.966797 4.43555 0.890625 4.60938 0.890625 4.72266C0.890625 4.85547 0.966797 5.04297 1.11914 5.28516C1.27148 5.52734 1.49219 5.79688 1.78125 6.09375C2.07031 6.38672 2.41406 6.68359 2.8125 6.98438C3.21484 7.28125 3.66211 7.55664 4.1543 7.81055C4.65039 8.06055 5.17969 8.26367 5.74219 8.41992C6.30859 8.57227 6.90039 8.64844 7.51758 8.64844ZM7.51758 7.82812C6.93945 7.82812 6.41602 7.6875 5.94727 7.40625C5.47852 7.12109 5.10547 6.74414 4.82812 6.27539C4.55078 5.80273 4.41016 5.28516 4.40625 4.72266C4.40234 4.14844 4.53906 3.62695 4.81641 3.1582C5.09766 2.68945 5.47266 2.31836 5.94141 2.04492C6.41406 1.76758 6.93945 1.62891 7.51758 1.62891C8.0918 1.62891 8.61328 1.76758 9.08203 2.04492C9.55078 2.31836 9.92578 2.68945 10.207 3.1582C10.4883 3.62695 10.6289 4.14844 10.6289 4.72266C10.6289 5.14453 10.5469 5.54297 10.3828 5.91797C10.2227 6.29297 10 6.62305 9.71484 6.9082C9.42969 7.19336 9.09961 7.41797 8.72461 7.58203C8.34961 7.74609 7.94727 7.82812 7.51758 7.82812ZM7.51758 5.73633C7.79883 5.73633 8.03906 5.63672 8.23828 5.4375C8.4375 5.23828 8.53711 5 8.53711 4.72266C8.53711 4.44141 8.4375 4.20312 8.23828 4.00781C8.03906 3.80859 7.79883 3.70898 7.51758 3.70898C7.23242 3.70898 6.99023 3.80859 6.79102 4.00781C6.5918 4.20312 6.49219 4.44141 6.49219 4.72266C6.49219 5 6.5918 5.23828 6.79102 5.4375C6.99023 5.63672 7.23242 5.73633 7.51758 5.73633Z" fill="#0086FF"/>
</svg>
