<svg width="16" height="11" viewBox="0 0 16 11" fill="none" xmlns="http://www.w3.org/2000/svg">
<path d="M7.51758 9.89648C6.78711 9.89648 6.09375 9.80664 5.4375 9.62695C4.78516 9.44727 4.17969 9.21094 3.62109 8.91797C3.0625 8.625 2.55859 8.30273 2.10938 7.95117C1.66406 7.5957 1.2832 7.24023 0.966797 6.88477C0.654297 6.5293 0.414062 6.20117 0.246094 5.90039C0.0820312 5.5957 0 5.34961 0 5.16211C0 4.93945 0.117188 4.63867 0.351562 4.25977C0.585938 3.87695 0.921875 3.46875 1.35938 3.03516C1.80078 2.60156 2.33203 2.19336 2.95312 1.81055L3.58008 2.4375C3.02539 2.76953 2.54688 3.12109 2.14453 3.49219C1.74219 3.85938 1.43164 4.19727 1.21289 4.50586C0.998047 4.81055 0.890625 5.0293 0.890625 5.16211C0.890625 5.29492 0.966797 5.48242 1.11914 5.72461C1.27148 5.9668 1.49219 6.23633 1.78125 6.5332C2.07031 6.82617 2.41406 7.12305 2.8125 7.42383C3.21484 7.7207 3.66211 7.99609 4.1543 8.25C4.65039 8.5 5.17969 8.70312 5.74219 8.85938C6.30859 9.01172 6.90039 9.08789 7.51758 9.08789C7.91211 9.08789 8.29102 9.05664 8.6543 8.99414C9.01758 8.92773 9.36914 8.83984 9.70898 8.73047L10.377 9.39258C9.93945 9.54883 9.48438 9.67188 9.01172 9.76172C8.53906 9.85156 8.04102 9.89648 7.51758 9.89648ZM7.51758 0.439453C8.25586 0.439453 8.95312 0.529297 9.60938 0.708984C10.2695 0.884766 10.877 1.11914 11.4316 1.41211C11.9902 1.70117 12.4922 2.02344 12.9375 2.37891C13.3828 2.73047 13.7598 3.08594 14.0684 3.44531C14.3809 3.80078 14.6191 4.13086 14.7832 4.43555C14.9473 4.73633 15.0293 4.97852 15.0293 5.16211C15.0293 5.38086 14.916 5.67773 14.6895 6.05273C14.4668 6.42773 14.1445 6.82812 13.7227 7.25391C13.3047 7.67969 12.8008 8.08203 12.2109 8.46094L11.5898 7.83984C12.1133 7.51562 12.5664 7.17773 12.9492 6.82617C13.332 6.4707 13.627 6.14453 13.834 5.84766C14.041 5.54688 14.1445 5.31836 14.1445 5.16211C14.1445 5.04883 14.0664 4.875 13.9102 4.64062C13.7578 4.40625 13.5371 4.14062 13.248 3.84375C12.9629 3.54688 12.6191 3.24609 12.2168 2.94141C11.8184 2.63672 11.373 2.35547 10.8809 2.09766C10.3887 1.83984 9.85742 1.63281 9.28711 1.47656C8.7207 1.32031 8.13086 1.24219 7.51758 1.24219C7.15039 1.24219 6.80078 1.27148 6.46875 1.33008C6.13672 1.38477 5.81055 1.46289 5.49023 1.56445L4.82812 0.902344C5.24219 0.757812 5.66992 0.644531 6.11133 0.5625C6.55273 0.480469 7.02148 0.439453 7.51758 0.439453ZM7.51758 8.26758C6.93945 8.26758 6.41602 8.12695 5.94727 7.8457C5.47852 7.56055 5.10352 7.18359 4.82227 6.71484C4.54492 6.24219 4.40625 5.72461 4.40625 5.16211C4.40625 4.9043 4.43555 4.65625 4.49414 4.41797C4.55273 4.17969 4.63867 3.95703 4.75195 3.75L8.92383 7.91602C8.70898 8.02539 8.48438 8.11133 8.25 8.17383C8.01562 8.23633 7.77148 8.26758 7.51758 8.26758ZM10.3242 6.44531L6.23438 2.35547C6.42969 2.26172 6.63477 2.19141 6.84961 2.14453C7.06445 2.09375 7.28711 2.06836 7.51758 2.06836C8.0918 2.06836 8.61328 2.20703 9.08203 2.48438C9.55078 2.75781 9.92578 3.12891 10.207 3.59766C10.4883 4.06641 10.6289 4.58789 10.6289 5.16211C10.6289 5.39258 10.6016 5.61523 10.5469 5.83008C10.4961 6.04492 10.4219 6.25 10.3242 6.44531ZM11.8711 9.9668L2.56055 0.662109C2.48633 0.587891 2.44922 0.496094 2.44922 0.386719C2.44922 0.277344 2.48633 0.1875 2.56055 0.117188C2.63477 0.0390625 2.72656 0 2.83594 0C2.94531 0 3.03906 0.0390625 3.11719 0.117188L12.416 9.41602C12.4941 9.49414 12.5332 9.58398 12.5332 9.68555C12.5371 9.78711 12.498 9.88086 12.416 9.9668C12.3379 10.0449 12.2461 10.082 12.1406 10.0781C12.0391 10.0781 11.9492 10.041 11.8711 9.9668Z" fill="#0086FF"/>
</svg>
