
<svg width="20" height="14" viewBox="0 0 20 14" fill="none" xmlns="http://www.w3.org/2000/svg">
<path d="M10 12.9741C9.06738 12.9741 8.18604 12.8618 7.35596 12.6372C6.53076 12.4126 5.76416 12.1147 5.05615 11.7437C4.35303 11.3726 3.7207 10.9648 3.15918 10.5205C2.59766 10.0762 2.11914 9.62939 1.72363 9.18018C1.32812 8.73096 1.02539 8.31592 0.81543 7.93506C0.605469 7.54932 0.500488 7.23926 0.500488 7.00488C0.500488 6.72656 0.644531 6.35059 0.932617 5.87695C1.22559 5.40332 1.64062 4.89551 2.17773 4.35352C2.71973 3.81152 3.37402 3.30127 4.14062 2.82275L5.1001 3.78223C4.44092 4.18262 3.87207 4.60254 3.39355 5.04199C2.91992 5.47656 2.55371 5.87451 2.29492 6.23584C2.03613 6.59229 1.90674 6.84863 1.90674 7.00488C1.90674 7.16602 1.99951 7.39551 2.18506 7.69336C2.37549 7.98633 2.64648 8.31104 2.99805 8.66748C3.35449 9.02393 3.77686 9.38281 4.26514 9.74414C4.75342 10.1055 5.29785 10.4375 5.89844 10.7402C6.50391 11.043 7.15088 11.2871 7.83936 11.4727C8.52783 11.6582 9.24805 11.751 10 11.751C10.4443 11.751 10.874 11.7168 11.2891 11.6484C11.709 11.5801 12.1143 11.4873 12.5049 11.3701L13.5303 12.3809C12.9883 12.5664 12.4243 12.7104 11.8384 12.813C11.2524 12.9204 10.6396 12.9741 10 12.9741ZM10 1.04297C10.9375 1.04297 11.8237 1.15527 12.6587 1.37988C13.4937 1.60449 14.2627 1.8999 14.9658 2.26611C15.6689 2.63232 16.2988 3.04004 16.8555 3.48926C17.417 3.93359 17.8931 4.38037 18.2837 4.82959C18.6743 5.27881 18.9722 5.69629 19.1772 6.08203C19.3872 6.46289 19.4922 6.77051 19.4922 7.00488C19.4922 7.27832 19.353 7.64697 19.0747 8.11084C18.8013 8.57471 18.4058 9.07275 17.8882 9.60498C17.3706 10.1323 16.748 10.6353 16.0205 11.1138L15.0757 10.1689C15.6909 9.7832 16.2231 9.38281 16.6724 8.96777C17.1265 8.54785 17.4731 8.16211 17.7124 7.81055C17.9565 7.45898 18.0786 7.19043 18.0786 7.00488C18.0786 6.86816 17.9834 6.66064 17.793 6.38232C17.6074 6.09912 17.3389 5.77686 16.9873 5.41553C16.6357 5.0542 16.2134 4.69043 15.7202 4.32422C15.2319 3.95801 14.6875 3.61865 14.0869 3.30615C13.4863 2.98877 12.8394 2.73486 12.146 2.54443C11.4575 2.354 10.7422 2.25879 10 2.25879C9.58984 2.25879 9.19434 2.28809 8.81348 2.34668C8.43262 2.40527 8.05908 2.48828 7.69287 2.5957L6.6748 1.58496C7.1875 1.41406 7.71729 1.28223 8.26416 1.18945C8.81592 1.0918 9.39453 1.04297 10 1.04297ZM10 10.8062C9.29199 10.8062 8.6499 10.6328 8.07373 10.2861C7.49756 9.93945 7.03857 9.47803 6.69678 8.90186C6.35498 8.32568 6.18408 7.69336 6.18408 7.00488C6.18408 6.71191 6.21338 6.43115 6.27197 6.1626C6.33545 5.89404 6.42822 5.64014 6.55029 5.40088L11.5894 10.4399C11.3452 10.5571 11.0913 10.6475 10.8276 10.7109C10.564 10.7744 10.2881 10.8062 10 10.8062ZM13.501 8.42578L8.57178 3.49658C8.7915 3.40381 9.01855 3.33301 9.25293 3.28418C9.49219 3.23535 9.74121 3.21094 10 3.21094C10.7031 3.21094 11.3428 3.37939 11.9189 3.71631C12.4951 4.05322 12.9541 4.50977 13.2959 5.08594C13.6377 5.65723 13.8086 6.29688 13.8086 7.00488C13.8086 7.25879 13.7817 7.50537 13.728 7.74463C13.6743 7.98389 13.5986 8.21094 13.501 8.42578ZM15.4272 13.0693L3.75977 1.40918C3.65234 1.30664 3.59863 1.17969 3.59863 1.02832C3.59863 0.87207 3.65234 0.745117 3.75977 0.647461C3.8623 0.535156 3.98926 0.479004 4.14062 0.479004C4.29199 0.479004 4.42383 0.535156 4.53613 0.647461L16.1963 12.3003C16.3037 12.4077 16.3574 12.5322 16.3574 12.6738C16.3623 12.8203 16.3086 12.9521 16.1963 13.0693C16.084 13.1816 15.9546 13.2354 15.8081 13.2305C15.6616 13.2305 15.5347 13.1768 15.4272 13.0693Z" fill="black"/>
</svg>
