
<svg width="15" height="15" viewBox="0 0 15 15" fill="none" xmlns="http://www.w3.org/2000/svg">
<path d="M3.04492 14.4209C2.30762 14.4209 1.75098 14.2354 1.375 13.8643C1.00391 13.4932 0.818359 12.9438 0.818359 12.2163V4.25488C0.818359 3.52246 1.00391 2.97314 1.375 2.60693C1.75098 2.23584 2.30762 2.05029 3.04492 2.05029H10.8159L9.5708 3.29541H3.08887C2.75684 3.29541 2.50049 3.3833 2.31982 3.55908C2.14404 3.73486 2.05615 3.99609 2.05615 4.34277V12.1211C2.05615 12.4678 2.14404 12.729 2.31982 12.9048C2.50049 13.0806 2.75684 13.1685 3.08887 13.1685H11.0942C11.3335 13.1685 11.5337 13.0806 11.6948 12.9048C11.856 12.729 11.9365 12.4678 11.9365 12.1211V5.7124L13.1816 4.45996V12.2163C13.1816 12.9438 13.0034 13.4932 12.647 13.8643C12.2905 14.2354 11.79 14.4209 11.1455 14.4209H3.04492ZM5.61572 9.85059C5.54248 9.87988 5.47412 9.86279 5.41064 9.79932C5.35205 9.73584 5.33984 9.66992 5.37402 9.60156L5.99658 8.26123L12.3833 1.88184L13.3867 2.87793L7 9.25732L5.61572 9.85059ZM13.9141 2.35059L12.9106 1.34717L13.4014 0.856445C13.5234 0.734375 13.6626 0.668457 13.8188 0.658691C13.98 0.648926 14.1167 0.700195 14.229 0.8125L14.4048 0.980957C14.5317 1.10303 14.5928 1.24707 14.5879 1.41309C14.5879 1.57422 14.5269 1.7207 14.4048 1.85254L13.9141 2.35059Z" fill="black"/>
</svg>
