<svg width="17" height="20" viewBox="0 0 17 20" fill="none" xmlns="http://www.w3.org/2000/svg">
<path d="M5.46094 4.5625V2.78906C5.46094 2.03906 5.64844 1.47396 6.02344 1.09375C6.40365 0.713542 6.96354 0.523438 7.70312 0.523438H10.5859C10.9505 0.523438 11.276 0.575521 11.5625 0.679688C11.8542 0.783854 12.125 0.960938 12.375 1.21094L16.2266 5.125C16.4922 5.39583 16.6719 5.67708 16.7656 5.96875C16.8646 6.25521 16.9141 6.60417 16.9141 7.01562V13.125C16.9141 13.875 16.7266 14.4401 16.3516 14.8203C15.9818 15.1953 15.4245 15.3828 14.6797 15.3828H13.1094V14.3047H14.625C15.026 14.3047 15.3281 14.2005 15.5312 13.9922C15.7344 13.7839 15.8359 13.487 15.8359 13.1016V6.70312H12.2656C11.8594 6.70312 11.5547 6.60677 11.3516 6.41406C11.1484 6.21615 11.0469 5.90625 11.0469 5.48438V1.60938H7.75781C7.35677 1.60938 7.05208 1.71354 6.84375 1.92188C6.64062 2.13021 6.53906 2.42708 6.53906 2.8125V4.5625H5.46094ZM12.0312 5.33594C12.0312 5.59635 12.1615 5.72656 12.4219 5.72656H15.5469L12.0312 2.16406V5.33594ZM1.88281 16.7656V6.42969C1.88281 5.67969 2.07031 5.11719 2.44531 4.74219C2.82031 4.36198 3.3776 4.17188 4.11719 4.17188H6.75781C7.15365 4.17188 7.47656 4.21354 7.72656 4.29688C7.98177 4.38021 8.24219 4.55729 8.50781 4.82812L12.6797 9.07031C12.9557 9.35156 13.1354 9.61719 13.2188 9.86719C13.3021 10.1172 13.3438 10.4661 13.3438 10.9141V16.7656C13.3438 17.5156 13.1562 18.0807 12.7812 18.4609C12.4062 18.8411 11.849 19.0312 11.1094 19.0312H4.11719C3.3776 19.0312 2.82031 18.8411 2.44531 18.4609C2.07031 18.0807 1.88281 17.5156 1.88281 16.7656ZM2.96875 16.7422C2.96875 17.1328 3.06771 17.4297 3.26562 17.6328C3.46875 17.8411 3.76823 17.9453 4.16406 17.9453H11.0469C11.4479 17.9453 11.75 17.8411 11.9531 17.6328C12.1615 17.4297 12.2656 17.1328 12.2656 16.7422V10.9297H8.03906C7.59635 10.9297 7.26302 10.8203 7.03906 10.6016C6.8151 10.3828 6.70312 10.0469 6.70312 9.59375V5.25781H4.17188C3.77604 5.25781 3.47656 5.36198 3.27344 5.57031C3.07031 5.77344 2.96875 6.0651 2.96875 6.44531V16.7422ZM8.15625 9.92188H12.0469L7.71875 5.52344V9.47656C7.71875 9.63281 7.7526 9.7474 7.82031 9.82031C7.89323 9.88802 8.00521 9.92188 8.15625 9.92188Z" fill="black"/>
</svg>
