<svg width="15" height="14" viewBox="0 0 15 14" fill="none" xmlns="http://www.w3.org/2000/svg">
<path d="M2.23438 6.17969C1.78646 6.17969 1.44792 6.06771 1.21875 5.84375C0.994792 5.61458 0.882812 5.26562 0.882812 4.79688V1.42188C0.882812 0.953125 0.994792 0.606771 1.21875 0.382812C1.44792 0.158854 1.78646 0.046875 2.23438 0.046875H5.66406C6.11198 0.046875 6.44792 0.158854 6.67188 0.382812C6.90104 0.606771 7.01562 0.953125 7.01562 1.42188V4.79688C7.01562 5.26562 6.90104 5.61458 6.67188 5.84375C6.44792 6.06771 6.11198 6.17969 5.66406 6.17969H2.23438ZM2.25 5.22656H5.64062C5.78646 5.22656 5.89323 5.19271 5.96094 5.125C6.02865 5.05208 6.0625 4.94271 6.0625 4.79688V1.42188C6.0625 1.27604 6.02865 1.16927 5.96094 1.10156C5.89323 1.02865 5.78646 0.992188 5.64062 0.992188H2.25C2.10938 0.992188 2.00521 1.02865 1.9375 1.10156C1.86979 1.16927 1.83594 1.27604 1.83594 1.42188V4.79688C1.83594 4.94271 1.86979 5.05208 1.9375 5.125C2.00521 5.19271 2.10938 5.22656 2.25 5.22656ZM9.60938 6.17969C9.16146 6.17969 8.82292 6.06771 8.59375 5.84375C8.36979 5.61458 8.25781 5.26562 8.25781 4.79688V1.42188C8.25781 0.953125 8.36979 0.606771 8.59375 0.382812C8.82292 0.158854 9.16146 0.046875 9.60938 0.046875H13.0391C13.487 0.046875 13.8229 0.158854 14.0469 0.382812C14.276 0.606771 14.3906 0.953125 14.3906 1.42188V4.79688C14.3906 5.26562 14.276 5.61458 14.0469 5.84375C13.8229 6.06771 13.487 6.17969 13.0391 6.17969H9.60938ZM9.63281 5.22656H13.0312C13.1667 5.22656 13.2682 5.19271 13.3359 5.125C13.4036 5.05208 13.4375 4.94271 13.4375 4.79688V1.42188C13.4375 1.27604 13.4036 1.16927 13.3359 1.10156C13.2682 1.02865 13.1667 0.992188 13.0312 0.992188H9.63281C9.48698 0.992188 9.38021 1.02865 9.3125 1.10156C9.24479 1.16927 9.21094 1.27604 9.21094 1.42188V4.79688C9.21094 4.94271 9.24479 5.05208 9.3125 5.125C9.38021 5.19271 9.48698 5.22656 9.63281 5.22656ZM2.23438 13.5469C1.78646 13.5469 1.44792 13.4349 1.21875 13.2109C0.994792 12.987 0.882812 12.6432 0.882812 12.1797V8.78906C0.882812 8.32552 0.994792 7.98177 1.21875 7.75781C1.44792 7.53385 1.78646 7.42188 2.23438 7.42188H5.66406C6.11198 7.42188 6.44792 7.53385 6.67188 7.75781C6.90104 7.98177 7.01562 8.32552 7.01562 8.78906V12.1797C7.01562 12.6432 6.90104 12.987 6.67188 13.2109C6.44792 13.4349 6.11198 13.5469 5.66406 13.5469H2.23438ZM2.25 12.6016H5.64062C5.78646 12.6016 5.89323 12.5651 5.96094 12.4922C6.02865 12.4245 6.0625 12.3177 6.0625 12.1719V8.79688C6.0625 8.65104 6.02865 8.54427 5.96094 8.47656C5.89323 8.40365 5.78646 8.36719 5.64062 8.36719H2.25C2.10938 8.36719 2.00521 8.40365 1.9375 8.47656C1.86979 8.54427 1.83594 8.65104 1.83594 8.79688V12.1719C1.83594 12.3177 1.86979 12.4245 1.9375 12.4922C2.00521 12.5651 2.10938 12.6016 2.25 12.6016ZM9.60938 13.5469C9.16146 13.5469 8.82292 13.4349 8.59375 13.2109C8.36979 12.987 8.25781 12.6432 8.25781 12.1797V8.78906C8.25781 8.32552 8.36979 7.98177 8.59375 7.75781C8.82292 7.53385 9.16146 7.42188 9.60938 7.42188H13.0391C13.487 7.42188 13.8229 7.53385 14.0469 7.75781C14.276 7.98177 14.3906 8.32552 14.3906 8.78906V12.1797C14.3906 12.6432 14.276 12.987 14.0469 13.2109C13.8229 13.4349 13.487 13.5469 13.0391 13.5469H9.60938ZM9.63281 12.6016H13.0312C13.1667 12.6016 13.2682 12.5651 13.3359 12.4922C13.4036 12.4245 13.4375 12.3177 13.4375 12.1719V8.79688C13.4375 8.65104 13.4036 8.54427 13.3359 8.47656C13.2682 8.40365 13.1667 8.36719 13.0312 8.36719H9.63281C9.48698 8.36719 9.38021 8.40365 9.3125 8.47656C9.24479 8.54427 9.21094 8.65104 9.21094 8.79688V12.1719C9.21094 12.3177 9.24479 12.4245 9.3125 12.4922C9.38021 12.5651 9.48698 12.6016 9.63281 12.6016Z" fill="black"/>
</svg>
