<svg width="14" height="16" viewBox="0 0 14 16" fill="none" xmlns="http://www.w3.org/2000/svg">
<path d="M4.62598 12.7949C4.4847 12.7949 4.36621 12.7516 4.27051 12.665C4.17936 12.5785 4.13151 12.46 4.12695 12.3096L3.93555 5.71973C3.93099 5.57845 3.97201 5.46452 4.05859 5.37793C4.14974 5.28678 4.27051 5.24121 4.4209 5.24121C4.57585 5.24121 4.69889 5.28451 4.79004 5.37109C4.88118 5.45768 4.92904 5.57161 4.93359 5.71289L5.125 12.3027C5.12956 12.4531 5.08626 12.5739 4.99512 12.665C4.90397 12.7516 4.78092 12.7949 4.62598 12.7949ZM6.52637 12.7949C6.37598 12.7949 6.25293 12.7516 6.15723 12.665C6.06152 12.5739 6.01367 12.4577 6.01367 12.3164V5.71973C6.01367 5.57389 6.06152 5.45768 6.15723 5.37109C6.25293 5.28451 6.37598 5.24121 6.52637 5.24121C6.6722 5.24121 6.79069 5.28451 6.88184 5.37109C6.97754 5.45768 7.02539 5.57389 7.02539 5.71973V12.3164C7.02539 12.4577 6.97754 12.5739 6.88184 12.665C6.79069 12.7516 6.6722 12.7949 6.52637 12.7949ZM8.41309 12.7949C8.25814 12.7949 8.13509 12.7516 8.04395 12.665C7.95736 12.5739 7.91406 12.4531 7.91406 12.3027L8.1123 5.71973C8.1123 5.57389 8.15788 5.45768 8.24902 5.37109C8.34473 5.28451 8.46777 5.24121 8.61816 5.24121C8.77311 5.24121 8.89388 5.28678 8.98047 5.37793C9.06706 5.46452 9.11035 5.57845 9.11035 5.71973L8.91211 12.3164C8.90755 12.4622 8.8597 12.5785 8.76855 12.665C8.67741 12.7516 8.55892 12.7949 8.41309 12.7949ZM3.4502 3.2793V1.93945C3.4502 1.41081 3.6097 1.00293 3.92871 0.71582C4.24772 0.424154 4.70117 0.27832 5.28906 0.27832H7.75C8.33333 0.27832 8.78451 0.424154 9.10352 0.71582C9.42708 1.00293 9.58887 1.41081 9.58887 1.93945V3.2793H8.16699V1.99414C8.16699 1.84831 8.11914 1.73438 8.02344 1.65234C7.93229 1.56576 7.80469 1.52246 7.64062 1.52246H5.3916C5.2321 1.52246 5.10449 1.56576 5.00879 1.65234C4.91764 1.73438 4.87207 1.84831 4.87207 1.99414V3.2793H3.4502ZM0.681641 4.23633C0.485677 4.23633 0.321615 4.17253 0.189453 4.04492C0.0572917 3.91732 -0.00878906 3.75326 -0.00878906 3.55273C-0.00878906 3.36133 0.0572917 3.20182 0.189453 3.07422C0.321615 2.94661 0.485677 2.88281 0.681641 2.88281H12.3643C12.5602 2.88281 12.7243 2.94661 12.8564 3.07422C12.9886 3.20182 13.0547 3.36133 13.0547 3.55273C13.0547 3.75326 12.9886 3.91732 12.8564 4.04492C12.7243 4.17253 12.5602 4.23633 12.3643 4.23633H0.681641ZM3.53906 15.1328C2.99674 15.1328 2.56608 14.9847 2.24707 14.6885C1.93262 14.3968 1.76172 13.9798 1.73438 13.4375L1.30371 4.11328H2.70508L3.12891 13.1299C3.13802 13.3213 3.19499 13.474 3.2998 13.5879C3.40918 13.7018 3.55046 13.7588 3.72363 13.7588H9.31543C9.48861 13.7588 9.6276 13.7018 9.73242 13.5879C9.8418 13.474 9.90104 13.3213 9.91016 13.1299L10.3271 4.11328H11.7422L11.3047 13.4307C11.2819 13.9775 11.111 14.3968 10.792 14.6885C10.473 14.9847 10.0446 15.1328 9.50684 15.1328H3.53906Z" fill="grey"/>
</svg>
