<svg width="16" height="16" viewBox="0 0 16 16" fill="none" xmlns="http://www.w3.org/2000/svg">
    <path fill-rule="evenodd" clip-rule="evenodd" d="M4.545 2.116c-2.251 0-3.429 1.966-3.429 3.907 0 2.628 4.72 6.197 6.886 7.582 2.164-1.372 6.882-4.917 6.882-7.582 0-1.941-1.16-3.907-3.376-3.907-2.155 0-2.985 1.924-2.993 1.943l-.488 1.166-.533-1.146c-.037-.078-.953-1.963-2.95-1.963zm3.453 12.8-.29-.178C7.393 14.545 0 9.958 0 6.023c0-1.288.405-2.502 1.14-3.419C1.98 1.554 3.157 1 4.544 1c1.736 0 2.85 1.022 3.442 1.787C8.563 2.017 9.672 1 11.508 1 14.426 1 16 3.588 16 6.023c0 3.99-7.396 8.526-7.71 8.717l-.292.177z" fill="#19110B"/>
</svg>
