<svg width="16" height="16" viewBox="0 0 16 16" fill="none" xmlns="http://www.w3.org/2000/svg">
    <path fill="#F6F5F3" d="M0 0h16v16H0z"/>
    <path fill-rule="evenodd" clip-rule="evenodd" d="M14.989 10.244H4.128V13.465c0 .384.324.708.707.708h9.446a.717.717 0 0 0 .708-.708v-3.22zm0-1.01H4.128v-.145h10.86v.144zm0-1.156v-.592a.717.717 0 0 0-.708-.708H4.835c-.379 0-.69.32-.708.73v.57H14.99zM4.835 5.767h7.738l-3.735-3.76a.657.657 0 0 0-.493-.199.693.693 0 0 0-.495.2L1.206 8.652a.71.71 0 0 0 0 .99l1.91 1.91V7.486c.042-.968.797-1.72 1.719-1.72zm8.982-.182c.068.05.13.117.186.182h.278A1.72 1.72 0 0 1 16 7.486v5.98a1.72 1.72 0 0 1-1.72 1.718H4.836a1.72 1.72 0 0 1-1.718-1.719v-.483L.49 10.356a1.735 1.735 0 0 1 0-2.419l6.644-6.644A1.696 1.696 0 0 1 8.345.8c.462 0 .892.175 1.21.493l4.262 4.292z" fill="#19110B"/>
</svg>
