<svg aria-hidden="true" focusable="false" viewBox="0 0 18 18" xmlns="http://www.w3.org/2000/svg"><path d="M8.546 17.608h-.128c-.142 0-.218-.119-.218-.36.119-.766.18-1.244.18-1.424 0-.17-.019-.312-.061-.43-.043-.12-.142-.214-.308-.28-.16-.066-.322-.118-.478-.151-2.21-.313-4.017-1.14-5.423-2.49C.705 11.13 0 9.555 0 7.752c0-1.344.407-2.57 1.216-3.676.81-1.108 1.898-1.988 3.26-2.64C5.84.78 7.358.45 9.028.45c1.633 0 3.138.326 4.505.984 1.368.653 2.456 1.533 3.26 2.64C17.598 5.183 18 6.408 18 7.752c0 1.61-.639 3.104-1.912 4.486-1.211 1.368-2.962 2.778-5.243 4.216-1.23.771-2.001 1.155-2.3 1.155zm-2.9-7.514c.117 0 .179-.17.179-.507 0-.326-.062-.487-.18-.487H3.951V5.982c0-.11-.16-.161-.487-.161-.336 0-.507.052-.507.16V9.91c0 .118.052.18.161.18h2.527v.005zm1.239 0c.25 0 .393-.02.426-.053.028-.037.047-.733.047-2.091 0-1.344-.014-2.035-.047-2.073-.029-.037-.071-.052-.119-.052-.468 0-.724.02-.766.052-.043.038-.062.73-.062 2.073 0 1.358.02 2.054.062 2.091.042.034.199.053.459.053zm4.33 0c.264 0 .416-.02.449-.053.033-.033.052-.733.052-2.091 0-1.344-.019-2.035-.052-2.073-.033-.037-.08-.052-.128-.052-.468 0-.719.02-.757.052-.038.034-.052.847-.052 2.433-1.202-1.633-1.812-2.456-1.831-2.46-.019-.006-.038-.01-.062-.01l-.36-.02c-.274 0-.425.02-.449.053-.023.038-.038.728-.038 2.072 0 1.358.015 2.054.038 2.092.024.038.175.052.45.052.326 0 .487-.062.487-.18V7.567l1.836 2.489c.047.023.185.038.417.038zm3.818 0c.109 0 .161-.17.161-.507 0-.326-.052-.487-.16-.487h-1.747v-.648c1.202 0 1.822-.02 1.855-.052.033-.034.052-.185.052-.45 0-.326-.052-.487-.16-.487h-1.747v-.668h1.746c.109 0 .161-.156.161-.468 0-.336-.052-.506-.16-.506-1.742 0-2.627.014-2.66.047-.029.028-.048.724-.048 2.082 0 1.358.015 2.054.048 2.091.028.038.07.053.118.053h2.541z"></path></svg>

