<?xml version="1.0" encoding="UTF-8"?>
<svg width="100pt" height="100pt" version="1.1" viewBox="0 0 100 100" xmlns="http://www.w3.org/2000/svg">
 <g>
  <path d="m50 73.121c25.418 0 45.602-20.855 46.445-21.742 0.73828-0.77344 0.73828-1.9883 0-2.7617-0.84375-0.88672-21.027-21.738-46.445-21.738s-45.602 20.852-46.445 21.742c-0.73828 0.77344-0.73828 1.9883 0 2.7617 0.84375 0.88672 21.027 21.738 46.445 21.738zm0-42.242c20.027 0 37.195 14.52 42.129 19.125-4.9297 4.6016-22.066 19.117-42.129 19.117-20.027 0-37.195-14.52-42.129-19.125 4.9297-4.6016 22.066-19.117 42.129-19.117z"/>
  <path d="m63.625 50c0-7.5117-6.1133-13.625-13.625-13.625s-13.625 6.1133-13.625 13.625 6.1133 13.625 13.625 13.625 13.625-6.1133 13.625-13.625zm-23.25 0c0-5.3086 4.3164-9.625 9.625-9.625s9.625 4.3164 9.625 9.625-4.3164 9.625-9.625 9.625-9.625-4.3164-9.625-9.625z"/>
 </g>
</svg>
