<svg width="55" height="55" viewBox="0 0 55 55" fill="none" xmlns="http://www.w3.org/2000/svg">
<g filter="url(#filter0_d_8683_104018)">
<circle cx="27.5" cy="26.5" r="21.5" fill="white"/>
<circle cx="27.5" cy="26.5" r="20.5" stroke="#4A9DFF" stroke-width="2"/>
</g>
<ellipse cx="27.5002" cy="26.5002" rx="13.6818" ry="13.6818" fill="url(#paint0_linear_8683_104018)"/>
<path d="M20.6381 33.0372H33.7005C33.917 33.0372 34.0974 32.8568 34.0974 32.6403V31.666H20.2412V32.6403C20.2412 32.8929 20.4216 33.0372 20.6381 33.0372Z" fill="white"/>
<path d="M34.7468 21.49C34.1334 21.49 33.6643 21.9591 33.6643 22.5725C33.6643 22.8612 33.7725 23.1498 33.989 23.3303L30.7415 26.65L27.6743 21.1652C27.9991 20.9848 28.2156 20.624 28.2156 20.227C28.2156 19.6136 27.7465 19.1445 27.1331 19.1445C26.5197 19.1445 26.0506 19.6136 26.0506 20.227C26.0506 20.624 26.2671 20.9848 26.5918 21.1652L23.5247 26.65L20.2771 23.3303C20.5658 23.1498 20.6741 22.8612 20.6741 22.5725C20.6741 21.9591 20.205 21.49 19.5916 21.49C18.9781 21.49 18.509 21.9591 18.509 22.5725C18.509 23.1859 18.9781 23.655 19.5916 23.655C19.6276 23.655 19.6637 23.655 19.6637 23.655L20.2411 31.0161H34.0973L34.6746 23.655C34.7107 23.655 34.7468 23.655 34.7468 23.655C35.3602 23.655 35.8293 23.1859 35.8293 22.5725C35.8293 21.9952 35.3602 21.49 34.7468 21.49Z" fill="white"/>
<defs>
<filter id="filter0_d_8683_104018" x="0.275362" y="0.42029" width="54.4493" height="54.4493" filterUnits="userSpaceOnUse" color-interpolation-filters="sRGB">
<feFlood flood-opacity="0" result="BackgroundImageFix"/>
<feColorMatrix in="SourceAlpha" type="matrix" values="0 0 0 0 0 0 0 0 0 0 0 0 0 0 0 0 0 0 127 0" result="hardAlpha"/>
<feOffset dy="1.14493"/>
<feGaussianBlur stdDeviation="2.86232"/>
<feColorMatrix type="matrix" values="0 0 0 0 0.054902 0 0 0 0 0.054902 0 0 0 0 0.054902 0 0 0 0.1 0"/>
<feBlend mode="normal" in2="BackgroundImageFix" result="effect1_dropShadow_8683_104018"/>
<feBlend mode="normal" in="SourceGraphic" in2="effect1_dropShadow_8683_104018" result="shape"/>
</filter>
<linearGradient id="paint0_linear_8683_104018" x1="15.228" y1="35.4789" x2="40.6904" y2="14.779" gradientUnits="userSpaceOnUse">
<stop offset="0.140625" stop-color="#AAB622"/>
<stop offset="0.255208" stop-color="#DB8C40"/>
<stop offset="0.322917" stop-color="#C74C4D"/>
<stop offset="0.458333" stop-color="#C21975"/>
<stop offset="0.552083" stop-color="#991F9D"/>
<stop offset="0.651042" stop-color="#6F5DB8"/>
<stop offset="0.75" stop-color="#4978D3"/>
<stop offset="0.854167" stop-color="#2B6AE2"/>
</linearGradient>
</defs>
</svg>
