<svg width="55" height="55" viewBox="0 0 55 55" fill="none" xmlns="http://www.w3.org/2000/svg">
<g filter="url(#filter0_d_8683_104049)">
<circle cx="27.5" cy="26.5" r="21.5" fill="white"/>
<circle cx="27.5" cy="26.5" r="20.5" stroke="#4A9DFF" stroke-width="2"/>
</g>
<g filter="url(#filter1_d_8683_104049)">
<ellipse cx="27.5002" cy="26.5002" rx="13.6818" ry="13.6818" fill="#BD8041"/>
</g>
<path d="M23.8995 23.5558L27.0404 20H22.6333L23.8995 23.5558Z" fill="white"/>
<path d="M28.2673 20L31.4087 23.5558L32.6744 20H28.2673Z" fill="white"/>
<path d="M24.7454 23.9878H30.5629L27.654 20.6953L24.7454 23.9878Z" fill="white"/>
<path d="M30.929 24.9043H24.3794L27.6546 35.0006L30.929 24.9043Z" fill="white"/>
<path d="M32.2329 23.9873H36.3075L33.5002 20.4277L32.2329 23.9873Z" fill="white"/>
<path d="M31.9071 24.9043L28.521 34.4151L36.2948 24.9043H31.9071Z" fill="white"/>
<path d="M23.4011 24.9043H19.0132L26.7878 34.4151L23.4011 24.9043Z" fill="white"/>
<path d="M19 23.9873H23.0748L21.8073 20.4277L19 23.9873Z" fill="white"/>
<defs>
<filter id="filter0_d_8683_104049" x="0.275362" y="0.42029" width="54.4493" height="54.4493" filterUnits="userSpaceOnUse" color-interpolation-filters="sRGB">
<feFlood flood-opacity="0" result="BackgroundImageFix"/>
<feColorMatrix in="SourceAlpha" type="matrix" values="0 0 0 0 0 0 0 0 0 0 0 0 0 0 0 0 0 0 127 0" result="hardAlpha"/>
<feOffset dy="1.14493"/>
<feGaussianBlur stdDeviation="2.86232"/>
<feColorMatrix type="matrix" values="0 0 0 0 0.054902 0 0 0 0 0.054902 0 0 0 0 0.054902 0 0 0 0.1 0"/>
<feBlend mode="normal" in2="BackgroundImageFix" result="effect1_dropShadow_8683_104049"/>
<feBlend mode="normal" in="SourceGraphic" in2="effect1_dropShadow_8683_104049" result="shape"/>
</filter>
<filter id="filter1_d_8683_104049" x="6.94879" y="7.09372" width="41.1027" height="41.1024" filterUnits="userSpaceOnUse" color-interpolation-filters="sRGB">
<feFlood flood-opacity="0" result="BackgroundImageFix"/>
<feColorMatrix in="SourceAlpha" type="matrix" values="0 0 0 0 0 0 0 0 0 0 0 0 0 0 0 0 0 0 127 0" result="hardAlpha"/>
<feOffset dy="1.14493"/>
<feGaussianBlur stdDeviation="3.43478"/>
<feColorMatrix type="matrix" values="0 0 0 0 0.961418 0 0 0 0 0.961418 0 0 0 0 0.966279 0 0 0 1 0"/>
<feBlend mode="normal" in2="BackgroundImageFix" result="effect1_dropShadow_8683_104049"/>
<feBlend mode="normal" in="SourceGraphic" in2="effect1_dropShadow_8683_104049" result="shape"/>
</filter>
</defs>
</svg>
