<svg width="25" height="25" viewBox="0 0 25 25" fill="none" xmlns="http://www.w3.org/2000/svg">
<g clip-path="url(#clip0_3023_6127)">
<path d="M3.125 21.875V17.7083C3.125 16.8842 3.36937 16.0786 3.82721 15.3934C4.28505 14.7082 4.93579 14.1742 5.69715 13.8588C6.45851 13.5434 7.29629 13.4609 8.10454 13.6217C8.9128 13.7825 9.65523 14.1793 10.2379 14.762C10.8207 15.3447 11.2175 16.0872 11.3783 16.8954C11.539 17.7037 11.4565 18.5415 11.1412 19.3028C10.8258 20.0642 10.2917 20.7149 9.60654 21.1728C8.92134 21.6306 8.11576 21.875 7.29167 21.875H3.125Z" stroke="white" stroke-linecap="round" stroke-linejoin="round"/>
<path d="M21.8751 3.125C18.902 3.53167 16.0938 4.73348 13.747 6.60359C11.4002 8.47369 9.60185 10.9427 8.54175 13.75" stroke="white" stroke-linecap="round" stroke-linejoin="round"/>
<path d="M21.875 3.125C21.4683 6.09811 20.2665 8.90627 18.3964 11.2531C16.5263 13.5999 14.0573 15.3982 11.25 16.4583" stroke="white" stroke-linecap="round" stroke-linejoin="round"/>
<path d="M11.0417 9.375C13.0659 10.3092 14.6908 11.9342 15.6251 13.9583" stroke="white" stroke-linecap="round" stroke-linejoin="round"/>
</g>
<defs>
<clipPath id="clip0_3023_6127">
<rect width="25" height="25" fill="white"/>
</clipPath>
</defs>
</svg>
