<svg width="15" height="15" viewBox="0 0 15 15" fill="none" xmlns="http://www.w3.org/2000/svg">
<g clip-path="url(#clip0_1775_9020)">
<path d="M1.875 13.125V10.625C1.875 10.1305 2.02162 9.6472 2.29633 9.23608C2.57103 8.82495 2.96148 8.50452 3.41829 8.3153C3.87511 8.12608 4.37777 8.07657 4.86273 8.17304C5.34768 8.2695 5.79314 8.5076 6.14277 8.85723C6.4924 9.20687 6.7305 9.65232 6.82696 10.1373C6.92343 10.6222 6.87392 11.1249 6.6847 11.5817C6.49548 12.0385 6.17505 12.429 5.76393 12.7037C5.3528 12.9784 4.86945 13.125 4.375 13.125H1.875Z" stroke="black" stroke-width="0.5" stroke-linecap="round" stroke-linejoin="round"/>
<path d="M13.125 1.875C11.3411 2.119 9.65624 2.84009 8.24816 3.96215C6.84008 5.08421 5.76106 6.56562 5.125 8.25" stroke="black" stroke-width="0.5" stroke-linecap="round" stroke-linejoin="round"/>
<path d="M13.125 1.875C12.881 3.65886 12.1599 5.34376 11.0378 6.75184C9.91579 8.15992 8.43438 9.23894 6.75 9.875" stroke="black" stroke-width="0.5" stroke-linecap="round" stroke-linejoin="round"/>
<path d="M6.625 5.625C7.83948 6.18554 8.81446 7.16052 9.375 8.375" stroke="black" stroke-width="0.5" stroke-linecap="round" stroke-linejoin="round"/>
</g>
<defs>
<clipPath id="clip0_1775_9020">
<rect width="15" height="15" fill="white"/>
</clipPath>
</defs>
</svg>
