<svg width="17" height="17" viewBox="0 0 17 17" fill="none" xmlns="http://www.w3.org/2000/svg">
<rect width="17" height="17" rx="4" fill="#62B7ED"/>
<path d="M14.5202 12.7548V13.3167C14.5202 13.979 13.9783 14.5209 13.316 14.5209H3.68268C3.02039 14.5209 2.47852 13.979 2.47852 13.3167V12.7548C2.47852 11.2897 4.18442 10.4067 5.78997 9.70425C5.85018 9.68418 5.89032 9.66411 5.95053 9.62397C6.07095 9.56376 6.21143 9.56376 6.33185 9.64404C6.97407 10.0655 7.71664 10.3063 8.49935 10.3063C9.28206 10.3063 10.0246 10.0655 10.6669 9.66411C10.7873 9.58383 10.9278 9.58383 11.0482 9.64404C11.1084 9.66411 11.1485 9.68418 11.2087 9.72432C12.8143 10.4067 14.5202 11.2897 14.5202 12.7548Z" fill="white"/>
<path d="M8.50011 9.10192C10.1516 9.10192 11.4905 7.61933 11.4905 5.79046C11.4905 3.96159 10.1516 2.479 8.50011 2.479C6.84859 2.479 5.50977 3.96159 5.50977 5.79046C5.50977 7.61933 6.84859 9.10192 8.50011 9.10192Z" fill="white"/>
</svg>
