<svg width="13" height="16" viewBox="0 0 13 16" fill="none" xmlns="http://www.w3.org/2000/svg">
<path d="M2.60938 14.0098H6.30078C6.14583 13.873 6.00228 13.7249 5.87012 13.5654C5.73796 13.4105 5.62174 13.2441 5.52148 13.0664H2.65723C2.31087 13.0664 2.04655 12.9775 1.86426 12.7998C1.68652 12.6221 1.59766 12.3646 1.59766 12.0273V2.17676C1.59766 1.84408 1.68652 1.58659 1.86426 1.4043C2.04199 1.22201 2.30632 1.13086 2.65723 1.13086H9.43848C9.77572 1.13086 10.0355 1.22201 10.2178 1.4043C10.4046 1.58203 10.498 1.83952 10.498 2.17676V8.07617C10.6803 8.17643 10.849 8.29264 11.0039 8.4248C11.1634 8.55697 11.3115 8.7028 11.4482 8.8623V2.16309C11.4482 1.50228 11.2842 1.00781 10.9561 0.679688C10.6279 0.351562 10.1403 0.1875 9.49316 0.1875H2.60938C1.95768 0.1875 1.46777 0.353841 1.13965 0.686523C0.811523 1.01465 0.647461 1.50684 0.647461 2.16309V12.0273C0.647461 12.6882 0.811523 13.1826 1.13965 13.5107C1.46777 13.8434 1.95768 14.0098 2.60938 14.0098ZM3.56641 3.75586H8.53613C8.64095 3.75586 8.72754 3.72168 8.7959 3.65332C8.86882 3.5804 8.90527 3.49154 8.90527 3.38672C8.90527 3.28646 8.86882 3.20215 8.7959 3.13379C8.72754 3.06087 8.64095 3.02441 8.53613 3.02441H3.56641C3.45703 3.02441 3.36589 3.06087 3.29297 3.13379C3.22461 3.20215 3.19043 3.28646 3.19043 3.38672C3.19043 3.49154 3.22461 3.5804 3.29297 3.65332C3.36589 3.72168 3.45703 3.75586 3.56641 3.75586ZM3.56641 6.01855H8.53613C8.64095 6.01855 8.72754 5.9821 8.7959 5.90918C8.86882 5.83626 8.90527 5.74967 8.90527 5.64941C8.90527 5.5446 8.86882 5.45801 8.7959 5.38965C8.72754 5.31673 8.64095 5.28027 8.53613 5.28027H3.56641C3.45703 5.28027 3.36589 5.31673 3.29297 5.38965C3.22461 5.45801 3.19043 5.5446 3.19043 5.64941C3.19043 5.74967 3.22461 5.83626 3.29297 5.90918C3.36589 5.9821 3.45703 6.01855 3.56641 6.01855ZM8.61816 14.0098C9.1377 14.0098 9.61165 13.8799 10.04 13.6201C10.4684 13.3649 10.8102 13.0231 11.0654 12.5947C11.3206 12.1663 11.4482 11.6924 11.4482 11.1729C11.4482 10.6533 11.3206 10.1794 11.0654 9.75098C10.8102 9.31803 10.4684 8.97396 10.04 8.71875C9.61165 8.46354 9.1377 8.33594 8.61816 8.33594C8.09408 8.33594 7.61784 8.46582 7.18945 8.72559C6.76107 8.98079 6.41699 9.32259 6.15723 9.75098C5.90202 10.1794 5.77441 10.6533 5.77441 11.1729C5.77441 11.6924 5.90202 12.1663 6.15723 12.5947C6.41699 13.0231 6.76107 13.3649 7.18945 13.6201C7.61784 13.8799 8.09408 14.0098 8.61816 14.0098ZM8.61816 13.1621C8.24902 13.1621 7.91178 13.0732 7.60645 12.8955C7.30566 12.7178 7.06641 12.4785 6.88867 12.1777C6.71094 11.877 6.62207 11.542 6.62207 11.1729C6.62207 10.8128 6.71094 10.4824 6.88867 10.1816C7.06641 9.88086 7.30566 9.63932 7.60645 9.45703C7.91178 9.27474 8.24902 9.18359 8.61816 9.18359C8.97363 9.18359 9.30176 9.27474 9.60254 9.45703C9.90788 9.63932 10.1494 9.88086 10.3271 10.1816C10.5049 10.4824 10.5938 10.8128 10.5938 11.1729C10.5938 11.542 10.5049 11.877 10.3271 12.1777C10.1494 12.4785 9.91016 12.7178 9.60938 12.8955C9.30859 13.0732 8.97819 13.1621 8.61816 13.1621ZM12.084 15.1924C12.2253 15.1924 12.3415 15.1445 12.4326 15.0488C12.5238 14.9531 12.5693 14.8301 12.5693 14.6797C12.5693 14.6113 12.5534 14.5452 12.5215 14.4814C12.4941 14.4222 12.4554 14.3652 12.4053 14.3105L10.6074 12.5195L9.85547 13.1895L11.6533 14.9941C11.7809 15.1263 11.9245 15.1924 12.084 15.1924Z" fill="white"/>
</svg>
