<svg width="20" height="20" viewBox="0 0 20 20" fill="none" xmlns="http://www.w3.org/2000/svg">
<rect width="20" height="20" rx="4" fill="#B83232"/>
<path d="M5.56348 7.03369C5.81055 7.03369 6.03434 6.97282 6.23486 6.85107C6.43896 6.72933 6.6001 6.5682 6.71826 6.36768C6.84001 6.16357 6.90088 5.93799 6.90088 5.69092C6.90088 5.44385 6.84001 5.22005 6.71826 5.01953C6.6001 4.81543 6.43896 4.65251 6.23486 4.53076C6.03434 4.40902 5.81055 4.34814 5.56348 4.34814C5.31641 4.34814 5.09082 4.40902 4.88672 4.53076C4.68262 4.65251 4.51969 4.81543 4.39795 5.01953C4.27979 5.22005 4.2207 5.44385 4.2207 5.69092C4.2207 5.93799 4.27979 6.16357 4.39795 6.36768C4.51969 6.5682 4.68262 6.72933 4.88672 6.85107C5.09082 6.97282 5.31641 7.03369 5.56348 7.03369ZM5.56348 6.17432H14.4365V5.16455H5.56348V6.17432ZM14.4365 7.03369C14.6872 7.03369 14.9128 6.97282 15.1133 6.85107C15.3174 6.72933 15.4785 6.5682 15.5967 6.36768C15.7184 6.16357 15.7793 5.93799 15.7793 5.69092C15.7793 5.44385 15.7184 5.22005 15.5967 5.01953C15.4785 4.81543 15.3174 4.65251 15.1133 4.53076C14.9128 4.40902 14.6872 4.34814 14.4365 4.34814C14.193 4.34814 13.9674 4.40902 13.7598 4.53076C13.5557 4.65251 13.3927 4.81543 13.271 5.01953C13.1528 5.22005 13.0938 5.44385 13.0938 5.69092C13.0938 5.93799 13.1528 6.16357 13.271 6.36768C13.3927 6.5682 13.5557 6.72933 13.7598 6.85107C13.9674 6.97282 14.193 7.03369 14.4365 7.03369ZM13.9531 14.564H14.9629V5.69092H13.9531V14.564ZM14.4365 15.9067C14.6872 15.9067 14.9128 15.8459 15.1133 15.7241C15.3174 15.606 15.4785 15.4448 15.5967 15.2407C15.7184 15.0366 15.7793 14.811 15.7793 14.564C15.7793 14.3169 15.7184 14.0931 15.5967 13.8926C15.4785 13.6885 15.3174 13.5256 15.1133 13.4038C14.9128 13.2821 14.6872 13.2212 14.4365 13.2212C14.193 13.2212 13.9674 13.2821 13.7598 13.4038C13.5557 13.5256 13.3927 13.6885 13.271 13.8926C13.1528 14.0931 13.0938 14.3169 13.0938 14.564C13.0938 14.811 13.1528 15.0366 13.271 15.2407C13.3927 15.4448 13.5557 15.606 13.7598 15.7241C13.9674 15.8459 14.193 15.9067 14.4365 15.9067ZM5.56348 15.0957H14.4365V14.0859H5.56348V15.0957ZM5.56348 15.9067C5.81055 15.9067 6.03434 15.8459 6.23486 15.7241C6.43896 15.606 6.6001 15.4448 6.71826 15.2407C6.84001 15.0366 6.90088 14.811 6.90088 14.564C6.90088 14.3169 6.84001 14.0931 6.71826 13.8926C6.6001 13.6885 6.43896 13.5256 6.23486 13.4038C6.03434 13.2821 5.81055 13.2212 5.56348 13.2212C5.31641 13.2212 5.09082 13.2821 4.88672 13.4038C4.68262 13.5256 4.51969 13.6885 4.39795 13.8926C4.27979 14.0931 4.2207 14.3169 4.2207 14.564C4.2207 14.811 4.27979 15.0366 4.39795 15.2407C4.51969 15.4448 4.68262 15.606 4.88672 15.7241C5.09082 15.8459 5.31641 15.9067 5.56348 15.9067ZM5.03174 14.564H6.0415V5.69092H5.03174V14.564ZM9.0332 13.0332H12.272C12.4868 13.0332 12.6533 12.9741 12.7715 12.856C12.8896 12.7378 12.9487 12.5713 12.9487 12.3564V9.1875C12.9487 8.97624 12.8879 8.81152 12.7661 8.69336C12.6479 8.5752 12.4797 8.51611 12.2612 8.51611H9.0332C8.82194 8.51611 8.65723 8.5752 8.53906 8.69336C8.4209 8.81152 8.36182 8.97624 8.36182 9.1875V12.3564C8.36182 12.5713 8.4209 12.7378 8.53906 12.856C8.65723 12.9741 8.82194 13.0332 9.0332 13.0332ZM9.26953 12.2866C9.16211 12.2866 9.1084 12.2347 9.1084 12.1309V9.41846C9.1084 9.31462 9.16211 9.2627 9.26953 9.2627H12.0249C12.1431 9.2627 12.2021 9.31462 12.2021 9.41846V12.1309C12.2021 12.2347 12.1484 12.2866 12.041 12.2866H9.26953ZM7.75488 11.7441H8.65186V10.9976H7.98584C7.87842 10.9976 7.82471 10.9438 7.82471 10.8364V8.12939C7.82471 8.02197 7.87842 7.96826 7.98584 7.96826H10.7573C10.8647 7.96826 10.9185 8.02197 10.9185 8.12939V8.88135H11.665V7.89844C11.665 7.68717 11.606 7.52246 11.4878 7.4043C11.3696 7.28255 11.2031 7.22168 10.9883 7.22168H7.75488C7.54362 7.22168 7.37712 7.28255 7.25537 7.4043C7.13721 7.52246 7.07812 7.68717 7.07812 7.89844V11.0674C7.07812 11.2822 7.13721 11.4487 7.25537 11.5669C7.37712 11.6851 7.54362 11.7441 7.75488 11.7441Z" fill="white"/>
</svg>
