<svg width="17" height="17" viewBox="0 0 17 17" fill="none" xmlns="http://www.w3.org/2000/svg">
<rect width="17" height="17" rx="4" fill="#AC5300"/>
<path fill-rule="evenodd" clip-rule="evenodd" d="M8.33232 5.55289C7.03274 5.59581 5.86018 6.10899 5.00108 6.91718C4.10328 7.76193 3.54789 8.92903 3.54789 10.2177C3.54789 10.3096 3.62706 10.3839 3.7245 10.3839H13.2934C13.391 10.3839 13.4698 10.3094 13.4698 10.2177C13.4698 8.92892 12.9144 7.76181 12.0168 6.91718C11.1578 6.10893 9.98524 5.5958 8.68524 5.55289V5.33236H9.29524C9.39282 5.33236 9.47186 5.258 9.47186 5.16618C9.47186 5.07436 9.39282 5 9.29524 5H7.72221C7.62462 5 7.54559 5.07436 7.54559 5.16618C7.54559 5.258 7.62462 5.33236 7.72221 5.33236H8.33199L8.33232 5.55289ZM5.25072 7.15202C6.08449 6.36771 7.23661 5.88217 8.50893 5.88217C9.78132 5.88217 10.9336 6.36766 11.7671 7.15202C12.5621 7.90004 13.0681 8.92041 13.1133 10.0515H3.90442C3.94983 8.92035 4.45587 7.89987 5.25072 7.15202ZM13.3234 10.6676H3.67662C3.57903 10.6676 3.5 10.742 3.5 10.8338C3.5 10.9256 3.57903 11 3.67662 11H13.3234C13.4208 11 13.5 10.9256 13.5 10.8338C13.4999 10.742 13.4208 10.6676 13.3234 10.6676ZM5.66661 7.6591C6.14004 7.19389 6.74118 6.84428 7.41682 6.66115C7.51023 6.63615 7.56401 6.54466 7.53743 6.45677C7.51085 6.36889 7.41361 6.31809 7.32021 6.3431C6.58382 6.54276 5.92841 6.92362 5.4129 7.43043C4.89888 7.93587 4.5229 8.56725 4.34308 9.27024C4.32048 9.35904 4.37907 9.44842 4.47345 9.46949C4.56783 9.49056 4.66282 9.43562 4.68522 9.34662C4.85012 8.70192 5.19508 8.1229 5.66661 7.6591Z" fill="white" stroke="white" stroke-width="0.2"/>
</svg>
