<svg width="12" height="14" viewBox="0 0 12 14" fill="none" xmlns="http://www.w3.org/2000/svg">
<path d="M0.839355 11.6191H11.1606C11.3892 11.6191 11.569 11.5641 11.7002 11.4541C11.8314 11.3398 11.897 11.1896 11.897 11.0034C11.897 10.7918 11.8377 10.5887 11.7192 10.394C11.605 10.1951 11.459 10.0026 11.2812 9.81641C11.1035 9.62598 10.9279 9.43555 10.7544 9.24512C10.5809 9.05892 10.4518 8.81771 10.3672 8.52148C10.2826 8.22526 10.2212 7.90576 10.1831 7.56299C10.145 7.21598 10.109 6.87533 10.0752 6.54102C10.0413 5.83008 9.93978 5.1932 9.77051 4.63037C9.60547 4.06755 9.35579 3.59359 9.02148 3.2085C8.68717 2.81917 8.2513 2.53776 7.71387 2.36426C7.61654 1.94108 7.41553 1.58984 7.11084 1.31055C6.81038 1.03125 6.4401 0.891602 6 0.891602C5.5599 0.891602 5.1875 1.03125 4.88281 1.31055C4.58236 1.58984 4.38346 1.94108 4.28613 2.36426C3.7487 2.53776 3.31283 2.81917 2.97852 3.2085C2.64421 3.59359 2.39242 4.06755 2.22314 4.63037C2.05811 5.1932 1.96077 5.83008 1.93115 6.54102C1.89307 6.87533 1.85498 7.21598 1.81689 7.56299C1.77881 7.90576 1.71745 8.22526 1.63281 8.52148C1.54818 8.81771 1.42122 9.05892 1.25195 9.24512C1.07422 9.43555 0.896484 9.62598 0.71875 9.81641C0.545247 10.0026 0.399251 10.1951 0.280762 10.394C0.162272 10.5887 0.103027 10.7918 0.103027 11.0034C0.103027 11.1896 0.16862 11.3398 0.299805 11.4541C0.43099 11.5641 0.61084 11.6191 0.839355 11.6191ZM6 13.9487C6.34277 13.9487 6.64746 13.8747 6.91406 13.7266C7.1849 13.5785 7.40283 13.3838 7.56787 13.1426C7.73291 12.9014 7.83447 12.639 7.87256 12.3555H4.13379C4.16764 12.639 4.26709 12.9014 4.43213 13.1426C4.6014 13.3838 4.81934 13.5785 5.08594 13.7266C5.35254 13.8747 5.65723 13.9487 6 13.9487Z" fill="black"/>
</svg>
