<svg width="17" height="17" viewBox="0 0 17 17" fill="none" xmlns="http://www.w3.org/2000/svg">
<rect width="17" height="17" rx="4" fill="#008E39"/>
<path d="M4.79197 13.5999H12.3095C12.9032 13.5999 13.3493 13.4487 13.648 13.1464C13.9503 12.8478 14.1014 12.4071 14.1014 11.8243V5.17548C14.1014 4.58908 13.9503 4.14655 13.648 3.84789C13.3493 3.54923 12.9032 3.3999 12.3095 3.3999H4.79197C4.20193 3.3999 3.75576 3.54923 3.45345 3.84789C3.15115 4.14655 3 4.58908 3 5.17548V11.8243C3 12.4071 3.15115 12.8478 3.45345 13.1464C3.75576 13.4487 4.20193 13.5999 4.79197 13.5999ZM4.78104 12.5236C4.55158 12.5236 4.37675 12.4654 4.25656 12.3488C4.13637 12.2286 4.07627 12.0501 4.07627 11.8134V6.7653C4.07627 6.52856 4.13637 6.35009 4.25656 6.2299C4.37675 6.1097 4.55158 6.04961 4.78104 6.04961H12.3149C12.5444 6.04961 12.7192 6.1097 12.8394 6.2299C12.9633 6.35009 13.0252 6.52856 13.0252 6.7653V11.8134C13.0252 12.0501 12.9633 12.2286 12.8394 12.3488C12.7192 12.4654 12.5444 12.5236 12.3149 12.5236H4.78104ZM7.50177 7.95084H7.8241C7.9188 7.95084 7.98618 7.93263 8.02624 7.89621C8.06631 7.85614 8.08634 7.78876 8.08634 7.69406V7.37173C8.08634 7.27339 8.06631 7.20783 8.02624 7.17505C7.98618 7.13863 7.9188 7.12042 7.8241 7.12042H7.50177C7.40343 7.12042 7.33423 7.13863 7.29416 7.17505C7.25774 7.20783 7.23953 7.27339 7.23953 7.37173V7.69406C7.23953 7.78876 7.25774 7.85614 7.29416 7.89621C7.33423 7.93263 7.40343 7.95084 7.50177 7.95084ZM9.28281 7.95084H9.60514C9.70712 7.95084 9.77633 7.93263 9.81275 7.89621C9.84917 7.85614 9.86738 7.78876 9.86738 7.69406V7.37173C9.86738 7.27339 9.84917 7.20783 9.81275 7.17505C9.77633 7.13863 9.70712 7.12042 9.60514 7.12042H9.28281C9.18811 7.12042 9.12073 7.13863 9.08066 7.17505C9.04424 7.20783 9.02603 7.27339 9.02603 7.37173V7.69406C9.02603 7.78876 9.04424 7.85614 9.08066 7.89621C9.12073 7.93263 9.18811 7.95084 9.28281 7.95084ZM11.0748 7.95084H11.3916C11.4936 7.95084 11.5628 7.93263 11.5992 7.89621C11.6357 7.85614 11.6539 7.78876 11.6539 7.69406V7.37173C11.6539 7.27339 11.6357 7.20783 11.5992 7.17505C11.5628 7.13863 11.4936 7.12042 11.3916 7.12042H11.0748C10.9764 7.12042 10.9072 7.13863 10.8672 7.17505C10.8307 7.20783 10.8125 7.27339 10.8125 7.37173V7.69406C10.8125 7.78876 10.8307 7.85614 10.8672 7.89621C10.9072 7.93263 10.9764 7.95084 11.0748 7.95084ZM5.71526 9.70456H6.0376C6.1323 9.70456 6.19786 9.68635 6.23428 9.64993C6.27434 9.61351 6.29438 9.54795 6.29438 9.45325V9.13091C6.29438 9.03257 6.27434 8.96519 6.23428 8.92877C6.19786 8.89235 6.1323 8.87414 6.0376 8.87414H5.71526C5.61693 8.87414 5.54772 8.89235 5.50766 8.92877C5.47124 8.96519 5.45303 9.03257 5.45303 9.13091V9.45325C5.45303 9.54795 5.47124 9.61351 5.50766 9.64993C5.54772 9.68635 5.61693 9.70456 5.71526 9.70456ZM7.50177 9.70456H7.8241C7.9188 9.70456 7.98618 9.68635 8.02624 9.64993C8.06631 9.61351 8.08634 9.54795 8.08634 9.45325V9.13091C8.08634 9.03257 8.06631 8.96519 8.02624 8.92877C7.98618 8.89235 7.9188 8.87414 7.8241 8.87414H7.50177C7.40343 8.87414 7.33423 8.89235 7.29416 8.92877C7.25774 8.96519 7.23953 9.03257 7.23953 9.13091V9.45325C7.23953 9.54795 7.25774 9.61351 7.29416 9.64993C7.33423 9.68635 7.40343 9.70456 7.50177 9.70456ZM9.28281 9.70456H9.60514C9.70712 9.70456 9.77633 9.68635 9.81275 9.64993C9.84917 9.61351 9.86738 9.54795 9.86738 9.45325V9.13091C9.86738 9.03257 9.84917 8.96519 9.81275 8.92877C9.77633 8.89235 9.70712 8.87414 9.60514 8.87414H9.28281C9.18811 8.87414 9.12073 8.89235 9.08066 8.92877C9.04424 8.96519 9.02603 9.03257 9.02603 9.13091V9.45325C9.02603 9.54795 9.04424 9.61351 9.08066 9.64993C9.12073 9.68635 9.18811 9.70456 9.28281 9.70456ZM11.0748 9.70456H11.3916C11.4936 9.70456 11.5628 9.68635 11.5992 9.64993C11.6357 9.61351 11.6539 9.54795 11.6539 9.45325V9.13091C11.6539 9.03257 11.6357 8.96519 11.5992 8.92877C11.5628 8.89235 11.4936 8.87414 11.3916 8.87414H11.0748C10.9764 8.87414 10.9072 8.89235 10.8672 8.92877C10.8307 8.96519 10.8125 9.03257 10.8125 9.13091V9.45325C10.8125 9.54795 10.8307 9.61351 10.8672 9.64993C10.9072 9.68635 10.9764 9.70456 11.0748 9.70456ZM5.71526 11.4637H6.0376C6.1323 11.4637 6.19786 11.4474 6.23428 11.4146C6.27434 11.3782 6.29438 11.309 6.29438 11.207V10.8901C6.29438 10.7918 6.27434 10.7244 6.23428 10.688C6.19786 10.6515 6.1323 10.6333 6.0376 10.6333H5.71526C5.61693 10.6333 5.54772 10.6515 5.50766 10.688C5.47124 10.7244 5.45303 10.7918 5.45303 10.8901V11.207C5.45303 11.309 5.47124 11.3782 5.50766 11.4146C5.54772 11.4474 5.61693 11.4637 5.71526 11.4637ZM7.50177 11.4637H7.8241C7.9188 11.4637 7.98618 11.4474 8.02624 11.4146C8.06631 11.3782 8.08634 11.309 8.08634 11.207V10.8901C8.08634 10.7918 8.06631 10.7244 8.02624 10.688C7.98618 10.6515 7.9188 10.6333 7.8241 10.6333H7.50177C7.40343 10.6333 7.33423 10.6515 7.29416 10.688C7.25774 10.7244 7.23953 10.7918 7.23953 10.8901V11.207C7.23953 11.309 7.25774 11.3782 7.29416 11.4146C7.33423 11.4474 7.40343 11.4637 7.50177 11.4637ZM9.28281 11.4637H9.60514C9.70712 11.4637 9.77633 11.4474 9.81275 11.4146C9.84917 11.3782 9.86738 11.309 9.86738 11.207V10.8901C9.86738 10.7918 9.84917 10.7244 9.81275 10.688C9.77633 10.6515 9.70712 10.6333 9.60514 10.6333H9.28281C9.18811 10.6333 9.12073 10.6515 9.08066 10.688C9.04424 10.7244 9.02603 10.7918 9.02603 10.8901V11.207C9.02603 11.309 9.04424 11.3782 9.08066 11.4146C9.12073 11.4474 9.18811 11.4637 9.28281 11.4637Z" fill="white"/>
</svg>
