<svg width="20" height="20" viewBox="0 0 20 20" fill="none" xmlns="http://www.w3.org/2000/svg">
<rect width="20" height="20" rx="4" fill="#D18007"/>
<path d="M6.2085 13.6294H14.7861C15.0618 13.6294 15.2785 13.5614 15.436 13.4253C15.5972 13.2892 15.6777 13.1084 15.6777 12.8828C15.6777 12.6966 15.6276 12.5176 15.5273 12.3457C15.4271 12.1702 15.3 12.002 15.146 11.8408C14.992 11.6797 14.8345 11.5221 14.6733 11.3682C14.548 11.2464 14.4513 11.0871 14.3833 10.8901C14.3153 10.6896 14.2633 10.4712 14.2275 10.2349C14.1917 9.99854 14.1631 9.764 14.1416 9.53125C14.1165 8.8724 14.0306 8.28337 13.8838 7.76416C13.737 7.24137 13.5168 6.80273 13.2231 6.44824C12.9331 6.09017 12.5571 5.82699 12.0952 5.65869C11.9842 5.3042 11.7891 5.007 11.5098 4.76709C11.2305 4.52718 10.8921 4.40723 10.4946 4.40723C10.1007 4.40723 9.76416 4.52718 9.48486 4.76709C9.20557 5.007 9.01042 5.3042 8.89941 5.65869C8.4375 5.82699 8.05973 6.09017 7.76611 6.44824C7.47249 6.80273 7.25228 7.24137 7.10547 7.76416C6.96224 8.28337 6.87809 8.8724 6.85303 9.53125C6.83154 9.764 6.8029 9.99854 6.76709 10.2349C6.73128 10.4712 6.67936 10.6896 6.61133 10.8901C6.54329 11.0871 6.44661 11.2464 6.32129 11.3682C6.16016 11.5221 6.0026 11.6797 5.84863 11.8408C5.69466 12.002 5.56755 12.1702 5.46729 12.3457C5.37061 12.5176 5.32227 12.6966 5.32227 12.8828C5.32227 13.1084 5.40104 13.2892 5.55859 13.4253C5.71615 13.5614 5.93278 13.6294 6.2085 13.6294ZM10.4946 15.8423C10.8133 15.8423 11.0962 15.7743 11.3433 15.6382C11.5939 15.5057 11.7944 15.3285 11.9448 15.1064C12.0952 14.8844 12.1829 14.6427 12.208 14.3813H8.78662C8.80811 14.6427 8.89404 14.8844 9.04443 15.1064C9.1984 15.3285 9.39893 15.5057 9.646 15.6382C9.89665 15.7743 10.1795 15.8423 10.4946 15.8423Z" fill="white"/>
</svg>
