<svg width="20" height="20" viewBox="0 0 20 20" fill="none" xmlns="http://www.w3.org/2000/svg">
<rect width="20" height="20" rx="4" fill="#6993C6"/>
<path d="M3.82275 15.9282C4.1307 16.2362 4.47445 16.4403 4.854 16.5405C5.23356 16.6444 5.61312 16.6354 5.99268 16.5137C6.37581 16.3955 6.72314 16.1592 7.03467 15.8047C7.28174 15.5254 7.53776 15.1924 7.80273 14.8057C8.07129 14.4189 8.35417 14.009 8.65137 13.5757C8.94857 13.1424 9.26546 12.7056 9.60205 12.2651C9.93864 11.8247 10.3003 11.4129 10.687 11.0298C10.8768 10.8364 11.0701 10.6986 11.2671 10.6162C11.4676 10.5303 11.6735 10.473 11.8848 10.4443C12.096 10.4157 12.3127 10.396 12.5347 10.3853C12.7603 10.3745 12.9912 10.3477 13.2275 10.3047C13.4674 10.2581 13.7145 10.1776 13.9688 10.063C14.223 9.9484 14.4844 9.77116 14.7529 9.53125C15.0179 9.32357 15.2417 9.08008 15.4243 8.80078C15.6069 8.5179 15.734 8.22428 15.8057 7.91992C15.8773 7.61556 15.8826 7.32731 15.8218 7.05518L13.6948 7.63525C13.5373 7.67822 13.4048 7.65674 13.2974 7.5708C13.1899 7.48486 13.113 7.35775 13.0664 7.18945L12.9106 6.6416C12.8605 6.47689 12.8641 6.33187 12.9214 6.20654C12.9787 6.07764 13.0843 5.99349 13.2383 5.9541L15.3706 5.37402C15.3384 5.26302 15.2775 5.1377 15.188 4.99805C15.1021 4.85482 14.9964 4.71875 14.8711 4.58984C14.5488 4.26042 14.1854 4.01335 13.7808 3.84863C13.3761 3.68392 12.9572 3.59798 12.5239 3.59082C12.0942 3.58366 11.6789 3.65527 11.2778 3.80566C10.8768 3.95247 10.5187 4.17269 10.2036 4.46631C9.89925 4.76351 9.67008 5.05892 9.51611 5.35254C9.36572 5.64258 9.26367 5.93262 9.20996 6.22266C9.15983 6.50911 9.13118 6.78841 9.12402 7.06055C9.12044 7.33268 9.11328 7.59587 9.10254 7.8501C9.0918 8.10075 9.05062 8.33708 8.979 8.55908C8.90739 8.78109 8.77669 8.98698 8.58691 9.17676C8.23242 9.53125 7.84391 9.86963 7.42139 10.1919C7.00244 10.5106 6.57812 10.8167 6.14844 11.1104C5.72233 11.4004 5.31771 11.6797 4.93457 11.9482C4.55501 12.2132 4.2238 12.4692 3.94092 12.7163C3.58643 13.0278 3.34831 13.3752 3.22656 13.7583C3.1084 14.1379 3.10124 14.5174 3.20508 14.897C3.30892 15.2765 3.51481 15.6203 3.82275 15.9282ZM4.42969 15.3213C4.23991 15.1315 4.11458 14.9167 4.05371 14.6768C3.99284 14.4368 4.00179 14.1969 4.08057 13.957C4.15934 13.7171 4.30973 13.5005 4.53174 13.3071C4.81104 13.0636 5.14762 12.804 5.5415 12.5283C5.93896 12.249 6.35612 11.9608 6.79297 11.6636C7.2334 11.3628 7.6613 11.0549 8.07666 10.7397C8.49561 10.4246 8.868 10.106 9.19385 9.78369C9.4266 9.54378 9.59131 9.2985 9.68799 9.04785C9.78825 8.7972 9.84912 8.54118 9.87061 8.27979C9.89209 8.01481 9.90283 7.74805 9.90283 7.47949C9.90283 7.21094 9.92074 6.94238 9.95654 6.67383C9.99235 6.40169 10.0729 6.13314 10.1982 5.86816C10.3271 5.59961 10.533 5.33464 10.8159 5.07324C11.0451 4.8584 11.3136 4.69906 11.6216 4.59521C11.9295 4.49137 12.2482 4.44482 12.5776 4.45557C12.9071 4.46631 13.2257 4.53434 13.5337 4.65967C13.8452 4.78141 14.1227 4.96582 14.3662 5.21289L14.6133 4.76709L13.0449 5.18066C12.6331 5.28809 12.3431 5.49219 12.1748 5.79297C12.0101 6.09375 11.9904 6.4554 12.1157 6.87793L12.2661 7.39893C12.3986 7.868 12.5991 8.17952 12.8677 8.3335C13.1362 8.48389 13.4603 8.50895 13.8398 8.40869L15.4673 7.96826L15.0107 7.73193C14.957 7.93245 14.8765 8.12939 14.769 8.32275C14.6616 8.51611 14.5238 8.69694 14.3555 8.86523C14.0905 9.11947 13.8184 9.29492 13.5391 9.3916C13.2598 9.48828 12.9751 9.54736 12.6851 9.56885C12.395 9.59033 12.1032 9.61361 11.8096 9.63867C11.5195 9.66374 11.2295 9.73177 10.9395 9.84277C10.6494 9.9502 10.3647 10.1436 10.0854 10.4229C9.72738 10.7773 9.38184 11.1712 9.04883 11.6045C8.7194 12.0378 8.40251 12.48 8.09814 12.9312C7.79378 13.3787 7.50374 13.8013 7.22803 14.1987C6.95231 14.5998 6.69271 14.9399 6.44922 15.2192C6.2487 15.4484 6.02669 15.6024 5.7832 15.6812C5.54329 15.7599 5.30339 15.7671 5.06348 15.7026C4.82715 15.6418 4.61589 15.5146 4.42969 15.3213ZM10.8535 8.97266L11.9976 8.6665C12.0477 8.65576 12.0853 8.62712 12.1104 8.58057C12.1354 8.53044 12.1426 8.48031 12.1318 8.43018C12.1175 8.38005 12.0889 8.34245 12.0459 8.31738C12.0029 8.28874 11.9546 8.28337 11.9009 8.30127L10.7568 8.60742C10.6423 8.63965 10.5975 8.71663 10.6226 8.83838C10.6297 8.89209 10.6566 8.93148 10.7031 8.95654C10.7533 8.98161 10.8034 8.98698 10.8535 8.97266ZM10.7139 8.39258L11.8472 8.0918C11.8973 8.07747 11.9349 8.04883 11.96 8.00586C11.9886 7.95931 11.9958 7.90739 11.9814 7.8501C11.9671 7.79997 11.9367 7.76237 11.8901 7.7373C11.8472 7.71224 11.8006 7.70508 11.7505 7.71582L10.6064 8.02734C10.5563 8.03809 10.5169 8.06673 10.4883 8.11328C10.4632 8.15983 10.4578 8.20638 10.4722 8.25293C10.508 8.38184 10.5885 8.42839 10.7139 8.39258ZM10.5688 7.8125L11.7075 7.51172C11.7576 7.4974 11.7952 7.46696 11.8203 7.42041C11.849 7.37386 11.8543 7.32373 11.8364 7.27002C11.8257 7.21989 11.797 7.18229 11.7505 7.15723C11.7039 7.12858 11.6574 7.12142 11.6108 7.13574L10.4614 7.44189C10.4113 7.45622 10.3737 7.48665 10.3486 7.5332C10.3236 7.57975 10.3182 7.6263 10.3325 7.67285C10.3468 7.73014 10.3755 7.77132 10.4185 7.79639C10.4614 7.82145 10.5116 7.82682 10.5688 7.8125ZM12.9644 9.95557L13.5283 9.81592L12.8301 7.27539L12.2661 7.39893L12.9644 9.95557ZM5.4126 14.9829C5.58805 14.9829 5.73844 14.9202 5.86377 14.7949C5.9891 14.6732 6.05176 14.5228 6.05176 14.3438C6.05176 14.1683 5.9891 14.0179 5.86377 13.8926C5.73844 13.7673 5.58805 13.7046 5.4126 13.7046C5.23714 13.7046 5.08675 13.7673 4.96143 13.8926C4.8361 14.0179 4.77344 14.1683 4.77344 14.3438C4.77344 14.5228 4.8361 14.6732 4.96143 14.7949C5.08675 14.9202 5.23714 14.9829 5.4126 14.9829Z" fill="white"/>
</svg>
