<svg width="20" height="20" viewBox="0 0 20 20" fill="none" xmlns="http://www.w3.org/2000/svg">
<rect width="20" height="20" rx="4" fill="#C79F59"/>
<path d="M10.1353 6.83669L13.0306 8.53131C13.2067 8.63088 13.3465 8.70364 13.4499 8.7496C13.5571 8.79173 13.6605 8.82045 13.7601 8.83577C13.8635 8.84726 13.9995 8.853 14.168 8.853C14.2943 8.853 14.4609 8.84343 14.6677 8.82428C14.8784 8.8013 15.1024 8.77641 15.3398 8.7496C15.5811 8.71896 15.8109 8.69407 16.0292 8.67492C16.2513 8.65194 16.4332 8.64045 16.5749 8.64045C16.9923 8.64045 17.3562 8.72662 17.6664 8.89896C17.9804 9.06746 18.2236 9.3049 18.3959 9.61127C18.5721 9.91381 18.6602 10.2681 18.6602 10.674C18.6602 11.0953 18.5357 11.4859 18.2868 11.8459C18.0378 12.2059 17.6453 12.5352 17.1091 12.8339C16.6611 13.0867 16.2379 13.2877 15.8396 13.4371C15.4413 13.5826 15.0239 13.686 14.5873 13.7473C14.1507 13.8086 13.6529 13.8392 13.0938 13.8392H4.42532C4.16491 13.8392 3.91023 13.8047 3.66131 13.7358C3.41621 13.6669 3.19409 13.5482 2.99494 13.3797C2.79963 13.2073 2.64262 12.9775 2.5239 12.6903C2.40901 12.4031 2.35156 12.0431 2.35156 11.6104V9.13448C2.35156 8.89704 2.39943 8.69598 2.49517 8.53131C2.59475 8.36663 2.72687 8.24408 2.89154 8.16366C3.05622 8.07941 3.23621 8.03728 3.43153 8.03728C3.63067 8.03728 3.82981 8.08324 4.02895 8.17515C4.24724 8.27472 4.46553 8.35131 4.68382 8.40493C4.90594 8.45472 5.16445 8.47961 5.45933 8.47961C5.79634 8.47961 6.1276 8.38961 6.45312 8.20962C6.77865 8.02579 7.09651 7.73283 7.40671 7.33071C7.79733 6.8252 8.22243 6.54372 8.68199 6.48627C9.14154 6.425 9.626 6.5418 10.1353 6.83669ZM9.73323 7.52602C9.47664 7.3805 9.25452 7.2905 9.06687 7.25603C8.88304 7.21774 8.71071 7.24454 8.54986 7.33646C8.39285 7.42454 8.22243 7.58538 8.0386 7.81899C7.6633 8.30536 7.25352 8.66918 6.80928 8.91044C6.36504 9.15171 5.91506 9.27235 5.45933 9.27235C5.08019 9.27235 4.74318 9.23405 4.4483 9.15746C4.15725 9.08086 3.88151 8.98129 3.62109 8.85874C3.51003 8.80513 3.4028 8.8013 3.2994 8.84726C3.19983 8.88938 3.15005 8.98512 3.15005 9.13448V11.6104C3.15005 11.9971 3.19792 12.2939 3.29366 12.5007C3.39323 12.7076 3.53876 12.8512 3.73024 12.9316C3.92172 13.012 4.1515 13.0522 4.41958 13.0522H13.0938C13.6184 13.0522 14.0761 13.0235 14.4667 12.9661C14.8611 12.9086 15.2345 12.8148 15.5869 12.6846C15.9392 12.5505 16.3202 12.3705 16.73 12.1446C17.136 11.9186 17.4251 11.6908 17.5974 11.461C17.7736 11.2312 17.8617 10.9689 17.8617 10.674C17.8617 9.8468 17.4308 9.43319 16.5692 9.43319C16.439 9.43319 16.2685 9.44468 16.0579 9.46766C15.8473 9.48681 15.6232 9.5117 15.3858 9.54234C15.1484 9.56915 14.9205 9.59404 14.7022 9.61702C14.4839 9.63616 14.3058 9.64574 14.168 9.64574C13.9688 9.64574 13.7946 9.63616 13.6452 9.61702C13.4997 9.59404 13.3484 9.55383 13.1914 9.49638C13.0382 9.43511 12.8544 9.33937 12.6399 9.20916L9.73323 7.52602ZM3.13281 12.3112V11.731C3.20941 11.8076 3.31855 11.8612 3.46025 11.8918C3.60578 11.9225 3.79917 11.9378 4.04044 11.9378H13.0938C13.5188 11.9378 13.8788 11.9206 14.1737 11.8861C14.4686 11.8516 14.7328 11.7961 14.9665 11.7195C15.2001 11.6429 15.4356 11.5414 15.673 11.415L16.7587 10.8693C17.0383 10.72 17.2394 10.5783 17.3619 10.4442C17.4883 10.3064 17.5496 10.1838 17.5457 10.0766C17.5457 9.96552 17.4998 9.87935 17.4079 9.81807L17.9249 9.82382C17.9287 10.0613 17.9172 10.2681 17.8904 10.4442C17.8636 10.6166 17.787 10.7755 17.6606 10.921C17.5342 11.0627 17.3236 11.2102 17.0287 11.3633L15.943 11.8976C15.6673 12.0431 15.3954 12.1599 15.1273 12.248C14.8592 12.3361 14.5624 12.4012 14.2369 12.4433C13.9152 12.4816 13.5342 12.5007 13.0938 12.5007H4.04044C3.84513 12.5007 3.67662 12.4873 3.53493 12.4605C3.39706 12.4299 3.26302 12.3801 3.13281 12.3112ZM10.2158 7.38241L10.6581 7.73283L9.69876 9.05406C9.64897 9.11533 9.58387 9.1498 9.50345 9.15746C9.42685 9.16129 9.35792 9.14022 9.29665 9.09427C9.23537 9.04831 9.2009 8.98704 9.19324 8.91044C9.18941 8.83385 9.21048 8.763 9.25643 8.6979L10.2158 7.38241ZM11.4336 8.0143L11.8702 8.36472L10.9338 9.65148C10.884 9.72042 10.8208 9.75871 10.7443 9.76637C10.6715 9.77403 10.6006 9.74914 10.5317 9.69169C10.4743 9.64574 10.4417 9.58638 10.4341 9.51362C10.4264 9.44085 10.4475 9.37 10.4972 9.30107L11.4336 8.0143ZM12.6342 8.65194L13.0765 8.98512L12.1574 10.2547C12.1076 10.3198 12.0444 10.3561 11.9678 10.3638C11.8951 10.3715 11.8261 10.3485 11.761 10.2949C11.6998 10.2451 11.6653 10.1838 11.6576 10.111C11.6538 10.0383 11.6768 9.96934 11.7266 9.90424L12.6342 8.65194Z" fill="white"/>
</svg>
