<svg width="20" height="20" viewBox="0 0 20 20" fill="none" xmlns="http://www.w3.org/2000/svg">
<rect width="20" height="20" rx="4" fill="#C86862"/>
<path d="M5.78369 15.2729H14.2109C14.4902 15.2729 14.7319 15.2121 14.936 15.0903C15.1401 14.9686 15.2977 14.8039 15.4087 14.5962C15.5233 14.3885 15.5806 14.1593 15.5806 13.9087C15.5806 13.7941 15.5645 13.6813 15.5322 13.5703C15.5036 13.4557 15.4588 13.3447 15.3979 13.2373L11.1763 5.69629C11.0474 5.46354 10.8773 5.28988 10.666 5.17529C10.4548 5.05713 10.2327 4.99805 10 4.99805C9.77083 4.99805 9.54883 5.05713 9.33398 5.17529C9.11914 5.28988 8.94727 5.46354 8.81836 5.69629L4.60205 13.2427C4.48031 13.4647 4.41943 13.6867 4.41943 13.9087C4.41943 14.1593 4.47493 14.3885 4.58594 14.5962C4.70052 14.8039 4.85986 14.9686 5.06396 15.0903C5.26807 15.2121 5.50798 15.2729 5.78369 15.2729ZM10.0107 11.5938C9.6849 11.5938 9.5166 11.429 9.50586 11.0996L9.43066 8.39258C9.4235 8.23145 9.47363 8.09896 9.58105 7.99512C9.68848 7.8877 9.82992 7.83398 10.0054 7.83398C10.1772 7.83398 10.3187 7.8877 10.4297 7.99512C10.5407 8.09896 10.5926 8.23324 10.5854 8.39795L10.4995 11.0942C10.4924 11.4272 10.3294 11.5938 10.0107 11.5938ZM10.0107 13.4414C9.83171 13.4414 9.67594 13.3841 9.54346 13.2695C9.41455 13.1549 9.3501 13.0081 9.3501 12.8291C9.3501 12.6536 9.41455 12.5068 9.54346 12.3887C9.67236 12.2705 9.82812 12.2114 10.0107 12.2114C10.1898 12.2114 10.3438 12.2705 10.4727 12.3887C10.6016 12.5068 10.666 12.6536 10.666 12.8291C10.666 13.0081 10.6016 13.1549 10.4727 13.2695C10.3438 13.3841 10.1898 13.4414 10.0107 13.4414Z" fill="white"/>
</svg>
