<svg width="20" height="20" viewBox="0 0 20 20" fill="none" xmlns="http://www.w3.org/2000/svg">
<rect x="0.5" y="0.5" width="19" height="19" rx="4.5" stroke="#C4C4C4"/>
<path d="M7.33887 14.0146L12.8711 8.4873L12.1436 7.75977L6.61133 13.2871L6.13281 14.3027C6.11328 14.3516 6.12305 14.3955 6.16211 14.4346C6.20117 14.4769 6.24512 14.4883 6.29395 14.4688L7.33887 14.0146ZM13.2568 8.10645L13.6963 7.67676C13.8102 7.55957 13.8688 7.44564 13.8721 7.33496C13.8786 7.22428 13.8314 7.11686 13.7305 7.0127L13.6182 6.90039C13.5205 6.80273 13.4131 6.75879 13.2959 6.76855C13.182 6.77507 13.0713 6.83203 12.9639 6.93945L12.5244 7.37402L13.2568 8.10645Z" fill="black"/>
</svg>
