<svg width="36" height="36" viewBox="0 0 36 36" fill="none" xmlns="http://www.w3.org/2000/svg">
<rect width="36" height="36" rx="18" fill="#C4C4C4" fill-opacity="0.2"/>
<path d="M12.1919 23.9082H23.9399C24.5845 23.9082 25.0801 23.7275 25.4268 23.3662C25.7783 23.0098 25.9541 22.4775 25.9541 21.7695V13.6763C25.9541 12.9731 25.7734 12.4409 25.4121 12.0796C25.0508 11.7183 24.5112 11.5376 23.7935 11.5376H12.0527C11.4082 11.5376 10.9102 11.7183 10.5586 12.0796C10.2119 12.436 10.0386 12.9683 10.0386 13.6763V21.7695C10.0386 22.4775 10.2192 23.0098 10.5806 23.3662C10.9419 23.7275 11.479 23.9082 12.1919 23.9082ZM12.1772 23.0439C11.7622 23.0439 11.4448 22.9365 11.2251 22.7217C11.0103 22.5068 10.9028 22.187 10.9028 21.7622V13.6836C10.9028 13.2588 11.0103 12.939 11.2251 12.7241C11.4448 12.5093 11.7622 12.4019 12.1772 12.4019H23.8154C24.2207 12.4019 24.5332 12.5093 24.7529 12.7241C24.9775 12.939 25.0898 13.2588 25.0898 13.6836V21.7695C25.0898 22.1895 24.9775 22.5068 24.7529 22.7217C24.5332 22.9365 24.2207 23.0439 23.8154 23.0439H12.1772ZM18.022 19.543C18.2563 19.543 18.4883 19.4917 18.7178 19.3892C18.9521 19.2866 19.189 19.1206 19.4282 18.8911L25.4561 12.9951L24.8555 12.3945L18.9229 18.2319C18.7617 18.3882 18.6055 18.5005 18.4541 18.5688C18.3076 18.6372 18.1636 18.6714 18.022 18.6714C17.8853 18.6714 17.7388 18.6372 17.5825 18.5688C17.4312 18.4956 17.2798 18.3833 17.1284 18.2319L11.1738 12.3726L10.5732 12.9731L16.6157 18.8911C16.855 19.1206 17.0918 19.2866 17.3262 19.3892C17.5605 19.4917 17.7925 19.543 18.022 19.543ZM24.7749 23.0513L25.3682 22.4434L20.4683 17.668L19.875 18.2612L24.7749 23.0513ZM10.6611 22.4653L11.2471 23.0732L16.1763 18.2612L15.5757 17.668L10.6611 22.4653Z" fill="black"/>
</svg>
