<svg width="20" height="20" viewBox="0 0 20 20" fill="none" xmlns="http://www.w3.org/2000/svg">
<rect width="20" height="20" rx="4" fill="#00860D"/>
<path d="M7.44336 16.1108C7.59375 16.1108 7.7334 16.0715 7.8623 15.9927C7.99479 15.9175 8.15234 15.7993 8.33496 15.6382L10.1719 14.0107H13.4214C13.9621 14.0107 14.4186 13.9105 14.791 13.71C15.167 13.5094 15.4535 13.223 15.6504 12.8506C15.8473 12.4746 15.9458 12.0199 15.9458 11.4863V7.31836C15.9458 6.78483 15.8473 6.33187 15.6504 5.95947C15.4535 5.5835 15.167 5.29525 14.791 5.09473C14.4186 4.89421 13.9621 4.79395 13.4214 4.79395H6.57324C6.03255 4.79395 5.57422 4.89421 5.19824 5.09473C4.82585 5.29525 4.54118 5.5835 4.34424 5.95947C4.1473 6.33187 4.04883 6.78483 4.04883 7.31836V11.4863C4.04883 12.0199 4.1473 12.4746 4.34424 12.8506C4.54476 13.223 4.82943 13.5094 5.19824 13.71C5.57064 13.9105 6.01644 14.0107 6.53564 14.0107H6.75586V15.332C6.75586 15.5719 6.81494 15.7617 6.93311 15.9014C7.05485 16.041 7.22493 16.1108 7.44336 16.1108ZM7.70117 14.9238V13.3931C7.70117 13.2319 7.66536 13.1191 7.59375 13.0547C7.52572 12.9867 7.4165 12.9526 7.26611 12.9526H6.6001C6.09521 12.9526 5.71924 12.8273 5.47217 12.5767C5.22868 12.3224 5.10693 11.9465 5.10693 11.4487V7.35059C5.10693 6.85645 5.22868 6.48405 5.47217 6.2334C5.71924 5.97917 6.09521 5.85205 6.6001 5.85205H13.3945C13.8994 5.85205 14.2736 5.97917 14.5171 6.2334C14.7642 6.48405 14.8877 6.85645 14.8877 7.35059V11.4487C14.8877 11.9465 14.7642 12.3224 14.5171 12.5767C14.2736 12.8273 13.8994 12.9526 13.3945 12.9526H10.1182C9.95345 12.9526 9.82096 12.9723 9.7207 13.0117C9.62402 13.0475 9.52018 13.1227 9.40918 13.2373L7.70117 14.9238ZM6.99219 9.27344H9.24805C9.65625 9.27344 9.86035 9.07113 9.86035 8.6665V7.66211C9.86035 7.26465 9.65625 7.06592 9.24805 7.06592H6.99219C6.58757 7.06592 6.38525 7.26465 6.38525 7.66211V8.6665C6.38525 9.07113 6.58757 9.27344 6.99219 9.27344ZM7.60449 11.7173H9.5542C9.95882 11.7173 10.1611 11.5168 10.1611 11.1157V10.4443C10.1611 10.0397 9.95882 9.8374 9.5542 9.8374H7.60449C7.19987 9.8374 6.99756 10.0397 6.99756 10.4443V11.1157C6.99756 11.5168 7.19987 11.7173 7.60449 11.7173ZM11.3428 11.395H12.9541C13.3587 11.395 13.561 11.1927 13.561 10.7881V8.02734C13.561 7.6263 13.3587 7.42578 12.9541 7.42578H11.3428C10.9417 7.42578 10.7412 7.6263 10.7412 8.02734V10.7881C10.7412 11.1927 10.9417 11.395 11.3428 11.395Z" fill="white"/>
</svg>
