<svg width="20" height="21" viewBox="0 0 20 21" fill="none" xmlns="http://www.w3.org/2000/svg">
<g id="Frame" clip-path="url(#clip0_7982_8)">
<path id="Vector" d="M7.50002 4.66669H5.83335C5.39133 4.66669 4.9674 4.84228 4.65484 5.15484C4.34228 5.4674 4.16669 5.89133 4.16669 6.33335V16.3334C4.16669 16.7754 4.34228 17.1993 4.65484 17.5119C4.9674 17.8244 5.39133 18 5.83335 18H14.1667C14.6087 18 15.0326 17.8244 15.3452 17.5119C15.6578 17.1993 15.8334 16.7754 15.8334 16.3334V6.33335C15.8334 5.89133 15.6578 5.4674 15.3452 5.15484C15.0326 4.84228 14.6087 4.66669 14.1667 4.66669H12.5" stroke="#C7C7CC" stroke-linecap="round" stroke-linejoin="round"/>
<path id="Vector_2" d="M7.5 4.66667C7.5 4.22464 7.6756 3.80072 7.98816 3.48816C8.30072 3.17559 8.72464 3 9.16667 3H10.8333C11.2754 3 11.6993 3.17559 12.0118 3.48816C12.3244 3.80072 12.5 4.22464 12.5 4.66667C12.5 5.10869 12.3244 5.53262 12.0118 5.84518C11.6993 6.15774 11.2754 6.33333 10.8333 6.33333H9.16667C8.72464 6.33333 8.30072 6.15774 7.98816 5.84518C7.6756 5.53262 7.5 5.10869 7.5 4.66667Z" stroke="#C7C7CC" stroke-linecap="round" stroke-linejoin="round"/>
<path id="Vector_3" d="M7.5 10.5H12.5" stroke="#C7C7CC" stroke-linecap="round" stroke-linejoin="round"/>
<path id="Vector_4" d="M7.5 13.8333H12.5" stroke="#C7C7CC" stroke-linecap="round" stroke-linejoin="round"/>
</g>
<defs>
<clipPath id="clip0_7982_8">
<rect width="20" height="20" fill="white" transform="translate(0 0.5)"/>
</clipPath>
</defs>
</svg>
