<svg width="12" height="10" viewBox="0 0 12 10" fill="none" xmlns="http://www.w3.org/2000/svg">
<path d="M1.17773 5.0791H4.33691C4.64616 5.0791 4.87891 5.00098 5.03516 4.84473C5.19141 4.68522 5.26953 4.44434 5.26953 4.12207V1.93945C5.26953 1.61719 5.19141 1.37793 5.03516 1.22168C4.87891 1.06543 4.64616 0.987305 4.33691 0.987305H1.17773C0.86849 0.987305 0.635742 1.06543 0.479492 1.22168C0.323242 1.37793 0.245117 1.61719 0.245117 1.93945V4.12207C0.245117 4.44434 0.323242 4.68522 0.479492 4.84473C0.635742 5.00098 0.86849 5.0791 1.17773 5.0791ZM1.1875 4.39062C1.10286 4.39062 1.03939 4.36784 0.99707 4.32227C0.954753 4.27669 0.933594 4.20996 0.933594 4.12207V1.93945C0.933594 1.85156 0.954753 1.78646 0.99707 1.74414C1.03939 1.69857 1.10286 1.67578 1.1875 1.67578H4.32227C4.4069 1.67578 4.47038 1.69857 4.5127 1.74414C4.55827 1.78646 4.58105 1.85156 4.58105 1.93945V4.12207C4.58105 4.20996 4.55827 4.27669 4.5127 4.32227C4.47038 4.36784 4.4069 4.39062 4.32227 4.39062H1.1875ZM7.0127 5.0791H10.1719C10.4811 5.0791 10.7139 5.00098 10.8701 4.84473C11.0264 4.68522 11.1045 4.44434 11.1045 4.12207V1.93945C11.1045 1.61719 11.0264 1.37793 10.8701 1.22168C10.7139 1.06543 10.4811 0.987305 10.1719 0.987305H7.0127C6.70345 0.987305 6.4707 1.06543 6.31445 1.22168C6.1582 1.37793 6.08008 1.61719 6.08008 1.93945V4.12207C6.08008 4.44434 6.1582 4.68522 6.31445 4.84473C6.4707 5.00098 6.70345 5.0791 7.0127 5.0791ZM7.02734 4.39062C6.93945 4.39062 6.87435 4.36784 6.83203 4.32227C6.78971 4.27669 6.76855 4.20996 6.76855 4.12207V1.93945C6.76855 1.85156 6.78971 1.78646 6.83203 1.74414C6.87435 1.69857 6.93945 1.67578 7.02734 1.67578H10.1621C10.2467 1.67578 10.3102 1.69857 10.3525 1.74414C10.3949 1.78646 10.416 1.85156 10.416 1.93945V4.12207C10.416 4.20996 10.3949 4.27669 10.3525 4.32227C10.3102 4.36784 10.2467 4.39062 10.1621 4.39062H7.02734ZM1.17773 9.97656H4.33691C4.64616 9.97656 4.87891 9.89844 5.03516 9.74219C5.19141 9.58594 5.26953 9.34668 5.26953 9.02441V6.83691C5.26953 6.5179 5.19141 6.28027 5.03516 6.12402C4.87891 5.96452 4.64616 5.88477 4.33691 5.88477H1.17773C0.86849 5.88477 0.635742 5.96452 0.479492 6.12402C0.323242 6.28027 0.245117 6.5179 0.245117 6.83691V9.02441C0.245117 9.34668 0.323242 9.58594 0.479492 9.74219C0.635742 9.89844 0.86849 9.97656 1.17773 9.97656ZM1.1875 9.28809C1.10286 9.28809 1.03939 9.2653 0.99707 9.21973C0.954753 9.17741 0.933594 9.1123 0.933594 9.02441V6.8418C0.933594 6.75065 0.954753 6.68392 0.99707 6.6416C1.03939 6.59603 1.10286 6.57324 1.1875 6.57324H4.32227C4.4069 6.57324 4.47038 6.59603 4.5127 6.6416C4.55827 6.68392 4.58105 6.75065 4.58105 6.8418V9.02441C4.58105 9.1123 4.55827 9.17741 4.5127 9.21973C4.47038 9.2653 4.4069 9.28809 4.32227 9.28809H1.1875ZM7.0127 9.97656H10.1719C10.4811 9.97656 10.7139 9.89844 10.8701 9.74219C11.0264 9.58594 11.1045 9.34668 11.1045 9.02441V6.83691C11.1045 6.5179 11.0264 6.28027 10.8701 6.12402C10.7139 5.96452 10.4811 5.88477 10.1719 5.88477H7.0127C6.70345 5.88477 6.4707 5.96452 6.31445 6.12402C6.1582 6.28027 6.08008 6.5179 6.08008 6.83691V9.02441C6.08008 9.34668 6.1582 9.58594 6.31445 9.74219C6.4707 9.89844 6.70345 9.97656 7.0127 9.97656ZM7.02734 9.28809C6.93945 9.28809 6.87435 9.2653 6.83203 9.21973C6.78971 9.17741 6.76855 9.1123 6.76855 9.02441V6.8418C6.76855 6.75065 6.78971 6.68392 6.83203 6.6416C6.87435 6.59603 6.93945 6.57324 7.02734 6.57324H10.1621C10.2467 6.57324 10.3102 6.59603 10.3525 6.6416C10.3949 6.68392 10.416 6.75065 10.416 6.8418V9.02441C10.416 9.1123 10.3949 9.17741 10.3525 9.21973C10.3102 9.2653 10.2467 9.28809 10.1621 9.28809H7.02734Z" fill="white"/>
</svg>
