<svg width="36" height="36" viewBox="0 0 36 36" fill="none" xmlns="http://www.w3.org/2000/svg">
<rect width="36" height="36" rx="18" fill="#C4C4C4" fill-opacity="0.2"/>
<path d="M15.4272 24.7432H19.5654V19.3159C19.5654 19.1646 19.519 19.0425 19.4263 18.9497C19.3335 18.8569 19.2139 18.8105 19.0674 18.8105H15.9326C15.7812 18.8105 15.6592 18.8569 15.5664 18.9497C15.4736 19.0425 15.4272 19.1646 15.4272 19.3159V24.7432ZM12.5562 25.3071H22.4219C22.9053 25.3071 23.2788 25.1753 23.5425 24.9116C23.8062 24.6528 23.938 24.2866 23.938 23.813V15.7417L23.0371 15.1045V23.5859C23.0371 23.8594 22.9688 24.0645 22.832 24.2012C22.7002 24.3379 22.5 24.4062 22.2314 24.4062H12.7466C12.478 24.4062 12.2754 24.3379 12.1387 24.2012C12.0068 24.0645 11.9409 23.8594 11.9409 23.5859V15.1191L11.04 15.7417V23.813C11.04 24.2915 11.1719 24.6602 11.4355 24.9189C11.6992 25.1777 12.0728 25.3071 12.5562 25.3071ZM9.05518 17.1699C9.05518 17.2822 9.09668 17.3848 9.17969 17.4775C9.26758 17.5654 9.38477 17.6094 9.53125 17.6094C9.60938 17.6094 9.68018 17.5923 9.74365 17.5581C9.80713 17.5239 9.86816 17.4849 9.92676 17.4409L17.2217 11.3179C17.3096 11.2397 17.4023 11.1982 17.5 11.1934C17.5977 11.1885 17.6953 11.23 17.793 11.3179L25.0806 17.4409C25.1343 17.4849 25.1929 17.5239 25.2563 17.5581C25.3198 17.5923 25.3906 17.6094 25.4688 17.6094C25.5957 17.6094 25.7056 17.5728 25.7983 17.4995C25.8911 17.4214 25.9375 17.3164 25.9375 17.1846C25.9375 17.0283 25.8765 16.8989 25.7544 16.7964L18.291 10.5195C18.0469 10.3096 17.7856 10.2046 17.5073 10.2046C17.229 10.2046 16.9678 10.3096 16.7236 10.5195L9.24561 16.7964C9.11865 16.8989 9.05518 17.0234 9.05518 17.1699ZM22.3779 14.2622L23.938 15.5879V12.2188C23.938 12.082 23.8965 11.9746 23.8135 11.8965C23.7354 11.8184 23.6304 11.7793 23.4985 11.7793H22.8101C22.6831 11.7793 22.5781 11.8184 22.4951 11.8965C22.417 11.9746 22.3779 12.082 22.3779 12.2188V14.2622Z" fill="black"/>
</svg>
