<svg width="11" height="14" viewBox="0 0 11 14" fill="none" xmlns="http://www.w3.org/2000/svg">
<path d="M1.64844 13.1797C1.85677 13.1797 2.05729 13.1146 2.25 12.9844L2.65625 12.7109C2.92708 12.5286 3.21875 12.2995 3.53125 12.0234C3.84375 11.7422 4.14583 11.4479 4.4375 11.1406C4.72917 10.8281 4.98177 10.5286 5.19531 10.2422C5.40885 9.95052 5.54948 9.70052 5.61719 9.49219H5.64062C5.70833 9.70052 5.84635 9.94792 6.05469 10.2344C6.26823 10.5208 6.52083 10.8203 6.8125 11.1328C7.10417 11.4453 7.40625 11.7422 7.71875 12.0234C8.03125 12.2995 8.32552 12.5286 8.60156 12.7109L9.00781 12.9844C9.20052 13.1146 9.39844 13.1797 9.60156 13.1797C9.79948 13.1797 9.95833 13.1198 10.0781 13C10.2031 12.875 10.2656 12.7161 10.2656 12.5234C10.2656 12.263 10.1536 12.0625 9.92969 11.9219L9.3125 11.5234C9.04167 11.3411 8.73438 11.099 8.39062 10.7969C8.04688 10.4948 7.71615 10.1458 7.39844 9.75C7.08594 9.35417 6.82552 8.92969 6.61719 8.47656C6.41406 8.02344 6.3125 7.55729 6.3125 7.07812V3.09375H4.94531V7.07812C4.94531 7.55729 4.84115 8.02344 4.63281 8.47656C4.42969 8.92969 4.16927 9.35417 3.85156 9.75C3.53385 10.1406 3.20312 10.4896 2.85938 10.7969C2.52083 11.099 2.21615 11.3411 1.94531 11.5234L1.32812 11.9219C1.10417 12.0625 0.992188 12.2656 0.992188 12.5312C0.992188 12.7083 1.05208 12.862 1.17188 12.9922C1.29167 13.1172 1.45052 13.1797 1.64844 13.1797ZM3.83594 4.14844H7.42188C7.69792 4.14844 7.86979 4.06771 7.9375 3.90625C8.01042 3.73958 7.96875 3.54948 7.8125 3.33594L6.07031 0.84375C5.94531 0.666667 5.79948 0.578125 5.63281 0.578125C5.46615 0.572917 5.31771 0.661458 5.1875 0.84375L3.4375 3.32812C3.28646 3.54688 3.24479 3.73958 3.3125 3.90625C3.38021 4.06771 3.55469 4.14844 3.83594 4.14844Z" fill="white"/>
</svg>
