<svg width="50" height="50" viewBox="0 0 50 50" fill="none" xmlns="http://www.w3.org/2000/svg">
<circle cx="25" cy="25" r="25" fill="#D9D9D9"/>
<path d="M17.0732 36.0439C17.3662 36.0439 17.6494 35.9512 17.9229 35.7656L18.7139 35.2236C19.29 34.8428 19.8906 34.3643 20.5156 33.7881C21.1406 33.2119 21.7314 32.6064 22.2881 31.9717C22.8545 31.3369 23.333 30.7314 23.7236 30.1553C24.124 29.5693 24.373 29.0713 24.4707 28.6611H24.5293C24.627 29.0713 24.8711 29.5693 25.2617 30.1553C25.6523 30.7314 26.1309 31.3369 26.6973 31.9717C27.2637 32.6064 27.8594 33.2119 28.4844 33.7881C29.1094 34.3643 29.7051 34.8428 30.2715 35.2236L31.0771 35.7656C31.3506 35.9512 31.6338 36.0439 31.9268 36.0439C32.21 36.0439 32.4346 35.9561 32.6006 35.7803C32.7764 35.6045 32.8643 35.3799 32.8643 35.1064C32.8643 34.7451 32.6982 34.457 32.3662 34.2422L31.2969 33.5391C30.7109 33.1484 30.0811 32.6455 29.4072 32.0303C28.7334 31.415 28.0986 30.7266 27.5029 29.9648C26.9072 29.1934 26.4189 28.4023 26.0381 27.5918C25.6572 26.7715 25.4668 25.9756 25.4668 25.2041V17.6162H23.5332V25.2041C23.5332 25.9756 23.3428 26.7715 22.9619 27.5918C22.5811 28.4023 22.0879 29.1885 21.4824 29.9502C20.8867 30.7119 20.252 31.4053 19.5781 32.0303C18.9141 32.6455 18.2891 33.1484 17.7031 33.5391L16.6338 34.2422C16.3018 34.457 16.1357 34.75 16.1357 35.1211C16.1357 35.375 16.2188 35.5947 16.3848 35.7803C16.5605 35.9561 16.79 36.0439 17.0732 36.0439ZM21.2188 19.4766H27.7812C28.2012 19.4766 28.4648 19.3496 28.5723 19.0957C28.6895 18.8418 28.626 18.5439 28.3818 18.2021L25.1885 13.6465C24.9932 13.3633 24.7637 13.2217 24.5 13.2217C24.2461 13.2217 24.0166 13.3633 23.8115 13.6465L20.6182 18.1875C20.374 18.5391 20.3057 18.8418 20.4131 19.0957C20.5303 19.3496 20.7988 19.4766 21.2188 19.4766Z" fill="black"/>
</svg>
