<svg width="17" height="17" viewBox="0 0 17 17" fill="none" xmlns="http://www.w3.org/2000/svg">
<rect width="17" height="17" rx="4" fill="#A667E5"/>
<path d="M4.84668 12.7666H12.7227C13.1914 12.7666 13.5544 12.6315 13.8115 12.3613C14.0719 12.0944 14.2021 11.7005 14.2021 11.1797V5.7793C14.2021 5.26172 14.0671 4.86947 13.7969 4.60254C13.5267 4.33236 13.1279 4.19727 12.6006 4.19727H4.72461C4.25586 4.19727 3.89128 4.33236 3.63086 4.60254C3.3737 4.86947 3.24512 5.26172 3.24512 5.7793V11.1797C3.24512 11.7005 3.38021 12.0944 3.65039 12.3613C3.92057 12.6315 4.31934 12.7666 4.84668 12.7666ZM4.84668 11.8584C4.61882 11.8584 4.44466 11.7998 4.32422 11.6826C4.20378 11.5622 4.14355 11.3831 4.14355 11.1455V5.81348C4.14355 5.5791 4.20378 5.40332 4.32422 5.28613C4.44466 5.16569 4.61882 5.10547 4.84668 5.10547H12.6006C12.8252 5.10547 12.9977 5.16569 13.1182 5.28613C13.2419 5.40332 13.3037 5.58073 13.3037 5.81836V11.1504C13.3037 11.3848 13.2419 11.5622 13.1182 11.6826C12.9977 11.7998 12.8252 11.8584 12.6006 11.8584H4.84668ZM8.7334 9.8125C8.91569 9.8125 9.0931 9.77344 9.26562 9.69531C9.43815 9.61393 9.6123 9.48698 9.78809 9.31445L13.7188 5.45215L13.1328 4.86133L9.29004 8.65527C9.18587 8.75618 9.08822 8.82943 8.99707 8.875C8.90918 8.92057 8.82129 8.94336 8.7334 8.94336C8.639 8.94336 8.54622 8.92057 8.45508 8.875C8.36719 8.82617 8.27279 8.75293 8.17188 8.65527L4.31445 4.8418L3.72363 5.43262L7.67383 9.31445C7.84635 9.48698 8.02051 9.61393 8.19629 9.69531C8.37207 9.77344 8.55111 9.8125 8.7334 9.8125ZM13.0693 12.0293L13.6553 11.4385L10.54 8.35254L9.94922 8.93848L13.0693 12.0293ZM3.80176 11.4434L4.3877 12.0342L7.5127 8.93848L6.92188 8.35254L3.80176 11.4434Z" fill="white"/>
</svg>
