<svg width="20" height="20" viewBox="0 0 20 20" fill="none" xmlns="http://www.w3.org/2000/svg">
<rect width="20" height="20" rx="4" fill="#2EB6AE"/>
<path d="M3.12451 5.66943C3.12451 5.80908 3.17285 5.92904 3.26953 6.0293C3.36979 6.12956 3.48796 6.17969 3.62402 6.17969H5.31055L6.14307 11.8784C6.20394 12.2795 6.34359 12.5964 6.56201 12.8291C6.78402 13.0618 7.10091 13.1782 7.5127 13.1782H13.7646C13.89 13.1782 13.9992 13.1335 14.0923 13.0439C14.189 12.9544 14.2373 12.8416 14.2373 12.7056C14.2373 12.5659 14.189 12.4531 14.0923 12.3672C13.9992 12.2777 13.89 12.2329 13.7646 12.2329H7.63086C7.50195 12.2329 7.39632 12.1899 7.31396 12.104C7.23519 12.0181 7.18685 11.9053 7.16895 11.7656L7.08838 11.2124H13.8022C14.214 11.2124 14.5309 11.096 14.7529 10.8633C14.9749 10.6305 15.1164 10.3083 15.1772 9.89648L15.5801 7.2002C15.5872 7.16439 15.5926 7.12679 15.5962 7.0874C15.5998 7.04443 15.6016 7.00684 15.6016 6.97461C15.6016 6.82422 15.5496 6.70068 15.4458 6.604C15.3455 6.50374 15.2023 6.45361 15.0161 6.45361H6.40088L6.30957 5.86279C6.27734 5.63363 6.20215 5.46175 6.08398 5.34717C5.9694 5.229 5.76172 5.16992 5.46094 5.16992H3.62402C3.48796 5.16992 3.36979 5.22005 3.26953 5.32031C3.17285 5.42057 3.12451 5.53695 3.12451 5.66943ZM7.01318 14.9346C7.01318 15.1064 7.05436 15.2622 7.13672 15.4019C7.22266 15.5451 7.33545 15.6579 7.4751 15.7402C7.61833 15.8226 7.77588 15.8638 7.94775 15.8638C8.20557 15.8638 8.42578 15.7725 8.6084 15.5898C8.79102 15.4108 8.88232 15.1924 8.88232 14.9346C8.88232 14.6732 8.79102 14.4512 8.6084 14.2686C8.42578 14.0895 8.20557 14 7.94775 14C7.77588 14 7.61833 14.0412 7.4751 14.1235C7.33545 14.2095 7.22266 14.3223 7.13672 14.4619C7.05436 14.6051 7.01318 14.7627 7.01318 14.9346ZM11.9814 14.9346C11.9814 15.1924 12.0728 15.4108 12.2554 15.5898C12.438 15.7725 12.6582 15.8638 12.916 15.8638C13.1774 15.8638 13.3976 15.7725 13.5767 15.5898C13.7593 15.4108 13.8506 15.1924 13.8506 14.9346C13.8506 14.6732 13.7593 14.4512 13.5767 14.2686C13.3976 14.0895 13.1774 14 12.916 14C12.7441 14 12.5866 14.0412 12.4434 14.1235C12.3037 14.2095 12.1909 14.3223 12.105 14.4619C12.0226 14.6051 11.9814 14.7627 11.9814 14.9346Z" fill="white"/>
</svg>
