<svg width="36" height="36" viewBox="0 0 36 36" fill="none" xmlns="http://www.w3.org/2000/svg">
<rect width="36" height="36" rx="18" fill="#C4C4C4" fill-opacity="0.2"/>
<path d="M21.4131 24.6846C21.999 24.6846 22.5117 24.5967 22.9512 24.4209C23.3955 24.2451 23.8032 23.9546 24.1743 23.5493C24.1987 23.5298 24.2207 23.5078 24.2402 23.4834C24.2598 23.459 24.2817 23.437 24.3062 23.4175C24.5259 23.1831 24.687 22.9463 24.7896 22.707C24.897 22.4678 24.9507 22.2358 24.9507 22.0112C24.9507 21.772 24.8823 21.5425 24.7456 21.3228C24.6138 21.103 24.4062 20.8979 24.123 20.7075L22.0063 19.25C21.7036 19.0449 21.3813 18.9399 21.0396 18.9351C20.7026 18.9253 20.3755 19.0767 20.0581 19.3892L19.5234 19.9165C19.4404 19.9995 19.355 20.0483 19.2671 20.063C19.1792 20.0728 19.0864 20.0483 18.9888 19.9897C18.8667 19.9214 18.7031 19.8091 18.498 19.6528C18.2979 19.4917 18.0806 19.311 17.8462 19.1108C17.6167 18.9058 17.3994 18.6982 17.1943 18.4883C16.9648 18.2637 16.7573 18.0513 16.5718 17.8511C16.3911 17.6509 16.23 17.4604 16.0884 17.2798C15.9517 17.0942 15.832 16.916 15.7295 16.7451C15.6758 16.6426 15.6562 16.5474 15.6709 16.4595C15.6855 16.3716 15.7344 16.2886 15.8174 16.2104L16.3374 15.6758C16.6499 15.3584 16.8037 15.0288 16.7988 14.687C16.7939 14.3452 16.689 14.0254 16.4839 13.7275L15.019 11.6035C14.8237 11.3252 14.6162 11.1201 14.3965 10.9883C14.1816 10.8564 13.957 10.7881 13.7227 10.7832C13.2588 10.7734 12.79 10.9883 12.3164 11.4277C12.292 11.4521 12.2676 11.4741 12.2432 11.4937C12.2236 11.5132 12.2017 11.5327 12.1772 11.5522C11.7817 11.9185 11.4937 12.3237 11.313 12.7681C11.1372 13.2075 11.0493 13.7178 11.0493 14.2988C11.0493 14.9824 11.1909 15.7051 11.4741 16.4668C11.7622 17.2236 12.1724 17.9951 12.7046 18.7812C13.2417 19.5625 13.8887 20.3315 14.6455 21.0884C15.3975 21.8354 16.1641 22.4775 16.9453 23.0146C17.7266 23.5518 18.4932 23.9644 19.2451 24.2524C20.002 24.5405 20.7246 24.6846 21.4131 24.6846ZM21.4131 23.7983C20.793 23.8081 20.1313 23.6689 19.4282 23.3809C18.7251 23.0977 18.0195 22.7046 17.3115 22.2017C16.6084 21.6987 15.9346 21.1299 15.29 20.4951C14.6455 19.8506 14.0669 19.1694 13.5542 18.4517C13.0464 17.729 12.646 17.0112 12.353 16.2983C12.0649 15.5854 11.9233 14.9189 11.9282 14.2988C11.9331 13.8887 12.0063 13.5078 12.1479 13.1562C12.2944 12.7998 12.5166 12.4873 12.8145 12.2188C12.834 12.1992 12.8511 12.1821 12.8657 12.1675C12.8853 12.1528 12.9048 12.1382 12.9243 12.1235C13.0562 11.9966 13.188 11.9014 13.3198 11.8379C13.4565 11.7744 13.5859 11.7427 13.708 11.7427C13.9473 11.7427 14.1426 11.8574 14.2939 12.0869L15.7148 14.2036C15.8027 14.3403 15.8467 14.4844 15.8467 14.6357C15.8467 14.7871 15.771 14.936 15.6196 15.0825L15.0264 15.6758C14.8066 15.8955 14.6919 16.1372 14.6821 16.4009C14.6772 16.6597 14.7505 16.8989 14.9019 17.1187C15.0776 17.3726 15.3193 17.6802 15.627 18.0415C15.9395 18.4028 16.2617 18.752 16.5938 19.0889C16.8184 19.3086 17.0527 19.5308 17.2969 19.7554C17.5459 19.98 17.7852 20.1875 18.0146 20.3779C18.2441 20.5635 18.4443 20.7148 18.6152 20.832C18.835 20.9785 19.0742 21.0493 19.333 21.0444C19.5918 21.0396 19.8311 20.9272 20.0508 20.7075L20.644 20.1069C20.7954 19.9556 20.9468 19.8799 21.0981 19.8799C21.2495 19.8799 21.3936 19.9238 21.5303 20.0117L23.647 21.4326C23.7642 21.5156 23.8496 21.606 23.9033 21.7036C23.957 21.8013 23.9839 21.9087 23.9839 22.0259C23.9839 22.2798 23.8569 22.541 23.603 22.8096C23.5884 22.8291 23.5737 22.8486 23.5591 22.8682C23.5493 22.8828 23.5347 22.8999 23.5151 22.9194C23.2417 23.2173 22.9268 23.437 22.5703 23.5786C22.2139 23.7202 21.8281 23.7935 21.4131 23.7983Z" fill="black"/>
</svg>
