<svg width="20" height="20" viewBox="0 0 20 20" fill="none" xmlns="http://www.w3.org/2000/svg">
<rect width="20" height="20" rx="4" fill="#E59467"/>
<path d="M5.14453 13.3984C5.14453 13.9714 5.29313 14.4046 5.59033 14.6982C5.88753 14.9954 6.32617 15.144 6.90625 15.144H13.228C13.7401 15.144 14.1393 14.9954 14.4258 14.6982C14.7122 14.4046 14.8555 13.9714 14.8555 13.3984V7.84473C14.8555 7.27181 14.7051 6.83854 14.4043 6.54492C14.1071 6.24772 13.6702 6.09912 13.0938 6.09912H12.3257C12.3185 5.69808 12.2093 5.33105 11.998 4.99805C11.7868 4.66504 11.5057 4.40007 11.1548 4.20312C10.8075 4.0026 10.4225 3.90234 10 3.90234C9.57389 3.90234 9.18538 4.0026 8.83447 4.20312C8.48714 4.40007 8.20785 4.66504 7.99658 4.99805C7.7889 5.33105 7.67969 5.69808 7.66895 6.09912H6.90625C6.32617 6.09912 5.88753 6.24772 5.59033 6.54492C5.29313 6.83854 5.14453 7.27181 5.14453 7.84473V13.3984ZM8.69482 6.09912C8.6984 5.86637 8.75749 5.65511 8.87207 5.46533C8.99023 5.27555 9.146 5.12516 9.33936 5.01416C9.53271 4.89958 9.75293 4.84229 10 4.84229C10.2435 4.84229 10.4619 4.89958 10.6553 5.01416C10.8522 5.12516 11.008 5.27555 11.1226 5.46533C11.2371 5.65511 11.2962 5.86637 11.2998 6.09912H8.69482Z" fill="white"/>
</svg>
