<svg width="20" height="20" viewBox="0 0 20 20" fill="none" xmlns="http://www.w3.org/2000/svg">
<rect width="20" height="20" rx="4" fill="#C669A1"/>
<path d="M5.64453 13.3984C5.64453 13.9714 5.79313 14.4046 6.09033 14.6982C6.38753 14.9954 6.82617 15.144 7.40625 15.144H13.728C14.2401 15.144 14.6393 14.9954 14.9258 14.6982C15.2122 14.4046 15.3555 13.9714 15.3555 13.3984V7.84473C15.3555 7.27181 15.2051 6.83854 14.9043 6.54492C14.6071 6.24772 14.1702 6.09912 13.5938 6.09912H12.8257C12.8185 5.69808 12.7093 5.33105 12.498 4.99805C12.2868 4.66504 12.0057 4.40007 11.6548 4.20312C11.3075 4.0026 10.9225 3.90234 10.5 3.90234C10.0739 3.90234 9.68538 4.0026 9.33447 4.20312C8.98714 4.40007 8.70785 4.66504 8.49658 4.99805C8.2889 5.33105 8.17969 5.69808 8.16895 6.09912H7.40625C6.82617 6.09912 6.38753 6.24772 6.09033 6.54492C5.79313 6.83854 5.64453 7.27181 5.64453 7.84473V13.3984ZM9.19482 6.09912C9.1984 5.86637 9.25749 5.65511 9.37207 5.46533C9.49023 5.27555 9.646 5.12516 9.83936 5.01416C10.0327 4.89958 10.2529 4.84229 10.5 4.84229C10.7435 4.84229 10.9619 4.89958 11.1553 5.01416C11.3522 5.12516 11.508 5.27555 11.6226 5.46533C11.7371 5.65511 11.7962 5.86637 11.7998 6.09912H9.19482Z" fill="white"/>
</svg>
