<svg width="10" height="10" viewBox="0 0 10 10" fill="none" xmlns="http://www.w3.org/2000/svg">
<path opacity="0.4" d="M1.92871 9.0791H8.06641C8.86393 9.0791 9.2627 8.81868 9.2627 8.29785C9.2627 7.97884 9.16504 7.63867 8.96973 7.27734C8.77441 6.91602 8.49121 6.57585 8.12012 6.25684C7.75228 5.93457 7.30469 5.67253 6.77734 5.4707C6.25326 5.26888 5.66081 5.16797 5 5.16797C4.33594 5.16797 3.74023 5.26888 3.21289 5.4707C2.6888 5.67253 2.24121 5.93457 1.87012 6.25684C1.50228 6.57585 1.2207 6.91602 1.02539 7.27734C0.830078 7.63867 0.732422 7.97884 0.732422 8.29785C0.732422 8.81868 1.13118 9.0791 1.92871 9.0791ZM1.69922 8.3418C1.63411 8.3418 1.58691 8.33203 1.55762 8.3125C1.53158 8.29297 1.51855 8.25716 1.51855 8.20508C1.51855 8.00651 1.59342 7.77702 1.74316 7.5166C1.89616 7.25293 2.12077 6.99902 2.41699 6.75488C2.71322 6.51074 3.0778 6.30892 3.51074 6.14941C3.94368 5.98665 4.4401 5.90527 5 5.90527C5.5599 5.90527 6.05469 5.98665 6.48438 6.14941C6.91732 6.30892 7.2819 6.51074 7.57812 6.75488C7.87435 6.99902 8.09733 7.25293 8.24707 7.5166C8.40007 7.77702 8.47656 8.00651 8.47656 8.20508C8.47656 8.25716 8.46191 8.29297 8.43262 8.3125C8.40658 8.33203 8.36263 8.3418 8.30078 8.3418H1.69922ZM5 4.5625C5.38737 4.5625 5.74056 4.45833 6.05957 4.25C6.37858 4.04167 6.63249 3.76497 6.82129 3.41992C7.01335 3.07161 7.10938 2.6875 7.10938 2.26758C7.10938 1.85091 7.01497 1.47493 6.82617 1.13965C6.63737 0.801107 6.38346 0.532552 6.06445 0.333984C5.74544 0.135417 5.39062 0.0361328 5 0.0361328C4.61263 0.0361328 4.25944 0.137044 3.94043 0.338867C3.62142 0.54069 3.36589 0.810872 3.17383 1.14941C2.98503 1.48796 2.89062 1.86393 2.89062 2.27734C2.89062 2.69401 2.98503 3.0765 3.17383 3.4248C3.36589 3.76986 3.62142 4.04655 3.94043 4.25488C4.25944 4.45996 4.61263 4.5625 5 4.5625ZM5 3.8252C4.76237 3.8252 4.54264 3.75684 4.34082 3.62012C4.14225 3.48014 3.98112 3.29297 3.85742 3.05859C3.73698 2.82422 3.67676 2.5638 3.67676 2.27734C3.67676 1.99414 3.73698 1.74023 3.85742 1.51562C3.97786 1.28776 4.13737 1.1071 4.33594 0.973633C4.53776 0.840169 4.75911 0.773438 5 0.773438C5.24414 0.773438 5.46549 0.838542 5.66406 0.96875C5.86589 1.09896 6.02539 1.27799 6.14258 1.50586C6.26302 1.73047 6.32324 1.98438 6.32324 2.26758C6.32324 2.55404 6.26302 2.81608 6.14258 3.05371C6.02214 3.28809 5.861 3.47526 5.65918 3.61523C5.46061 3.75521 5.24089 3.8252 5 3.8252Z" fill="black"/>
</svg>
