<svg width="26" height="26" viewBox="0 0 26 26" fill="none" xmlns="http://www.w3.org/2000/svg">
<g id="Frame" clip-path="url(#clip0_6673_8008)">
<path id="Vector" d="M3.625 10.9167C3.625 11.8742 3.8136 12.8224 4.18005 13.7071C4.54649 14.5917 5.08359 15.3956 5.76068 16.0727C6.43777 16.7497 7.2416 17.2868 8.12627 17.6533C9.01093 18.0197 9.95911 18.2083 10.9167 18.2083C11.8742 18.2083 12.8224 18.0197 13.7071 17.6533C14.5917 17.2868 15.3956 16.7497 16.0727 16.0727C16.7497 15.3956 17.2868 14.5917 17.6533 13.7071C18.0197 12.8224 18.2083 11.8742 18.2083 10.9167C18.2083 9.95911 18.0197 9.01093 17.6533 8.12627C17.2868 7.2416 16.7497 6.43777 16.0727 5.76068C15.3956 5.08359 14.5917 4.54649 13.7071 4.18004C12.8224 3.8136 11.8742 3.625 10.9167 3.625C9.95911 3.625 9.01093 3.8136 8.12627 4.18004C7.2416 4.54649 6.43777 5.08359 5.76068 5.76068C5.08359 6.43777 4.54649 7.2416 4.18005 8.12627C3.8136 9.01093 3.625 9.95911 3.625 10.9167Z" stroke="#2C2C2E" stroke-width="1.5" stroke-linecap="round" stroke-linejoin="round"/>
<path id="Vector_2" d="M22.375 22.375L16.125 16.125" stroke="#2C2C2E" stroke-width="1.5" stroke-linecap="round" stroke-linejoin="round"/>
</g>
<defs>
<clipPath id="clip0_6673_8008">
<rect width="25" height="25" fill="white" transform="translate(0.5 0.5)"/>
</clipPath>
</defs>
</svg>
