<svg width="20" height="21" viewBox="0 0 20 21" fill="none" xmlns="http://www.w3.org/2000/svg">
<g id="Frame" clip-path="url(#clip0_7914_14)">
<path id="Vector" d="M7.50008 4.66669H5.83341C5.39139 4.66669 4.96746 4.84228 4.6549 5.15484C4.34234 5.4674 4.16675 5.89133 4.16675 6.33335V16.3334C4.16675 16.7754 4.34234 17.1993 4.6549 17.5119C4.96746 17.8244 5.39139 18 5.83341 18H14.1667C14.6088 18 15.0327 17.8244 15.3453 17.5119C15.6578 17.1993 15.8334 16.7754 15.8334 16.3334V6.33335C15.8334 5.89133 15.6578 5.4674 15.3453 5.15484C15.0327 4.84228 14.6088 4.66669 14.1667 4.66669H12.5001" stroke="#2C2C2E" stroke-linecap="round" stroke-linejoin="round"/>
<path id="Vector_2" d="M7.5 4.66667C7.5 4.22464 7.6756 3.80072 7.98816 3.48816C8.30072 3.17559 8.72464 3 9.16667 3H10.8333C11.2754 3 11.6993 3.17559 12.0118 3.48816C12.3244 3.80072 12.5 4.22464 12.5 4.66667C12.5 5.10869 12.3244 5.53262 12.0118 5.84518C11.6993 6.15774 11.2754 6.33333 10.8333 6.33333H9.16667C8.72464 6.33333 8.30072 6.15774 7.98816 5.84518C7.6756 5.53262 7.5 5.10869 7.5 4.66667Z" stroke="#2C2C2E" stroke-linecap="round" stroke-linejoin="round"/>
<path id="Vector_3" d="M7.5 10.5H12.5" stroke="#2C2C2E" stroke-linecap="round" stroke-linejoin="round"/>
<path id="Vector_4" d="M7.5 13.8333H12.5" stroke="#2C2C2E" stroke-linecap="round" stroke-linejoin="round"/>
</g>
<defs>
<clipPath id="clip0_7914_14">
<rect width="20" height="20" fill="white" transform="translate(0 0.5)"/>
</clipPath>
</defs>
</svg>
