<svg width="14" height="12" viewBox="0 0 14 12" fill="none" xmlns="http://www.w3.org/2000/svg">
<path d="M6.83496 11.9014C7.01693 11.9014 7.16081 11.8421 7.2666 11.7236C7.37663 11.6051 7.43164 11.4613 7.43164 11.292V1.58008C7.43164 1.40234 7.37663 1.25212 7.2666 1.12939C7.15658 1.00667 7.01058 0.945312 6.82861 0.945312C6.70166 0.945312 6.5874 0.974935 6.48584 1.03418C6.38428 1.09342 6.27002 1.18229 6.14307 1.30078L3.36914 3.93506C3.31836 3.98161 3.25277 4.00488 3.17236 4.00488H1.28076C0.908366 4.00488 0.616374 4.11491 0.404785 4.33496C0.193197 4.55078 0.0874023 4.85335 0.0874023 5.24268V7.63574C0.0874023 8.02507 0.193197 8.32764 0.404785 8.54346C0.616374 8.75928 0.908366 8.86719 1.28076 8.86719H3.17236C3.25277 8.86719 3.31836 8.89046 3.36914 8.93701L6.14307 11.5649C6.25732 11.6792 6.36947 11.7638 6.47949 11.8188C6.58952 11.8739 6.70801 11.9014 6.83496 11.9014ZM9.83105 9.08301C9.91992 9.13802 10.013 9.15706 10.1104 9.14014C10.2119 9.12321 10.2965 9.0682 10.3643 8.9751C10.6055 8.65771 10.798 8.27686 10.9419 7.83252C11.0858 7.38818 11.1577 6.91634 11.1577 6.41699C11.1577 5.91341 11.0858 5.44157 10.9419 5.00146C10.798 4.55713 10.6055 4.17627 10.3643 3.85889C10.2965 3.76579 10.2119 3.71077 10.1104 3.69385C10.013 3.67269 9.91992 3.69173 9.83105 3.75098C9.73796 3.81868 9.68294 3.90755 9.66602 4.01758C9.65332 4.12337 9.68506 4.22705 9.76123 4.32861C9.97282 4.61637 10.1315 4.93587 10.2373 5.28711C10.3473 5.63835 10.4023 6.01497 10.4023 6.41699C10.4023 6.81901 10.3473 7.19564 10.2373 7.54688C10.1315 7.89388 9.97282 8.21338 9.76123 8.50537C9.68929 8.60693 9.65967 8.71273 9.67236 8.82275C9.68506 8.92855 9.73796 9.0153 9.83105 9.08301ZM12.0527 10.7524C12.1458 10.8075 12.241 10.8265 12.3384 10.8096C12.4399 10.7926 12.5246 10.7376 12.5923 10.6445C12.9985 10.0986 13.318 9.4554 13.5508 8.71484C13.7835 7.97428 13.8999 7.20833 13.8999 6.41699C13.8999 5.62565 13.7835 4.85758 13.5508 4.11279C13.3223 3.368 13.0028 2.72689 12.5923 2.18945C12.5246 2.09635 12.4399 2.04134 12.3384 2.02441C12.241 2.00326 12.1458 2.0223 12.0527 2.08154C11.9639 2.14502 11.9131 2.22754 11.9004 2.3291C11.8877 2.43066 11.9173 2.53223 11.9893 2.63379C12.3574 3.14583 12.641 3.7277 12.8398 4.37939C13.043 5.03109 13.1445 5.71029 13.1445 6.41699C13.1445 7.1237 13.043 7.8029 12.8398 8.45459C12.641 9.10205 12.3574 9.68392 11.9893 10.2002C11.9173 10.2975 11.8877 10.3991 11.9004 10.5049C11.9131 10.6064 11.9639 10.689 12.0527 10.7524Z" fill="black"/>
</svg>
