<svg width="17" height="17" viewBox="0 0 17 17" fill="none" xmlns="http://www.w3.org/2000/svg">
<rect width="17" height="17" rx="4" fill="#FFCC18"/>
<path d="M4.88037 14.0476C5.00627 14.1483 5.14835 14.1843 5.30662 14.1555C5.46488 14.1268 5.63394 14.0476 5.81379 13.9181L8.61946 11.8517L11.4305 13.9181C11.6104 14.0476 11.7794 14.1268 11.9377 14.1555C12.096 14.1843 12.238 14.1483 12.3639 14.0476C12.4898 13.9541 12.5654 13.8282 12.5906 13.6699C12.6193 13.5153 12.5977 13.3318 12.5258 13.1196L11.4143 9.82295L14.247 7.78884C14.4304 7.65935 14.5581 7.52446 14.6301 7.38418C14.702 7.2403 14.7128 7.09282 14.6624 6.94175C14.6121 6.79427 14.5167 6.68456 14.3765 6.61262C14.2362 6.53709 14.0527 6.50112 13.8261 6.50471L10.3568 6.52629L9.29929 3.21345C9.23095 2.99763 9.13923 2.83397 9.02412 2.72246C8.91261 2.60736 8.77773 2.5498 8.61946 2.5498C8.46479 2.5498 8.3299 2.60736 8.2148 2.72246C8.10329 2.83397 8.01336 2.99763 7.94502 3.21345L6.8875 6.52629L3.41819 6.50471C3.19158 6.50112 3.00813 6.53709 2.86785 6.61262C2.72756 6.68456 2.63224 6.79427 2.58188 6.94175C2.53153 7.09282 2.54232 7.2403 2.61426 7.38418C2.6862 7.52446 2.81389 7.65935 2.99734 7.78884L5.82998 9.82295L4.71851 13.1196C4.64657 13.3318 4.62319 13.5153 4.64836 13.6699C4.67714 13.8282 4.75448 13.9541 4.88037 14.0476Z" fill="white"/>
</svg>
