<svg width="17" height="17" viewBox="0 0 17 17" fill="none" xmlns="http://www.w3.org/2000/svg">
<rect width="17" height="17" rx="4" fill="#E56798"/>
<path d="M12.1328 2.479H4.86769C4.2054 2.479 3.68359 3.02088 3.68359 3.6631V3.68317C3.68359 3.90393 3.86422 4.08456 4.08498 4.08456H12.9155C13.1363 4.08456 13.3169 3.90393 13.3169 3.68317V3.6631C13.3169 3.02088 12.7751 2.479 12.1328 2.479Z" fill="white"/>
<path fill-rule="evenodd" clip-rule="evenodd" d="M12.1127 5.28906H4.88772C4.66695 5.28906 4.48633 5.46969 4.48633 5.69045V14.1196C4.48633 14.3404 4.66695 14.521 4.88772 14.521H7.11543C7.33619 14.521 7.49674 14.3404 7.49674 14.1196V12.5141C7.49674 12.2933 7.69744 12.1127 7.9182 12.1127H9.08223C9.303 12.1127 9.50369 12.2933 9.50369 12.5141V14.1196C9.50369 14.3404 9.66425 14.521 9.88501 14.521H12.1127C12.3335 14.521 12.5141 14.3404 12.5141 14.1196V5.69045C12.5141 5.46969 12.3335 5.28906 12.1127 5.28906ZM7.89827 10.7078C7.89827 10.9286 7.71764 11.1092 7.49688 11.1092H6.6941C6.47334 11.1092 6.29271 10.9286 6.29271 10.7078V9.90504C6.29271 9.68427 6.47334 9.50365 6.6941 9.50365H7.49688C7.71764 9.50365 7.89827 9.68427 7.89827 9.90504V10.7078ZM7.49688 8.29946C7.71764 8.29946 7.89827 8.11884 7.89827 7.89808V7.0953C7.89827 6.87453 7.71764 6.69391 7.49688 6.69391H6.6941C6.47334 6.69391 6.29271 6.87453 6.29271 7.0953V7.89808C6.29271 8.11884 6.47334 8.29946 6.6941 8.29946H7.49688ZM10.7081 10.7078C10.7081 10.9286 10.5275 11.1092 10.3067 11.1092H9.50391C9.28315 11.1092 9.10253 10.9286 9.10253 10.7078V9.90504C9.10253 9.68427 9.28315 9.50365 9.50391 9.50365H10.3067C10.5275 9.50365 10.7081 9.68427 10.7081 9.90504V10.7078ZM10.3067 8.29946C10.5275 8.29946 10.7081 8.11884 10.7081 7.89808V7.0953C10.7081 6.87453 10.5275 6.69391 10.3067 6.69391H9.50391C9.28315 6.69391 9.10253 6.87453 9.10253 7.0953V7.89808C9.10253 8.11884 9.28315 8.29946 9.50391 8.29946H10.3067Z" fill="white"/>
</svg>
