<svg width="20" height="20" viewBox="0 0 20 20" fill="none" xmlns="http://www.w3.org/2000/svg">
<rect width="20" height="20" rx="4" fill="#7235BF"/>
<path d="M6.43945 15.8584C6.60059 15.8584 6.81185 15.819 7.07324 15.7402C7.33464 15.665 7.61572 15.5612 7.9165 15.4287C8.21729 15.2962 8.51807 15.1476 8.81885 14.9829C9.11963 14.8218 9.38997 14.6553 9.62988 14.4834C9.68359 14.4476 9.73193 14.4225 9.7749 14.4082C9.81787 14.3939 9.86084 14.3867 9.90381 14.3867C9.93604 14.3903 9.96826 14.3921 10.0005 14.3921C10.0363 14.3957 10.0667 14.3975 10.0918 14.3975C10.8688 14.3975 11.5939 14.3169 12.2671 14.1558C12.9438 13.9946 13.5544 13.7637 14.0986 13.4629C14.6465 13.1621 15.1156 12.8058 15.5059 12.394C15.8962 11.9823 16.1951 11.5239 16.4028 11.019C16.6141 10.5106 16.7197 9.9681 16.7197 9.3916C16.7197 8.70052 16.5604 8.05241 16.2417 7.44727C15.923 6.83854 15.479 6.3068 14.9097 5.85205C14.3403 5.39372 13.6779 5.03564 12.9224 4.77783C12.1704 4.52002 11.363 4.39111 10.5 4.39111C9.63704 4.39111 8.8278 4.52002 8.07227 4.77783C7.32031 5.03564 6.65967 5.39372 6.09033 5.85205C5.52458 6.3068 5.08057 6.83854 4.7583 7.44727C4.43962 8.05241 4.28027 8.70052 4.28027 9.3916C4.28027 9.9681 4.39128 10.5177 4.61328 11.0405C4.83529 11.5633 5.15576 12.0449 5.57471 12.4854C5.99365 12.9222 6.49674 13.2982 7.08398 13.6133C7.13053 13.6419 7.16097 13.6759 7.17529 13.7153C7.18962 13.7547 7.18424 13.7977 7.15918 13.8442C7.05176 14.0161 6.93001 14.1916 6.79395 14.3706C6.65788 14.5496 6.52718 14.7126 6.40186 14.8594C6.27653 15.0098 6.17806 15.1297 6.10645 15.2192C5.98828 15.3732 5.95964 15.5182 6.02051 15.6543C6.08138 15.7904 6.22103 15.8584 6.43945 15.8584Z" fill="white"/>
</svg>
