<svg width="20" height="20" viewBox="0 0 20 20" fill="none" xmlns="http://www.w3.org/2000/svg">
<rect width="20" height="20" rx="4" fill="#8FC972"/>
<path d="M9.99463 15.3159C10.0662 15.3159 10.1468 15.2944 10.2363 15.2515C10.3294 15.2085 10.4172 15.1602 10.4995 15.1064C11.5021 14.4619 12.3704 13.7852 13.1045 13.0762C13.8421 12.3672 14.4132 11.6367 14.8179 10.8848C15.2225 10.1328 15.4248 9.37549 15.4248 8.61279C15.4248 8.11865 15.3442 7.66748 15.1831 7.25928C15.0256 6.84749 14.8071 6.493 14.5278 6.1958C14.2485 5.8986 13.9227 5.66943 13.5503 5.5083C13.1779 5.34359 12.7769 5.26123 12.3472 5.26123C11.8136 5.26123 11.3481 5.3973 10.9507 5.66943C10.5568 5.93799 10.2381 6.29248 9.99463 6.73291C9.7583 6.29606 9.44141 5.94157 9.04395 5.66943C8.64648 5.3973 8.18099 5.26123 7.64746 5.26123C7.21777 5.26123 6.81673 5.34359 6.44434 5.5083C6.07552 5.66943 5.74967 5.8986 5.4668 6.1958C5.1875 6.493 4.96729 6.84749 4.80615 7.25928C4.6486 7.66748 4.56982 8.11865 4.56982 8.61279C4.56982 9.37549 4.77035 10.1328 5.17139 10.8848C5.57601 11.6367 6.14714 12.3672 6.88477 13.0762C7.62598 13.7852 8.49788 14.4619 9.50049 15.1064C9.57926 15.1602 9.6652 15.2085 9.7583 15.2515C9.8514 15.2944 9.93018 15.3159 9.99463 15.3159Z" fill="white"/>
</svg>
