<svg width="36" height="36" viewBox="0 0 36 36" fill="none" xmlns="http://www.w3.org/2000/svg">
<rect width="36" height="36" rx="18" fill="#C4C4C4" fill-opacity="0.2"/>
<path d="M12.4316 25.1899C12.7295 25.1899 13.1152 25.1045 13.5889 24.9336C14.0674 24.7676 14.5728 24.5454 15.105 24.2671C15.6421 23.9937 16.1523 23.6934 16.6357 23.3662C17.6123 23.4297 18.5498 23.3711 19.4482 23.1904C20.3467 23.0098 21.1743 22.729 21.9312 22.3481C22.688 21.9624 23.3447 21.4912 23.9014 20.9346C24.4629 20.3779 24.8975 19.7529 25.2051 19.0596C25.5127 18.3662 25.6665 17.6216 25.6665 16.8257C25.6665 15.9126 25.4565 15.0581 25.0366 14.2622C24.6216 13.4663 24.0405 12.7681 23.2935 12.1675C22.5464 11.562 21.6772 11.0884 20.686 10.7466C19.6997 10.4048 18.6377 10.2339 17.5 10.2339C16.3623 10.2339 15.2979 10.4048 14.3066 10.7466C13.3203 11.0884 12.4536 11.562 11.7065 12.1675C10.9595 12.7681 10.376 13.4663 9.95605 14.2622C9.53613 15.0581 9.32617 15.9126 9.32617 16.8257C9.32617 17.6167 9.48486 18.3687 9.80225 19.0815C10.1245 19.7944 10.5737 20.4365 11.1499 21.0078C11.7261 21.5791 12.3999 22.0454 13.1714 22.4067C13.0591 22.6167 12.9272 22.834 12.7759 23.0586C12.6294 23.2832 12.4805 23.4956 12.3291 23.6958C12.1826 23.896 12.0557 24.062 11.9482 24.1938C11.8262 24.3501 11.7627 24.5039 11.7578 24.6553C11.7578 24.8115 11.814 24.9385 11.9263 25.0361C12.0435 25.1387 12.2119 25.1899 12.4316 25.1899ZM12.959 24.2598C12.9297 24.2695 12.9102 24.2646 12.9004 24.2451C12.8955 24.2305 12.9028 24.2109 12.9224 24.1865C13.1128 23.9521 13.3325 23.6714 13.5815 23.3442C13.8354 23.022 14.0308 22.7266 14.1675 22.458C14.2456 22.3066 14.2676 22.1699 14.2334 22.0479C14.2041 21.9258 14.1016 21.8232 13.9258 21.7402C13.1592 21.3838 12.5024 20.9541 11.9556 20.4512C11.4087 19.9482 10.9888 19.3892 10.6958 18.7739C10.4028 18.1587 10.2563 17.5093 10.2563 16.8257C10.2563 16.0396 10.4419 15.3071 10.813 14.6284C11.189 13.9448 11.7065 13.3442 12.3657 12.8267C13.0249 12.3042 13.7939 11.8965 14.6729 11.6035C15.5518 11.3105 16.4941 11.1641 17.5 11.1641C18.5059 11.1641 19.4458 11.3105 20.3198 11.6035C21.1987 11.8965 21.9678 12.3042 22.627 12.8267C23.291 13.3442 23.8086 13.9448 24.1797 14.6284C24.5557 15.3071 24.7437 16.0396 24.7437 16.8257C24.7437 17.6021 24.5557 18.3345 24.1797 19.0229C23.8086 19.7065 23.291 20.3071 22.627 20.8247C21.9678 21.3423 21.1987 21.75 20.3198 22.0479C19.4458 22.3408 18.5059 22.4873 17.5 22.4873C17.3779 22.4873 17.2461 22.4849 17.1045 22.48C16.9629 22.4702 16.8091 22.4604 16.6431 22.4507C16.5259 22.4458 16.4136 22.4629 16.3062 22.502C16.1987 22.541 16.0913 22.5996 15.9839 22.6777C15.6421 22.9023 15.2783 23.1245 14.8926 23.3442C14.5068 23.564 14.1406 23.7568 13.7939 23.9229C13.4521 24.0889 13.1738 24.2012 12.959 24.2598Z" fill="black"/>
</svg>
