<svg width="11" height="7" viewBox="0 0 11 7" fill="none" xmlns="http://www.w3.org/2000/svg">
<path d="M3.50684 0.920898H9.68848C9.79915 0.920898 9.89193 0.883464 9.9668 0.808594C10.0449 0.733724 10.084 0.640951 10.084 0.530273C10.084 0.419596 10.0449 0.326823 9.9668 0.251953C9.89193 0.173828 9.79915 0.134766 9.68848 0.134766H3.50684C3.39616 0.134766 3.30176 0.173828 3.22363 0.251953C3.14876 0.326823 3.11133 0.419596 3.11133 0.530273C3.11133 0.640951 3.14876 0.733724 3.22363 0.808594C3.30176 0.883464 3.39616 0.920898 3.50684 0.920898ZM3.50684 3.875H9.68848C9.79915 3.875 9.89193 3.83757 9.9668 3.7627C10.0449 3.68457 10.084 3.59017 10.084 3.47949C10.084 3.36882 10.0449 3.27604 9.9668 3.20117C9.89193 3.1263 9.79915 3.08887 9.68848 3.08887H3.50684C3.39616 3.08887 3.30176 3.1263 3.22363 3.20117C3.14876 3.27604 3.11133 3.36882 3.11133 3.47949C3.11133 3.59017 3.14876 3.68457 3.22363 3.7627C3.30176 3.83757 3.39616 3.875 3.50684 3.875ZM3.50684 6.82422H9.68848C9.79915 6.82422 9.89193 6.78678 9.9668 6.71191C10.0449 6.63704 10.084 6.54427 10.084 6.43359C10.084 6.32292 10.0449 6.23014 9.9668 6.15527C9.89193 6.07715 9.79915 6.03809 9.68848 6.03809H3.50684C3.39616 6.03809 3.30176 6.07715 3.22363 6.15527C3.14876 6.23014 3.11133 6.32292 3.11133 6.43359C3.11133 6.54427 3.14876 6.63704 3.22363 6.71191C3.30176 6.78678 3.39616 6.82422 3.50684 6.82422ZM0.728516 1.01367H1.56348C1.69694 1.01367 1.81087 0.966471 1.90527 0.87207C2.00293 0.774414 2.05176 0.660482 2.05176 0.530273C2.05176 0.393555 2.00293 0.277995 1.90527 0.183594C1.81087 0.0891927 1.69694 0.0419922 1.56348 0.0419922H0.728516C0.595052 0.0419922 0.48112 0.0891927 0.386719 0.183594C0.292318 0.277995 0.245117 0.393555 0.245117 0.530273C0.245117 0.660482 0.292318 0.774414 0.386719 0.87207C0.48112 0.966471 0.595052 1.01367 0.728516 1.01367ZM0.728516 3.96777H1.56348C1.69694 3.96777 1.81087 3.92057 1.90527 3.82617C2.00293 3.72852 2.05176 3.61296 2.05176 3.47949C2.05176 3.34603 2.00293 3.2321 1.90527 3.1377C1.81087 3.04329 1.69694 2.99609 1.56348 2.99609H0.728516C0.595052 2.99609 0.48112 3.04329 0.386719 3.1377C0.292318 3.2321 0.245117 3.34603 0.245117 3.47949C0.245117 3.61296 0.292318 3.72852 0.386719 3.82617C0.48112 3.92057 0.595052 3.96777 0.728516 3.96777ZM0.728516 6.91699H1.56348C1.69694 6.91699 1.81087 6.86979 1.90527 6.77539C2.00293 6.68099 2.05176 6.56706 2.05176 6.43359C2.05176 6.29688 2.00293 6.18132 1.90527 6.08691C1.81087 5.99251 1.69694 5.94531 1.56348 5.94531H0.728516C0.595052 5.94531 0.48112 5.99251 0.386719 6.08691C0.292318 6.18132 0.245117 6.29688 0.245117 6.43359C0.245117 6.56706 0.292318 6.68099 0.386719 6.77539C0.48112 6.86979 0.595052 6.91699 0.728516 6.91699Z" fill="white"/>
</svg>
