<svg width="13" height="12" viewBox="0 0 13 12" fill="none" xmlns="http://www.w3.org/2000/svg">
<path d="M6.73633 3.81787L5.91992 4.64502C6.24219 4.67367 6.51969 4.73812 6.75244 4.83838C6.98519 4.93864 7.18213 5.07113 7.34326 5.23584C7.64762 5.5402 7.84993 5.875 7.9502 6.24023C8.05046 6.60547 8.05046 6.9707 7.9502 7.33594C7.85352 7.70117 7.65479 8.03418 7.354 8.33496L5.56543 10.1182C5.26465 10.4189 4.93164 10.6195 4.56641 10.7197C4.20117 10.82 3.83594 10.82 3.4707 10.7197C3.10547 10.623 2.77246 10.4225 2.47168 10.1182C2.16732 9.8138 1.96501 9.479 1.86475 9.11377C1.76449 8.74854 1.76449 8.3833 1.86475 8.01807C1.96501 7.65283 2.16553 7.31982 2.46631 7.01904L3.38477 6.10059C3.29883 5.90723 3.24333 5.69775 3.21826 5.47217C3.1932 5.243 3.20573 5.02279 3.25586 4.81152L1.70898 6.34766C1.27214 6.78809 0.978516 7.27507 0.828125 7.80859C0.681315 8.33854 0.681315 8.87028 0.828125 9.40381C0.978516 9.93734 1.27393 10.4243 1.71436 10.8647C2.16195 11.3123 2.65251 11.6095 3.18604 11.7563C3.71956 11.9032 4.2513 11.9014 4.78125 11.751C5.31478 11.6042 5.79997 11.3123 6.23682 10.8755L8.10596 9.00635C8.54281 8.56592 8.83464 8.08073 8.98145 7.55078C9.13184 7.01725 9.13363 6.48372 8.98682 5.9502C8.84001 5.41667 8.5446 4.92969 8.10059 4.48926C7.94303 4.32812 7.75326 4.19027 7.53125 4.07568C7.31283 3.9611 7.04785 3.87516 6.73633 3.81787ZM6.2583 8.3457L7.07471 7.52393C6.75244 7.4917 6.47493 7.42546 6.24219 7.3252C6.01302 7.22493 5.81608 7.09424 5.65137 6.93311C5.34342 6.62516 5.13932 6.28857 5.03906 5.92334C4.9388 5.55811 4.9388 5.19287 5.03906 4.82764C5.13932 4.4624 5.34163 4.12939 5.646 3.82861L7.42383 2.05078C7.73177 1.74642 8.06657 1.54411 8.42822 1.44385C8.79346 1.34359 9.1569 1.34359 9.51855 1.44385C9.88379 1.54053 10.2204 1.74284 10.5283 2.05078C10.8291 2.35156 11.0296 2.68636 11.1299 3.05518C11.2337 3.42041 11.2337 3.78564 11.1299 4.15088C11.0296 4.51253 10.8291 4.84375 10.5283 5.14453L9.60986 6.06299C9.6958 6.25993 9.7513 6.47298 9.77637 6.70215C9.80143 6.92773 9.79069 7.14437 9.74414 7.35205L11.2856 5.81592C11.7225 5.37907 12.0143 4.89388 12.1611 4.36035C12.3115 3.82682 12.3115 3.29329 12.1611 2.75977C12.0143 2.22624 11.7207 1.73926 11.2803 1.29883C10.8327 0.851237 10.3421 0.554036 9.80859 0.407227C9.27507 0.260417 8.74154 0.262207 8.20801 0.412598C7.67806 0.559408 7.19287 0.853027 6.75244 1.29346L4.89404 3.15723C4.45361 3.59766 4.1582 4.08464 4.00781 4.61816C3.861 5.14811 3.861 5.67985 4.00781 6.21338C4.15462 6.74691 4.45182 7.23568 4.89941 7.67969C5.05339 7.83724 5.23958 7.97331 5.45801 8.08789C5.68001 8.20247 5.94678 8.28841 6.2583 8.3457Z" fill="#4A90E2"/>
</svg>
