<svg width="20" height="20" viewBox="0 0 20 20" fill="none" xmlns="http://www.w3.org/2000/svg">
<rect width="20" height="20" rx="4" fill="#7807D1"/>
<path d="M9.979 14.5586H11.0156V5.70166H9.979V14.5586ZM6.06885 10.6484H14.9258V9.61182H6.06885V10.6484ZM7.24512 15.144H13.7495C14.3296 15.144 14.7682 14.9954 15.0654 14.6982C15.3626 14.4046 15.5112 13.9714 15.5112 13.3984V6.86182C15.5112 6.28532 15.3626 5.85026 15.0654 5.55664C14.7682 5.26302 14.3296 5.11621 13.7495 5.11621H7.24512C6.66504 5.11621 6.2264 5.26302 5.9292 5.55664C5.632 5.85026 5.4834 6.28532 5.4834 6.86182V13.3984C5.4834 13.9714 5.632 14.4046 5.9292 14.6982C6.2264 14.9954 6.66504 15.144 7.24512 15.144ZM7.30957 14.0859C7.05892 14.0859 6.86735 14.0215 6.73486 13.8926C6.60596 13.7637 6.5415 13.5685 6.5415 13.3071V6.94775C6.5415 6.68994 6.60596 6.49658 6.73486 6.36768C6.86735 6.23877 7.05892 6.17432 7.30957 6.17432H13.6851C13.9321 6.17432 14.1219 6.23877 14.2544 6.36768C14.3869 6.49658 14.4531 6.68994 14.4531 6.94775V13.3071C14.4531 13.5685 14.3869 13.7637 14.2544 13.8926C14.1219 14.0215 13.9321 14.0859 13.6851 14.0859H7.30957Z" fill="white"/>
</svg>
