<svg width="18" height="19" viewBox="0 0 18 19" fill="none" xmlns="http://www.w3.org/2000/svg">
<path d="M14.999 3.60303H5.99268C5.19027 3.60303 4.58708 3.80225 4.18311 4.20068C3.78467 4.59912 3.58545 5.19124 3.58545 5.97705V9.13135C3.67952 9.12028 3.7736 9.11198 3.86768 9.10645C3.96729 9.09538 4.06413 9.08984 4.1582 9.08984C4.25228 9.08984 4.34635 9.09538 4.44043 9.10645C4.53451 9.11198 4.63411 9.12028 4.73926 9.13135V6.05176C4.73926 5.62012 4.84717 5.29639 5.06299 5.08057C5.28434 4.86475 5.59977 4.75684 6.00928 4.75684H14.9824C15.3919 4.75684 15.7074 4.86475 15.9287 5.08057C16.1501 5.29639 16.2607 5.62012 16.2607 6.05176V14.0869C16.2607 14.513 16.1584 14.834 15.9536 15.0498C15.7489 15.2656 15.4915 15.3735 15.1816 15.3735H8.92285C8.87305 15.5783 8.80664 15.7747 8.72363 15.9629C8.64616 16.1566 8.55762 16.342 8.45801 16.519H15.2065C15.9038 16.519 16.4434 16.3198 16.8252 15.9214C17.2126 15.5229 17.4062 14.9308 17.4062 14.145V5.97705C17.4062 5.19124 17.2043 4.59912 16.8003 4.20068C16.3963 3.80225 15.7959 3.60303 14.999 3.60303ZM7.3042 3.66943H8.44971C8.44971 3.31527 8.53548 2.98877 8.70703 2.68994C8.88411 2.39111 9.12484 2.15039 9.4292 1.96777C9.7391 1.78516 10.096 1.69385 10.5 1.69385C10.8929 1.69385 11.2443 1.78516 11.5542 1.96777C11.8641 2.15039 12.1048 2.39111 12.2764 2.68994C12.4535 2.98877 12.542 3.31527 12.542 3.66943H13.6875C13.6875 3.12712 13.5464 2.62354 13.2642 2.15869C12.9819 1.69385 12.6001 1.32031 12.1187 1.03809C11.6372 0.750326 11.0977 0.606445 10.5 0.606445C9.89681 0.606445 9.35449 0.750326 8.87305 1.03809C8.3916 1.32031 8.00977 1.69385 7.72754 2.15869C7.44531 2.62354 7.3042 3.12712 7.3042 3.66943ZM4.1665 18.0049C4.69775 18.0049 5.20133 17.8997 5.67725 17.6895C6.15316 17.4847 6.57373 17.1997 6.93896 16.8345C7.3042 16.4692 7.58919 16.0487 7.79395 15.5728C8.00423 15.0968 8.10938 14.5877 8.10938 14.0454C8.10938 13.326 7.92952 12.6675 7.56982 12.0698C7.21566 11.4722 6.73698 10.9935 6.13379 10.6338C5.53613 10.2741 4.88037 10.0942 4.1665 10.0942C3.44157 10.0942 2.78027 10.2741 2.18262 10.6338C1.58496 10.9935 1.10628 11.4722 0.746582 12.0698C0.386882 12.6675 0.207031 13.326 0.207031 14.0454C0.207031 14.5933 0.309408 15.1051 0.51416 15.5811C0.718913 16.057 1.00391 16.4775 1.36914 16.8428C1.73438 17.208 2.15495 17.493 2.63086 17.6978C3.10677 17.9025 3.61865 18.0049 4.1665 18.0049ZM4.1665 16.5356C4.02816 16.5356 3.91748 16.4941 3.83447 16.4111C3.75146 16.3281 3.70996 16.2174 3.70996 16.0791V14.502H2.13281C2 14.502 1.88932 14.4604 1.80078 14.3774C1.71777 14.2944 1.67627 14.1838 1.67627 14.0454C1.67627 13.9071 1.71777 13.7964 1.80078 13.7134C1.88932 13.6304 2 13.5889 2.13281 13.5889H3.70996V12.02C3.70996 11.8817 3.75146 11.771 3.83447 11.688C3.91748 11.605 4.02816 11.5635 4.1665 11.5635C4.30485 11.5635 4.41553 11.605 4.49854 11.688C4.58154 11.771 4.62305 11.8817 4.62305 12.02V13.5889H6.19189C6.33024 13.5889 6.44092 13.6304 6.52393 13.7134C6.60693 13.7964 6.64844 13.9071 6.64844 14.0454C6.64844 14.1838 6.60693 14.2944 6.52393 14.3774C6.44092 14.4604 6.33024 14.502 6.19189 14.502H4.62305V16.0791C4.62305 16.2174 4.58154 16.3281 4.49854 16.4111C4.41553 16.4941 4.30485 16.5356 4.1665 16.5356Z" fill="#27262C"/>
</svg>
