<svg width="8" height="15" viewBox="0 0 8 15" fill="none" xmlns="http://www.w3.org/2000/svg">
<path d="M6.5835 13.9232L0.431207 7.91835C0.2838 7.77094 0.206218 7.5925 0.206218 7.39855C0.206218 7.19683 0.291558 7.00288 0.438965 6.87874L6.5835 0.866103C6.71539 0.734213 6.88607 0.65663 7.08778 0.65663C7.49121 0.65663 7.79378 0.96696 7.79378 1.37039C7.79378 1.55659 7.7162 1.74278 7.59207 1.87467L1.94406 7.39855L7.59207 12.9224C7.7162 13.0543 7.79378 13.2327 7.79378 13.4267C7.79378 13.8301 7.49121 14.1327 7.08778 14.1327C6.88607 14.1327 6.71539 14.0551 6.5835 13.9232Z" fill="black"/>
</svg>
