<svg width="26" height="26" viewBox="0 0 26 26" fill="none" xmlns="http://www.w3.org/2000/svg">
<g id="Frame">
<g id="Group">
<path id="Vector" d="M6.4608 3.99976H19.5266C19.879 3.99976 20.1686 4.28929 20.1686 4.64171V21.358C20.1686 21.7104 19.879 22 19.5266 22H6.4608C6.10839 22 5.81885 21.7104 5.81885 21.358V4.64171C5.81885 4.28929 6.10839 3.99976 6.4608 3.99976ZM18.8848 5.27106H7.10292V20.7287H18.8848V5.27106Z" fill="black"/>
<path id="Vector_2" d="M5.16415 19.7846C6.00747 19.7846 6.00747 21.0685 5.16415 21.0685H3.36412C3.01171 21.0685 2.72217 20.779 2.72217 20.4265V6.03893C2.72217 5.68651 3.01171 5.39697 3.36412 5.39697H5.18933C6.03265 5.39697 6.03265 6.68088 5.18933 6.68088H4.00608V19.7845L5.16415 19.7846Z" fill="black"/>
<path id="Vector_3" d="M20.861 21.1946C20.0177 21.1946 20.0177 19.9107 20.861 19.9107H22.019V6.79426C21.226 6.79426 20.1938 6.98305 20.1938 6.1523C20.1938 5.79988 20.4708 5.52295 20.8232 5.52295H22.6484C23.0008 5.52295 23.2904 5.79991 23.2904 6.1523V20.5524C23.2904 20.9049 23.0008 21.1944 22.6484 21.1944L20.861 21.1946Z" fill="black"/>
</g>
</g>
</svg>
