<svg width="18" height="21" viewBox="0 0 18 21" fill="none" xmlns="http://www.w3.org/2000/svg">
<path id="&#244;&#128;&#136;&#136;" d="M2.40723 16.8423C1.60482 16.8423 1.00163 16.6431 0.597656 16.2446C0.199219 15.8462 0 15.2541 0 14.4683V6.55762C0 5.76628 0.199219 5.17415 0.597656 4.78125C1.00163 4.38281 1.60482 4.18359 2.40723 4.18359H4.87256V5.3291H2.42383C2.01432 5.3291 1.69889 5.43701 1.47754 5.65283C1.26172 5.86865 1.15381 6.19238 1.15381 6.62402V14.4102C1.15381 14.8307 1.26172 15.1489 1.47754 15.3647C1.69889 15.5806 2.01432 15.6885 2.42383 15.6885H11.397C11.8065 15.6885 12.1219 15.5806 12.3433 15.3647C12.5646 15.1489 12.6753 14.8307 12.6753 14.4102V6.62402C12.6753 6.19238 12.5646 5.86865 12.3433 5.65283C12.1219 5.43701 11.8065 5.3291 11.397 5.3291H8.94824V4.18359H11.4136C12.216 4.18359 12.8164 4.38281 13.2148 4.78125C13.6188 5.17969 13.8208 5.77181 13.8208 6.55762V14.4683C13.8208 15.2541 13.6188 15.8462 13.2148 16.2446C12.8164 16.6431 12.216 16.8423 11.4136 16.8423H2.40723ZM6.93115 20.395C6.12874 20.395 5.52555 20.193 5.12158 19.7891C4.72314 19.3906 4.52393 18.7985 4.52393 18.0127V16.2612H5.66943V17.9463C5.66943 18.3724 5.78011 18.6934 6.00146 18.9092C6.22835 19.1305 6.54378 19.2412 6.94775 19.2412H15.2734C15.6885 19.2412 16.0039 19.1305 16.2197 18.9092C16.4411 18.6934 16.5518 18.3724 16.5518 17.9463V10.1685C16.5518 9.74235 16.4411 9.42139 16.2197 9.20557C16.0039 8.98975 15.6885 8.88184 15.2734 8.88184H13.4473V7.73633H15.2983C16.0897 7.73633 16.6873 7.93555 17.0913 8.33398C17.4953 8.72689 17.6973 9.31901 17.6973 10.1104V18.0127C17.6973 18.804 17.4953 19.3989 17.0913 19.7974C16.6873 20.1958 16.0897 20.395 15.2983 20.395H6.93115ZM6.91455 11.729C6.83708 11.729 6.76514 11.7152 6.69873 11.6875C6.63786 11.6598 6.57145 11.61 6.49951 11.5381L3.80176 8.92334C3.69108 8.81266 3.63574 8.68538 3.63574 8.5415C3.63574 8.39762 3.68278 8.27865 3.77686 8.18457C3.87646 8.0905 4.00098 8.04346 4.15039 8.04346C4.31087 8.04346 4.44092 8.0988 4.54053 8.20947L5.78564 9.5293L6.3833 10.1602L6.3418 8.98975V0.547852C6.3418 0.403971 6.39714 0.276693 6.50781 0.166016C6.62402 0.0553385 6.7596 0 6.91455 0C7.06396 0 7.19401 0.0553385 7.30469 0.166016C7.4209 0.276693 7.479 0.403971 7.479 0.547852V8.98975L7.4375 10.1519L8.03516 9.5293L9.28027 8.20947C9.37988 8.0988 9.50716 8.04346 9.66211 8.04346C9.81152 8.04346 9.93604 8.0905 10.0356 8.18457C10.1353 8.27865 10.1851 8.39762 10.1851 8.5415C10.1851 8.68538 10.1297 8.81266 10.019 8.92334L7.32129 11.5381C7.24935 11.61 7.18018 11.6598 7.11377 11.6875C7.0529 11.7152 6.98649 11.729 6.91455 11.729Z" fill="#2C2C2C"/>
</svg>
