<svg width="17" height="18" viewBox="0 0 17 18" fill="none" xmlns="http://www.w3.org/2000/svg">
<path d="M6.59033 17.519H14.4014C15.0488 17.519 15.533 17.3586 15.854 17.0376C16.1805 16.7222 16.3438 16.2352 16.3438 15.5767V7.79883C16.3438 7.1403 16.1805 6.65332 15.854 6.33789C15.533 6.01693 15.0488 5.85645 14.4014 5.85645H6.59033C5.9484 5.85645 5.46419 6.01693 5.1377 6.33789C4.8112 6.65332 4.64795 7.1403 4.64795 7.79883V15.5767C4.64795 16.2352 4.8112 16.7222 5.1377 17.0376C5.46419 17.3586 5.9484 17.519 6.59033 17.519ZM6.61523 16.3735C6.33854 16.3735 6.13379 16.3099 6.00098 16.1826C5.86816 16.0553 5.80176 15.8478 5.80176 15.5601V7.81543C5.80176 7.52767 5.86816 7.32015 6.00098 7.19287C6.13379 7.06559 6.33854 7.00195 6.61523 7.00195H14.3765C14.6642 7.00195 14.8745 7.06559 15.0073 7.19287C15.1401 7.32015 15.2065 7.52767 15.2065 7.81543V15.5601C15.2065 15.8478 15.1401 16.0553 15.0073 16.1826C14.8745 16.3099 14.6642 16.3735 14.3765 16.3735H6.61523ZM1.22803 7.34229C1.34977 7.34229 1.45492 7.29801 1.54346 7.20947C1.632 7.12093 1.67627 7.01579 1.67627 6.89404V5.69043C1.67627 5.12044 1.79525 4.61686 2.0332 4.17969C2.26562 3.73698 2.59766 3.39111 3.0293 3.14209C3.46094 2.88753 3.97835 2.76025 4.58154 2.76025H4.72266V3.75635C4.72266 4.01644 4.8112 4.17692 4.98828 4.23779C5.16536 4.29867 5.35628 4.25439 5.56104 4.10498L7.53662 2.68555C7.6971 2.5638 7.77458 2.43929 7.76904 2.31201C7.76904 2.18473 7.69157 2.06022 7.53662 1.93848L5.56104 0.502441C5.35628 0.353027 5.16536 0.308757 4.98828 0.369629C4.8112 0.430501 4.72266 0.596517 4.72266 0.867676V1.91357H4.57324C3.80957 1.91357 3.14551 2.07406 2.58105 2.39502C2.01107 2.71045 1.56836 3.15039 1.25293 3.71484C0.931966 4.2793 0.771484 4.93506 0.771484 5.68213V6.89404C0.771484 7.01579 0.818522 7.12093 0.912598 7.20947C1.00114 7.29801 1.10628 7.34229 1.22803 7.34229Z" fill="#27262C"/>
</svg>
