<svg width="14" height="13" viewBox="0 0 14 13" fill="none" xmlns="http://www.w3.org/2000/svg">
<path d="M2.81641 11.9917L11.5156 3.30908L10.2207 2.01416L1.52979 10.6968L0.766113 12.4067C0.73291 12.4897 0.749512 12.5672 0.815918 12.6392C0.887858 12.7166 0.968099 12.7415 1.05664 12.7139L2.81641 11.9917ZM12.1714 2.66162L12.9351 1.92285C13.1287 1.72917 13.2284 1.53271 13.2339 1.3335C13.245 1.13428 13.1647 0.948893 12.9932 0.777344L12.7607 0.536621C12.5892 0.370605 12.4038 0.295898 12.2046 0.3125C12.0109 0.329102 11.8172 0.428711 11.6235 0.611328L10.8682 1.3584L12.1714 2.66162Z" fill="#424142"/>
</svg>
