<svg width="15" height="14" viewBox="0 0 15 14" fill="none" xmlns="http://www.w3.org/2000/svg">
<path d="M0.361328 9.21484C0.361328 9.55241 0.444336 9.8623 0.610352 10.1445C0.776367 10.4212 0.997721 10.6426 1.27441 10.8086C1.55664 10.9746 1.86377 11.0576 2.1958 11.0576C2.53337 11.0576 2.84049 10.9746 3.11719 10.8086C3.39941 10.6426 3.62354 10.4212 3.78955 10.1445C3.95557 9.8623 4.03857 9.55241 4.03857 9.21484C4.03857 8.88281 3.95557 8.57845 3.78955 8.30176C3.62354 8.01953 3.39941 7.79541 3.11719 7.62939C2.84049 7.46338 2.53337 7.38037 2.1958 7.38037C1.86377 7.38037 1.55664 7.46338 1.27441 7.62939C0.997721 7.79541 0.776367 8.01953 0.610352 8.30176C0.444336 8.57845 0.361328 8.88281 0.361328 9.21484ZM1.26611 9.21484C1.26611 8.95475 1.35465 8.73617 1.53174 8.55908C1.71436 8.37646 1.93848 8.28516 2.2041 8.28516C2.46973 8.28516 2.69108 8.37646 2.86816 8.55908C3.04525 8.73617 3.13379 8.95475 3.13379 9.21484C3.13379 9.48047 3.04525 9.70459 2.86816 9.88721C2.69108 10.0643 2.46973 10.1528 2.2041 10.1528C1.93848 10.1528 1.71436 10.0643 1.53174 9.88721C1.35465 9.70459 1.26611 9.48047 1.26611 9.21484ZM2.2041 0.166992C2.04362 0.166992 1.90804 0.222331 1.79736 0.333008C1.68669 0.443685 1.63135 0.579264 1.63135 0.739746V7.96143H2.77686V0.739746C2.77686 0.579264 2.72152 0.443685 2.61084 0.333008C2.50016 0.222331 2.36458 0.166992 2.2041 0.166992ZM2.2041 13.8633C2.36458 13.8633 2.50016 13.8079 2.61084 13.6973C2.72152 13.5866 2.77686 13.4593 2.77686 13.3154V10.5679H1.63135V13.3154C1.63135 13.4593 1.68669 13.5866 1.79736 13.6973C1.90804 13.8079 2.04362 13.8633 2.2041 13.8633ZM5.65723 4.62451C5.65723 4.95654 5.74023 5.26367 5.90625 5.5459C6.07227 5.82259 6.29362 6.04395 6.57031 6.20996C6.84701 6.37598 7.1569 6.45898 7.5 6.45898C7.83203 6.45898 8.13639 6.37598 8.41309 6.20996C8.69531 6.04395 8.91943 5.82259 9.08545 5.5459C9.25146 5.26367 9.33447 4.95654 9.33447 4.62451C9.33447 4.28141 9.25146 3.97152 9.08545 3.69482C8.91943 3.41813 8.69531 3.19678 8.41309 3.03076C8.13639 2.86475 7.83203 2.78174 7.5 2.78174C7.1569 2.78174 6.84701 2.86475 6.57031 3.03076C6.29362 3.19678 6.07227 3.41813 5.90625 3.69482C5.74023 3.97152 5.65723 4.28141 5.65723 4.62451ZM6.56201 4.62451C6.56201 4.35889 6.65055 4.13753 6.82764 3.96045C7.01025 3.77783 7.23438 3.68652 7.5 3.68652C7.76562 3.68652 7.98698 3.77783 8.16406 3.96045C8.34115 4.13753 8.42969 4.35889 8.42969 4.62451C8.42969 4.89014 8.34115 5.11149 8.16406 5.28857C7.98698 5.46566 7.76562 5.5542 7.5 5.5542C7.23438 5.5542 7.01025 5.46566 6.82764 5.28857C6.65055 5.11149 6.56201 4.89014 6.56201 4.62451ZM7.5 0.166992C7.33952 0.166992 7.20394 0.222331 7.09326 0.333008C6.98258 0.438151 6.92725 0.56543 6.92725 0.714844V3.28809H8.07275V0.714844C8.07275 0.56543 8.01742 0.438151 7.90674 0.333008C7.79606 0.222331 7.66048 0.166992 7.5 0.166992ZM7.5 13.8633C7.66048 13.8633 7.79606 13.8079 7.90674 13.6973C8.01742 13.5866 8.07275 13.451 8.07275 13.2905V5.86963H6.92725V13.2905C6.92725 13.451 6.98258 13.5866 7.09326 13.6973C7.20394 13.8079 7.33952 13.8633 7.5 13.8633ZM10.9614 9.21484C10.9614 9.55241 11.0444 9.8623 11.2104 10.1445C11.3765 10.4212 11.5978 10.6426 11.8745 10.8086C12.1567 10.9746 12.4639 11.0576 12.7959 11.0576C13.1335 11.0576 13.4406 10.9746 13.7173 10.8086C13.9995 10.6426 14.2236 10.4212 14.3896 10.1445C14.5557 9.8623 14.6387 9.55241 14.6387 9.21484C14.6387 8.88281 14.5557 8.57845 14.3896 8.30176C14.2236 8.01953 13.9995 7.79541 13.7173 7.62939C13.4406 7.46338 13.1335 7.38037 12.7959 7.38037C12.4639 7.38037 12.1567 7.46338 11.8745 7.62939C11.5978 7.79541 11.3765 8.01953 11.2104 8.30176C11.0444 8.57845 10.9614 8.88281 10.9614 9.21484ZM11.8662 9.21484C11.8662 8.95475 11.9548 8.73617 12.1318 8.55908C12.3145 8.37646 12.5386 8.28516 12.8042 8.28516C13.0698 8.28516 13.2912 8.37646 13.4683 8.55908C13.6453 8.73617 13.7339 8.95475 13.7339 9.21484C13.7339 9.48047 13.6453 9.70459 13.4683 9.88721C13.2912 10.0643 13.0698 10.1528 12.8042 10.1528C12.5386 10.1528 12.3145 10.0643 12.1318 9.88721C11.9548 9.70459 11.8662 9.48047 11.8662 9.21484ZM12.7959 0.166992C12.6354 0.166992 12.4998 0.222331 12.3892 0.333008C12.2785 0.443685 12.2231 0.579264 12.2231 0.739746V7.99463H13.3687V0.739746C13.3687 0.579264 13.3133 0.443685 13.2026 0.333008C13.092 0.222331 12.9564 0.166992 12.7959 0.166992ZM12.7959 13.8633C12.9564 13.8633 13.092 13.8079 13.2026 13.6973C13.3133 13.5866 13.3687 13.4593 13.3687 13.3154V10.4849H12.2231V13.3154C12.2231 13.4593 12.2785 13.5866 12.3892 13.6973C12.4998 13.8079 12.6354 13.8633 12.7959 13.8633Z" fill="#27262C"/>
</svg>
