<svg width="17" height="18" viewBox="0 0 17 18" fill="none" xmlns="http://www.w3.org/2000/svg">
<path d="M7.70312 17.6729H9.28857C9.58187 17.6729 9.83089 17.5898 10.0356 17.4238C10.2404 17.2633 10.3787 17.0392 10.4507 16.7515L10.791 15.2739L11.0898 15.1577L12.3848 15.9629C12.6338 16.1178 12.8883 16.1787 13.1484 16.1455C13.4085 16.1178 13.6437 15.9989 13.854 15.7886L14.9497 14.6929C15.1655 14.4826 15.2873 14.2474 15.3149 13.9873C15.3481 13.7217 15.2873 13.4644 15.1323 13.2153L14.3188 11.9287L14.4351 11.6382L15.9209 11.2979C16.1976 11.2314 16.4189 11.0959 16.585 10.8911C16.751 10.6808 16.834 10.4263 16.834 10.1274V8.5835C16.834 8.2902 16.751 8.04118 16.585 7.83643C16.4245 7.62614 16.2031 7.48503 15.9209 7.41309L14.4434 7.06445L14.3271 6.76562L15.1406 5.479C15.2956 5.22998 15.3564 4.97542 15.3232 4.71533C15.2956 4.44971 15.1738 4.21175 14.958 4.00146L13.8623 2.90576C13.6576 2.69548 13.4224 2.5765 13.1567 2.54883C12.8966 2.51562 12.6421 2.57373 12.3931 2.72314L11.1064 3.52002L10.791 3.40381L10.4507 1.91797C10.3787 1.63574 10.2404 1.41162 10.0356 1.24561C9.83089 1.07959 9.58187 0.996582 9.28857 0.996582H7.70312C7.40983 0.996582 7.16081 1.07959 6.95605 1.24561C6.7513 1.41162 6.61296 1.63574 6.54102 1.91797L6.19238 3.40381L5.88525 3.52002L4.59033 2.72314C4.34131 2.57373 4.08398 2.51562 3.81836 2.54883C3.55827 2.5765 3.32585 2.69548 3.12109 2.90576L2.02539 4.00146C1.8151 4.21175 1.69336 4.44971 1.66016 4.71533C1.62695 4.97542 1.68783 5.22998 1.84277 5.479L2.64795 6.76562L2.53174 7.06445L1.0708 7.41309C0.78304 7.48503 0.556152 7.62614 0.390137 7.83643C0.229655 8.04118 0.149414 8.2902 0.149414 8.5835V10.1274C0.149414 10.4263 0.232422 10.6808 0.398438 10.8911C0.564453 11.0959 0.788574 11.2314 1.0708 11.2979L2.54834 11.6382L2.65625 11.9287L1.85107 13.2153C1.69613 13.4644 1.63525 13.7217 1.66846 13.9873C1.70166 14.2474 1.8234 14.4826 2.03369 14.6929L3.12939 15.7886C3.33415 15.9989 3.56934 16.1178 3.83496 16.1455C4.10059 16.1787 4.35791 16.1178 4.60693 15.9629L5.88525 15.1577L6.19238 15.2739L6.54102 16.7515C6.61296 17.0392 6.7513 17.2633 6.95605 17.4238C7.16081 17.5898 7.40983 17.6729 7.70312 17.6729ZM7.81934 16.5605C7.66992 16.5605 7.58138 16.4886 7.55371 16.3447L7.08887 14.4189C6.85645 14.3581 6.63509 14.2861 6.4248 14.2031C6.21452 14.1146 6.02913 14.0205 5.86865 13.9209L4.17529 14.9668C4.05908 15.0443 3.94287 15.0277 3.82666 14.917L2.88867 13.979C2.78353 13.8849 2.77246 13.7743 2.85547 13.647L3.90137 11.9536C3.81836 11.7931 3.72982 11.6077 3.63574 11.3975C3.5472 11.1872 3.47249 10.9686 3.41162 10.7417L1.46924 10.2852C1.33089 10.2575 1.26172 10.1689 1.26172 10.0195V8.68311C1.26172 8.53369 1.33089 8.44515 1.46924 8.41748L3.40332 7.95264C3.46419 7.71468 3.54167 7.48779 3.63574 7.27197C3.72982 7.05615 3.81283 6.8763 3.88477 6.73242L2.84717 5.04736C2.76416 4.92008 2.77523 4.80387 2.88037 4.69873L3.81836 3.76904C3.92904 3.6639 4.04801 3.65007 4.17529 3.72754L5.85205 4.75684C6.01807 4.66276 6.20898 4.57145 6.4248 4.48291C6.64616 4.39437 6.87028 4.31966 7.09717 4.25879L7.55371 2.32471C7.58138 2.18636 7.66992 2.11719 7.81934 2.11719H9.17236C9.32178 2.11719 9.41032 2.18636 9.43799 2.32471L9.90283 4.26709C10.1353 4.3335 10.3538 4.41097 10.5586 4.49951C10.7633 4.58252 10.9515 4.67106 11.123 4.76514L12.8081 3.72754C12.9354 3.65007 13.0544 3.6639 13.165 3.76904L14.103 4.69873C14.2082 4.80387 14.2192 4.92008 14.1362 5.04736L13.0986 6.73242C13.1706 6.8763 13.2536 7.05615 13.3477 7.27197C13.4417 7.48226 13.5192 7.70915 13.5801 7.95264L15.5059 8.41748C15.6497 8.44515 15.7217 8.53369 15.7217 8.68311V10.0195C15.7217 10.1689 15.6497 10.2575 15.5059 10.2852L13.5718 10.7417C13.5164 10.9741 13.4417 11.1955 13.3477 11.4058C13.2591 11.6105 13.1733 11.7931 13.0903 11.9536L14.1279 13.647C14.2054 13.7743 14.1916 13.8849 14.0864 13.979L13.1567 14.917C13.0405 15.0277 12.9243 15.0443 12.8081 14.9668L11.123 13.9209C10.9515 14.0205 10.7633 14.1146 10.5586 14.2031C10.3538 14.2861 10.1353 14.3581 9.90283 14.4189L9.43799 16.3447C9.41032 16.4886 9.32178 16.5605 9.17236 16.5605H7.81934ZM8.5 12.3271C9.04785 12.3271 9.5459 12.1943 9.99414 11.9287C10.4479 11.6576 10.8104 11.2951 11.0815 10.8413C11.3527 10.3875 11.4883 9.88395 11.4883 9.33057C11.4883 8.78825 11.3527 8.2902 11.0815 7.83643C10.8104 7.38265 10.4479 7.02295 9.99414 6.75732C9.5459 6.48617 9.04785 6.35059 8.5 6.35059C7.95215 6.35059 7.44857 6.48617 6.98926 6.75732C6.53548 7.02295 6.17301 7.38265 5.90186 7.83643C5.6307 8.2902 5.49512 8.78825 5.49512 9.33057C5.49512 9.87842 5.6307 10.3792 5.90186 10.833C6.17301 11.2868 6.53548 11.6493 6.98926 11.9204C7.44303 12.1916 7.94661 12.3271 8.5 12.3271ZM8.5 11.2314C8.15137 11.2314 7.83317 11.1457 7.54541 10.9741C7.26318 10.8026 7.0363 10.5729 6.86475 10.2852C6.6932 9.9974 6.60742 9.6792 6.60742 9.33057C6.60742 8.993 6.6932 8.68311 6.86475 8.40088C7.0363 8.11312 7.26318 7.88346 7.54541 7.71191C7.83317 7.54036 8.15137 7.45459 8.5 7.45459C8.83757 7.45459 9.14746 7.54036 9.42969 7.71191C9.71745 7.88346 9.94434 8.11312 10.1104 8.40088C10.2819 8.68311 10.3677 8.993 10.3677 9.33057C10.3677 9.6792 10.2819 9.9974 10.1104 10.2852C9.94434 10.5674 9.71745 10.797 9.42969 10.9741C9.14746 11.1457 8.83757 11.2314 8.5 11.2314Z" fill="#27262C"/>
</svg>
