<svg width="26" height="26" viewBox="0 0 26 26" fill="none" xmlns="http://www.w3.org/2000/svg">
<g id="Frame" clip-path="url(#clip0_4642_11357)">
<path id="Vector" d="M4.66675 6.75008C4.66675 6.19755 4.88624 5.66764 5.27694 5.27694C5.66764 4.88624 6.19755 4.66675 6.75008 4.66675H19.2501C19.8026 4.66675 20.3325 4.88624 20.7232 5.27694C21.1139 5.66764 21.3334 6.19755 21.3334 6.75008V19.2501C21.3334 19.8026 21.1139 20.3325 20.7232 20.7232C20.3325 21.1139 19.8026 21.3334 19.2501 21.3334H6.75008C6.19755 21.3334 5.66764 21.1139 5.27694 20.7232C4.88624 20.3325 4.66675 19.8026 4.66675 19.2501V6.75008Z" stroke="black" stroke-width="1.2" stroke-linecap="round" stroke-linejoin="round"/>
<path id="Vector_2" d="M4.66675 9.875H13.0001" stroke="black" stroke-width="1.2" stroke-linecap="round" stroke-linejoin="round"/>
<path id="Vector_3" d="M13 16.125H21.3333" stroke="black" stroke-width="1.2" stroke-linecap="round" stroke-linejoin="round"/>
<path id="Vector_4" d="M13 4.66675V21.3334" stroke="black" stroke-width="1.2" stroke-linecap="round" stroke-linejoin="round"/>
</g>
<defs>
<clipPath id="clip0_4642_11357">
<rect width="25" height="25" fill="white" transform="translate(0.5 0.5)"/>
</clipPath>
</defs>
</svg>
