<svg width="37" height="37" viewBox="0 0 37 37" fill="none" xmlns="http://www.w3.org/2000/svg">
<path d="M31.6132 6.3457C33.3007 6.3457 34.5722 6.76758 35.4277 7.61133C36.2832 8.45508 36.7109 9.70897 36.7109 11.3731V28.67C36.7109 30.334 36.3007 31.5879 35.4804 32.4317C34.6718 33.2754 33.5293 33.6973 32.0527 33.6973H17.7617C17.9726 33.3223 18.1601 32.9297 18.3242 32.5196C18.5 32.1211 18.6406 31.7051 18.7461 31.2715H32C32.6562 31.2715 33.2011 31.043 33.6347 30.586C34.0683 30.1289 34.2851 29.4493 34.2851 28.5469V11.5313C34.2851 10.6172 34.0507 9.93167 33.582 9.47461C33.1132 9.01758 32.4453 8.78906 31.5781 8.78906H12.5761C11.7089 8.78906 11.041 9.01758 10.5722 9.47461C10.1152 9.93167 9.88672 10.6172 9.88672 11.5313V18.0528C9.66406 18.0293 9.45313 18.0117 9.25391 18C9.05469 17.9766 8.85547 17.9649 8.65625 17.9649C8.45703 17.9649 8.25196 17.9766 8.04102 18C7.8418 18.0117 7.64258 18.0293 7.44336 18.0528V11.3731C7.44336 9.70897 7.86524 8.45508 8.70899 7.61133C9.56446 6.76758 10.8418 6.3457 12.541 6.3457H31.6132ZM15.3183 6.48633C15.3183 5.33789 15.6171 4.27149 16.2148 3.28711C16.8125 2.30274 17.6211 1.51172 18.6406 0.914059C19.6601 0.304688 20.8086 0 22.0859 0C23.3515 0 24.4941 0.304688 25.5136 0.914059C26.5332 1.51172 27.3418 2.30274 27.9394 3.28711C28.5371 4.27149 28.8359 5.33789 28.8359 6.48633H26.4101C26.4101 5.73633 26.2226 5.04492 25.8476 4.41211C25.4843 3.7793 24.9746 3.26953 24.3183 2.88281C23.6621 2.49609 22.9179 2.30274 22.0859 2.30274C21.2304 2.30274 20.4746 2.49609 19.8183 2.88281C19.1738 3.26953 18.664 3.7793 18.289 4.41211C17.9257 5.04492 17.7441 5.73633 17.7441 6.48633H15.3183ZM8.67383 36.8438C7.51367 36.8438 6.42969 36.627 5.42188 36.1934C4.41406 35.7598 3.52344 35.1563 2.75 34.3828C1.97656 33.6094 1.37305 32.7188 0.939453 31.711C0.505859 30.7032 0.289062 29.6192 0.289062 28.459C0.289062 26.9356 0.669922 25.541 1.43164 24.2754C2.19336 23.0098 3.20703 21.9961 4.47266 21.2344C5.73828 20.4727 7.13867 20.0918 8.67383 20.0918C10.1855 20.0918 11.5742 20.4727 12.8398 21.2344C14.1171 21.9961 15.1308 23.0098 15.8808 24.2754C16.6425 25.541 17.0234 26.9356 17.0234 28.459C17.0234 29.6075 16.8007 30.6856 16.3554 31.6934C15.9218 32.7012 15.3183 33.5918 14.5449 34.3653C13.7714 35.1387 12.8808 35.7422 11.873 36.1758C10.8652 36.6211 9.79883 36.8438 8.67383 36.8438Z" fill="#2C2C2C"/>
<path d="M7.72266 32.2559C7.72266 32.002 7.81055 31.7949 7.98633 31.6348C8.16211 31.4707 8.38477 31.3887 8.6543 31.3887C8.93555 31.3887 9.16406 31.4707 9.33984 31.6348C9.51562 31.7949 9.60352 32.002 9.60352 32.2559C9.60352 32.502 9.51562 32.707 9.33984 32.8711C9.16406 33.0312 8.93555 33.1113 8.6543 33.1113C8.38477 33.1113 8.16211 33.0312 7.98633 32.8711C7.81055 32.707 7.72266 32.502 7.72266 32.2559ZM6.28125 27.1641C6.27734 26.7305 6.34766 26.3633 6.49219 26.0625C6.63672 25.7617 6.83203 25.5215 7.07812 25.3418C7.32812 25.1621 7.60352 25.0312 7.9043 24.9492C8.20898 24.8672 8.51562 24.8262 8.82422 24.8262C9.25391 24.8262 9.65625 24.9023 10.0312 25.0547C10.4062 25.2031 10.709 25.4316 10.9395 25.7402C11.1738 26.0449 11.291 26.4297 11.291 26.8945C11.291 27.2266 11.2344 27.5078 11.1211 27.7383C11.0078 27.9688 10.8633 28.166 10.6875 28.3301C10.5117 28.4941 10.3301 28.6484 10.1426 28.793C9.91992 28.9648 9.73828 29.1113 9.59766 29.2324C9.46094 29.3535 9.36133 29.4844 9.29883 29.625C9.24023 29.7617 9.21094 29.9414 9.21094 30.1641V30.4922H8.00391L7.99805 30.0645C7.98633 29.7793 8.02734 29.5273 8.12109 29.3086C8.21484 29.0898 8.3457 28.8926 8.51367 28.7168C8.68164 28.541 8.86914 28.3789 9.07617 28.2305C9.34961 28.0234 9.56641 27.834 9.72656 27.6621C9.88672 27.4902 9.9668 27.2578 9.9668 26.9648C9.9668 26.7109 9.91016 26.5039 9.79688 26.3438C9.68359 26.1836 9.5332 26.0684 9.3457 25.998C9.16211 25.9238 8.96484 25.8867 8.75391 25.8867C8.54688 25.8867 8.36328 25.9199 8.20312 25.9863C8.04688 26.0488 7.91602 26.1387 7.81055 26.2559C7.70898 26.373 7.63086 26.5098 7.57617 26.666C7.52539 26.8184 7.5 26.9844 7.5 27.1641H6.28125Z" fill="white"/>
</svg>
