<svg width="33" height="34" viewBox="0 0 33 34" fill="none" xmlns="http://www.w3.org/2000/svg">
<path d="M30.9141 2.38281C30.1068 1.58854 29.1237 1.05469 27.9648 0.78125C26.806 0.507812 25.3607 0.371094 23.6289 0.371094H9.21484C7.57422 0.371094 6.18099 0.507812 5.03516 0.78125C3.88932 1.05469 2.91927 1.59505 2.125 2.40234C1.31771 3.19661 0.777344 4.16667 0.503906 5.3125C0.24349 6.44531 0.113281 7.83203 0.113281 9.47266V23.8281C0.113281 25.5599 0.24349 27.0052 0.503906 28.1641C0.764323 29.3099 1.29818 30.2799 2.10547 31.0742C2.91276 31.8685 3.89583 32.4023 5.05469 32.6758C6.21354 32.9492 7.65234 33.0859 9.37109 33.0859H23.6289C25.3607 33.0859 26.806 32.9492 27.9648 32.6758C29.1237 32.4023 30.1068 31.8685 30.9141 31.0742C31.7083 30.2669 32.2357 29.2904 32.4961 28.1445C32.7565 26.9987 32.8867 25.5599 32.8867 23.8281V9.62891C32.8867 7.89714 32.7565 6.45833 32.4961 5.3125C32.2357 4.15365 31.7083 3.17708 30.9141 2.38281ZM31.0312 9.14062V24.3164C31.0312 25.4883 30.9206 26.5365 30.6992 27.4609C30.4779 28.3854 30.0872 29.1276 29.5273 29.6875C28.9544 30.2604 28.1992 30.6576 27.2617 30.8789C26.3372 31.1133 25.2891 31.2305 24.1172 31.2305H8.88281C7.72396 31.2305 6.67578 31.1133 5.73828 30.8789C4.80078 30.6576 4.05208 30.2604 3.49219 29.6875C2.91927 29.1276 2.52214 28.3854 2.30078 27.4609C2.07943 26.5365 1.96875 25.4883 1.96875 24.3164V9.29688C1.96875 8.0599 2.07943 6.97266 2.30078 6.03516C2.52214 5.08464 2.91276 4.32292 3.47266 3.75C4.04557 3.17708 4.80729 2.77995 5.75781 2.55859C6.72135 2.33724 7.8151 2.22656 9.03906 2.22656H24.1172C25.2891 2.22656 26.3372 2.34375 27.2617 2.57812C28.1992 2.79948 28.9544 3.19661 29.5273 3.76953C30.0872 4.32943 30.4779 5.07161 30.6992 5.99609C30.9206 6.92057 31.0312 7.96875 31.0312 9.14062ZM8.57031 16.6797C8.57031 16.9531 8.66146 17.181 8.84375 17.3633C9.03906 17.5456 9.27344 17.6367 9.54688 17.6367H15.5625V23.6328C15.5625 23.9193 15.6471 24.1536 15.8164 24.3359C15.9987 24.5182 16.2266 24.6094 16.5 24.6094C16.7865 24.6094 17.0208 24.5182 17.2031 24.3359C17.3984 24.1536 17.4961 23.9193 17.4961 23.6328V17.6367H23.4922C23.7656 17.6367 23.9935 17.5456 24.1758 17.3633C24.3711 17.181 24.4688 16.9531 24.4688 16.6797C24.4688 16.3932 24.3776 16.1589 24.1953 15.9766C24.013 15.7812 23.7786 15.6836 23.4922 15.6836H17.4961V9.70703C17.4961 9.40755 17.3984 9.16667 17.2031 8.98438C17.0208 8.80208 16.7865 8.71094 16.5 8.71094C16.2266 8.71094 15.9987 8.80859 15.8164 9.00391C15.6471 9.1862 15.5625 9.42057 15.5625 9.70703V15.6836H9.54688C9.26042 15.6836 9.02604 15.7812 8.84375 15.9766C8.66146 16.1589 8.57031 16.3932 8.57031 16.6797Z" fill="#979797"/>
</svg>
