<svg width="22" height="14" viewBox="0 0 22 14" fill="none" xmlns="http://www.w3.org/2000/svg">
<path id="&#244;&#128;&#139;&#173;" d="M10.6499 13.3975C9.61507 13.3975 8.63281 13.2702 7.70312 13.0156C6.77897 12.7611 5.92122 12.4263 5.12988 12.0112C4.33854 11.5962 3.62467 11.1396 2.98828 10.6416C2.35742 10.138 1.81787 9.63444 1.36963 9.13086C0.926921 8.62728 0.586589 8.16243 0.348633 7.73633C0.116211 7.30469 0 6.95605 0 6.69043C0 6.43034 0.118978 6.08724 0.356934 5.66113C0.594889 5.22949 0.937988 4.76188 1.38623 4.2583C1.83447 3.74919 2.37402 3.24561 3.00488 2.74756C3.63574 2.24398 4.34684 1.78743 5.13818 1.37793C5.92952 0.962891 6.78727 0.630859 7.71143 0.381836C8.63558 0.127279 9.61507 0 10.6499 0C11.6958 0 12.6836 0.127279 13.6133 0.381836C14.543 0.630859 15.4035 0.962891 16.1948 1.37793C16.9862 1.78743 17.6945 2.24398 18.3198 2.74756C18.9452 3.24561 19.4792 3.74919 19.9219 4.2583C20.3701 4.76188 20.7104 5.22949 20.9429 5.66113C21.1753 6.08724 21.2915 6.43034 21.2915 6.69043C21.2915 6.95605 21.1753 7.30469 20.9429 7.73633C20.7104 8.16243 20.3729 8.62728 19.9302 9.13086C19.493 9.63444 18.959 10.138 18.3281 10.6416C17.6973 11.1396 16.9862 11.5962 16.1948 12.0112C15.409 12.4263 14.5485 12.7611 13.6133 13.0156C12.6836 13.2702 11.6958 13.3975 10.6499 13.3975ZM10.6499 12.252C11.5187 12.252 12.3516 12.144 13.1484 11.9282C13.9508 11.7069 14.7007 11.4191 15.3979 11.0649C16.0952 10.7052 16.7288 10.3151 17.2988 9.89453C17.8688 9.46842 18.3558 9.04785 18.7598 8.63281C19.1693 8.21224 19.4847 7.8304 19.7061 7.4873C19.9274 7.14421 20.0381 6.87858 20.0381 6.69043C20.0381 6.52995 19.9274 6.28369 19.7061 5.95166C19.4847 5.61963 19.1693 5.24333 18.7598 4.82275C18.3558 4.40218 17.8688 3.97607 17.2988 3.54443C16.7288 3.11279 16.0952 2.71436 15.3979 2.34912C14.7007 1.98389 13.9508 1.69059 13.1484 1.46924C12.3516 1.24788 11.5187 1.13721 10.6499 1.13721C9.77555 1.13721 8.93717 1.24788 8.13477 1.46924C7.33789 1.69059 6.58805 1.98389 5.88525 2.34912C5.18799 2.71436 4.55436 3.11279 3.98438 3.54443C3.41992 3.97607 2.93294 4.40218 2.52344 4.82275C2.11393 5.24333 1.80127 5.61963 1.58545 5.95166C1.36963 6.28369 1.26172 6.52995 1.26172 6.69043C1.26172 6.87858 1.36963 7.14421 1.58545 7.4873C1.80127 7.8304 2.11393 8.21224 2.52344 8.63281C2.93294 9.04785 3.41992 9.46842 3.98438 9.89453C4.55436 10.3151 5.18799 10.7052 5.88525 11.0649C6.58805 11.4191 7.33789 11.7069 8.13477 11.9282C8.93717 12.144 9.77555 12.252 10.6499 12.252ZM10.6499 11.0898C10.0356 11.0898 9.46289 10.9736 8.93164 10.7412C8.40039 10.5088 7.93278 10.1906 7.52881 9.78662C7.12484 9.38265 6.80941 8.91504 6.58252 8.38379C6.35563 7.85254 6.24219 7.28809 6.24219 6.69043C6.24219 5.87695 6.43864 5.13818 6.83154 4.47412C7.22445 3.81006 7.75293 3.28434 8.41699 2.89697C9.08659 2.50407 9.83089 2.30762 10.6499 2.30762C11.4634 2.30762 12.2021 2.50407 12.8662 2.89697C13.5303 3.28434 14.0615 3.81006 14.46 4.47412C14.8584 5.13818 15.0576 5.87695 15.0576 6.69043C15.0576 7.28809 14.9414 7.85254 14.709 8.38379C14.4821 8.91504 14.1667 9.38265 13.7627 9.78662C13.3587 10.1906 12.8911 10.5088 12.3599 10.7412C11.8286 10.9736 11.2586 11.0898 10.6499 11.0898ZM10.6499 8.12646C11.0483 8.12646 11.3887 7.98535 11.6709 7.70312C11.9531 7.4209 12.0942 7.08333 12.0942 6.69043C12.0942 6.29199 11.9531 5.95443 11.6709 5.67773C11.3887 5.39551 11.0483 5.25439 10.6499 5.25439C10.2459 5.25439 9.90283 5.39551 9.62061 5.67773C9.33838 5.95443 9.19727 6.29199 9.19727 6.69043C9.19727 7.08333 9.33838 7.4209 9.62061 7.70312C9.90283 7.98535 10.2459 8.12646 10.6499 8.12646Z" fill="#2C2C2C"/>
</svg>
