<svg xmlns="http://www.w3.org/2000/svg" aria-hidden="true" focusable="false" role="img" viewBox="0 0 640 480">
<path fill="#fff" fill-rule="evenodd" d="M.4.4h402.7v240H.4z"/>
<path fill="#c00" d="M.4.4v18l96.1 59.3 36.1 1.3L.5.4z"/>
<path fill="#006" d="M41.6.4l116.5 73V.5H41.6z"/>
<path fill="#c00" d="M173.6.4v93.3H.4V147h173.2v93.2H227V147h173.2V93.7H226.9V.4h-53.3z"/>
<path fill="#006" d="M242.4.4v68.8L356.4 1l-114-.5z"/>
<path fill="#c00" d="M246 76.8l32-.3L402.7.9l-33 .7L246 76.7z"/>
<path fill="#006" d="M401.3 21l-95 56.7 93.8.4v84.4h-80l79.2 51.5 1.2 26.2-42.3-.6-115.8-68.2v68.8h-84.3v-68.8L49.5 240l-49 .2V480h799.2V.4L402.2 0M.4 27L0 77 84.2 78 .4 27.1zm0 135.5v51l80-50.5-80-.5z"/>
<path fill="#c00" d="M308.2 164.6l-33.3-.3 125.6 75-.8-17.1-91.5-57.6zm-276.6 76l117.8-74.2-31 .3-118 73.8"/>
<path fill="#cc3" d="M457.9 255.5c0 52.5-6 111.6 33 152.7 8 8.4 23.4 27.7 36.5 27 13.7-.8 31.4-21.1 39.2-31 34-44.8 28.7-98.2 29.8-150.2-15.3 6.9-23 9.2-36.4 9.1-10 1-25.3-5.6-34.5-10-6 4-14.7 8.8-30.4 9.3-18 .8-23.8-2.3-37.2-6.9z"/>
<path fill="#fff" d="M462 261.2c-1 27.6-.2 58.6 4.1 88.1 4.8 15.4 4.1 23.9 11.2 33.1l99-.8c6-9.7 10.5-24.4 11-30.3 5.6-29.7 5.7-62.6 5.9-92-10 5.3-23 9-35.7 7.4a69 69 0 0 1-30.5-9.2c-9.5 5.6-12.8 8.2-28.4 8.9-12.2.6-22 1.6-36.6-5.2z"/>
<path fill="#0cf" d="M477.5 381.8c7 14.8 32 49.8 51 49.2 18.6-.7 39.5-34.9 47.6-49.2h-98.6z"/>
</svg>
