<svg xmlns="http://www.w3.org/2000/svg" aria-hidden="true" focusable="false" role="img" viewBox="0 0 640 480">
  <path fill="#cf142b" d="M0 0h640v480H0z"/>
  <path fill="#00247d" d="M0 0h320v160H0z"/>
  <path fill="#fff" d="M0 0v17.9L284.2 160H320v-17.9L35.8 0H0zm320 0v17.9L35.8 160H0v-17.9L284.2 0H320z"/>
  <path fill="#fff" d="M133.3 0v160h53.4V0h-53.4zM0 53.3v53.4h320V53.3H0z"/>
  <path fill="#cf142b" d="M0 64v32h320V64H0zM144 0v160h32V0h-32zM0 160l106.7-53.3h23.8L23.8 160H0zM0 0l106.7 53.3H82.8L0 12V0zm189.5 53.3L296 0H320L213.3 53.3h-23.8zM320 160l-106.7-53.3h23.9L320 148V160z"/>
  <path fill="#fff" d="M553.8 148.3v135.5c0 36.2-72.3 48-72.3 48S409 320 409 283.7V148.3h144.7z"/>
  <path fill="none" stroke="#000" stroke-width="1.3" d="M554 148.3v135.5c0 36.2-72.3 48-72.3 48s-72.4-11.8-72.4-48V148.3h144.8z"/>
</svg>
