<svg xmlns="http://www.w3.org/2000/svg" aria-hidden="true" focusable="false" role="img" viewBox="0 0 640 480">
  <g stroke-width="1pt">
    <path fill="#229e45" fill-rule="evenodd" d="M0 0h640v480H0z"/>
    <path fill="#f8e509" fill-rule="evenodd" d="M321.4 436l301.5-195.7L319.6 44 17.1 240.7 321.4 436z"/>
    <path fill="#2b49a3" fill-rule="evenodd" d="M452.8 240c0 70.3-57.1 127.3-127.6 127.3A127.4 127.4 0 1 1 452.8 240z"/>
    <path fill="#ffffef" fill-rule="evenodd" d="M283.3 316.3l-4-2.3-4 2 .9-4.5-3.2-3.4 4.5-.5 2.2-4 1.9 4.2 4.4.8-3.3 3m86 26.3l-3.9-2.3-4 2 .8-4.5-3.1-3.3 4.5-.5 2.1-4.1 2 4.2 4.4.8-3.4 3.1m-36.2-30l-3.4-2-3.5 1.8.8-3.9-2.8-2.9 4-.4 1.8-3.6 1.6 3.7 3.9.7-3 2.7m87-8.5l-3.4-2-3.5 1.8.8-3.9-2.7-2.8 3.9-.4 1.8-3.5 1.6 3.6 3.8.7-2.9 2.6m-87.3-22l-4-2.2-4 2 .8-4.6-3.1-3.3 4.5-.5 2.1-4.1 2 4.2 4.4.8-3.4 3.2m-104.6-35l-4-2.2-4 2 1-4.6-3.3-3.3 4.6-.5 2-4.1 2 4.2 4.4.8-3.3 3.1m13.3 57.2l-4-2.3-4 2 .9-4.5-3.2-3.3 4.5-.6 2.1-4 2 4.2 4.4.8-3.3 3.1m132-67.3l-3.6-2-3.6 1.8.8-4-2.8-3 4-.5 1.9-3.6 1.7 3.8 4 .7-3 2.7m-6.7 38.3l-2.7-1.6-2.9 1.4.6-3.2-2.2-2.3 3.2-.4 1.5-2.8 1.3 3 3 .5-2.2 2.2m-142.2 50.4l-2.7-1.5-2.7 1.3.6-3-2.1-2.2 3-.4 1.4-2.7 1.3 2.8 3 .6-2.3 2M419 299.8l-2.2-1.1-2.2 1 .5-2.3-1.7-1.6 2.4-.3 1.2-2 1 2 2.5.5-1.9 1.5"/>
    <path fill="#ffffef" fill-rule="evenodd" d="M219.3 287.6l-2.7-1.5-2.7 1.3.6-3-2.1-2.2 3-.4 1.4-2.7 1.3 2.8 3 .6-2.3 2"/>
    <path fill="#ffffef" fill-rule="evenodd" d="M219.3 287.6l-2.7-1.5-2.7 1.3.6-3-2.1-2.2 3-.4 1.4-2.7 1.3 2.8 3 .6-2.3 2m42.3 3l-2.6-1.4-2.7 1.3.6-3-2.1-2.2 3-.4 1.4-2.7 1.3 2.8 3 .5-2.3 2.1m-4.8 17l-2.6-1.5-2.7 1.4.6-3-2.1-2.3 3-.4 1.4-2.7 1.3 2.8 3 .6-2.3 2m87.4-22.2l-2.6-1.6-2.8 1.4.6-3-2-2.3 3-.3 1.4-2.7 1.2 2.8 3 .5-2.2 2.1m-25.1 3l-2.7-1.5-2.7 1.4.6-3-2-2.3 3-.3 1.4-2.8 1.2 2.9 3 .5-2.2 2.1m-68.8-5.8l-1.7-1-1.7.8.4-1.9-1.3-1.4 1.9-.2.8-1.7.8 1.8 1.9.3-1.4 1.3m167.8 45.4l-2.6-1.5-2.7 1.4.6-3-2.1-2.3 3-.4 1.4-2.7 1.3 2.8 3 .6-2.3 2m-20.8 6l-2.2-1.4-2.3 1.2.5-2.6-1.7-1.8 2.5-.3 1.2-2.3 1 2.4 2.5.4-1.9 1.8m10.4 2.3l-2-1.2-2.1 1 .4-2.3-1.6-1.7 2.3-.3 1.1-2 1 2 2.3.5-1.7 1.6m29.1-22.8l-2-1-2 1 .5-2.3-1.6-1.7 2.3-.3 1-2 1 2.1 2.1.4-1.6 1.6m-38.8 41.8l-2.5-1.4-2.7 1.2.6-2.8-2-2 3-.3 1.3-2.5 1.2 2.6 3 .5-2.3 1.9m.6 14.2l-2.4-1.4-2.4 1.3.6-2.8-1.9-2 2.7-.4 1.2-2.5 1.1 2.6 2.7.5-2 2m-19-23.1l-1.9-1.2-2 1 .4-2.2-1.5-1.7 2.2-.2 1-2 1 2 2.2.4-1.6 1.6m-17.8 2.3l-2-1.2-2 1 .5-2.2-1.6-1.7 2.3-.2 1-2 1 2 2.1.4-1.6 1.6m-30.4-24.6l-2-1.1-2 1 .5-2.3-1.6-1.6 2.2-.3 1-2 1 2 2.2.5-1.6 1.5m3.7 57l-1.6-.9-1.8.9.4-2-1.3-1.4 1.9-.2.9-1.7.8 1.8 1.9.3-1.4 1.3m-46.2-86.6l-4-2.3-4 2 .9-4.5-3.2-3.3 4.5-.6 2.2-4 1.9 4.2 4.4.8-3.3 3.1"/>
    <path fill="#fff" fill-rule="evenodd" d="M444.4 285.8a124.6 124.6 0 0 0 5.8-19.8c-67.8-59.5-143.3-90-238.7-83.7a124.5 124.5 0 0 0-8.5 20.9c113-10.8 196 39.2 241.4 82.6z"/>
  </g>
</svg>
