<svg xmlns="http://www.w3.org/2000/svg" xmlns:xlink="http://www.w3.org/1999/xlink" aria-hidden="true" focusable="false" role="img" viewBox="0 0 640 480">
 <path d="M0 0h640v480H0z" fill="#fff"/>
 <path id="a" d="m308 399c-.0488-7.96-20.2-12.3-13.7-17.9 7.46 1.09 25.9 9.33 13.7 17.9zm-42.6-12.8c-10.2 8.65-15.4-16.4-2.5-9.65 8.3-2.65 21.8 10.4 2.5 9.65zm-23.5-5.2c-12.9-3.77 8.71-10 0 0zm41.3-4.8c-8.88 1.75-28.6-8.94-18.4-18.4 8.89 2.47 14.2 10.8 18.4 18.4zm-28.5-2.8c-11.7 8.57-17.4-17.5-2.33-8.34 5.6 1.38 15.8 10.7 2.33 8.34zm-28.7-1c-10.6 6.67-21.1-13.8-4.67-9.81 5.95.111 17.9 8.75 4.67 9.81zm-20.3-10.5c-10.4-3.92 5.91-6.82 0 0zm46.9-1c-14.1-6.49 10.1-7.51 0 0zm-22.8-1c-6.72 4.23-30.1-7.21-17.2-12.7 6.96 2.22 12.4 7.4 17.2 12.7zm13.6-1.2c-8.61 3.95-27.9-14-12.5-15.3 6.28 2.78 10.6 8.85 12.5 15.3zm-52-5c-9.34 8.05-22.8-13.9-6.52-10.2 5.74-.272 21.6 9.82 6.52 10.2zm23.5-8.4c-13.9-5.31 8.46-9.22 0 0zm-17.6-2.5c-8.66 3.34-25.1-17.1-10.4-15.7 4.96 4.07 7.58 10.1 10.4 15.7zm11.5-.4c-7.99-2.67-24.3-17.4-13-22.1 7.84 4.65 9.87 14.2 13 22.1zm-29.9-.9c-13.5-1.22 7.78-8.94 0 0zm-8.5-10.8c-11.7 10.8-18.2-20.5-2.94-8.64 2.66 1.47 10.1 7.44 2.94 8.64zm11-11c-10.3-1.66-2.9-25.5.708-9.75-.0273 3.26-.745 6.48-.708 9.75zm-8.2-.6c-9.48-.848-27.9-14.3-16.5-22.5 10.4-.299 15.6 13.9 16.5 22.5z" fill="#435125"/>
 <use transform="matrix(-1 0 0 1 594 0)" width="100%" height="100%" xlink:href="#a"/>
 <path d="m519 76.4c-25.6 9.65-50.3 21.7-74.9 33.6-16.8 12.9-36.9 21.2-57.8 23.7-30.5 8.96-63 18.1-94.7 10.3-16.6 2.01-40.6-11-52.6.411 2.47 15.6-.412 44.3-23 37.4-15.1-3.86-35.5-10.3-46.6 4.84-5.3 18.8-29.2 18-40.3 16.3-.0169 16.5 9.73 32 15.6 47 9.87 15.3 26.8 25.2 44 29.6 15 2.1 32.5-6.62 45.1 5.13 3.66 13.3 23.2 11.3 20.6-3.49 13.6-18.6 39.9-7.22 58-17.9 18.4-4.94 39.4-11.9 45.2-32 10.8-19.1 31.9-11.1 48.8-11.3 11.3.652 33.3-4.87 16.3-17-14.4-10.7-31.1-34.6-10.3-48.1 18.4-9.12 32.2-24.3 49.9-34.5 18-9.26 30.7-24.7 48.9-33.9 3.29-2.73 6.05-6.19 7.63-10.2z" fill="#d47600"/>
</svg>
