<svg xmlns="http://www.w3.org/2000/svg" aria-hidden="true" focusable="false" role="img" viewBox="0 0 640 480">
  <g transform="translate(72.8) scale(.94)">
    <path fill="#ba0000" fill-rule="evenodd" d="M629.4 512H-102V0h731.4z"/>
    <path fill="#ffef00" fill-rule="evenodd" stroke="#000" stroke-width="2.2" d="M281 376c.2-.6.6-6.8.4-6.8s-9.4-10.9-9.2-10.9c.2 0 11.8 2.6 11.8 2.2 0-.4 4.7-11.5 4.7-11.7l5.6 13.5 11.5 5-8 6.7 1.7 13c0 .3-8-7.6-8-7.6l-8.9 1s-1.2-4-1.6-4.4z"/>
    <path fill="#fff" fill-rule="evenodd" stroke="#000" stroke-width="2.6" d="M218.7 206.9c-7.7 4-37 37.5-41 42.7a77.3 77.3 0 0 1-16.8 23.4c-7.3 5.5-11.3 13-10.3 20 0 9 4.9 15 8.8 21.1 2.3 2.9 5.5 4.7 8.8 5 6.9.8 7.5 3 11 4.2 13.4 18.4 33.6 32 48 42.7a68.4 68.4 0 0 1 18 12.4c4.2 8.2 3.4 16 2.8 20L237.3 439c-1.9 11 7.8 8.6 8.3 6.4 4.3-5.7 10.8-1.7 20-34.3l12.8-17.1s4.9-2 4.9-2.5c7.5-9 1.8-14-2.5-15.7l-9.2-3.4s-10.8-10.8-11.3-10.8c-5.1-14.9-30.3-46.6-36.1-51-4-4.3-6-6-9.8-8.4-5.9-2.8-7.8-3.8-11.4-5.2-3-1.2-.9-4.5 1-6 20-10.9 35.7-22.9 54.8-35.1l3-2-6.9-39.2-31.8-11.2c-1.7 1.1-3 2.3-4.4 3.4z"/>
    <path fill="#ffef00" fill-rule="evenodd" stroke="#000" stroke-width="2.2" d="M381.8 120.7c-.6 0-6.3 2.8-6.2 3 .1.1-4.8 13.5-4.9 13.4-.1-.2-3.5-11.7-3.9-11.5-.3.2-12.3 1.6-12.4 1.7l9-11.5-1.3-12.5 9.8 3.8 10.5-8c.2-.1-2.7 10.8-2.7 10.8l5.2 7.2s-3 3-3.1 3.6z"/>
    <path fill="#fff" fill-rule="evenodd" stroke="#000" stroke-width="2.6" d="M265 257.9c7.1 4.7 50.7 13.9 57.3 14.8 8.2-.8 19.8.3 28.6 3.2 8.3 3.6 16.8 3.4 22.5-1 7.8-4.2 10.6-11.4 14-18 1.4-3.3 1.5-7 0-10-2.6-6.4-1-8-1.6-11.6 9.4-20.8 11.4-45 13.6-62.9-.2-10.5.9-18.5 2-21.7a32 32 0 0 1 16-12.2l40.7-10.6c10.6-3.8 3.7-11 1.5-10.4-7-1-6.8-8.6-39.7-.7l-21.2-2.7s-4-3.3-4.5-3c-11.5-2.1-13.1 5.3-12.5 9.8l1.6 9.8s-4.1 14.6-3.9 15c-10.5 11.8-26 49.6-27 56.9-.5 6.8-3 5.5-2.4 12.2 0 5.2-.6 2 1.1 12.6.5 3.2-3.5 3-5.7 2-19.2-12-37.4-19.9-57.5-30.5l-3.1-1.6-30.8 25.2 5.8 33.2c1.8 1 3.4 1.5 5.1 2.2z"/>
    <path fill="#ffef00" fill-rule="evenodd" stroke="#000" stroke-width="2.2" d="M105.2 168.7c.5.4 5.8 3.7 6 3.5s14-3.4 13.8-3.2-7.8 9.3-7.4 9.5c.4.2 8 9.4 8.2 9.5l-14.5-1.2-9.8 7.8-2.2-10.2L87 180c-.2-.1 10.5-3.6 10.5-3.6l3.2-8.3s4.1.7 4.7.6z"/>
    <path fill="#fff" fill-rule="evenodd" stroke="#000" stroke-width="2.6" d="M284 191.3c0-8.7-16.2-50.2-19-56.1a77.2 77.2 0 0 1-13-25.7c-1.5-9-6.3-16-13-18.4-7.9-4.1-15.5-2.5-22.8-1.8-3.6.7-6.7 2.7-8.4 5.5-4 5.7-6.1 5.2-8.9 7.7-22.5 3.5-43.8 15.1-60 23a68 68 0 0 1-19.3 10.2 32 32 0 0 1-19-6.6l-31.1-28.3c-9-6.7-11.2 3-9.5 4.5 3 6.4-3.5 10.3 21.2 33.6l9.3 19.2s-.5 5.2 0 5.4c4.4 10.8 11.6 8.1 15 5.1l7.3-6.7s14.5-4.6 14.7-5c15.6 2.3 55.8-5.3 62.4-8.5 6-3.3 6.3-.5 11.5-4.7 4.3-2.9 2-.6 10-7.9 2.4-2 4.3 1.3 4.8 3.7.4 22.7 3.8 42.2 5.9 64.8l.4 3.5 38 12 24.6-23-1-5.6z"/>
    <path fill="#ffef00" fill-rule="evenodd" stroke="#000" stroke-width="2.2" d="M221.3 199.7c-1.6-1.5 29.4 11.2 33.7 11.3 5.8-2.1 29.9-22.4 29.9-22.4.2 2 1.1 7.1 3.4 8.2-9.3 7.5-17.7 14.8-27 22.3.6 12-1.5 24.7 4.5 38 0 0-7.2.2-7.2 0-6.4-6.4-8.7-37.2-8.7-37.2l-30.6-13.6c1.5-1 2.6-3.9 2-6.7z"/>
  </g>
</svg>
