<svg xmlns="http://www.w3.org/2000/svg" aria-hidden="true" focusable="false" role="img" viewBox="0 0 640 480">
  <g transform="scale(.9375)">
    <path fill="#fff" fill-rule="evenodd" d="M0 0h1024v512H0z"/>
    <path fill="#000063" fill-rule="evenodd" d="M1024 445.2c-11.5 7-21.3 23-51.8 23-61 0-76.2-33.9-122-33.9-30.4 0-45.6 34-76.1 34-61 0-76.2-34-122-34-30.4 0-45.6 34-76 34-61 0-76.3-34-122-34-30.5 0-45.7 34-76.2 34-61 0-76.2-34-121.9-34-30.5 0-45.7 34-76.2 34-61 0-76.2-34-121.9-34-30.5 0-39.6 24.2-57.9 24.2v43.7c18.3 0 27.4-24.2 58-24.2 45.6 0 60.9 34 121.8 34 30.5 0 45.7-34 76.2-34 45.7 0 61 34 122 34 30.4 0 45.6-34 76.1-34 45.7 0 61 34 121.9 34 30.5 0 45.7-34 76.2-34 45.7 0 61 34 121.9 34 30.5 0 45.7-34 76.2-34 45.7 0 61 34 121.9 34 30.5 0 40.3-9.6 51.8-16.5v-50.3zm0-84.9c-11.5 7-21.3 23-51.8 23-61 0-76.2-34-122-34-30.4 0-45.6 34-76.1 34-61 0-76.2-34-122-34-30.4 0-45.6 34-76 34-61 0-76.3-34-122-34-30.5 0-45.7 34-76.2 34-61 0-76.2-34-121.9-34-30.5 0-45.7 34-76.2 34-61 0-76.2-34-121.9-34-30.5 0-39.6 24.3-57.9 24.3v43.7c18.3 0 27.4-24.2 58-24.2 45.6 0 60.9 34 121.8 34 30.5 0 45.7-34 76.2-34 45.7 0 61 34 122 34 30.4 0 45.6-34 76.1-34 45.7 0 61 34 122 34 30.4 0 45.6-34 76.1-34 45.7 0 61 34 121.9 34 30.5 0 45.7-34 76.2-34 45.7 0 61 34 121.9 34 30.5 0 40.3-9.6 51.8-16.5v-50.3zm0-84.9c-11.5 7-21.3 23-51.8 23-61 0-76.2-34-122-34-30.4 0-45.6 34-76.1 34-61 0-76.2-34-122-34-30.4 0-45.6 34-76 34-61 0-76.3-34-122-34-30.5 0-45.7 34-76.2 34-61 0-76.2-34-121.9-34-30.5 0-45.7 34-76.2 34-61 0-76.2-34-121.9-34-30.5 0-39.6 24.3-57.9 24.3v43.7c18.3 0 27.4-24.2 58-24.2 45.6 0 60.9 34 121.8 34 30.5 0 45.7-34 76.2-34 45.7 0 61 34 122 34 30.4 0 45.6-34 76.1-34 45.7 0 61 34 122 34 30.4 0 45.6-34 76.1-34 45.7 0 61 34 121.9 34 30.5 0 45.7-34 76.2-34 45.7 0 61 34 121.9 34 30.5 0 40.3-9.7 51.8-16.6v-50.2zm0-84.9c-11.5 6.9-21.3 23-51.8 23-61 0-76.2-34-122-34-30.4 0-45.6 34-76.1 34-61 0-76.2-34-122-34-30.4 0-45.6 34-76 34-61 0-76.3-34-122-34-30.5 0-45.7 34-76.2 34-61 0-76.2-34-121.9-34-30.5 0-45.7 34-76.2 34-61 0-76.2-34-121.9-34-30.5 0-39.6 24.3-57.9 24.3v43.7c18.3 0 27.4-24.2 58-24.2 45.6 0 60.9 34 121.8 34 30.5 0 45.7-34 76.2-34 45.7 0 61 34 122 34 30.4 0 45.6-34 76.1-34 45.7 0 61 34 122 34 30.4 0 45.6-34 76.1-34 45.7 0 61 34 121.9 34 30.5 0 45.7-34 76.2-34 45.7 0 61 34 121.9 34 30.5 0 40.3-9.7 51.8-16.6v-50.2zm0-85c-11.5 7-21.3 23.1-51.8 23.1-61 0-76.2-34-122-34-30.4 0-45.6 34-76.1 34-61 0-76.2-34-122-34-30.4 0-45.6 34-76 34-61 0-76.3-34-122-34-30.5 0-45.7 34-76.2 34-61 0-76.2-34-121.9-34-30.5 0-45.7 34-76.2 34-61 0-76.2-34-121.9-34C27.4 94.7 18.3 119 0 119v43.7c18.3 0 27.4-24.2 57.9-24.2 45.7 0 61 34 122 34 30.4 0 45.6-34 76.1-34 45.7 0 61 34 122 34 30.4 0 45.6-34 76-34 45.8 0 61 34 122 34 30.5 0 45.7-34 76.2-34 45.7 0 61 34 121.9 34 30.5 0 45.7-34 76.2-34 45.7 0 61 34 121.9 34 30.4 0 40.3-9.7 51.8-16.6v-50.2zm0-84.8c-11.5 6.9-21.3 23-51.8 23-61 0-76.2-34-122-34-30.4 0-45.6 34-76.1 34-61 0-76.2-34-122-34-30.4 0-45.6 34-76 34-61 0-76.3-34-122-34-30.5 0-45.7 34-76.2 34-61 0-76.2-34-121.9-34-30.5 0-45.7 34-76.2 34-61 0-76.2-34-121.9-34C27.4 9.7 18.3 34 0 34v43.8c18.3 0 27.4-24.2 57.9-24.2 45.7 0 61 34 122 34 30.4 0 45.6-34 76.1-34 45.7 0 61 34 122 34 30.4 0 45.6-34 76-34 45.8 0 61 34 122 34 30.5 0 45.7-34 76.2-34 45.7 0 61 34 121.9 34 30.5 0 45.7-34 76.2-34 45.7 0 61 34 121.9 34 30.4 0 40.3-9.7 51.8-16.6V20.7z"/>
    <path fill="#000063" fill-rule="evenodd" d="M0 0h261.3v158H0z"/>
    <g stroke-width="1pt">
      <path fill="#fff" d="M0 0v17.7L232.1 158h29.2v-17.7L29.3.1H0zm261.3 0v17.7L29.3 158H0v-17.7L232.1.1h29.2z"/>
      <path fill="#fff" d="M108.9 0v158h43.5V0H109zM0 52.8v52.6h261.3V52.7H0z"/>
      <path fill="#c00" d="M0 63.2v31.6h261.3V63.2H0zM117.6 0v158h26.1V0h-26.1zM0 158l87.1-52.7h19.5L19.5 158H0zM0 0l87.1 52.7H67.6L0 11.8V.1zm154.7 52.7L241.8.1h19.5l-87 52.6h-19.6zM261.3 158l-87-52.7h19.4l67.6 40.9V158z"/>
    </g>
  </g>
</svg>
