<svg xmlns="http://www.w3.org/2000/svg" aria-hidden="true" focusable="false" role="img" viewBox="0 0 640 480">
  <g transform="translate(81) scale(.9375)">
    <path fill="#e73e2d" fill-rule="evenodd" d="M-164.3 0h835.8v306.5h-835.8z"/>
    <path fill="#fec74a" fill-rule="evenodd" stroke="#d8aa3f" stroke-width="1.7" d="M315.1 279.2a61.4 61.4 0 1 1-122.7 0 61.4 61.4 0 0 1 122.7 0z"/>
    <path fill="#005989" fill-rule="evenodd" d="M-165.1 303.4h839.9V512h-840z"/>
    <path fill="#fff" fill-rule="evenodd" d="M-165.6 454c15.6 7.2 38 25.3 62 25.3 40-.3 41-27.4 81.6-26.1 40.7 1 33.3 29.6 88.2 29.5 45.4-.2 60-34.7 99.2-30.6 29-1.5 40.8 32.7 85.3 33.2 46.2 1 63.1-37.3 92-34.1 31 0 41 30.8 84.3 31 55.2.3 64.9-32 99.3-30 24.6-.5 44 23.7 80 24.3 28.6.5 52.7-21.2 69-29l.7-36.8c-17 6.3-42.4 27.1-67.7 27.3-36.6 1.4-59.1-24-84.5-23.7-30.4.3-42.5 31.3-94 31.3-47.2 0-58-31.3-88.4-31.3-29.7.2-38.8 34-90.3 33.4-42-.5-58.3-32.3-88-32-31.5 0-64 30.9-99 29.4-48-2-58.5-29.4-90-29.4-23.5 0-49 25.6-77.3 26-28.2.5-59.9-25.5-62.8-26l.4 38.3zm0-73c15.6 7.3 38 25.4 62 25.4 40-.3 41-27.4 81.6-26.2 40.7 1 33.3 29.7 88.2 29.5 45.4 0 60-34.6 99.2-30.5 29-1.5 40.8 32.7 85.3 33.1 46.2 1 63.1-37.2 92-34 31 0 41 30.8 84.3 31 55.2.3 64.9-32 99.3-30 24.6-.5 44 23.7 80 24.3 28.6.5 52.7-21.2 69-29l.7-36.8c-17 6.3-42.4 27-67.7 27.3-36.6 1.3-59.1-24-84.5-23.7-30.4.3-42.5 31.3-94 31.3-47.2 0-58-31.3-88.4-31.3-29.7.2-38.8 34-90.3 33.4-42-.5-58.3-32.3-88-32-31.5 0-64 30.8-99 29.3-48-2-58.5-29.4-90-29.4-23.5 0-49 25.7-77.3 26.1-28.2.4-59.9-25.5-62.8-26l.4 38.3z"/>
    <path fill="#fff" fill-rule="evenodd" d="M-165.6 309c15.6 7.2 38 25.2 61.9 25.2 40-.2 41-27.4 81.6-26.1 40.6 1 33.2 29.6 88.1 29.5 45.3-.1 60-34.7 99-30.5 29-1.5 40.8 32.7 85.3 33.1 46.1 1 63-37.3 92-34.1 30.8 0 41 30.8 84.2 31 55 .3 64.7-32 99.2-30 24.5-.5 43.9 23.7 79.8 24.3 28.7.5 52.7-21.2 69-29l.7-36.8c-17 6.4-42.3 27.1-67.7 27.3-36.4 1.4-59-23.9-84.4-23.7-30.3.3-42.4 31.3-94 31.3-47 0-57.8-31.3-88.2-31.3-29.7.3-38.8 34-90.1 33.4-42-.5-58.3-32.2-88-32-31.5 0-64 30.9-98.8 29.4-48.1-2-58.5-29.4-90-29.4-23.5 0-48.9 25.6-77.2 26-28.2.5-59.8-25.4-62.8-26l.4 38.3z"/>
  </g>
</svg>
