<svg xmlns="http://www.w3.org/2000/svg" aria-hidden="true" focusable="false" role="img" viewBox="0 0 640 480">
<g transform="translate(80) scale(.9375)">
<path fill="red" d="M-128 384h768v128h-768zm0-384h768v128h-768z"/>
<path fill="#fff" d="M-128 128h768v256h-768z"/>
<path fill="#007900" d="M252.1 130c-7.8 15.5-13 15.5-26 26-5.2 5.1-13 7.7-2.6 13-10.5 5.1-15.7 7.7-20.9 18.1l2.6 2.6s10-4.8 10.4-2.6c1.8 2.1-13 10-14.9 11.3l-11 7c-13.1 10.3-21 7.7-28.7 23.3l26-2.6c5.2 18.2-13 20.8-26 28.6l-20.9 13c5.3 18.2 20.9 7.8 33.9 2.6l2.6 2.6v5.2l-26 13s-30.8 17.6-31.3 18.2c-.2 1 0 5.2 0 5.2 10.4 2.6 26 5.2 36.5 0 13-5.2 15.6-10.4 31.2-10.4a100.6 100.6 0 0 1-52 20.8v10.4c15.6 0 26 0 39-2.6l33.8-10.4c7.8 0 15.7 7.8 13 15.6-7.7 28.6-39 23.4-49.4 46.8L213 369c10.4-5.2 20.8-10.3 33.8-7.7 15.6 5.2 15.6 15.6 36.4 20.8l-5.2-13c5.2 2.6 10.4 2.6 15.7 5.2 13 5.2 15.6 10.4 31.2 7.8-13-15.6-15.6-13-26-23.4-10.4-15.6-15.7-39 0-41.6l18.2 5.2c18.2 2.6 18.2-2.6 44.2 7.8 15.7 5.2 20.9 13 39 7.8-7.7-18.2-36.3-31.2-54.6-36.4 20.9-13 15.6 5.2 44.3-2.6v-5.2C369.3 278 361.4 265 332.8 265l44.3-5.2v-5.2s-43.7-11.4-44.7-11.9c.3-1.3 1.4-3.3 4.3-4.5 8.3 5.4 33.3 4.8 34.8 4.7-.8-6.4-12.7-11.7-23-16.9 0 0-44.7-27.5-44.9-29.9.9-7 18.3 1.1 37 6.5-5.2-10.4-15.6-15.6-26-18.2l15.6-2.6c-10.4-23.4-36.4-20.8-52-31.2-10.5-7.8-10.5-13-26.1-20.7z"/>
</g>
</svg>
