<svg xmlns="http://www.w3.org/2000/svg" xmlns:xlink="http://www.w3.org/1999/xlink" aria-hidden="true" focusable="false" role="img" viewBox="0 0 640 480"><path d="M426.7 0H640v480H426.7z" fill="#ce1126"/><path d="M213.3 0h213.4v480H213.3z" fill="#fff"/><path d="M0 0h213.3v480H0z" fill="#006847"/><path fill="#ffd250" d="M339.38 245.08l-19.11 9.55v9.55h9.56l9.55-19.1z"/><path fill="#00c3a0" d="M320.27 288.06a4.75 4.75 0 01-4.77-4.77v-19.11a4.78 4.78 0 019.55 0v19.11a4.75 4.75 0 01-4.78 4.77z"/><path fill="#00c3a0" d="M320.27 269a74.85 74.85 0 01-51.07-20.43 4.79 4.79 0 116.5-7 64.42 64.42 0 0089.15 0 4.79 4.79 0 116.5 7A75.09 75.09 0 01320.27 269z"/><path d="M320.27 288.06a62.18 62.18 0 01-34.36-10.35l5.31-8a53.06 53.06 0 0058.11 0l5.31 8a62.19 62.19 0 01-34.37 10.35z" fill="#00aadc"/><path fill="#732d37" d="M312.71 223.59L302.1 239.9l-1.73 5.31 27.47-6.37-15.13-15.25z"/><path fill="#aad264" d="M291.09 250.52c-12.61 0-27.86-10.62-31.84-34.36l9.42-1.6C272 234.33 284.19 241 291.35 241c2.26-.14 4.65-.8 4.78-2.39.26-1.86.26-2.26-4.78-4-2.78-.93-5.84-2-8-4.38-8.75-9.95 3.05-20.56 8.76-25.61 1.06-.92 1.46-1.59 1.32-2-.39-.79-2.25-2-4.37-2-6.11 0-10.62-3.45-11.94-8.88-1.33-5.71 1.32-11.81 6.23-14.33l4.38 8.49c-1.19.53-1.59 2.25-1.33 3.58.14.53.4 1.59 2.79 1.59 5.84 0 11.41 3.45 13.27 8.23.79 2 2 7.29-4 12.47-6.24 5.57-10.09 9.82-8 12.2a18 18 0 003.84 1.73c4.38 1.46 12.34 4.11 11.15 14.19-.67 6.24-6.24 10.62-13.93 10.88-.17-.25-.3-.25-.43-.25z"/><path d="M329.83 197.18s9.55-19.1-9.56-28.65c0 0 66.87-9.55 57.45 76.55-6.24-5-15.52-14.2-18.84-21.49L330 206.87l-.13-9.69z" fill="#874150"/><path fill="#732d37" d="M320.27 216.42l47.9 28.66-19.11 9.55L320.41 226v-9.55z"/><path d="M301.17 187.77a9.5 9.5 0 019.55 9.55 18.53 18.53 0 00-3.45 21.62l2.13 4.38a24.92 24.92 0 003.44 4.91l26.54 26.53v-13.13a105 105 0 00-11.28-47.36 28.79 28.79 0 00-25.6-15.79h-1.33v9.29z" fill="#783c46"/><path fill="#ffd250" d="M301.17 178.08l-9.55 9.55v9.55s11.41-5.83 15.25-7.56a3.51 3.51 0 00.67-5.84c-1.33-1.06-6.37-5.7-6.37-5.7z"/><path fill="#aad264" d="M320.27 307.3A81.41 81.41 0 01239 226h9.68a71.78 71.78 0 10143.55 0h9.55c-.18 44.68-36.66 81.3-81.51 81.3z"/><path fill="#ffe15a" d="M255.4 253.3a6.5 6.5 0 01-7.43 7.43 6.32 6.32 0 01-5.31-5.3 6.5 6.5 0 017.43-7.43 6.18 6.18 0 015.31 5.3zm14.46 22.82a6.5 6.5 0 01-7.43 7.43 6.33 6.33 0 01-5.31-5.3 6.46 6.46 0 0112.74-2.13zm23.35 17.38a6.5 6.5 0 01-7.43 7.43 6.33 6.33 0 01-5.31-5.3 6.5 6.5 0 017.43-7.43 6.8 6.8 0 015.31 5.3zm92.6-40.2a6.5 6.5 0 007.43 7.43 6.32 6.32 0 005.31-5.3 6.5 6.5 0 00-7.43-7.43 6.06 6.06 0 00-5.31 5.3zm-14.46 22.82a6.5 6.5 0 007.43 7.43 6.33 6.33 0 005.31-5.3 6.5 6.5 0 00-7.43-7.43 6.64 6.64 0 00-5.31 5.3zm-23.22 17.38a6.5 6.5 0 007.43 7.43 6.33 6.33 0 005.31-5.3 6.5 6.5 0 00-7.43-7.43 6.33 6.33 0 00-5.31 5.3z"/><path d="M325.05 292.84h-9.55a9.51 9.51 0 01-9.55-9.55 9.51 9.51 0 019.55-9.56h9.55a9.51 9.51 0 019.55 9.56 9.51 9.51 0 01-9.55 9.55z" fill="#ffb478"/><path d="M358.75 223.59c3.18 9.42 9.95 17.91 18.84 21.49 9.55-86.1-57.45-76.55-57.45-76.55 47.86 0 38.61 55.06 38.61 55.06z" fill="#9b4b5a"/></svg>