<svg xmlns="http://www.w3.org/2000/svg" aria-hidden="true" viewBox="0 0 640 480">
  <path fill="#006c35" d="M0 0h640v480H0z"/>
  <path fill="#fff" fill-rule="evenodd" d="M410 330c-6 1-6 6-2 8H233l-48-1c8 9 19 11 33 11h189c-2 4 0 10 3 11l4-2h28c1 1 2 3 5 3 4-1 8-2 8-9 0 0-1-13-11-12l-9 1-22-2c1 0 2-4 1-5h-3a1 1 0 010-1zm4 19h26c2 1 1 4 0 4h-8a2 2 0 000-1c-1-2-6-2-6 0h-1a2 2 0 000 1h-11z"/>
  <path fill="#fff" d="M442 207c1 0 4-3 4-8 0-2-1-11-4-13h-1c-2 0-3 2-3 4l4 9c0 2-2 7 0 8zm-256-74c4 1 12 1 11-5v-3l-2-1-1 2-1 1-2-1v-2h-1l-1 1v1l-1 1-1-1h-1v-2c-3 0-3 2-3 3 0 0 0 4 3 6zm-32-1l1 6c1 1 3-3 3-6 0-2 0-8-4-9h-1c-2 0-3 1-3 3 0 1 4 4 4 6zm140 2c3-6 3-8 3-11l-3-2-3 3-1 10c0 2 3 3 4 0zm-28-1h4l3-3c0-3-3 1-3-2-1-2 0-3 3-6l-1-2-2 1c-1 1-5 4-5 8zm-116 38c12 2 5-17 10-21 1-2 2-2 2 0v16c0 6 4 8 7 8s5 0 6 3l1 28s7 2 8-15c0-11-2-20-1-22 0-2 3-2 5-1 2 2 4 5 9 3 7-1 11-4 11-9l-3-15-1-4c2 2 3 2 4 0-2-4-3-7-6-8-3-3-7-2-8 2 0 5 2 10 6 15l2 8c-3 2-5 1-7-1l-5-4c1-9 0-11-1-13 0-3-3-4-3-7h-5c-3 4-1 13 1 16l2 7c-1 1-2 1-4-1-2-5-2-12-2-15 0-4 0-13-4-15l-2-1-2 1v12l3 19c1 9-6 4-5 0 1-7 1-15-1-18-1-1-1-2-4-2-1 0-6 5-8 13l-1 7c0 4-4 7-6 0-2-6-2-19-6-16 0 10-1 29 8 30zm75-17h11c3-1 18-17 18-17l-2-2v-1c4-3 2-8 1-9l-5-1a9 9 0 00-3 1c-3 2-3 6-2 9 3 0 4 2 3 3l-21 17zm22-25l3 1v4l-4-3zm21 34c5 2 8-6 10-15 1-2 2-2 3-2 0 12 1 15 4 19 7 5 13 1 14 0l6-6h5c1 2 1 4 4 6 4 1 11 1 12-3l4-5c1-2 4-1 4 0s-2 1-1 4h3c4-2 6-9 6-9 1-3 0-3-2-2l-3 1c-2 1-5 2-7-1s-2-7-3-10l-1-5c2 0 4 1 4-1 2-2-2-7-4-9-3-3-6-3-8-1-3 2-2 4-3 6 0 2 0 4 3 8 1 3 5 8 4 15 0 0-2 3-6 2-2 0-4-1-6-10 0-7 0-17-3-22l-2-3-3 3c0 2-4 4-1 11 1 3 2 9 1 16l-3 4c-2 3-5 2-7 1s-3-1-5-5v-19c-2-3-5-1-6-1-6 5-9 14-11 20-1 6-4 4-4 2-4-2-4-23-8-19-5 15 4 32 10 30zm-24-11c-3 2-5 7-2 10 1 3 4 2 5 2 3 0 6-6 6-6s0-2-4 1c-2 1-3 0-3-1v-4-2zm226 79h-3l-1-1 1-4-1-2h-6l-2 2c0 2 2 2 4 3l-1 3-3 3v3c4 0 12-4 12-4v-3zm25-83l-1-6c1-2 4 0 4-2 2-2-6-11-9-15l-2-2-1 2c-2 3-3 8-2 12 5 27 8 53 8 77l-2 6c-2 2-4 6-8 8l-9 5c-6 3-6 7-2 7 9-1 19-2 25-10 2-4 4-10 4-15 1-25-1-49-5-67zm-351 49l30-14c-1-1 0-4-6-4-10 0-24 11-24 18zm6 29c-4 4-4 1-4-1v-16l-1 1c-6 8-7 21-3 24 1 3 4 4 6 3 4-2 6-8 5-11-2-1-3-2-3 0zm70-13c5-12 0-22 2-23 5 4 12 0 14-1 1-1 2-2 3-1 4 3 11 2 13-3l2-14-6 2-1 1v4h-1-2c-2-6-6-7-10 1-2 2-5 3-6 0 1-5-2-6-6-4l-5-31c2 0 4 2 5-1-1-5-5-17-8-17a5 5 0 000-1h-1l-3 1c-2 0-4 2-4 6l8 45c0 1-1 4-4 4-3-3-4-7-11-7-4 0-9 4-10 9v11c3 4 7 3 10 2s6-3 7-2c0 0 0 8-14 16-8 3-14 4-18-3-2-4 0-18-5-15-16 38 37 43 43 2l2-2 1 1c-1 37-41 41-48 29l-2-13c0-3-1-4-2-4-1-2-4 1-4 6l-1 10c3 29 54 17 62-8zm-19-26l-3 1c-1 0-2 0-3-2l1-2h1l1-1c1 0 3 0 3 2zm219 49l-9 1zm-50-77c4 2 12 1 11-5v-3l-2-1-1 2-1 2s-2 0-1-2l-1-1-1-1v1l-1 2-1 1h-1l-1-1v-3c-3 0-3 3-3 4 0 0 0 4 3 5zm64 15v-11l2-2h3l-2-7-3-1c-2-1-4 1-4 3v3c0 1-1 2-3 1l-1-2h-5c-1 1-2 4 0 6 1 4 9 10 13 10zm-24 48c2 0 5-6 7-12 1-8-1-12-1-17l-7-47c-1-6 5 0 5-4l-10-16-2-3-1 2c-3 7-3 13-3 17 6 28 12 53 12 80zm-21-6c-7 6-16 14-26 18-1 0 3 5 7 5 8-1 16-5 22-16 2-2 6-8 6-13a250 250 0 00-6-67l3-1c2-1-3-12-6-16l-2-2-1 2c-2 3-4 8-3 12l7 71-1 7zm17-10zm-33-70v8c1 1 3-4 4-8 1-3-2-10-5-11h-1c-2 0-5 1-4 3 0 2 5 6 6 8zm71 38l-19 12c-2 2-1 8 0 7 1 1 20-11 20-12 1 0 1-7-1-7zm-13-33a659 659 0 0117 19l2 40c0 6-2 14-4 14 0 0-3 2-4 0l-8-8c-2-3-4-2-6 0-6 5-8 14-12 20-1 2-3 3-6 0-7-8-5-18-4-20h-1c-7 8-3 20-2 22 2 4 4 7 8 9 4 3 7 1 9-1 5-4 5-14 6-16 2-3 5-2 7-1l5 4c4 3 9 4 13 1 3-2 5-3 7-7 2-5 1-30 0-43l9 11 2 35c-1 2 8-6 8-11v-10l13 19c2-1 1-14 0-16l-14-18-2-18-3-13-1-8c0-2 2 0 3-2 1-1-4-15-7-19-2-2-4-2-6 2-2 1-2 6-1 10l6 33-10-14-1-1v-12h2c1 0 2-1 2-3l-10-16-2-1-1 2c-1 1-3 2-3 5l2 11v2a14 14 0 00-1-2c-8-7 4-1-1-7l-10-8c-2-2-3-4-3 0l-1 9zm47 5v9c2 1 4-4 4-9 0-2-1-10-4-12h-1c-3 0-4 1-3 4-1 1 4 6 4 8zm-140 86s1 2 3 1l12-4c1 0 1-3-1-4l-9 2c-1 1-2 0-2-1-1-2 1-4 1-5l-3-1h-1l-5 4-1 2h3c2 0 3 1 3 3zm18-35a1 1 0 000-1l-2-1h-36v-1h2c8-1 22-4 23-16 0-8-3-12-12-13-6 1-11 6-10 13 0 2 1 5-2 5-12 2-26 9-26 14h-1c-1 0-2-1-2-3 0-9-4-20-8-28l-4-1-2 1c-2 2-2 3-2 7l6 14c2 6 4 13 2 19-4 8-12 16-20 20-4 2-8 1-9 0-3-1-3-4-3-4 8-4 16-8 21-20 3-5 3-8 1-15l-3-6h5l-7-11c-2-2-5-2-7 0-2 1-3 6-2 10 1 3 5 4 8 10l-1 7-15 13h-1v-2l1-6c-5 2-7 10-8 13-11 7-24 13-32 20-4 6 28-6 32-8l2 6c3 4 10 6 17 5 11-4 17-12 24-19 1-1 2-2 4-1 5 9 17 16 34 16 4-4 3-6 1-7-1-1-9-3-10-6 0-3 1-5 5-7 11-1 21-2 31-5 0-3 3-8 4-11zm-29-20h1v-1h1l2 1 3 2v1h-4zm-13 32c-4 1-8 1-8 7v5l-4-2c-2-1-8-5-9-13 0-1 1-3 4-3l14 2c4 0 7 2 3 4zm-81-11c0 1 4 3 5 6v6c1 0 3-3 3-6 1-2-1-8-4-9h-2c-1 0-3 1-2 3zm69-20c4 2 14 0 12-5l-1-3h-3v3c-1 0-2 0-2-2l-1-1h-1l-1 1-1 1h-1v-1l-1-1c-2 0-3 2-2 3-1 0-1 4 2 5zm34-40l19 24a246 246 0 013 64c2 0 7-4 8-10v-38a458 458 0 0120 35c3-1 3-15 1-16l-16-26-7-10-2-15c0-7 4 1 3-3-1-7-6-12-11-19-1-2-1-2-4 1l-1 8a45 45 0 00-3-3l-8-7-5-1-3 1 1 8zm14 0v1l1 5-3-4c-3-3 0-2 2-2z"/>
</svg>
