<svg xmlns="http://www.w3.org/2000/svg" aria-hidden="true" focusable="false" role="img" viewBox="0 0 640 480">
  <path fill="#006" d="M640 480V0H0v480h640z"/>
  <path fill="#fff" d="M0 73.3h76L0 26.8V0h43.5l106.4 64.8V0h59.9v64.8L316 0H360v26.8l-76.4 46.5H360v73.4h-76.4l76.4 46.6V220H316l-106.4-64.7V220H150v-64.7L43.4 220H0v-26.7l76-46.6H0V73.3z"/>
  <path fill="#ce1126" d="M331.7 0L211.5 73.4h28.8L360 0h-28.3zM360 220l-119.8-73.3H269l90.9 55.9V220zM120.4 73.4L0 0v17.5l91.4 55.9h29zm-.3 73.3L0 220h28.7L149 146.7H120z"/>
  <path fill="#ce1126" d="M0 88.6h162.6V0h35.2v88.6H360v43H197.8V220h-35.2v-88.5H0v-43z"/>
  <path fill="#8fc5ff" stroke="#fff" stroke-width="1.1" d="M399.7 640.8c0 16.3-2.6 33.9-23.8 42.3-21.1-8.4-23.7-26-23.8-42.3h47.6z" transform="matrix(4.4862 0 0 4.4867 -1190.9 -2609)"/>
  <path fill="#ff0" stroke="#fff" stroke-width="1.1" d="M399.7 640.8c0-6.2-.3-12.2-.2-17.4a63.6 63.6 0 0 0-23.6-4.3c-5.3 0-15.7.8-23.6 4.3.2 5.2-.2 11.2-.2 17.4h47.6z" transform="matrix(4.4862 0 0 4.4867 -1190.9 -2609)"/>
</svg>
