<svg xmlns="http://www.w3.org/2000/svg" aria-hidden="true" focusable="false" role="img" viewBox="0 0 640 480">
  <path fill="#006" d="M640 480V0H0v480h640z"/>
  <path fill="#006" fill-rule="evenodd" d="M0 0h373.7v232.2H0z"/>
  <g stroke-width="1pt">
    <path fill="#fff" d="M0 0v26l331.9 206.2h41.8v-26L41.7 0H0zm373.7 0v26l-332 206.2H0v-26L331.9 0h41.8z"/>
    <path fill="#fff" d="M155.7 0v232.2H218V0h-62.3zM0 77.4v77.4h373.7V77.4H0z"/>
    <path fill="#c00" d="M0 92.9v46.4h373.7V92.9H0zM168.2 0v232.2h37.3V0h-37.4zM0 232.2l124.6-77.4h27.8L27.8 232.2H0zM0 0l124.6 77.4H96.7L0 17.3V0zm221.3 77.4L345.8 0h27.9L249 77.4h-27.8zm152.4 154.8L249 154.8H277l96.7 60v17.4z"/>
  </g>
  <path fill="#fff" d="M612.5 212.4v80c0 65.6-25.7 125.6-102.2 162.1C434 418 408.1 358 408.1 292.3v-79.8h204.5z"/>
  <path fill="#fdc300" d="M605.7 220.6V295c0 61.2-24 117.2-95.3 151.3-71.3-34-95.4-90-95.4-151.3v-74.5h190.7z"/>
</svg>
