<svg xmlns="http://www.w3.org/2000/svg">
    <svg id="alert" viewBox="0 0 16 19">
        <path fill="none" fill-rule="evenodd" stroke="currentColor" d="M11.108 15.284l-.002.084c-.046 1.31-1.168 2.36-2.546 2.36-1.35 0-2.455-1.009-2.541-2.284l-.006-.16h5.095zM8.612 1a4.727 4.727 0 0 1 4.727 4.727v2.008c0 .125-.005.25-.015.373.007 3.388.778 5.081 2.313 5.081H1.198c1.71 0 2.604-1.862 2.682-5.585l-.003.107V5.727A4.727 4.727 0 0 1 8.606 1h.007z"/>
    </svg>
    <svg id="star-empty" viewBox="0 0 18 16">
        <path fill="none" fill-rule="evenodd" stroke="currentColor" d="M9 12.927L4.056 15.2l.636-5.4L1 5.807l5.337-1.064L9 0l2.663 4.742L17 5.806 13.308 9.8l.636 5.399z"/>
    </svg>
    <svg id="star-filled" viewBox="0 0 18 16">
        <path fill="currentColor" fill-rule="evenodd" stroke="currentColor" d="M9 12.927L4.056 15.2l.636-5.4L1 5.807l5.337-1.064L9 0l2.663 4.742L17 5.806 13.308 9.8l.636 5.399z"/>
    </svg>    
    <svg id="checkbox-off" viewBox="0 0 16 16">
        <path fill="currentColor" fill-rule="evenodd" d="M1.2 1.2v13.6h13.6V1.2H1.2zM0 0h16v16H0V0z"/>
    </svg>
    <svg id="checkbox-on" viewBox="0 0 16 16">
        <path fill="currentColor" fill-rule="evenodd" d="M1.2 1.2v13.6h13.6V1.2H1.2zM0 0h16v16H0V0zm12.042 4.148l.86.853-6.86 6.919-2.944-2.967.86-.854 2.084 2.1 6-6.051z"/>
    </svg>
    <svg id="close" viewBox="0 0 14 14">
        <path fill="currentColor" fill-rule="evenodd" d="M7 6.151L12.515.636l.849.849L7.849 7l5.515 5.515-.849.849L7 7.849l-5.515 5.515-.849-.849L6.151 7 .636 1.485l.849-.849L7 6.151z"/>
    </svg>
    <svg id="wardrobing" viewBox="0 0 16 16">
        <path fill="currentColor" d="M13.143 14.857H8.57V8.571h6.286v4.572c0 .947-.767 1.714-1.714 1.714zm-12-1.714V2.857c0-.947.767-1.714 1.714-1.714H7.43v13.714H2.857a1.714 1.714 0 0 1-1.714-1.714zM14.857 2.857V7.43H8.571V1.143h4.572c.947 0 1.714.767 1.714 1.714zM13.143 0H2.857A2.86 2.86 0 0 0 0 2.857v10.286A2.86 2.86 0 0 0 2.857 16h10.286A2.86 2.86 0 0 0 16 13.143V2.857A2.86 2.86 0 0 0 13.143 0z" />
    </svg>
</svg>
