<svg width="15" height="15" viewBox="0 0 15 16" fill="none" xmlns="http://www.w3.org/2000/svg">
    <path opacity="0.5" d="M0.000488281 10.4102C0.000488281 11.3952 0.210775 12.2585 0.631348 13C1.05192 13.736 1.66341 14.306 2.46582 14.71C3.26823 15.1195 4.23942 15.3242 5.37939 15.3242H7.32178C7.521 15.3242 7.67871 15.2633 7.79492 15.1416C7.91113 15.0199 7.96924 14.8732 7.96924 14.7017C7.96924 14.5246 7.91113 14.3752 7.79492 14.2534C7.67871 14.1317 7.52376 14.0708 7.33008 14.0708H5.37939C4.49398 14.0708 3.74414 13.9076 3.12988 13.5811C2.51562 13.2601 2.05078 12.8201 1.73535 12.2612C1.41992 11.6968 1.26221 11.0549 1.26221 10.3354C1.26221 9.62158 1.41992 8.99072 1.73535 8.44287C2.05078 7.89502 2.51562 7.46891 3.12988 7.16455C3.74414 6.85465 4.49398 6.69971 5.37939 6.69971H11.0571L13.3979 6.6001L13.2734 6.27637L11.3643 7.94482L9.01514 10.2441C8.95426 10.2995 8.90999 10.3631 8.88232 10.4351C8.86019 10.507 8.84912 10.5872 8.84912 10.6758C8.84912 10.8639 8.90446 11.0161 9.01514 11.1323C9.13135 11.2485 9.28353 11.3066 9.47168 11.3066C9.64876 11.3066 9.80094 11.2402 9.92822 11.1074L14.5684 6.53369C14.6403 6.46729 14.6929 6.39535 14.7261 6.31787C14.7648 6.23486 14.7842 6.14909 14.7842 6.06055C14.7842 5.97754 14.7648 5.8973 14.7261 5.81982C14.6929 5.73682 14.6403 5.65934 14.5684 5.5874L9.92822 1.01367C9.80094 0.886393 9.64876 0.822754 9.47168 0.822754C9.28353 0.822754 9.13135 0.880859 9.01514 0.99707C8.90446 1.11328 8.84912 1.2627 8.84912 1.44531C8.84912 1.53939 8.86019 1.6224 8.88232 1.69434C8.90999 1.76074 8.95426 1.82161 9.01514 1.87695L11.3643 4.17627L13.2734 5.85303L13.3979 5.5293L11.0571 5.42969H5.4873C4.3252 5.42969 3.33464 5.63997 2.51562 6.06055C1.69661 6.48112 1.07129 7.06494 0.639648 7.81201C0.213542 8.55908 0.000488281 9.42513 0.000488281 10.4102Z" fill="#27262C" />
</svg>