<svg xmlns="http://www.w3.org/2000/svg" xmlns:xlink="http://www.w3.org/1999/xlink" aria-hidden="true" focusable="false" role="img" viewBox="0 0 640 480">
  <defs>
    <path id="a" d="M0-360l69.4 215.8 212-80.3L156-35.6 351 80.1 125 99.8l31.1 224.6L0 160l-156.2 164.3 31.1-224.5L-351 80l195-115.7-125.5-188.9 212 80.3z"/>
    <path id="b" d="M0-210L54.9-75.5l144.8 10.6-111 93.8 34.7 141L0 93.3-123.4 170l34.6-141-111-93.8 145-10.6z"/>
  </defs>
  <path fill="green" d="M0 0h640v480H0z"/>
  <circle cx="320" cy="240" r="66.7" fill="#ffe000"/>
  <circle cx="340.8" cy="240" r="54.9" fill="green"/>
  <circle cx="109.8" cy="173.3" r="69.8" fill="#ffe000"/>
  <g fill="#ffe000" transform="translate(0 80) scale(.0635)">
    <use width="100%" height="100%" x="7560" y="4200" xlink:href="#a"/>
    <use width="100%" height="100%" x="6300" y="2205" xlink:href="#a"/>
    <use width="100%" height="100%" x="7560" y="840" xlink:href="#a"/>
    <use width="100%" height="100%" x="8680" y="1869" xlink:href="#a"/>
    <use width="100%" height="100%" x="8064" y="2730" xlink:href="#b"/>
  </g>
</svg>
