<svg xmlns="http://www.w3.org/2000/svg" aria-hidden="true" focusable="false" role="img" viewBox="0 0 640 480">
  <path fill="#68bfe5" d="M0 0v480h640V0H0z"/>
  <g stroke-miterlimit="4.8">
    <path fill="#fff" d="M420.9 193.2v136.4c0 44.6 80.6 71 80.6 71s80.5-26.4 80.5-71V193.2z"/>
    <path fill="#d21034" d="M490.3 241.2v61.4h-69.4v22.3h69.4v71.5l11.2 4.3 11.1-4.3V325H582v-22.4h-69.4v-61.4z"/>
    <path fill="#d21034" d="M420.9 193.2H582V246H420.8z"/>
    <path fill="none" stroke="#000" stroke-width="2.8" d="M420.9 193.2v136.4c0 44.6 80.6 71 80.6 71s80.5-26.4 80.5-71V193.2z"/>
  </g>
  <path fill="#002868" d="M0 0v240.3h358V0H0z"/>
  <path style="line-height:normal;text-indent:0;text-align:start;text-decoration-line:none;text-decoration-style:solid;text-decoration-color:#000;text-transform:none;block-progression:tb;isolation:auto;mix-blend-mode:normal" fill="#fff" d="M0 0v26.9l139 93.3L0 213.5v26.8h40L179 147l139 93.3h40v-26.8l-139-93.3 139-93.3V0h-40L179 93.3 40 0H0z" color="#000" font-family="sans-serif" font-weight="400" overflow="visible" white-space="normal"/>
  <path style="line-height:normal;text-indent:0;text-align:start;text-decoration-line:none;text-decoration-style:solid;text-decoration-color:#000;text-transform:none;block-progression:tb;isolation:auto;mix-blend-mode:normal" fill="#ce1126" d="M0 0v14.9l169.7 84.8L0 184.6v14.9h29.7l169.8-84.9 169.7 84.9h29.7v-15L229.2 99.8 398.9 15V0h-29.7L199.5 84.9 29.7 0H0z" color="#000" font-family="sans-serif" font-weight="400" overflow="visible" transform="scale(.89752 1.20495)" white-space="normal"/>
  <path style="line-height:normal;text-indent:0;text-align:start;text-decoration-line:none;text-decoration-style:solid;text-decoration-color:#000;text-transform:none;block-progression:tb;isolation:auto;mix-blend-mode:normal" fill="#fff" d="M149.2 0v80.1H0v80.1h149.2v80.1h59.7v-80H358V80H208.8V0h-59.6z" color="#000" font-family="sans-serif" font-weight="400" overflow="visible" white-space="normal"/>
  <path style="line-height:normal;text-indent:0;text-align:start;text-decoration-line:none;text-decoration-style:solid;text-decoration-color:#000;text-transform:none;block-progression:tb;isolation:auto;mix-blend-mode:normal" fill="#ce1126" d="M161.1 0v96.1H0v48.1h161.1v96.1H197v-96.1H358v-48H197V0H161z" color="#000" font-family="sans-serif" font-weight="400" overflow="visible" white-space="normal"/>
</svg>
