<svg xmlns="http://www.w3.org/2000/svg" aria-hidden="true" focusable="false" role="img" viewBox="0 0 640 480">
  <path fill="#be0027" fill-rule="evenodd" d="M0 0h640v480H0z"/>
  <path fill="#3b5aa3" fill-rule="evenodd" d="M25.6 27.3h589.5v428.4H25.6z"/>
  <path fill="#cbe0e5" fill-rule="evenodd" d="M314.4 413.2a10 10 0 0 0 8.4.1c137.8-73.3 137.8-274.3.1-346.6a10 10 0 0 0-8.7.2c-134.3 73.4-134.7 272.1.1 346.3z"/>
  <path fill="#be0027" fill-rule="evenodd" d="M312.6 425c2.6 1.5 6.7 1.4 9 .2 147.8-78.7 147.9-294.4.2-372a10.7 10.7 0 0 0-9.4.2c-144 78.8-144.4 292 .2 371.7zm.7-17.7a9.3 9.3 0 0 0 8 .1c123.6-72.8 125.1-265.1.1-334-2.4-1.8-5.9-1.2-8.3 0-118.4 70.1-125 254.5.2 333.9z"/>
</svg>
