<svg xmlns="http://www.w3.org/2000/svg" aria-hidden="true" focusable="false" role="img" viewBox="0 0 640 480">
<g transform="translate(83.5) scale(.94)">
    <path fill="#ba0000" fill-rule="evenodd" d="M618 512h-731.4V0H618z"/>
    <path fill="#fff" fill-rule="evenodd" d="M241.9 247.8s-51.6-22.2-44.2-79.8c7.1-27.7 19.8-46.6 42.7-56.9 10.8-3.3 21.8-4.8 33-5.7-3 2.8-5.4 5.6-6.7 9-2.4 6.4-.6 12.4 2.7 18.5 4.1 7 6.6 14.2 7.4 23.6a36.6 36.6 0 0 1-14.6 33.7c-6.6 5.1-14.4 6.9-20.8 12.7-5 4.8-8 9.7-9 18.1-.2 16.1 4.1 18.4 9.5 26.8z"/>
    <path fill="#fff" fill-rule="evenodd" d="M246.3 244s6-55.9 63.3-65.7c28.6-1.2 50.4 5.3 67 24.3 6.3 9.3 10.9 19.4 15 29.8-3.5-2-6.8-3.5-10.6-3.7-6.7-.5-12 3-16.8 7.9a53.2 53.2 0 0 1-20.4 14 36.6 36.6 0 0 1-36.5-4c-6.8-4.9-10.8-11.8-18.2-16.2-6.1-3.3-11.6-4.8-20-3.4-15.5 4.6-16.3 9.4-22.8 17z"/>
    <path fill="#fff" fill-rule="evenodd" d="M250.1 248s55-12 82.4 39.3c10.3 26.7 11 49.4-1.7 71.1-6.8 9-15 16.5-23.5 23.8.8-4 1.1-7.6.1-11.2-1.6-6.6-6.6-10.5-12.8-13.5a53.1 53.1 0 0 1-19.8-15 36.6 36.6 0 0 1-7.7-35.8c2.4-8 7.7-14 9.5-22.4 1.2-6.8.9-12.5-3.1-20-9.3-13.2-14.1-12.5-23.4-16.3z"/>
    <path fill="#fff" fill-rule="evenodd" d="M248.9 253.7s26.9 49.4-14.5 90c-22.8 17.4-44.4 24.5-68.8 18.4-10.5-4-20-9.7-29.5-15.9 4-.3 7.7-1 10.9-3 5.8-3.4 8.1-9.3 9.3-16a53 53 0 0 1 8.8-23.3 36.6 36.6 0 0 1 32.2-17.5c8.4.1 15.6 3.6 24.2 3 6.9-.9 12.3-2.8 18.4-8.8 10-12.5 8-17 9-27z"/>
    <path fill="#fff" fill-rule="evenodd" d="M242.8 252.6S205.2 294.4 153 269c-24-15.7-37.8-33.8-40.1-58.8.3-11.3 2.4-22.1 5.1-33 1.7 3.6 3.6 6.8 6.5 9.2 5.1 4.3 11.5 4.5 18.3 3.4 8-1.7 15.6-1.7 24.7.6a36.6 36.6 0 0 1 27.3 24.6c2.7 7.9 1.8 15.9 5.3 23.8 3 6.2 6.6 10.6 14.3 14.4 15.2 5.3 18.7 1.9 28.4-.5z"/>
</g>
</svg>
