<svg xmlns="http://www.w3.org/2000/svg" aria-hidden="true" focusable="false" role="img" viewBox="0 0 640 480">
<path fill="#0071bc" fill-rule="evenodd" d="M-160 0h960v480h-960z"/>
<path fill="#fff" fill-rule="evenodd" stroke="#000" stroke-width="1.9" d="M370 365.7s15.2-16.1 29.8-13c4.4-17 21-18.4 21-18.4s-1.7-18.7 19.5-22.8c.6-12.7 13.5-23.3 13.5-23.3s-2.6-19.7 10.8-24.3c-8.2-15.6 2.8-27 2.7-27.3-.2-.3-14-24.8-1.6-31.8-13-11-8.8-23.4-8.8-23.4s-14.2-3.7-9.1-20.7c-11.7-2-14-20.9-14-20.9s-18 3.7-20.2-12c-12 1.9-13.2-9.8-13.4-9.8-.1 0-23.5 6.3-28.2-11.4-9.1 4.7-13-3.7-13-3.7s-13 6.5-20.8-6c-15.5 9.7-24.2-.4-24.2-.4s-20.3 13.4-27 3c-12 12.2-22.8 7-22.8 7s-9 16-23.7 12c-3.3 14.9-20.2 15.2-20.2 15.2s1.8 13.1-18.4 16.7c-2.6 15.5-13.2 18-13.2 18s1 15.2-8.5 20c3.4 8.5-5.4 18.9-5.4 18.9s9.4 11.7-3.4 24.9c12.3 3.2 3.4 24.4 3.4 24.4s17 7.6 6.3 21.7c12.2 4 8.4 13.6 8.5 19.3 7.8 3.5 14.6 1.8 11.3 17.4 23.8 2.7 12.6 15.8 12.6 15.8s11 .5 6.7 9.3c20.3-.5 23.3 15.2 23.3 15.2s18.8-5 21.3 2.3-8.2 56.7-8.2 56.7-16 0-27.8-12.8c-27.8-.7-21.6-19-22-19-.5 0-9.3 3.4-13.8-11.9-18.6 3.8-18-11.8-18.2-12-.1-.1-8.3-3.8-5.3-11.5-19.1 1.7-17.7-17-17.7-17-4.2-1.7-5.7-5.6-5.1-9.5-2.5-.9-19.5-1.2-10.7-23.6-16.2-9.8-6.1-21-6.1-21s-22.4-11.6-5.1-25c-13-19 1-28.5 1-28.5s-17.9-18.1.3-31c-3-27.5 13.4-34.1 13.4-34.1s-8.6-22.4 14.8-31.8c1.5-22.7 17.9-23.3 17.9-23.3s.4-18 26.2-16.2c5-16.1 22.5-12.9 22.5-12.9s5.4-19.5 29.3-10.1c12.1-23.7 30.2-11.6 30.2-11.6s11.4-7.4 17-5c7.3-12.5 22.8-.6 32.7 1.9 3.7-1.5 16.6-11.2 26.5 1 13.2-8.5 24.5 7 24.5 7s18.1-9.2 26.6 11.8c38.5-3.5 33 21.7 33 21.7s30.2-6.9 23.6 23.3c27.6 1.9 24.8 20 24.8 20s17.4 13.2 9.8 25c15.5.8 9.8 15.7 9.8 15.7s11.9 4.6 2 23c22.7 18.1 4.4 36.2 4.3 36-.2-.1 12.1 14.6 1 31.6 3.4 27-10.2 33.8-10.2 33.8s3.5 17.5-11.7 22.4c-.3 20.5-19.7 23-19.7 23s5.2 9-14 18.3c-.8 13.7-20.8 14.8-20.8 14.8s-1.9 25.2-27.4 18.4c-6.1 20.2-36 14.2-36.6 14-.5-.3-5.7-43.4-5.7-43.5z"/>
<path fill="#8c8a8c" fill-rule="evenodd" stroke="#000" stroke-width="1.9" d="M342.8 114.4s18.5 1.2 19.4 11.8-4.4 17.1-4.4 17.1 2.3 23-15.8 29.7c-19.4 2.3-49.9.5-49.9.5s-9 2.2-12.6-16.3c-3.6-18.5-4.6-31.6-4.6-31.6s1.8-10.4 14.9-11c13-.7 52.8 0 53-.2z"/>
<path fill="#8c8a8c" fill-rule="evenodd" stroke="#000" stroke-width="1.9" d="M344.3 172.3c2.5 2.1 4.8 4.4 5.3 12l1 15.4 13 116.6 11.4 84.3.8 13s-2.7 9.7-10.4 10.5c-5.5 11.6-35.7 15-38.7 14.9-2.7-.2-12.3-4.2-18.1-3.7-5.9.5-16 4.4-20.5 3.8-4.5-.7-14.8-4.2-16.6-11.6-12.7-4-14.7-13.7-14.7-13.7l13.7-97.5 13.3-123.4s1.6-16.4 8.2-18.9c6.9-.6 42.4.7 52.3-1.7z"/>
<path fill="#fff" stroke="#000" stroke-dashoffset="1" stroke-linecap="square" stroke-linejoin="round" stroke-width="1.7" d="M100 125.8L122 194H194l-58 42.2 22.1 68.2-58-42.1-58 42.1 22-68.2L6 194h71.8z" transform="matrix(1.16516 0 0 1.16534 202 -23.6)"/>
</svg>
