<svg xmlns="http://www.w3.org/2000/svg" aria-hidden="true" focusable="false" role="img" viewBox="0 0 640 480">
  <path fill="#006" d="M0 0h640v480H0z"/>
  <g fill-rule="evenodd">
    <path fill="#fff" d="M408.3 192.3h214.3l-.3 153.4c1.8 61.7-36.4 100-106.7 117.2-50-12.5-107.5-38.3-107.6-115.5l.3-155.2z"/>
    <path fill="#00a2bd" stroke="#000" stroke-width="1pt" d="M44 22.7h169.4l-.2 120.8c1.4 48.6-28.8 78.7-84.3 92.3-39.5-9.8-85-30.2-85-91l.2-122z" transform="matrix(1.2096 0 0 1.2172 359.7 169.2)"/>
    <path fill="#a53d08" d="M616.3 361.3c-7.5 56.4-50.7 81.1-100.7 94.2-44.3-12-92-31-101.1-93.9l201.8-.3z"/>
  </g>
  <g stroke-width="1pt">
    <path fill="#fff" d="M0 0v28.5l343.6 226H387V226L43.3 0H0zm386.9 0v28.5l-343.6 226H0V226L343.6 0H387z"/>
    <path fill="#fff" d="M161.2 0v254.4h64.5V.1h-64.5zM0 85v84.7h386.9V84.8H0z"/>
    <path fill="#c00" d="M0 101.8v50.9h386.9v-50.9H0zM174.1.1v254.3h38.7V.1h-38.7zM0 254.4l129-84.8h28.8l-129 84.8H0zM0 .1l129 84.8H100L0 19V0zm229.1 84.8L358.1 0h28.8l-129 84.8h-28.8zm157.8 169.5l-129-84.8h28.9l100.1 65.9v19z"/>
  </g>
</svg>
