<svg xmlns="http://www.w3.org/2000/svg" aria-hidden="true" focusable="false" role="img" viewBox="0 0 640 480">
  <path fill="#00247d" d="M0 0h640v480H0z"/>
  <g transform="translate(320 160) scale(21.33333)">
    <circle r="20" fill="#00247d"/>
    <path stroke="#fff" stroke-width="3" d="M-20-10l40 20m-40 0l40-20"/>
    <path stroke="#cf142b" stroke-width="2" d="M-20-10l40 20m-40 0l40-20"/>
    <path fill="#fff" d="M0 0l20 10h-3L-3 0m3 0l20-10h3L3 0M0 0l-20 10h-3L-3 0m3 0l-20-10h3L3 0"/>
    <path stroke="#fff" stroke-width="5" d="M-20 0h40M0-10v20"/>
    <path stroke="#cf142b" stroke-width="3" d="M-20 0h40M0-10v20"/>
</g>
</svg>
