<svg xmlns="http://www.w3.org/2000/svg" aria-hidden="true" focusable="false" role="img" viewBox="0 0 640 480">
<g transform="translate(-40) scale(.9375)">
<path fill="#28ae66" d="M0 0h768v512H0z"/>
<g fill="#fff" stroke-width="1pt">
<path d="M263.3 137.5c27.9 13.4 61.1 0 73.1-18.6 12.4-17.4 13.9-46.5-7.4-73.2 33 27.4 40.4 58.5 23.9 84.1-22 29.3-70.6 28.4-89.6 7.7z"/>
<path d="M312.8 69.4l5.6.1L314 73l1.7 5.6-4.7-3.3-4.5 3.3 1.5-5.5-4.5-3.5 5.6-.1L311 64zm-27.7 34.8h5.6l-4.4 3.6 1.7 5.5-4.7-3.3-4.6 3.4 1.6-5.6-4.5-3.4 5.6-.2 1.8-5.5zm1.8-27.4h5.7l-4.5 3.6 1.7 5.5-4.6-3.3-4.6 3.4 1.6-5.6-4.5-3.5 5.6-.1 1.8-5.5zm0-27.5h5.7L288 53l1.7 5.5-4.6-3.2-4.6 3.3 1.6-5.5-4.5-3.5 5.6-.1 1.8-5.5zm-30.7 34.8h5.6l-4.5 3.6 1.7 5.5-4.6-3.3-4.6 3.4 1.6-5.6-4.5-3.4 5.6-.2 1.8-5.5z"/>
</g>
<path fill="#ca3745" d="M47.5 0h164.6v512H47.5z"/>
</g>
</svg>
