<svg xmlns="http://www.w3.org/2000/svg" xmlns:xlink="http://www.w3.org/1999/xlink" aria-hidden="true" focusable="false" role="img" viewBox="0 0 640 480">
<path fill="#006" d="M0 0h960v480H0z"/>
<path fill="#fff" d="M0 0v19.6L310.9 175H350v-19.6L39.1 0H0zm350 0v19.6L39.1 175H0v-19.6L310.9 0H350z"/>
<path fill="#fff" d="M145.8 0v175h58.4V0h-58.4zM0 58.3v58.4h350V58.3H0z"/>
<path fill="#c00" d="M0 70v35h350V70H0zM157.5 0v175h35V0h-35zM0 175l116.7-58.3h26L26.2 175H0zM0 0l116.7 58.3H90.6L0 13V0zm207.3 58.3L323.9 0H350L233.3 58.3h-26zM350 175l-116.7-58.3h26.1L350 162v13z"/>
<path fill="#fff" fill-rule="evenodd" d="M378.5 154.5l219.3-.9-.4 195.4s7.7 29.7-92 74.9c35.9-3.7 75-42 75-42s15.8-20.3 23.5-9c7.8 11.5 15 17.2 20.8 21.7 5.7 4.4 10.2 16.6 1.6 25.6-8.5 9-22 10.2-25.6-.8-5.7 2.8-40.7 45.2-112.3 47.2A159 159 0 0 1 375.6 419s-9.7 15.4-23.6 3.2c-13.4-15.8-3.2-26-3.2-26s11.4-6.5 14.6-11c5.3-6.1 7-14.2 15.9-14.2 10.6.8 14.7 9.3 14.7 9.3s36.6 38.7 76 43.5c-89-42.7-92.3-69.1-92-75.6l.5-193.7z"/>
<path fill="#006129" fill-rule="evenodd" stroke="#000" stroke-width="1.7" d="M383.8 159.7l209.1-1.2v188c.4 24.4-40.7 49.3-105 81-66.3-34.2-104.5-55-105-81.4l.9-186.4z"/>
<path fill="#f7c600" fill-rule="evenodd" stroke="#000" stroke-width="1.7" d="M487.1 430c58.6-1.7 96.5-44 96-44.4-.4-.4 7.8-11.8 14.3-10.2 6.5 1.6 15.9 20.8 27.3 24.8 5.7 9-1.7 17.1-4.1 18.8-2.5 1.6-13.4 6-15-.4-1.7-6.6-5-5.3-5-5.3s-52 50.8-112.3 48.8c-62.2.4-113.5-48.8-113.5-48.8l-4.5 4.8s-4.9 5.3-7.3 5c-2.4-.5-13-7.4-13.8-14.3-.8-7 6.5-11.4 6.5-11.4s17.9-13.8 20-21.2c4-4 11.7 2.9 11.7 2.9s47.2 54.1 99.7 50.8z"/>
</svg>
