<svg xmlns="http://www.w3.org/2000/svg" xmlns:xlink="http://www.w3.org/1999/xlink" aria-hidden="true" focusable="false" role="img" viewBox="0 0 640 480">
 <path d="M0 0h640v480H0z" fill="#fff"/>
 <path d="m466 256-14.3 61.7-5.9-4.2 14-59.2-9.8.2 23.1-42.3 1.5 48.7zm37 13-43 50.8-4.6-5.2 42.8-50.2-8.7-4.6 39.2-26-20.3 43.8z" fill="#0081c6" stroke="#010002" stroke-miterlimit="10" stroke-width="1.5"/>
 <path d="m204 315c3.56-5.81 10.8-8.84 12.8-15.7-7.42-.0925-6.5-9.63-11-13.4-3.59-2.45-13.3 4.57-12.5-3.26 3.4-3.33 10.5-12.1 2.47-14.2-4.22 2.12-16.4 3.4-12-4.41 3-3.5 9.38-11.1 2.45-13.8-4.17.781-15.8 1.71-11-5.65 4.82-3.39 6.39-15.2-2.24-11.3-5.1 2.54-10.9-2.51-5.94-7.01 3.8-4.05 10.1-11.3 3.97-16.2-5.66-3.78-10.9 3.47-15 5.17-6.79-5.04 3.64-14.1-2.42-19.8-4.51-6-14.9-3.51-15.8 3.98-1.64 7.57 8.39 9.31 8.99 15.3-2.92 8.21-7.7-3.63-12.9-2.47-6.64-1.16-8.1 7.28-4.73 11.4 3.52 5.47 10.2 7.4 16.3 8.06 5.22.0335 12.3 8.68 4.09 9.67-5.91-1.84-14.9 2.51-9.51 9.12 4.23 6.07 14.6-2.78 16.1 5.88 1.6 8.47-12.5 4.65-9.08 13.2 1.67 5.96 7.4 3.77 11.2 2.98 5.43 2.16 2.01 8.76-2.23 9.4-3.47 6.07 5.39 8.66 8.64 10.3.198 5.1-9.06 11.4-1.01 14.9 6.32 3 9.43 11.3 16.6 12.4 7.42.381 14.1-3.68 21.5-4.18l1.16-.193z" fill="#369443" stroke="#010002" stroke-miterlimit="10" stroke-width="1.5"/>
 <g fill="#f4c53d" stroke="#010002" stroke-miterlimit="10" stroke-width="1.5">
  <path d="m321 75.1c-12.2 2.24-42.3 17.2-35 25 35.7-5.22 9.35 30.6.104 44.8-5.21 21.7 33.5 9.14 50 14.8 17.3 2.87 31.2-2.87 23-19.7 5.96-3.11-18.6-12.4-7.05-20-9.23-15.3-5.11-47.2-31.1-44.9z"/>
 </g>
 <path d="m203 336s-.2-6.4 7.8-6.8l23.5 32.7s-.9 2.1-11.5 1.9c0 0-1.2 0-1.8 1.2-.9 2-18-29-18-29z" fill="#369443" stroke="#010002" stroke-miterlimit="10" stroke-width="1.5"/>
 <path d="m493 242-38.5 74-5.9-3.5 38.7-73.8-9.4-2.4 32.7-34.6-10.5 47.5zm-48 96.6-2.9 11.7 8 8-11.2 47-10-13.3-14.6 6.8 11.1-47 10.4-3 2.6-11.7s3.2-1.2 6.6 1.5z" fill="#0081c6" stroke="#010002" stroke-miterlimit="10" stroke-width="1.5"/>
 <use transform="matrix(-1 0 0 1 647 0)" width="100%" height="100%" stroke="#010002" stroke-width="10" xlink:href="#a"/>
 <g id="a" transform="translate(3.6 26.2) scale(.151)" fill="#f4c53d" stroke="#010002" stroke-width="10">
  <path d="m371 316c-95 154 111 304 214 393 75 92 178 129 271 201 105 92 227 157 356 214 28.2 93.2 111 223 247 250 132 64.8 256-.947 245-155 14.1-123 41.7-346-149-304-39.3-54.5 100-189-30.8-248-134-83.2-297-103-445-151-238-58.2-477-121-708-200zm1324 1098c-120 131-185 316-264 452-123 3.93-335 122-155 230 153 18.3 184-221 349-204 73.2-85.7 222-164 226-271-28.5-84.7-117-128-156-206z"/>
  <path d="m1920 1672c-82.6 113-276 202-233 367 90.3 96.1 211 320 341 281 55 24.8 114 186 169 42.4 43.3-163-16.3-343-29-503-92.2-56.5-171-120-248-188z" stroke-miterlimit="10"/>
 </g>
 <path d="m447 331-5.7 10.6 5.7 9.7-22.4 42.5-6.3-15.6-15.9 2.6 22.4-42.4h10.7l5.5-10.6s4 0 6 3.2z" fill="#0081c6" stroke="#010002" stroke-miterlimit="10" stroke-width="1.5"/>
 <path d="m448 334-15 19.2 3.4 10.8-30.9 36-2.8-16.6-16-1.2 30.8-36 10.4 2.5 16-20.4s4.4 2.2 4.1 5.7z" fill="#0081c6" stroke="#010002" stroke-miterlimit="10" stroke-width="1.5"/>
 <path d="m325 310s74.2-32.9 74.3-109h-149c.2 76 74.3 109 74.3 109z" fill="#fff" stroke="#010002" stroke-width="1.5"/>
 <path d="M262 201v48.5s5.6 11.3 11.4 18.3V201H262zm22.8 0v80s7.2 7 11.4 10.4V201h-11.4zm22.9 0v98.9s8.1 5.2 11.4 7v-106h-11.4zm80 0v48.5s-5.7 11.3-11.5 18.3V201h11.5zm-22.9 0v80s-7.1 7-11.4 10.4V201h11.4zm-22.8 0v98.9s-8.2 5.2-11.5 7v-106H342z" fill="#a60032" stroke="#010002" stroke-width="1.5"/>
 <path d="m399 146s-36.4 19-74.3-1.6c-37.9 20.6-74.3 1.6-74.3 1.6v55.2h149v-55.2z" fill="#162667" stroke="#010002" stroke-miterlimit="10" stroke-width="1.5"/>
</svg>
