<svg xmlns="http://www.w3.org/2000/svg" viewBox="0 0 80 80" focusable="false" aria-hidden="true" class="ui-icon-controls-world"><path d="M80 40.1a40 40 0 1 0-40 40 40 40 0 0 0 40-40zm-7.9 15.2a42.6 42.6 0 0 0-11.6-5.5 72.1 72.1 0 0 0 .6-9.7 89.3 89.3 0 0 0-.6-9.7A42.6 42.6 0 0 0 72.1 25a35 35 0 0 1 0 30.3zM56.7 40.1a69.9 69.9 0 0 1-.5 8.5 73.8 73.8 0 0 0-13.9-1.7V33.3a73.8 73.8 0 0 0 13.9-1.7 69.9 69.9 0 0 1 .5 8.5zm-33.3 0a69.9 69.9 0 0 1 .5-8.5 67.5 67.5 0 0 0 13.9 1.7v13.6a73.8 73.8 0 0 0-13.9 1.7 69.9 69.9 0 0 1-.6-8.5zm18.8-11.3V4.9c6 1.8 11 10.6 13.2 22.3a65.3 65.3 0 0 1-13.2 1.6zM37.8 4.9v23.9a72.8 72.8 0 0 1-13.2-1.6c2.2-11.7 7.2-20.4 13.2-22.3zm0 46.5v23.9c-6-1.8-11-10.6-13.2-22.2a59.8 59.8 0 0 1 13.2-1.7zm4.4 23.9V51.4A72.8 72.8 0 0 1 55.4 53c-2.2 11.7-7.2 20.5-13.2 22.3zM70 21a33.8 33.8 0 0 1-10.2 5c-1.6-8.1-4.5-14.9-8.2-19.5A36.4 36.4 0 0 1 70 21zM28.4 6.5C24.7 11 21.8 17.9 20.2 26A38.3 38.3 0 0 1 10 21 36.4 36.4 0 0 1 28.4 6.5zM7.9 25a42.6 42.6 0 0 0 11.6 5.5 72.1 72.1 0 0 0-.6 9.7 89.3 89.3 0 0 0 .6 9.7 42.6 42.6 0 0 0-11.6 5.4 35 35 0 0 1 0-30.3zM10 59.1a35.9 35.9 0 0 1 10.2-5c1.6 8.1 4.5 14.9 8.2 19.5A35.6 35.6 0 0 1 10 59.1zm41.6 14.6c3.7-4.6 6.6-11.4 8.2-19.5a38.3 38.3 0 0 1 10.2 5 36.4 36.4 0 0 1-18.4 14.5z"/></svg>