<?xml version="1.0" encoding="UTF-8"?>
<svg id="clock" viewBox="0 0 16 16" version="1.1" xmlns="http://www.w3.org/2000/svg" xmlns:xlink="http://www.w3.org/1999/xlink">
    <g stroke="none" stroke-width="1" fill="none" fill-rule="evenodd">
        <path fill="currentColor" d="M7.99373366,1.52654809 C4.53471662,1.52654809 1.73366477,4.33386627 1.73366477,7.79288332 C1.73366477,11.2519004 4.53471662,14.0592185 7.99373366,14.0592185 C11.459017,14.0592185 14.2663352,11.2519004 14.2663352,7.79288332 C14.2663352,4.33386627 11.459017,1.52654809 7.99373366,1.52654809 L7.99373366,1.52654809 Z M8,12.8059515 C5.23027983,12.8059515 2.98693182,10.5626035 2.98693182,7.79288332 C2.98693182,5.02316315 5.23027983,2.77981514 8,2.77981514 C10.7697202,2.77981514 13.0130682,5.02316315 13.0130682,7.79288332 C13.0130682,10.5626035 10.7697202,12.8059515 8,12.8059515 L8,12.8059515 Z"></path>
        <polygon fill="currentColor" points="8.31331676 4.65971571 7.37336648 4.65971571 7.37336648 8.41951684 10.6631925 10.3934124 11.1331676 9.62265321 8.31331676 7.9495417"></polygon>
    </g>
</svg>