<svg 
 xmlns="http://www.w3.org/2000/svg"
 xmlns:xlink="http://www.w3.org/1999/xlink"
 viewBox="0 0 34 8">
<defs>
<filter id="Filter_0">
    <feFlood flood-color="#696f77" flood-opacity="1" result="floodOut" />
    <feComposite operator="atop" in="floodOut" in2="SourceGraphic" result="compOut" />
    <feBlend mode="normal" in="compOut" in2="SourceGraphic" />
</filter>
<filter id="Filter_1">
    <feFlood flood-color="#696f77" flood-opacity="1" result="floodOut" />
    <feComposite operator="atop" in="floodOut" in2="SourceGraphic" result="compOut" />
    <feBlend mode="normal" in="compOut" in2="SourceGraphic" />
</filter>
<filter id="Filter_2">
    <feFlood flood-color="#696f77" flood-opacity="1" result="floodOut" />
    <feComposite operator="atop" in="floodOut" in2="SourceGraphic" result="compOut" />
    <feBlend mode="normal" in="compOut" in2="SourceGraphic" />
</filter>

</defs>
<g filter="url(#Filter_0)">
<path fill-rule="evenodd"  fill="rgb(151, 155, 160)"
 d="M3.534,0.812 C5.385,0.812 6.886,2.281 6.886,4.093 C6.886,5.906 5.385,7.375 3.534,7.375 C1.684,7.375 0.183,5.906 0.183,4.093 C0.183,2.281 1.684,0.812 3.534,0.812 Z"/>
</g>
<g filter="url(#Filter_1)">
<path fill-rule="evenodd"  fill="rgb(151, 155, 160)"
 d="M16.852,0.812 C18.693,0.812 20.185,2.281 20.185,4.093 C20.185,5.906 18.693,7.375 16.852,7.375 C15.010,7.375 13.517,5.906 13.517,4.093 C13.517,2.281 15.010,0.812 16.852,0.812 Z"/>
</g>
<g filter="url(#Filter_2)">
<path fill-rule="evenodd"  fill="rgb(151, 155, 160)"
 d="M30.240,0.812 C32.072,0.812 33.556,2.281 33.556,4.093 C33.556,5.906 32.072,7.375 30.240,7.375 C28.408,7.375 26.924,5.906 26.924,4.093 C26.924,2.281 28.408,0.812 30.240,0.812 Z"/>
</g>
</svg>