<svg 
 xmlns="http://www.w3.org/2000/svg"
 xmlns:xlink="http://www.w3.org/1999/xlink"
 viewBox="0 0 36 30">
<path fill-rule="evenodd"  fill="rgb(253, 253, 254)"
 d="M33.000,30.000 L3.000,30.000 C1.344,30.000 -0.000,28.654 -0.000,26.999 L-0.000,16.481 C-0.000,16.196 0.160,15.936 0.415,15.809 C0.671,15.681 0.976,15.710 1.202,15.883 C1.735,16.287 2.356,16.500 3.000,16.500 L14.999,16.500 L14.999,18.750 C14.999,19.164 15.334,19.500 15.749,19.500 L20.249,19.500 C20.664,19.500 20.999,19.164 20.999,18.750 L20.999,16.500 L33.000,16.500 C33.642,16.500 34.262,16.287 34.797,15.883 C35.022,15.712 35.327,15.682 35.583,15.809 C35.837,15.936 36.000,16.196 36.000,16.481 L36.000,26.999 C36.000,28.654 34.654,30.000 33.000,30.000 ZM33.000,15.000 L20.999,15.000 L20.999,14.249 C20.999,13.835 20.664,13.500 20.249,13.500 L15.749,13.500 C15.334,13.500 14.999,13.835 14.999,14.249 L14.999,15.000 L3.000,15.000 C1.344,15.000 -0.000,13.654 -0.000,12.000 L-0.000,7.500 C-0.000,5.845 1.344,4.500 3.000,4.500 L10.499,4.500 L10.499,3.000 C10.499,1.345 11.844,-0.000 13.499,-0.000 L22.499,-0.000 C24.153,-0.000 25.499,1.345 25.499,3.000 L25.499,4.500 L33.000,4.500 C34.654,4.500 36.000,5.845 36.000,7.500 L36.000,12.000 C36.000,13.654 34.654,15.000 33.000,15.000 ZM22.499,3.000 L13.499,3.000 L13.499,4.500 L22.499,4.500 L22.499,3.000 Z"/>
</svg>