<svg 
 xmlns="http://www.w3.org/2000/svg"
 xmlns:xlink="http://www.w3.org/1999/xlink"
 viewBox="0 0 55 50">
<path fill-rule="evenodd"  fill="rgb(219, 219, 219)"
 d="M49.126,32.604 L47.702,32.604 L47.702,39.048 C47.702,40.237 46.807,41.201 45.702,41.201 C45.121,41.201 44.582,40.927 44.195,40.451 L37.919,32.592 L15.626,32.592 C12.890,32.592 10.659,30.178 10.659,27.218 L10.659,5.840 C10.659,2.879 12.890,0.466 15.626,0.466 L49.126,0.466 C51.864,0.466 54.097,2.879 54.097,5.840 L54.097,27.230 C54.097,30.190 51.864,32.604 49.126,32.604 ZM15.782,38.465 L36.025,38.465 C36.770,38.465 37.377,39.120 37.377,39.928 C37.377,40.737 36.770,41.390 36.025,41.390 L16.399,41.390 L10.117,49.249 C9.732,49.737 9.182,49.999 8.619,49.999 C8.389,49.999 8.148,49.951 7.919,49.856 C7.120,49.547 6.620,48.750 6.620,47.835 L6.620,41.390 L5.200,41.390 C2.462,41.390 0.227,38.977 0.227,36.017 L0.227,14.639 C0.227,11.678 2.462,9.265 5.200,9.265 C5.947,9.265 6.555,9.907 6.555,10.715 C6.555,11.523 5.947,12.178 5.200,12.178 C3.945,12.178 2.924,13.283 2.924,14.639 L2.924,36.017 C2.924,37.372 3.945,38.478 5.200,38.478 L7.966,38.478 C8.709,38.478 9.314,39.132 9.314,39.940 L9.314,45.802 L14.762,38.965 C15.026,38.644 15.383,38.465 15.782,38.465 Z"/>
<path fill-rule="evenodd"  fill="rgb(255, 255, 255)"
 d="M38.530,19.556 C37.642,19.556 36.923,18.778 36.923,17.820 C36.923,16.861 37.642,16.084 38.530,16.084 C39.417,16.084 40.134,16.861 40.134,17.820 C40.134,18.778 39.417,19.556 38.530,19.556 ZM33.149,19.556 C32.263,19.556 31.545,18.778 31.545,17.820 C31.545,16.861 32.263,16.084 33.149,16.084 C34.034,16.084 34.752,16.861 34.752,17.820 C34.752,18.778 34.034,19.556 33.149,19.556 ZM27.770,19.556 C26.881,19.556 26.161,18.778 26.161,17.820 C26.161,16.861 26.881,16.084 27.770,16.084 C28.658,16.084 29.377,16.861 29.377,17.820 C29.377,18.778 28.658,19.556 27.770,19.556 Z"/>
</svg>