<svg 
 xmlns="http://www.w3.org/2000/svg"
 xmlns:xlink="http://www.w3.org/1999/xlink"
 viewBox="0 0 44 45">
<path fill-rule="evenodd"  fill="rgb(160, 144, 144)"
 d="M42.943,20.878 C42.867,20.887 42.804,20.897 42.729,20.897 C42.125,20.897 41.593,20.468 41.491,19.855 C40.756,15.519 38.715,11.564 35.571,8.420 C32.427,5.284 28.477,3.228 24.147,2.493 C23.457,2.372 22.999,1.730 23.110,1.042 C23.234,0.362 23.874,-0.103 24.553,0.018 C29.404,0.846 33.822,3.135 37.336,6.652 C40.852,10.169 43.138,14.588 43.966,19.445 C44.085,20.124 43.622,20.776 42.943,20.878 ZM24.209,8.010 C27.156,8.513 29.842,9.908 31.973,12.039 C34.100,14.169 35.496,16.859 35.995,19.808 C36.108,20.496 35.653,21.148 34.964,21.260 C34.890,21.269 34.826,21.278 34.754,21.278 C34.145,21.278 33.616,20.850 33.517,20.236 C33.096,17.798 31.952,15.584 30.188,13.816 C28.421,12.048 26.208,10.895 23.770,10.485 C23.084,10.373 22.638,9.713 22.760,9.034 C22.880,8.354 23.519,7.898 24.209,8.010 ZM15.877,16.300 C15.191,16.998 14.482,17.724 13.722,18.422 C14.291,19.678 15.069,20.915 16.230,22.385 C18.630,25.334 21.131,27.614 23.885,29.364 C24.153,29.531 24.468,29.689 24.805,29.857 C25.035,29.978 25.278,30.098 25.522,30.229 L28.460,27.298 C29.398,26.358 30.494,25.865 31.635,25.865 C32.789,25.865 33.877,26.367 34.777,27.307 L39.881,32.433 C40.822,33.364 41.317,34.471 41.317,35.625 C41.317,36.769 40.832,37.886 39.910,38.844 C39.513,39.263 39.103,39.663 38.702,40.045 C38.118,40.612 37.559,41.142 37.074,41.728 C37.068,41.747 37.051,41.757 37.041,41.775 C35.625,43.310 33.822,44.083 31.673,44.083 C31.488,44.083 31.286,44.074 31.088,44.064 C27.899,43.859 25.045,42.659 22.906,41.645 C17.309,38.937 12.407,35.095 8.339,30.229 C4.985,26.191 2.735,22.422 1.228,18.357 C0.611,16.700 -0.189,14.169 0.034,11.453 C0.183,9.769 0.861,8.317 2.056,7.126 L5.216,3.935 C5.225,3.926 5.225,3.926 5.236,3.916 C6.166,3.023 7.262,2.549 8.395,2.549 C9.531,2.549 10.605,3.023 11.508,3.916 C12.112,4.475 12.698,5.070 13.253,5.647 C13.535,5.945 13.833,6.242 14.121,6.531 L16.660,9.071 C18.613,11.025 18.613,13.556 16.660,15.510 C16.400,15.770 16.138,16.040 15.877,16.300 Z"/>
</svg>