<svg 
 xmlns="http://www.w3.org/2000/svg"
 xmlns:xlink="http://www.w3.org/1999/xlink"
 viewBox="0 0 50 50">
<path fill-rule="evenodd"  fill="rgb(219, 219, 219)"
 d="M39.197,49.504 L23.579,37.046 L5.238,37.046 C2.395,37.046 0.081,34.756 0.081,31.942 L0.081,6.066 C0.081,3.251 2.395,0.961 5.238,0.961 L44.838,0.961 C47.683,0.961 49.999,3.251 49.999,6.066 L49.999,31.942 C49.999,34.757 47.683,37.046 44.838,37.046 L39.197,37.046 L39.197,49.504 L39.197,49.504 Z"/>
<path fill-rule="evenodd"  fill="rgb(255, 255, 255)"
 d="M39.773,17.619 C39.039,17.619 38.620,17.909 38.620,18.391 C38.620,18.836 38.998,19.069 40.192,19.474 C42.038,20.092 42.814,21.001 42.834,22.391 C42.834,24.149 41.402,25.444 38.620,25.444 C37.348,25.444 36.215,25.174 35.482,24.787 L36.017,22.682 C36.574,23.011 37.726,23.397 38.620,23.397 C39.536,23.397 39.913,23.088 39.913,22.605 C39.913,22.121 39.614,21.889 38.482,21.522 C36.475,20.865 35.697,19.803 35.719,18.682 C35.719,16.924 37.271,15.592 39.672,15.592 C40.807,15.592 41.820,15.842 42.416,16.132 L41.882,18.161 C41.444,17.928 40.608,17.619 39.773,17.619 ZM30.694,20.112 C30.694,18.740 30.234,17.948 29.260,17.948 C28.566,17.948 28.070,18.411 27.871,18.972 C27.790,19.184 27.753,19.494 27.753,19.726 L27.753,25.251 L24.814,25.251 L24.814,19.957 C24.814,18.759 24.377,17.948 23.421,17.948 C22.645,17.948 22.186,18.528 22.009,19.011 C21.908,19.242 21.892,19.513 21.892,19.745 L21.892,25.251 L18.950,25.251 L18.950,18.817 C18.950,17.639 18.908,16.634 18.869,15.803 L21.415,15.803 L21.551,17.078 L21.612,17.078 C22.029,16.480 22.885,15.592 24.554,15.592 C25.803,15.592 26.799,16.209 27.213,17.194 L27.256,17.194 C27.614,16.711 28.049,16.324 28.510,16.055 C29.045,15.746 29.643,15.592 30.358,15.592 C32.223,15.592 33.634,16.867 33.634,19.686 L33.634,25.251 L30.694,25.251 L30.694,20.112 ZM17.124,22.391 C17.124,24.149 15.694,25.444 12.907,25.444 C11.635,25.444 10.504,25.174 9.768,24.787 L10.306,22.682 C10.860,23.011 12.013,23.397 12.907,23.397 C13.822,23.397 14.201,23.088 14.201,22.605 C14.201,22.121 13.901,21.889 12.770,21.522 C10.762,20.865 9.987,19.803 10.008,18.682 C10.008,16.924 11.560,15.592 13.962,15.592 C15.095,15.592 16.107,15.842 16.705,16.132 L16.169,18.161 C15.731,17.928 14.898,17.619 14.060,17.619 C13.322,17.619 12.907,17.909 12.907,18.391 C12.907,18.836 13.287,19.069 14.477,19.474 C16.324,20.092 17.102,21.001 17.124,22.391 Z"/>
</svg>