<?xml version="1.0" encoding="UTF-8"?>
<svg viewBox="-1 -1 14 14" id="price-tag" version="1.1" xmlns="http://www.w3.org/2000/svg" xmlns:xlink="http://www.w3.org/1999/xlink">
    <g stroke="currentColor" stroke-width="0.5" fill="none" fill-rule="evenodd">
        <path d="M11.9405072,0.0586878057 C11.8609293,-0.0195626019 11.7327909,-0.0195626019 11.6534672,0.0586878057 L10.8986207,0.799941666 L6.16335092,0.799941666 L0.210512935,6.70222241 C0.0744931037,6.8359731 0,7.01272402 0,7.20122501 C0,7.38972599 0.0744931037,7.56747691 0.210512935,7.70022761 L4.37271976,11.7929989 C4.51280747,11.9307496 4.69560796,12 4.87917117,12 C5.06400559,12 5.24884002,11.9307496 5.38969046,11.7909989 L11.1866777,5.93746842 L11.1866777,1.08294314 L11.9405072,0.341939281 C12.0198309,0.263688873 12.0198309,0.136688212 11.9405072,0.0586878057 Z M10.7793809,5.77446758 L5.09985381,11.5107475 C4.97858005,11.6299981 4.78205047,11.6299981 4.66077671,11.5107475 L0.497552914,7.41697613 C0.376279158,7.29797551 0.376279158,7.1044745 0.498569885,6.98447388 L6.33318503,1.20019375 L10.4925952,1.20019375 L9.50918452,2.16694879 C9.34850315,2.06144824 9.1557872,1.99994792 8.9490879,1.99994792 C8.38899129,1.99994792 7.93211721,2.44820025 7.93211721,2.99995312 C7.93211721,3.551706 8.38899129,3.99995833 8.9490879,3.99995833 C9.51020149,3.99995833 9.9660586,3.551706 9.9660586,2.99995312 C9.9660586,2.79695207 9.9035149,2.60745108 9.79724147,2.44920026 L10.7793809,1.48244522 L10.7793809,5.77446758 Z M9.56003305,2.99995312 C9.56003305,3.33120485 9.28570521,3.59970625 8.9490879,3.59970625 C8.6124706,3.59970625 8.33941397,3.33120485 8.33941397,2.99995312 C8.33941397,2.6689514 8.6124706,2.40045 8.9490879,2.40045 C9.04341194,2.40045 9.13087142,2.42295012 9.21044937,2.45995031 L8.80518655,2.85845239 C8.72560859,2.93645279 8.72560859,3.06345346 8.80518655,3.14170386 C8.84484841,3.18070407 8.89747664,3.20020417 8.9490879,3.20020417 C9.00171614,3.20020417 9.0533274,3.18070407 9.0932435,3.14170386 L9.49825208,2.74320179 C9.53613424,2.8214522 9.56003305,2.90720264 9.56003305,2.99995312 Z"></path>
    </g>
</svg>