<svg xmlns="http://www.w3.org/2000/svg" xmlns:xlink="http://www.w3.org/1999/xlink" viewBox="0 0 61 67" id="bell">
    <path fill-rule="evenodd" fill="rgb(229, 220, 210)"
          d="M-0.001,54.766 L-0.001,51.904 L60.823,51.904 L60.823,54.766 L-0.001,54.766 ZM54.332,51.899 L50.808,51.899 C50.808,51.899 50.808,51.899 50.809,51.899 L52.134,51.899 L52.134,43.303 L52.135,43.303 L52.135,27.472 C52.135,14.536 43.444,5.910 30.412,5.910 C17.377,5.910 8.689,14.536 8.689,27.472 L8.689,43.303 L8.689,43.303 L8.689,51.899 L10.015,51.899 L10.015,51.899 L6.491,51.899 L6.491,51.899 L5.792,51.899 L5.792,43.303 L5.792,43.303 L5.792,25.815 C5.792,13.853 14.839,4.061 26.340,3.110 C26.918,1.403 28.494,0.154 30.411,0.154 C32.327,0.154 33.904,1.403 34.482,3.110 C45.983,4.063 55.031,13.853 55.031,25.815 L55.031,43.303 L55.031,43.303 L55.031,51.899 L54.332,51.899 L54.332,51.899 ZM30.411,63.440 C33.928,63.440 36.855,60.943 37.511,57.630 L40.406,57.630 C39.713,62.523 35.526,66.298 30.411,66.298 C25.297,66.298 21.109,62.523 20.417,57.630 L23.312,57.630 C23.967,60.943 26.893,63.440 30.411,63.440 Z"
    />
</svg>