<svg 
 xmlns="http://www.w3.org/2000/svg"
 xmlns:xlink="http://www.w3.org/1999/xlink"
 viewBox="0 0 58 53">
<path fill-rule="evenodd"  stroke-width="1px" stroke="rgb(255, 255, 255)" fill="rgb(254, 254, 254)"
 d="M50.665,42.344 L39.193,42.344 L29.008,52.510 L18.825,42.344 L7.353,42.344 C3.581,42.344 0.513,39.284 0.513,35.524 L0.513,7.313 C0.513,3.552 3.581,0.493 7.353,0.493 L50.665,0.493 C54.437,0.493 57.504,3.552 57.504,7.313 L57.504,35.524 C57.504,39.284 54.437,42.344 50.665,42.344 ZM55.223,7.313 C55.223,4.806 53.179,2.767 50.665,2.767 L7.353,2.767 C4.838,2.767 2.793,4.806 2.793,7.313 L2.793,35.524 C2.793,38.031 4.838,40.070 7.353,40.070 L19.771,40.070 L29.008,49.294 L38.249,40.070 L50.665,40.070 C53.179,40.070 55.223,38.030 55.223,35.524 L55.223,7.313 ZM9.632,20.452 L48.385,20.452 L48.385,22.725 L9.632,22.725 L9.632,20.452 ZM9.632,11.549 L48.385,11.549 L48.385,13.822 L9.632,13.822 L9.632,11.549 ZM42.687,31.629 L15.331,31.629 L15.331,29.356 L42.687,29.356 L42.687,31.629 Z"/>
</svg>