<svg xmlns="http://www.w3.org/2000/svg" xmlns:xlink="http://www.w3.org/1999/xlink" viewBox='0 0 27 25' id="basket">
    <path fill-rule="evenodd" fill="rgb(255, 255, 255)"
          d="M0.061,10.964 L0.061,8.378 L3.264,8.378 L9.697,1.886 C9.654,1.758 9.617,1.626 9.617,1.483 C9.617,0.769 10.190,0.190 10.896,0.190 C11.605,0.190 12.178,0.769 12.178,1.483 C12.178,2.197 11.605,2.776 10.896,2.776 C10.803,2.776 10.720,2.741 10.630,2.722 L5.025,8.378 L21.555,8.378 L15.980,2.708 C15.872,2.738 15.766,2.776 15.647,2.776 C14.941,2.776 14.367,2.197 14.367,1.483 C14.367,0.769 14.941,0.190 15.647,0.190 C16.355,0.190 16.929,0.769 16.929,1.483 C16.929,1.615 16.891,1.736 16.854,1.856 L23.317,8.378 L26.537,8.378 L26.537,10.964 L0.061,10.964 ZM21.302,23.809 C21.052,24.819 20.357,24.763 20.357,24.763 L6.184,24.791 C5.462,24.791 5.268,23.865 5.268,23.865 L1.522,11.838 L25.070,11.816 L21.302,23.809 ZM8.602,13.550 L7.748,13.550 L7.748,17.860 L8.602,17.860 L8.602,13.550 ZM8.602,18.722 L7.748,18.722 L7.748,23.031 L8.602,23.031 L8.602,18.722 ZM10.310,13.550 L9.455,13.550 L9.455,17.860 L10.310,17.860 L10.310,13.550 ZM10.310,18.722 L9.455,18.722 L9.455,23.031 L10.310,23.031 L10.310,18.722 ZM12.018,13.550 L11.164,13.550 L11.164,17.860 L12.018,17.860 L12.018,13.550 ZM12.018,18.722 L11.164,18.722 L11.164,23.031 L12.018,23.031 L12.018,18.722 ZM13.726,13.550 L12.872,13.550 L12.872,17.860 L13.726,17.860 L13.726,13.550 ZM13.726,18.722 L12.872,18.722 L12.872,23.031 L13.726,23.031 L13.726,18.722 ZM15.434,13.550 L14.579,13.550 L14.579,17.860 L15.434,17.860 L15.434,13.550 ZM15.434,18.722 L14.579,18.722 L14.579,23.031 L15.434,23.031 L15.434,18.722 ZM17.142,13.550 L16.288,13.550 L16.288,17.860 L17.142,17.860 L17.142,13.550 ZM17.142,18.722 L16.288,18.722 L16.288,23.031 L17.142,23.031 L17.142,18.722 ZM18.850,13.550 L17.996,13.550 L17.996,17.860 L18.850,17.860 L18.850,13.550 ZM18.850,18.722 L17.996,18.722 L17.996,23.031 L18.850,23.031 L18.850,18.722 Z"/>
</svg>