<svg xmlns="http://www.w3.org/2000/svg" xmlns:xlink="http://www.w3.org/1999/xlink" viewBox="0 0 22 22" id="store">
    <path fill-rule="evenodd" fill="rgb(253, 253, 254)"
          d="M20.725,8.279 C20.027,8.279 19.453,7.704 19.453,7.004 L19.453,5.100 L21.999,5.100 L21.999,7.004 C21.999,7.704 21.425,8.279 20.725,8.279 ZM17.327,-0.000 L18.897,-0.000 L21.686,4.400 L19.332,4.400 L17.327,-0.000 ZM16.121,4.400 L14.937,-0.000 L16.561,-0.000 L18.547,4.400 L16.121,4.400 ZM12.933,4.400 L12.547,-0.000 L14.207,-0.000 L15.391,4.400 L12.933,4.400 ZM12.964,6.999 L12.964,5.096 L15.511,5.096 L15.511,6.999 C15.511,7.700 14.937,8.274 14.239,8.274 C13.538,8.274 12.964,7.700 12.964,6.999 ZM16.211,6.999 L16.211,5.096 L18.758,5.096 L18.758,6.999 C18.758,7.700 18.184,8.274 17.484,8.274 C16.785,8.274 16.211,7.700 16.211,6.999 ZM14.233,8.993 C14.915,8.993 15.508,8.643 15.856,8.135 C16.224,8.661 16.816,8.993 17.480,8.993 C18.161,8.993 18.752,8.643 19.103,8.135 C19.453,8.643 20.045,8.975 20.694,8.975 C21.182,8.975 21.619,8.800 21.968,8.521 L21.968,22.000 L8.786,22.000 L8.786,10.807 L1.604,10.807 L1.604,22.000 L-0.001,22.000 L-0.001,8.539 C0.348,8.818 0.783,8.993 1.272,8.993 C1.936,8.993 2.510,8.678 2.877,8.171 C3.226,8.661 3.800,8.993 4.446,8.993 C4.446,8.993 5.465,9.114 6.136,8.171 C6.504,8.661 7.078,8.993 7.742,8.993 C8.424,8.993 9.014,8.643 9.365,8.135 C9.733,8.661 10.307,8.993 10.988,8.993 C11.669,8.993 12.261,8.643 12.611,8.135 C12.978,8.661 13.571,8.993 14.233,8.993 ZM10.440,10.807 L10.440,17.860 L20.672,17.860 L20.676,17.860 L20.676,10.807 L10.440,10.807 ZM12.759,15.678 C12.543,15.871 12.341,15.750 12.271,15.678 C12.132,15.539 12.132,15.314 12.252,15.171 L14.866,12.602 C15.005,12.463 15.234,12.463 15.373,12.602 C15.511,12.742 15.511,12.971 15.373,13.110 L12.759,15.678 ZM12.181,13.689 C11.966,13.882 11.764,13.756 11.692,13.689 C11.552,13.550 11.552,13.321 11.692,13.182 L12.826,12.028 C12.964,11.888 13.194,11.888 13.333,12.028 C13.471,12.167 13.471,12.396 13.333,12.535 L12.181,13.689 ZM10.996,8.274 C10.301,8.274 9.723,7.700 9.723,6.999 L9.723,5.096 L12.271,5.096 L12.271,6.999 C12.271,7.700 11.696,8.274 10.996,8.274 ZM10.159,-0.000 L11.834,-0.000 L12.234,4.400 L9.759,4.400 L10.159,-0.000 ZM9.047,6.999 C9.047,7.700 8.473,8.274 7.773,8.274 C7.074,8.274 6.500,7.700 6.500,6.999 L6.500,5.096 L9.047,5.096 L9.047,6.999 ZM6.602,4.400 L7.791,-0.000 L9.446,-0.000 L9.060,4.400 L6.602,4.400 ZM5.782,7.008 C5.782,7.709 5.217,8.274 4.519,8.274 C3.819,8.274 3.254,7.709 3.254,7.008 L3.254,5.096 L5.782,5.096 L5.782,7.008 ZM3.446,4.400 L5.437,-0.000 L7.057,-0.000 L5.872,4.400 L3.446,4.400 ZM2.559,6.999 C2.559,7.700 1.985,8.274 1.285,8.274 C0.587,8.274 0.013,7.700 0.013,6.999 L0.013,5.096 L2.559,5.096 L2.559,6.999 ZM0.308,4.400 L3.097,-0.000 L4.666,-0.000 L2.662,4.400 L0.308,4.400 Z"
    />
</svg>