<svg 
 xmlns="http://www.w3.org/2000/svg"
 xmlns:xlink="http://www.w3.org/1999/xlink"
 viewBox="0 0 31 26">
<path fill-rule="evenodd"  fill="#2b2928"
 d="M30.625,21.190 C30.370,20.934 30.067,20.805 29.717,20.805 L1.291,20.805 C0.941,20.805 0.638,20.934 0.382,21.190 C0.127,21.448 -0.002,21.752 -0.002,22.104 L-0.002,24.702 C-0.002,25.054 0.127,25.359 0.382,25.616 C0.638,25.873 0.941,26.001 1.291,26.001 L29.717,26.001 C30.067,26.001 30.370,25.873 30.625,25.616 C30.882,25.359 31.009,25.054 31.009,24.702 L31.009,22.104 C31.009,21.752 30.882,21.448 30.625,21.190 ZM30.625,10.797 C30.370,10.540 30.067,10.411 29.717,10.411 L1.291,10.411 C0.941,10.411 0.638,10.540 0.382,10.797 C0.127,11.054 -0.002,11.358 -0.002,11.710 L-0.002,14.309 C-0.002,14.660 0.127,14.965 0.382,15.222 C0.638,15.479 0.941,15.608 1.291,15.608 L29.717,15.608 C30.067,15.608 30.370,15.479 30.625,15.222 C30.882,14.965 31.009,14.660 31.009,14.309 L31.009,11.710 C31.009,11.358 30.882,11.054 30.625,10.797 ZM30.625,0.403 C30.370,0.146 30.067,0.017 29.717,0.017 L1.291,0.017 C0.941,0.017 0.638,0.146 0.382,0.403 C0.127,0.660 -0.002,0.965 -0.002,1.316 L-0.002,3.915 C-0.002,4.267 0.127,4.572 0.382,4.828 C0.638,5.086 0.941,5.214 1.291,5.214 L29.717,5.214 C30.067,5.214 30.370,5.086 30.625,4.828 C30.882,4.572 31.009,4.267 31.009,3.915 L31.009,1.316 C31.009,0.965 30.882,0.660 30.625,0.403 Z"/>
</svg>