<svg 
 xmlns="http://www.w3.org/2000/svg"
 xmlns:xlink="http://www.w3.org/1999/xlink"
 viewBox="0 0 52 39">
<path fill-rule="evenodd"  fill="rgb(219, 219, 219)"
 d="M45.228,0.466 L7.137,0.466 C3.737,0.466 0.974,3.214 0.974,6.595 L0.974,32.477 C0.974,35.858 3.737,38.606 7.137,38.606 L45.219,38.606 C48.619,38.606 51.379,35.858 51.379,32.477 L51.379,6.605 C51.394,3.224 48.630,0.466 45.228,0.466 Z"/>
<path fill-rule="evenodd"  fill="rgb(255, 255, 255)"
 d="M32.764,19.215 L45.093,8.223 C45.667,7.704 45.717,6.823 45.197,6.242 C44.678,5.672 43.789,5.619 43.205,6.138 L26.200,21.309 L22.886,18.364 C22.878,18.354 22.863,18.343 22.863,18.333 C22.792,18.260 22.721,18.199 22.637,18.136 L9.137,6.128 C8.556,5.609 7.669,5.661 7.144,6.242 C6.625,6.823 6.678,7.704 7.263,8.223 L19.737,19.308 L7.313,30.870 C6.753,31.399 6.719,32.281 7.253,32.851 C7.535,33.141 7.910,33.297 8.284,33.297 C8.627,33.297 8.974,33.172 9.243,32.923 L21.858,21.195 L25.277,24.233 C25.547,24.472 25.880,24.586 26.212,24.586 C26.547,24.586 26.891,24.462 27.153,24.223 L30.669,21.092 L43.205,32.934 C43.477,33.193 43.829,33.317 44.172,33.317 C44.550,33.317 44.917,33.172 45.197,32.882 C45.731,32.322 45.709,31.430 45.147,30.901 L32.764,19.215 Z"/>
</svg>