<svg xmlns="http://www.w3.org/2000/svg" xmlns:xlink="http://www.w3.org/1999/xlink" viewBox="0 0 23 22" id="box-cart">
    <path fill-rule="evenodd" fill="rgb(255, 255, 255)"
          d="M12.087,15.963 C11.712,15.599 11.276,15.317 10.797,15.142 L9.798,11.129 L21.712,7.696 L22.990,12.821 L12.087,15.963 ZM8.294,5.096 L16.237,2.807 L17.515,7.932 L9.572,10.221 L8.294,5.096 ZM8.650,15.065 C8.429,15.129 8.222,15.219 8.022,15.321 L4.519,1.263 L3.202,1.263 C3.070,1.560 2.793,1.768 2.466,1.768 L0.821,1.768 C0.367,1.768 -0.002,1.372 -0.002,0.884 C-0.002,0.395 0.367,-0.000 0.821,-0.000 L2.466,-0.000 C2.742,-0.000 2.974,0.155 3.122,0.378 L5.653,0.378 L5.653,0.421 L5.690,0.410 L9.313,14.949 C9.093,14.968 8.872,15.001 8.650,15.065 ZM8.863,15.920 C10.398,15.477 11.976,16.457 12.388,18.108 C12.799,19.760 11.888,21.457 10.353,21.900 C8.817,22.342 7.239,21.362 6.828,19.711 C6.417,18.059 7.328,16.362 8.863,15.920 ZM8.430,19.306 C8.606,20.014 9.282,20.434 9.941,20.244 C10.598,20.055 10.988,19.327 10.812,18.620 C10.637,17.912 9.960,17.492 9.302,17.681 C8.644,17.871 8.254,18.598 8.430,19.306 ZM22.888,15.827 L13.290,18.592 C13.273,18.355 13.242,18.117 13.183,17.879 C13.123,17.642 13.039,17.419 12.944,17.204 L22.492,14.453 L22.888,15.827 Z"
    />
</svg>