<?xml version="1.0" encoding="UTF-8"?>
<svg id="calendar" viewBox="0 0 16 16" version="1.1" xmlns="http://www.w3.org/2000/svg" xmlns:xlink="http://www.w3.org/1999/xlink">
    <g stroke="none" stroke-width="1" fill="none" fill-rule="evenodd">
        <path fill="currentColor" d="M12.6151899,3.77721519 L12.0683544,3.77721519 L12.0683544,5.88860759 L10.1544304,5.88860759 L10.1544304,3.77721519 L6.66075949,3.77721519 L6.66075949,5.88860759 L4.74683544,5.88860759 L4.74683544,3.77721519 L4.2,3.77721519 C3.53164557,3.77721519 3,4.32405063 3,4.97721519 L3,12.8 C3,13.4683544 3.54683544,14 4.2,14 L12.6151899,14 C13.2835443,14 13.8151899,13.4531646 13.8151899,12.8 L13.8151899,4.97721519 C13.8151899,4.30886076 13.2683544,3.77721519 12.6151899,3.77721519 L12.6151899,3.77721519 Z M12.6151899,12.8 L4.2,12.8 L4.2,6.92151899 L12.6151899,6.92151899 L12.6151899,12.8 L12.6151899,12.8 Z M5.15696203,4.84050633 L5.15696203,2.53164557 C5.15696203,2.24303797 5.38481013,2 5.68860759,2 C5.99240506,2 6.22025316,2.2278481 6.22025316,2.53164557 L6.22025316,4.84050633 C6.22025316,5.12911392 5.99240506,5.3721519 5.68860759,5.3721519 C5.38481013,5.3721519 5.15696203,5.12911392 5.15696203,4.84050633 L5.15696203,4.84050633 Z M10.6101266,4.84050633 L10.6101266,2.53164557 C10.6101266,2.24303797 10.8379747,2 11.1417722,2 C11.4455696,2 11.6734177,2.2278481 11.6734177,2.53164557 L11.6734177,4.84050633 C11.6734177,5.12911392 11.4455696,5.3721519 11.1417722,5.3721519 C10.8379747,5.3721519 10.6101266,5.12911392 10.6101266,4.84050633 L10.6101266,4.84050633 Z"></path>
    </g>
</svg>