<svg xmlns="http://www.w3.org/2000/svg" xmlns:xlink="http://www.w3.org/1999/xlink" viewBox="0 0 25 25" id="tools">
    <path fill-rule="evenodd" fill="rgb(253, 253, 254)"
          d="M24.766,9.302 L22.891,11.200 C22.579,11.514 22.077,11.514 21.765,11.200 C21.454,10.886 21.454,10.374 21.766,10.061 L22.003,9.820 C21.998,9.817 21.995,9.817 21.994,9.816 C21.561,9.498 20.203,8.142 19.721,8.388 C19.293,8.602 18.777,8.143 18.777,8.143 L18.493,7.854 L11.229,15.214 C11.171,15.114 11.103,15.018 11.020,14.934 L9.798,13.697 C9.713,13.611 9.618,13.542 9.520,13.482 L16.782,6.122 L16.629,5.968 C16.629,5.968 16.220,5.505 16.500,5.122 C17.229,4.130 16.696,1.559 12.394,0.799 C11.802,0.693 11.698,0.567 12.266,0.369 C13.685,-0.125 16.665,-0.228 21.126,4.293 C21.126,4.293 22.923,6.403 22.694,7.296 C22.640,7.500 23.069,8.116 23.328,8.477 L23.640,8.161 C23.951,7.846 24.456,7.846 24.765,8.160 C25.076,8.475 25.076,8.986 24.766,9.302 ZM12.342,9.206 L9.247,12.341 L6.422,9.480 C5.947,9.633 5.453,9.713 4.952,9.713 C3.673,9.713 2.471,9.208 1.567,8.292 C0.134,6.841 -0.241,4.620 0.633,2.765 C0.680,2.667 0.770,2.598 0.875,2.579 C0.978,2.561 1.087,2.595 1.163,2.673 L4.138,5.685 C4.576,6.131 5.339,6.131 5.775,5.687 C5.994,5.465 6.115,5.170 6.115,4.856 C6.115,4.543 5.995,4.248 5.775,4.026 L2.803,1.012 C2.727,0.935 2.693,0.827 2.711,0.720 C2.729,0.613 2.797,0.522 2.894,0.475 C3.535,0.164 4.251,0.001 4.964,0.001 C6.240,0.001 7.443,0.505 8.346,1.421 C9.615,2.706 10.062,4.617 9.518,6.341 L12.342,9.206 ZM8.298,14.154 C8.585,13.902 9.041,13.919 9.309,14.191 L10.531,15.429 C10.800,15.701 10.816,16.162 10.568,16.452 L3.330,24.635 C3.081,24.925 2.659,24.940 2.389,24.668 L0.191,22.441 C-0.077,22.169 -0.061,21.740 0.227,21.488 L8.298,14.154 ZM15.450,12.353 L18.576,15.521 C19.051,15.367 19.546,15.287 20.048,15.287 C21.327,15.287 22.527,15.792 23.431,16.708 C24.864,18.159 25.237,20.380 24.365,22.235 C24.318,22.333 24.228,22.402 24.123,22.420 C24.017,22.438 23.911,22.404 23.835,22.327 L20.861,19.314 C20.423,18.870 19.662,18.870 19.224,19.314 C19.004,19.536 18.883,19.831 18.883,20.144 C18.884,20.457 19.004,20.752 19.224,20.973 L22.196,23.988 C22.271,24.065 22.306,24.174 22.288,24.281 C22.269,24.387 22.202,24.479 22.105,24.525 C21.464,24.835 20.748,25.000 20.034,25.000 C18.758,25.000 17.555,24.495 16.652,23.580 C15.384,22.293 14.937,20.383 15.480,18.659 L12.354,15.491 L15.450,12.353 Z"/>
</svg>