<svg id="lv-logo" xmlns="http://www.w3.org/2000/svg" viewBox="0 0 96 94">
    <path fill="currentColor"
          d="M329,349h25v6c-6.25-.22-9.43,1.42-12,7-.26.57-25.46,58.28-29,70H302c-1.33-2.67-5.24-9.19-5-9-.05-.19-5,14.77-5,15,.16,0,39.09-.07,39.45-.06,5.18.12,16.3-14,16.55-18.94h6l-11,24H261c.82-2.21,1.78-5,2-5,19,.09,16.23-.47,27-32,.09-.25-21.32-43.88-22-45-2.66-4.4-9.92-4-10-4s0-5.94,0-6h29c0,.09.08,5.92,0,6s-5.19-.6-5,2c.08.08,13.78,29,14,29a156,156,0,0,0,7-18c-.16-3-2.92-3-6-3,0,0,2.86-4.94,3-5,.1.12,27.89,0,28,0s-2,5-2,5c-5.12,0-8.4,0-11,7-.09.23-11,30.83-11,31,2,4.33,5,10.67,7,15,.22-.32,26.27-60.05,26-62-1.33-4.49-5.18-2.44-8-3Z"
          transform="translate(-258 -349)"
    />
</svg>