<?xml version="1.0" encoding="UTF-8"?>
<svg id="trolley" viewBox="0 0 58 60" version="1.1" xmlns="http://www.w3.org/2000/svg" xmlns:xlink="http://www.w3.org/1999/xlink">
    <defs></defs>
    <g id="Symbols" stroke="none" stroke-width="1" fill="none" fill-rule="evenodd">
        <g id="Card/illustration/delivery">
            <g>
                <g id="Group-5">
                    <path d="M31.6074653,54.2406373 C31.6074653,57.2393205 29.2202211,59.6698482 26.275491,59.6698482 C23.3307609,59.6698482 20.943964,57.2393205 20.943964,54.2406373 C20.943964,51.2419541 23.3307609,48.8108192 26.275491,48.8108192 C29.2202211,48.8108192 31.6074653,51.2419541 31.6074653,54.2406373 Z" id="Fill-1" fill="#3F2823"></path>
                    <path d="M57.8607404,45.1871115 C57.6703393,44.5679403 56.978365,44.2399831 56.381964,44.4824589 L33.0030437,52.657097 C33.5994447,53.5076602 33.6948689,54.5033749 33.7427301,54.8800702 L57.1216504,46.7054321 C57.7180514,46.4621971 58.0402571,45.8062826 57.8607404,45.1871115 Z" id="Fill-3" fill="#3F2823"></path>
                    <path d="M24.8799126,46.636584 L10.4590848,3.84423595 C9.48128535,1.0139345 6.42756298,-0.552365038 3.63610797,0.443349618 C0.845100257,1.43921611 -0.681388175,4.54888855 0.296411311,7.39088107 C0.487557841,8.01065954 1.17878663,8.33861679 1.77518766,8.09553366 C2.39544473,7.91348702 2.71765039,7.19699153 2.47938817,6.58966328 C1.93069923,5.03459931 2.81307455,3.23690771 4.38802057,2.66632282 C5.96222108,2.09513061 7.72756812,2.99428008 8.28848329,4.59747481 L22.7570231,47.3898229 C22.9003085,47.1104519 24.343599,46.587846 24.8799126,46.636584 Z" id="Fill-4" fill="#3F2823"></path>
                </g>
                <path d="M32.1982651,4 L25.7352723,6.44016667 L27.2624445,11.1471667 C27.4825101,11.8268333 27.1526409,12.5736667 26.5292492,12.8001667 C25.9183803,13.0266667 25.2592528,12.6803333 25.0390345,12.0136667 L23.4629928,7.267 L17,9.707 L21.8506044,25 L37,19.347 L32.1982651,4 Z" id="Fill-6" fill="#DCB78D"></path>
                <path d="M45.3324974,19 L22,27.6092296 L29.2906542,50.1923607 C29.7656323,50.4009045 30.2398496,50.7004523 30.665991,51 L53,42.7945086 L45.3324974,19 Z" id="Fill-7" fill="#D9A461"></path>
                <polygon id="Path-2" fill="#DCB78D" fill-rule="nonzero" points="23 7.3124342 26.0779905 6 29 12.6800795 26.4673005 15 24.2853655 15 23 10.5"></polygon>
            </g>
        </g>
    </g>
</svg>