<?xml version="1.0" encoding="UTF-8"?>
<svg id="serve" viewBox="0 0 59 54" version="1.1" xmlns="http://www.w3.org/2000/svg" xmlns:xlink="http://www.w3.org/1999/xlink">
    <defs>
        <polygon id="path-1" points="0.139022556 0.595685185 42.9483457 0.595685185 42.9483457 18.8662963 0.139022556 18.8662963"></polygon>
    </defs>
    <g id="Symbols" stroke="none" stroke-width="1" fill="none" fill-rule="evenodd">
        <g id="Card/illustration/delivered" transform="translate(0.000000, -3.000000)">
            <g transform="translate(0.000000, 3.000000)">
                <path d="M19.6576427,27.9905341 C19.6931079,27.3444895 19.7403948,26.6960784 19.8231469,26.040568 C19.9791938,24.4881677 20.3125665,22.9263016 20.6530323,21.4093982 C20.8658234,20.6521298 21.0975293,19.9019608 21.3363282,19.1730899 C21.6413288,18.4607843 21.936872,17.7484787 22.2324152,17.0551048 C22.9062537,15.7062204 23.6557513,14.4401623 24.5612957,13.37762 C24.7740868,13.1078431 24.9845135,12.8404327 25.1878473,12.5730223 C25.4290105,12.3411089 25.6607164,12.1091954 25.8900579,11.8796484 C26.3700201,11.4442191 26.7861449,10.9732928 27.2661071,10.6301555 C28.2260314,9.92021636 29.0771959,9.24340771 29.9354534,8.82927654 C30.767703,8.36544963 31.4793711,7.95841785 32.1248375,7.72887086 C33.380305,7.22954699 34.1014304,6.97160243 34.1014304,6.97160243 C34.1014304,6.97160243 33.4914292,7.45199459 32.4203807,8.23766058 C31.8742168,8.59736308 31.2925878,9.17004733 30.5903771,9.75219743 C29.871616,10.3083164 29.2143279,11.1034483 28.4388226,11.8607167 C28.0416125,12.2488168 27.7460693,12.7386748 27.3772314,13.1906694 C27.1928124,13.413117 27.0083934,13.6450304 26.8239745,13.8840433 C26.6655633,14.1443543 26.5095165,14.4022989 26.3534697,14.6697093 C25.6607164,15.6872887 25.1429247,16.8894523 24.6062182,18.1010818 C24.3934271,18.7376606 24.173543,19.3860717 23.9418371,20.0321163 C23.7857903,20.7160243 23.6179217,21.3999324 23.4240454,22.0743746 C23.147417,23.4800541 22.8707885,24.9141312 22.7502069,26.3837052 C22.6674548,26.918526 22.6296253,27.4557133 22.5752453,27.9905341 C34.2480199,28 43.291642,28 55.9337983,28 C55.9716279,27.4462475 56,26.8901285 56,26.3269101 C56,15.668357 48.2402175,6.88640974 38.2579501,5.72210953 C38.8939591,5.12102772 39.3100839,4.26200135 39.3100839,3.31068289 C39.3100839,1.47903989 37.8323679,0 36.0047287,0 C34.1747251,0 32.6970091,1.47903989 32.6970091,3.31068289 C32.6970091,4.26200135 33.1036766,5.12102772 33.7491429,5.72210953 C23.7668755,6.88640974 16,15.668357 16,26.3269101 C16,26.8830291 16.0260078,27.4367816 16.0638373,27.9905341 L19.6576427,27.9905341 Z" id="Fill-1" fill="#D9A461"></path>
                <polygon id="Fill-2" fill="#3F2823" points="13 33 59 33 59 29 13 29"></polygon>
                <g id="Group-6" transform="translate(0.000000, 35.000000)">
                    <mask id="mask-2" fill="white">
                        <use xlink:href="#path-1"></use>
                    </mask>
                    <g id="Clip-4"></g>
                    <path d="M40.295688,1.9884321 C37.9415727,3.08703086 29.7322907,5.93269136 29.7322907,5.93269136 L20.0215652,5.34885185 C20.0215652,5.34885185 25.5778333,3.86919753 27.7234148,3.39900617 C29.8852155,2.9377284 28.9444962,0.595685185 27.7512193,0.595685185 C26.5648935,0.595685185 16.1729574,1.01462346 16.1729574,1.01462346 L9.2774386,3.39900617 L11.1055852,14.5142407 C11.1055852,14.5142407 12.5166642,12.1744259 13.9393283,12.1744259 C15.3596754,12.1744259 27.6770739,12.4864012 29.3430276,12.1744259 C31.0182494,11.8602222 41.2086028,5.15720988 42.4227331,4.37504321 C43.6438145,3.59064815 42.6567544,0.883148148 40.295688,1.9884321 Z" id="Fill-3" fill="#DCB78D" mask="url(#mask-2)"></path>
                    <polygon id="Fill-5" fill="#3F2823" mask="url(#mask-2)" points="0 4.59119753 0 18.9977716 10.5703484 17.1014074 7.9289198 3.2519321"></polygon>
                </g>
            </g>
        </g>
    </g>
</svg>