<?xml version="1.0" encoding="UTF-8"?>
<svg id="deposit" viewBox="0 0 47 56" version="1.1" xmlns="http://www.w3.org/2000/svg" xmlns:xlink="http://www.w3.org/1999/xlink">
    <defs>
        <polygon id="path-1" points="0 0 47 0 47 56 0 56"></polygon>
    </defs>
    <g id="Symbols" stroke="none" stroke-width="1" fill="none" fill-rule="evenodd">
        <g id="Card/illustration/deposit" transform="translate(-8.000000, -2.000000)">
            <g transform="translate(8.000000, 2.000000)">
                <mask id="mask-2" fill="white">
                    <use xlink:href="#path-1"></use>
                </mask>
                <g id="Clip-2"></g>
                <path d="M43.8786591,37.1281325 C41.1014084,37.3056827 37.4471485,40.1773485 33.922063,41.8287175 C29.6016038,43.8524839 22.8774836,42.2255344 22.8768279,42.2255344 C23.9141577,41.7220517 28.1295397,40.6833749 28.9785174,40.2979198 C33.491099,38.2431203 33.1081656,33.9637718 30.959083,34.0002315 C28.1192123,34.0466964 26.4524029,34.7679197 20.7874147,35.5668105 C16.4925282,36.1710237 11.4134151,35.9504002 8.97762427,36.9122573 C5.53827258,38.2716097 0,47.4143398 0,47.4143398 L8.5638726,56 C8.5638726,56 13.8652707,50.5978631 16.4444976,50.5978631 C22.3229186,50.5978631 22.5617602,50.5164647 28.018725,50.2096947 C30.3392752,50.0811532 30.8240072,49.9824577 32.1534549,49.5195046 C39.2278871,47.0446557 46.8249185,40.4542725 46.9644203,39.6619952 C47.2871925,37.8257842 45.3462972,37.036729 43.8786591,37.1281325 Z" id="Fill-1" fill="#D9A461" mask="url(#mask-2)"></path>
                <path d="M25.8823999,8.36319491 C27.0435641,7.65041973 28.0807002,6.66005126 28.9958861,5.65418768 C29.7675448,4.80690174 30.7870996,3.72059545 30.6766572,2.46499681 C30.5991397,1.58095119 29.8792659,1.142967 29.092743,1.04257845 C28.8398921,1.00977497 28.5857626,1.00136804 28.3303545,1.0051594 C28.1586972,1.00779687 27.8115467,0.960157638 27.6766502,1.09532777 C27.39503,1.37737178 27.1148482,1.66007517 26.8345066,1.94409728 C26.7745704,1.75156227 26.715753,1.55770852 26.6564561,1.36253604 C26.6216132,1.24731174 26.5228383,1.20230998 26.4123958,1.21895899 C25.6357824,1.34522767 24.8746725,1.5029811 24.0929446,1.35429396 C23.1333259,1.17197912 22.1887313,0.894385831 21.2398213,0.665915342 C21.1311369,0.638881316 21.0293253,0.699378191 20.9951217,0.808833029 C20.9182435,1.05988682 20.8408859,1.31110545 20.7640077,1.56215924 C20.4288444,1.22027772 20.0922427,0.882187551 19.7538828,0.542943492 C19.6739679,0.463654671 19.5633656,0.291065492 19.4423744,0.269800923 C19.2174937,0.228095993 18.9914943,0.188039478 18.7642162,0.151444638 C18.4109921,0.0940797536 18.0556903,0.051550615 17.6984705,0.0231978559 C16.9143451,-0.0397716439 15.4984121,-0.0534534986 15.4546187,1.06582112 C15.4135425,2.85715503 16.9461512,4.27627656 18.0449817,5.46560886 C18.724898,6.20162671 19.5416287,7.05352821 19.9985824,8.01686266 C15.1418317,9.63560739 11,15.7179336 11,22.2608273 C11,29.9046981 14.5175361,32 22.5008791,32 C30.4831032,32 34,29.9046981 34,22.2608273 C34,16.11718 30.3488461,10.381186 25.8823999,8.36319491 Z M25.8792034,23.3857065 C25.586395,23.8350648 25.1831442,24.1963976 24.7197974,24.4481107 C24.4757371,24.5781708 24.2190503,24.6818562 23.9569293,24.7618044 C23.9193693,24.774662 23.5773333,24.8705998 23.5773333,24.8705998 L23.5773333,25.8583308 C23.5773333,26.3180741 23.4918244,26.8048514 23.0927291,27.0778292 C22.6563935,27.3727308 22.01148,27.2845405 21.6875048,26.8551281 C21.4501574,26.54094 21.4370513,26.1281766 21.4370513,25.7468979 L21.4370513,24.8699405 C21.4370513,24.8699405 21.2185639,24.801696 21.1717337,24.7894977 C21.0181372,24.7463092 20.8664587,24.6953732 20.7158989,24.6426239 C20.6267138,24.6098204 20.5392869,24.5756982 20.4512206,24.5402572 C20.3882476,24.5839402 20.3220781,24.6239968 20.2533512,24.6587783 C20.1334788,24.7199346 20.0035371,24.764277 19.871198,24.7791127 C19.3461568,24.8300488 18.8853672,24.5079483 18.749352,23.9863894 C18.663843,23.6542335 18.6874978,23.298835 18.6874978,22.957448 C18.6874978,22.6168852 18.6625644,22.2575304 18.749352,21.9233965 C18.8941579,21.3715067 19.3880322,21.0579779 19.9324128,21.1377613 C20.1884603,21.174521 20.4200538,21.304581 20.5766871,21.5164025 C20.6597986,21.6271761 20.7197348,21.755258 20.7620897,21.885318 C20.8020472,22.0089493 20.8314559,22.1358773 20.9100922,22.2389033 C21.066246,22.4409992 21.3483458,22.5460033 21.5769025,22.6206765 C21.8804194,22.7223838 22.1994399,22.7720011 22.517821,22.7720011 C23.0284775,22.7720011 23.6602851,22.6587549 24.0306109,22.2595085 C24.2828225,21.9845527 24.1891621,21.5061823 23.8400937,21.3818917 C23.5079672,21.2660081 23.2252281,21.2066651 22.9010931,21.1455088 C22.60333,21.0874846 22.3049276,21.0322626 22.007644,20.9742384 C21.1904338,20.819617 20.3401388,20.6104329 19.7401375,19.9743091 C18.9721549,19.163618 18.8223943,17.8801611 19.3929869,16.9059472 C19.6733286,16.4269174 20.0935213,16.0392099 20.5773264,15.7874967 C20.8277798,15.6554586 21.0954949,15.5621582 21.367845,15.4958919 C21.4471206,15.4752867 21.4370513,15.4828694 21.4370513,15.4095149 L21.4370513,15.218958 C21.4370513,14.9176275 21.4196299,14.6072307 21.445842,14.3065596 C21.4901149,13.773297 21.7704565,13.2936078 22.3161157,13.2022856 C22.8499475,13.1145898 23.3481373,13.4114696 23.5042911,13.949183 C23.6016275,14.2819982 23.5773333,14.6426717 23.5773333,14.9883446 L23.5773333,15.4668798 C23.5773333,15.4733086 23.7159059,15.4970458 23.7315692,15.5003426 C23.8082875,15.5158377 23.8856452,15.536443 23.9612447,15.5583669 C24.0237382,15.5750159 24.1266687,15.6348534 24.1784535,15.5924891 C24.6175062,15.2247274 25.3241142,15.2389038 25.6968375,15.6960096 C25.9754209,16.0405286 25.9685483,16.588627 25.9685483,17.01227 C25.9685483,17.4031095 25.9990758,17.8165323 25.8418032,18.1816565 C25.6188405,18.6961272 25.0263511,18.9130587 24.5244852,18.7225018 C24.2789865,18.6310147 24.0755231,18.4424359 23.9599661,18.2009429 C23.9256027,18.1307204 23.8987512,18.0567065 23.878293,17.9813739 C23.8695024,17.9472517 23.8607117,17.9124701 23.853839,17.8776885 C23.8282663,17.8608747 23.8020542,17.844885 23.7752027,17.8307087 C23.6671577,17.7675743 23.5523999,17.7186163 23.4336463,17.6787247 C23.1565013,17.5878969 22.8649715,17.5595442 22.5758393,17.5639949 C22.309243,17.5672917 22.0370527,17.5905344 21.7822839,17.6716365 C21.4626241,17.7726844 20.9107315,18.1725902 21.3465876,18.4958446 C21.6063112,18.6908522 21.9814319,18.7450851 22.2862275,18.8073953 C22.5577785,18.8609688 22.8286902,18.9170149 23.1002411,18.9704236 C23.9075419,19.1346059 24.7859669,19.3038982 25.4315198,19.869305 C24.9919877,19.4855537 26.0190545,20.3760281 25.4315198,19.869305 C26.4242233,20.726976 26.5928438,22.2832457 25.8792034,23.3857065 Z" id="Fill-3" fill="#3F2823" mask="url(#mask-2)"></path>
            </g>
        </g>
    </g>
</svg>