<svg id="file" viewBox="0 0 59 60" xmlns="http://www.w3.org/2000/svg" xmlns:xlink="http://www.w3.org/1999/xlink">
    <defs>
        <polygon id="path-1" points="0 0 49 0 49 59 0 59"></polygon>
    </defs>
    <g stroke="none" stroke-width="1" fill="none" fill-rule="evenodd">
        <g transform="translate(9.000000, 3.000000)">
            <mask id="mask-2" fill="white">
                <use xlink:href="#path-1"></use>
            </mask>
            <g id="Clip-2"></g>
            <path d="M20.9969572,52 L38.6981721,52 C40.5206531,52 42,50.5486731 42,48.7607112 L42,3.2392888 C42,1.45132691 40.5206531,0 38.6981721,0 L15.111012,0 L15.111012,1.07159837 C15.1234953,1.18189646 15.129893,1.29824143 15.129893,1.41450985 L15.129893,10.2871913 C15.129893,12.8041463 13.044951,14.8492918 10.4797147,14.8492918 L1.43542131,14.8492918 C1.34187472,14.8492918 1.24224253,14.8433214 1.14838386,14.8370449 L0,14.8370449 L0,48.7607112 C0,50.5486731 1.47934686,52 3.30182791,52 L20.9969572,52 Z M21.6647347,40.9901687 L10.1240972,40.9901687 C9.26251672,40.9901687 8.56368703,40.3042692 8.56368703,39.4593139 C8.56368703,38.614282 9.26251672,37.928459 10.1240972,37.928459 L21.6711324,37.928459 C22.5324008,37.928459 23.2315426,38.614282 23.2315426,39.4593139 C23.2315426,40.3042692 22.5260031,40.9901687 21.6647347,40.9901687 Z M33.21177,33.1767622 L10.1240972,33.1767622 C9.26251672,33.1767622 8.56368703,32.4908627 8.56368703,31.6459074 C8.56368703,30.8006459 9.26251672,30.1150526 10.1240972,30.1150526 L33.21177,30.1150526 C34.0730383,30.1150526 34.7721801,30.8006459 34.7721801,31.6459074 C34.7721801,32.4908627 34.0730383,33.1767622 33.21177,33.1767622 Z M10.1240972,21.8176664 L33.21177,21.8176664 C34.0730383,21.8176664 34.7721801,22.5035659 34.7721801,23.3485212 C34.7721801,24.1934765 34.0730383,24.879376 33.21177,24.879376 L10.1240972,24.879376 C9.26251672,24.879376 8.56368703,24.1934765 8.56368703,23.3485212 C8.56368703,22.5035659 9.26251672,21.8176664 10.1240972,21.8176664 Z" id="Fill-3" fill="#D9A461" mask="url(#mask-2)"></path>
            <path d="M1.37284519,12 L10.2975514,12 C11.7838636,11.9886631 12.9877158,10.8776504 13,9.50596071 L13,1.26398951 C13,0.504561316 12.3242919,0 11.6243224,0 C11.2863532,0 10.9486143,0.113156077 10.6660776,0.374187377 L0.402699994,9.84613749 C-0.457424776,10.6396471 0.150720212,12 1.37284519,12 Z" id="Fill-4" fill="#DCB78D" mask="url(#mask-2)"></path>
        </g>
        <circle id="Oval-2" fill="#FFFFFF" fill-rule="nonzero" cx="48" cy="47" r="12"></circle>
        <path d="M52.1291028,46.2527352 L47.7527352,46.2527352 L47.7527352,41.8763676 C47.7527352,41.392779 47.3588621,41 46.8763676,41 C46.392779,41 46,41.392779 46,41.8763676 L46,47.1236324 C46,47.607221 46.392779,48 46.8763676,48 L52.1291028,48 C52.6115974,48 53,47.607221 53,47.1236324 C53,46.6411379 52.6115974,46.2527352 52.1291028,46.2527352 Z" id="Fill-3" fill="#3F2823"></path>
        <path d="M47.9975963,37 C42.4843998,37 38,41.4882458 38,47.0024037 C38,52.5156002 42.4843998,57 47.9975963,57 C53.5117542,57 58,52.5156002 58,47.0024037 C58,41.4882458 53.5117542,37 47.9975963,37 Z M47.9975963,55.4596894 C43.3333974,55.4596894 39.5355031,51.6666026 39.5355031,47.0024037 C39.5355031,42.3333974 43.3333974,38.5403106 47.9975963,38.5403106 C52.6627566,38.5403106 56.4596894,42.3333974 56.4596894,47.0024037 C56.4596894,51.6666026 52.6627566,55.4596894 47.9975963,55.4596894 Z" id="Fill-1" fill="#3F2823"></path>
    </g>
</svg>