<?xml version="1.0" encoding="UTF-8"?>
<svg id="deliver" viewBox="0 0 81 87" version="1.1" xmlns="http://www.w3.org/2000/svg" xmlns:xlink="http://www.w3.org/1999/xlink">
    <defs></defs>
    <g id="Symbols" stroke="none" stroke-width="1" fill="none" fill-rule="evenodd">
        <g id="modal/illustration/2">
            <g id="deliver">
                <g id="Shadow" transform="translate(22.000000, 82.000000)" fill="#2D2D2D" fill-rule="nonzero" opacity="0.1">
                    <path d="M0.462222222,2.17454545 C0.462222222,1.06363636 19.5911111,0.165454545 28.0533333,0.165454545 C36.5155556,0.165454545 43.3777778,1.06363636 43.3777778,2.17454545 C43.3777778,3.28545455 36.5155556,4.18363636 28.0533333,4.18363636 C19.5911111,4.18363636 0.462222222,3.28545455 0.462222222,2.17454545 Z" id="Shape"></path>
                </g>
                <g>
                    <polyline id="Fill-1" fill="#F6BD34" points="54 24 42.8984167 24 40.370616 25.6691496 37 38.2734733 40.370616 51 54 51 54 24"></polyline>
                    <polyline id="Fill-2" fill="#FADC77" points="27 24 27 51 40 51 40 25.6691496 37.5886216 24 27 24"></polyline>
                    <polygon id="Fill-3" fill="#EB8C2D" points="38 34 43 34 43 24 38 24"></polygon>
                    <path d="M15.3655189,43.7164972 L15.3655189,26.797321 L34.8209006,43.3545581 L38,39.5141325 L15.4164691,20.2947313 C13.2833461,18.5087063 10.5295147,19.0905599 8.47242255,19.0905599 L6,45.6914087 L6,82 L15.3655189,82 L15.3655189,76.986271 L10.9448451,76.986271 L10.9448451,50.2406785 C13.530052,49.2327507 15.3655189,46.6927791 15.3655189,43.7164972" id="Fill-4" fill="#2E6EA8"></path>
                    <path d="M2,26.0740574 L2,43.9259426 C2,47.8328789 5.13396494,51 9,51 L9,19 C5.13396494,19 2,22.1671211 2,26.0740574" id="Fill-5" fill="#56A1CD"></path>
                    <path d="M16.8492399,7.43514034 L5,4 L8.33426385,21 C13.1202885,21 16.9999996,17.0029102 16.9999996,12.0722511 L16.9999996,9.08893852 C17.0001592,8.52353743 16.9467152,7.9712852 16.8492399,7.43514034" id="Fill-6" fill="#FBE0B0"></path>
                    <path d="M0.156743621,7.43517355 C0.055340771,7.9713236 0,8.52358117 0,9.08898772 L0,12.0721647 C0,17.0028715 4.02943776,21 9,21 L9,4 L0.156743621,7.43517355" id="Fill-7" fill="#FFF4D5"></path>
                    <polyline id="Fill-8" fill="#2E6EA8" points="17.0279073 3.20003062 17.0279073 0 8.34197371 0 5 4.22209888 8.34197371 8 24 8 24 3.20003062 17.0279073 3.20003062"></polyline>
                    <polygon id="Fill-9" fill="#56A1CD" points="0 8 9 8 9 0 0 0"></polygon>
                    <path d="M72.0001602,19 L68.6521809,34.8302041 L69.4893359,45.6391415 L69.4893359,76.9790536 L65,76.9790536 L65,82 L74.5109845,82 L74.5109845,50.1946397 C77.1361847,49.185261 79,46.641633 79,43.6612269 L79,25.9990212 C79.0001602,22.1335267 75.8661952,19 72.0001602,19" id="Fill-10" fill="#C3242B"></path>
                    <path d="M72,19 C68.1340534,19 65,22.1671211 65,26.0740574 L65,43.9259426 C65,47.8328789 68.1340534,51 72,51 L72,19" id="Fill-11" fill="#D72B36"></path>
                    <path d="M72.3343083,0 L69,10.0000789 L72.3343083,20 C77.1202372,20 81,16.1638023 81,11.4316137 L81,8.56838635 C81,3.83619772 77.1202372,0 72.3343083,0" id="Fill-12" fill="#FBE0B0"></path>
                    <path d="M63,8.56845393 L63,11.4315461 C63,16.163772 67.0294378,20 72,20 L72,0 C67.0294378,0 63,3.83622797 63,8.56845393" id="Fill-13" fill="#FFF4D5"></path>
                </g>
            </g>
        </g>
    </g>
</svg>