<?xml version="1.0" encoding="UTF-8"?>
<svg id="shopping-basket" viewBox="0 0 54 48" version="1.1" xmlns="http://www.w3.org/2000/svg" xmlns:xlink="http://www.w3.org/1999/xlink">
    <defs>
        <polygon id="path-1" points="0.00824427481 0.0943152974 53.9586412 0.0943152974 53.9586412 31.8088411 0.00824427481 31.8088411"></polygon>
    </defs>
    <g id="Symbols" stroke="none" stroke-width="1" fill="none" fill-rule="evenodd">
        <g id="Card/illustration/Brief" transform="translate(-2.000000, -6.000000)">
            <g transform="translate(2.000000, 6.000000)">
                <g id="Group-3" transform="translate(0.000000, 16.000000)">
                    <mask id="mask-2" fill="white">
                        <use xlink:href="#path-1"></use>
                    </mask>
                    <g id="Clip-2"></g>
                    <path d="M49.6427634,0.0943152974 L46.2081985,0.0943152974 C46.6113435,2.38246831 45.6436031,4.79480081 43.572229,6.08993459 C42.6571145,6.66193811 41.6073435,6.96460827 40.5349008,6.96460827 C38.5167023,6.96460827 36.6785038,5.92991806 35.6178779,4.19640567 C34.8680611,2.970029 34.6254046,1.50182179 34.8760305,0.0943152974 L19.0831603,0.0943152974 C19.3332366,1.50182179 19.0901679,2.970029 18.3403511,4.19682238 C17.2808244,5.92991806 15.4424885,6.96460827 13.4242901,6.96460827 C12.3514351,6.96460827 11.3009771,6.66193811 10.3858626,6.08993459 C8.31517557,4.79480081 7.3468855,2.38246831 7.75044275,0.0943152974 L4.31587786,0.0943152974 C1.93177099,0.0943152974 0,2.0471559 0,4.45726595 C0,6.86584806 1.93177099,8.81868866 4.31587786,8.81868866 L4.79198473,8.81868866 L7.95709924,28.2781986 C8.28879389,30.3139645 10.0288855,31.8088411 12.0707176,31.8088411 L41.8880611,31.8088411 C43.9297557,31.8088411 45.6698473,30.3139645 46.001542,28.2781986 L49.1655573,8.81924428 L49.6427634,8.81924428 C52.026458,8.81924428 53.9586412,6.86584806 53.9586412,4.45726595 C53.9586412,2.0471559 52.026458,0.0943152974 49.6427634,0.0943152974 Z M18.403145,26.7605419 C18.2731603,26.7799883 18.1438626,26.7898505 18.0160763,26.7898505 C16.7563511,26.7898505 15.6523053,25.8576708 15.4580153,24.559759 L13.6658473,12.4828171 C13.4532824,11.0525305 14.4274809,9.72044847 15.8423359,9.50556517 C17.2587023,9.29721031 18.5743511,10.2760614 18.7873282,11.7052368 L20.5800458,23.7832899 C20.7926107,25.2130209 19.8178626,26.5462142 18.403145,26.7605419 Z M29.5693282,24.1712467 C29.5693282,25.617785 28.4105954,26.7898505 26.9800763,26.7898505 C25.549145,26.7898505 24.3915115,25.617785 24.3915115,24.1712467 L24.3915115,12.0931936 C24.3915115,10.6483221 25.5496947,9.47625658 26.9800763,9.47625658 C28.4105954,9.47625658 29.5693282,10.6483221 29.5693282,12.0931936 L29.5693282,24.1712467 Z M40.2933435,12.4828171 L38.5000763,24.559759 C38.3074351,25.8576708 37.2033893,26.7898505 35.9436641,26.7898505 C35.8153282,26.7898505 35.6865802,26.7799883 35.5556336,26.7605419 C34.1413282,26.5462142 33.1671298,25.2130209 33.379145,23.7832899 L35.1718626,11.7052368 C35.3848397,10.2749502 36.6951298,9.29012625 38.1163053,9.50556517 C39.5311603,9.71989286 40.5059084,11.0525305 40.2933435,12.4828171 Z" id="Fill-1" fill="#D9A461" mask="url(#mask-2)"></path>
                </g>
                <path d="M11.9387408,21.3828669 C12.6086014,21.8008076 13.3538005,22 14.0898425,22 C15.4593939,22 16.7986988,21.3070173 17.5709532,20.0481663 C18.282576,18.8891908 18.3437626,17.5174735 17.8743884,16.343831 L25.6386944,3.71090059 C26.3400501,2.5682684 25.9894416,1.07209072 24.854508,0.364441002 C24.4589461,0.118314116 24.0198184,0 23.5867954,0 C22.7781898,0 21.9880374,0.40914055 21.5300403,1.15338802 L13.7690642,13.7868771 C12.5164748,13.8877305 11.3246557,14.5534744 10.6126166,15.7124498 C9.42343365,17.6473815 10.0185107,20.1861762 11.9387408,21.3828669 Z" id="Fill-4" fill="#3F2823"></path>
                <path d="M37.1256762,16.343831 C36.6562619,17.5174735 36.7163436,18.8891908 37.4280272,20.0481663 C38.2015964,21.3075761 39.5397669,22 40.9111003,22 C41.6466501,22 42.3908028,21.8008076 43.0623856,21.3828669 C44.9822246,20.1861762 45.5762425,17.6473815 44.3870968,15.7124498 C43.6770782,14.5534744 42.4840473,13.8877305 41.232461,13.7868771 L33.467492,1.15338802 C33.0105659,0.40914055 32.220901,0 31.4122264,0 C30.9791664,0 30.5401399,0.118314116 30.1432955,0.364441002 C29.009375,1.07209072 28.6615117,2.5682684 29.3601522,3.71090059 L37.1256762,16.343831 Z" id="Fill-5" fill="#3F2823"></path>
            </g>
        </g>
    </g>
</svg>