<?xml version="1.0" encoding="UTF-8"?>
<svg id="target" viewBox="0 0 59 59" version="1.1" xmlns="http://www.w3.org/2000/svg" xmlns:xlink="http://www.w3.org/1999/xlink">
    <defs></defs>
    <g id="Symbols" stroke="none" stroke-width="1" fill="none" fill-rule="evenodd">
        <g id="Card/illustration">
            <g>
                <path d="M35.4908137,22.8219159 C36.0274824,22.9172857 36.3175078,23.8088669 36.1383098,24.8132524 C35.9592275,25.8177534 35.3789451,26.5547339 34.8421608,26.459364 C34.3053765,26.3639941 34.0154667,25.4725284 34.194549,24.4680274 C34.3736314,23.4636419 34.9540294,22.726546 35.4908137,22.8219159" id="Fill-1" fill="#DCB78D"></path>
                <path d="M24.4342137,26.4534755 C23.8974294,26.5488454 23.3171471,25.811865 23.1380647,24.807364 C22.9589824,23.802863 23.2488922,22.9113973 23.7856765,22.8160274 C24.3224608,22.7206575 24.9027431,23.457638 25.0818255,24.4621389 C25.2609078,25.4665245 24.970998,26.3581057 24.4342137,26.4534755" id="Fill-2" fill="#DCB78D"></path>
                <path d="M36.1557784,19.7129276 C36.1557784,22.6687006 34.304798,28.7033268 29.6156863,28.7033268 C24.9265745,28.7033268 23.0755941,22.5455049 23.0755941,19.7129276 C23.0755941,16.8802348 26.0371627,14.4171292 29.6156863,14.4171292 C33.3176471,14.5403249 36.1557784,16.8802348 36.1557784,19.7129276" id="Fill-3" fill="#3F2823"></path>
                <path d="M39.6109804,34.6148728 C38.747151,34.2454012 37.8834373,33.8759295 37.0196078,33.6296536 L22.2117647,33.6296536 C21.3479353,33.8759295 20.4842216,34.2454012 19.6203922,34.6148728 C18.1396078,35.353816 16.9055824,36.5854266 16.1651902,37.9401174 C19.2501961,42.0043053 24.0627451,44.5906067 29.492249,44.5906067 C34.9218686,44.5906067 39.8577392,42.0043053 42.8193078,37.9401174 C42.2023529,36.5854266 41.0917647,35.353816 39.6109804,34.6148728" id="Fill-4" fill="#E8EAE4"></path>
                <path d="M26.1604843,29.5654658 L26.1604843,30.9201566 C26.9008765,32.2749628 28.134902,33.1369863 29.6156863,33.3833777 C30.9730333,33.1369863 32.2070588,32.1517671 33.0708882,30.9201566 L33.0708882,29.5654658 L26.1604843,29.5654658" id="Fill-5" fill="#DCB78D"></path>
                <path d="M30.6028373,37.3243699 L31.5901039,35.7232877 C31.5901039,35.7232877 30.3560784,33.5064579 29.6156863,33.5064579 C28.8752941,33.5064579 27.6412686,35.7232877 27.6412686,35.7232877 L28.6285353,37.3243699 L30.6028373,37.3243699" id="Fill-6" fill="#3F2823"></path>
                <path d="M26.9008765,44.3443307 C27.7647059,44.4675264 28.6285353,44.5906067 29.6156863,44.5906067 C30.6028373,44.5906067 31.4666667,44.4675264 32.3304961,44.3443307 L30.6028373,37.2011742 L28.6285353,37.2011742 L26.9008765,44.3443307" id="Fill-7" fill="#3F2823"></path>
                <path d="M34.304798,32.8907104 L30.8497118,44.5906067 C35.7855824,44.221135 40.1046137,41.7580294 42.9427451,37.9401174 C42.2023529,36.5854266 41.0917647,35.353816 39.6109804,34.6148728 C37.8834373,33.7528493 36.1557784,33.260182 34.304798,32.8907104 Z" id="Fill-8" fill="#3F2823"></path>
                <path d="M24.9265745,32.8907104 C23.0755941,33.260182 21.3479353,33.8759295 19.6203922,34.6148728 C18.1396078,35.353816 16.9055824,36.5854266 16.1651902,37.9401174 C19.0034373,41.6348337 23.3223529,44.0980548 28.2583392,44.4675264 L24.9265745,32.8907104" id="Fill-9" fill="#3F2823"></path>
                <path d="M29.7391235,18.8507886 C28.6285353,18.8507886 27.6412686,18.727593 26.6541176,18.481317 C25.5435294,18.2350411 24.4329412,18.9739843 24.1861824,20.2054795 C24.0627451,20.9444227 23.9393078,21.8065616 23.9393078,22.6687006 C23.9393078,27.5949119 26.4073588,31.5360196 29.492249,31.5360196 C32.5772549,31.5360196 35.0451902,27.5949119 35.0451902,22.6687006 C35.0451902,21.8065616 34.9218686,21.0676184 34.7984314,20.2054795 C34.5516725,19.0970646 33.5644059,18.3581213 32.4538176,18.6045127 C31.7134255,18.727593 30.7262745,18.8507886 29.7391235,18.8507886" id="Fill-10" fill="#DCB78D"></path>
                <path d="M33.0708882,30.6738806 C32.2070588,32.0285714 29.6156863,33.5064579 29.6156863,33.5064579 C29.6156863,33.5064579 31.8368627,36.5854266 32.2070588,37.5706458 L34.1814765,33.0139061 L33.0708882,30.6738806" id="Fill-11" fill="#F5F5F3"></path>
                <path d="M26.1604843,30.6738806 C27.0243137,32.0285714 29.6156863,33.3833777 29.6156863,33.3833777 C29.6156863,33.3833777 27.3945098,36.4622309 27.0243137,37.4475656 L25.0498961,32.8907104 L26.1604843,30.6738806" id="Fill-12" fill="#F5F5F3"></path>
                <path d="M25.5435294,31.9054912 L21.8415686,35.353816 L24.5563784,36.8317025 L22.0883275,38.4327847 L26.4073588,44.221135 C27.147751,44.3443307 27.8881431,44.4675264 28.6285353,44.4675264 L25.5435294,31.9054912" id="Fill-13" fill="#DCB78D"></path>
                <g id="Group-17">
                    <path d="M33.6878431,31.9054912 L30.6028373,44.5906067 C31.3432294,44.5906067 32.0836216,44.4675264 32.8240137,44.3443307 L37.1430451,38.5559804 L34.6749941,36.9548982 L37.3898039,35.4770117 L33.6878431,31.9054912" id="Fill-14" fill="#DCB78D"></path>
                    <path d="M31.3432294,50.748544 L31.3432294,48.7779902 C31.3432294,47.792771 30.6028373,47.0538278 29.6156863,47.0538278 C28.6285353,47.0538278 27.8881431,47.792771 27.8881431,48.7779902 L27.8881431,50.748544 C17.5226529,49.8864051 9.37833922,41.6348337 8.5145098,31.4128239 L10.4889275,31.4128239 C11.4760784,31.4128239 12.2164706,30.6738806 12.2164706,29.6886614 C12.2164706,28.7033268 11.4760784,27.9643836 10.4889275,27.9643836 L8.39107255,27.9643836 C9.25490196,17.6191781 17.5226529,9.49080235 27.7647059,8.62877886 L27.7647059,10.5992172 C27.7647059,11.5845519 28.505098,12.3234951 29.492249,12.3234951 C30.4795157,12.3234951 31.2199078,11.5845519 31.2199078,10.5992172 L31.2199078,8.38238748 C41.585398,9.24452642 49.7297118,17.4960978 50.5934255,27.7181076 L48.6191235,27.7181076 C47.6318569,27.7181076 46.8914647,28.4570509 46.8914647,29.4422701 C46.8914647,30.4276047 47.6318569,31.1665479 48.6191235,31.1665479 L50.5934255,31.1665479 C49.9764706,41.6348337 41.7087196,49.8864051 31.3432294,50.748544 Z M57.5038294,27.8413033 L55.5294118,27.8413033 C54.5422608,14.9097965 44.3000922,4.68767123 31.3432294,3.82564775 L31.3432294,1.73189824 C31.3432294,0.746679061 30.6028373,0.00773581213 29.6156863,0.00773581213 C28.6285353,0.00773581213 27.8881431,0.746679061 27.8881431,1.73189824 L27.8881431,3.70245205 C14.9312804,4.68767123 4.68911176,14.9097965 3.82539804,27.8413033 L1.72754314,27.8413033 C0.740392157,27.8413033 0,28.5802466 0,29.5654658 C0,30.5506849 0.740392157,31.2896282 1.72754314,31.2896282 L3.70196078,31.2896282 C4.5657902,44.221135 14.9312804,54.4432603 27.7647059,55.3052838 L27.7647059,57.2758376 C27.7647059,58.2610568 28.505098,59 29.492249,59 C30.4795157,59 31.2199078,58.2610568 31.2199078,57.2758376 L31.2199078,55.3052838 C44.1767706,54.4432603 54.4188235,44.0980548 55.2826529,31.2896282 L57.2569549,31.2896282 C58.2442216,31.2896282 58.9846137,30.5506849 58.9846137,29.5654658 C58.9846137,28.5802466 58.4909804,27.8413033 57.5038294,27.8413033 Z" id="Fill-16" fill="#D9A461"></path>
                </g>
            </g>
        </g>
    </g>
</svg>