<?xml version="1.0" encoding="UTF-8"?>
<svg id="production" viewBox="0 0 59 60" version="1.1" xmlns="http://www.w3.org/2000/svg" xmlns:xlink="http://www.w3.org/1999/xlink">
    <defs>
        <polygon id="path-1" points="0.00719021739 0 44.1 0 44.1 44 0.00719021739 44"></polygon>
    </defs>
    <g id="Symbols" stroke="none" stroke-width="1" fill="none" fill-rule="evenodd">
        <g id="Card/illustration/production">
            <g id="sewing-machine" transform="translate(7.000000, 8.000000)">
                <g>
                    <g id="Group-4">
                        <mask id="mask-2" fill="white">
                            <use xlink:href="#path-1"></use>
                        </mask>
                        <g id="Clip-2"></g>
                        <path d="M39.3065217,0 L4.79347826,0 C2.15047418,0 0,2.14559783 0,4.7826087 L0,20.0869565 C0,20.6147174 0.429735326,21.0434783 0.958695652,21.0434783 L3.83478261,21.0434783 L3.83478261,25.826087 C3.83478261,26.3538478 4.26451793,26.7826087 4.79347826,26.7826087 C5.32243859,26.7826087 5.75217391,26.3538478 5.75217391,25.826087 L5.75217391,21.0434783 L16.2978261,21.0434783 C16.8267864,21.0434783 17.2565217,20.6147174 17.2565217,20.0869565 L17.2565217,13.3913043 L26.8434783,13.3913043 L26.8434783,30.6086957 L0.958695652,30.6086957 C0.429735326,30.6086957 0,31.0374565 0,31.5652174 L0,37.3043478 C0,37.8321087 0.429735326,38.2608696 0.958695652,38.2608696 L3.83478261,38.2608696 L3.83478261,43.0434783 C3.83478261,43.5712391 4.26451793,44 4.79347826,44 L43.1413043,44 C43.6702647,44 44.1,43.5712391 44.1,43.0434783 L44.1,4.7826087 C44.1,2.14559783 41.9495258,0 39.3065217,0 Z" id="Fill-3" fill="#3F2823" mask="url(#mask-2)"></path>
                        <path d="M35.4717391,11.4782609 C37.0571821,11.4782609 38.3478261,10.1905435 38.3478261,8.60869565 C38.3478261,7.02684783 37.0571821,5.73913043 35.4717391,5.73913043 C33.8862962,5.73913043 32.5956522,7.02684783 32.5956522,8.60869565 C32.5956522,10.1905435 33.8862962,11.4782609 35.4717391,11.4782609 Z M35.4717391,7.65217391 C35.9997408,7.65217391 36.4304348,8.0818913 36.4304348,8.60869565 C36.4304348,9.1355 35.9997408,9.56521739 35.4717391,9.56521739 C34.9437375,9.56521739 34.5130435,9.1355 34.5130435,8.60869565 C34.5130435,8.0818913 34.9437375,7.65217391 35.4717391,7.65217391 Z" id="Fill-1" fill="#D9A461" mask="url(#mask-2)"></path>
                    </g>
                    <path d="M33.3,17.0612245 L36.9,17.0612245 C37.396575,17.0612245 37.8,16.6587143 37.8,16.1632653 C37.8,15.6678163 37.396575,15.2653061 36.9,15.2653061 L33.3,15.2653061 C32.803425,15.2653061 32.4,15.6678163 32.4,16.1632653 C32.4,16.6587143 32.803425,17.0612245 33.3,17.0612245 Z" id="Fill-5" fill="#D9A461"></path>
                    <polygon id="Path" fill="#D9A461" points="5.75217391 42.0869565 42.1826087 42.0869565 42.1826087 38.2608696 5.75217391 38.2608696"></polygon>
                    <path d="M16.2978261,11.4782609 C15.7688658,11.4782609 15.3391304,11.9070217 15.3391304,12.4347826 L15.3391304,19.1304348 L1.9173913,19.1304348 L1.9173913,4.7826087 C1.9173913,3.20076087 3.20803533,1.91304348 4.79347826,1.91304348 L17.2565217,1.91304348 L17.2565217,11.4782609 L16.2978261,11.4782609 Z" id="Path" fill="#DCB78D"></path>
                </g>
            </g>
        </g>
    </g>
</svg>