<?xml version="1.0" encoding="UTF-8"?>
<svg id="mailbox" viewBox="0 0 81 105" version="1.1" xmlns="http://www.w3.org/2000/svg" xmlns:xlink="http://www.w3.org/1999/xlink">
    <defs>
        <rect id="path-1" x="0" y="0" width="23.1111111" height="20.0909091"></rect>
    </defs>
    <g id="Symbols" stroke="none" stroke-width="1" fill="none" fill-rule="evenodd">
        <g id="modal/illustration">
            <g>
                <g id="Layer_2">
                    <g>
                        <g id="Shadow" transform="translate(36.148148, 99.272727)" fill="#2D2D2D" fill-rule="nonzero" opacity="0.1">
                            <path d="M0.462222222,2.17454545 C0.462222222,1.06363636 19.5911111,0.165454545 28.0533333,0.165454545 C36.5155556,0.165454545 43.3777778,1.06363636 43.3777778,2.17454545 C43.3777778,3.28545455 36.5155556,4.18363636 28.0533333,4.18363636 C19.5911111,4.18363636 0.462222222,3.28545455 0.462222222,2.17454545 Z" id="Shape"></path>
                        </g>
                        <g id="Layer_1-2">
                            <rect id="Rectangle-path" fill="#E8724D" fill-rule="nonzero" x="37.9022222" y="44.9209091" width="7.32444444" height="56.2781818"></rect>
                            <path d="M14.9925926,81.7640909 C14.7383518,81.7690958 14.5202423,81.5843542 14.4840692,81.3333649 C14.4478961,81.0823756 14.6050054,80.8438635 14.8503704,80.7772727 C16.0049401,80.4185429 16.6617743,79.2069515 16.3303988,78.0472238 C15.9990232,76.8874961 14.8004261,76.2030596 13.6296296,76.505 C13.456025,76.5556668 13.2685003,76.510131 13.1376943,76.3855455 C13.0068882,76.2609599 12.9526734,76.0762522 12.995472,75.901 C13.0382707,75.7257477 13.1715806,75.5865758 13.3451852,75.5359091 C15.0650408,75.0365935 16.8651878,76.0220758 17.3659259,77.7370455 C17.8666641,79.4520151 16.8783741,81.247048 15.1585185,81.7463636 C15.104583,81.7614309 15.048505,81.7674222 14.9925926,81.7640909 Z" id="Shape" fill="#E8724D" fill-rule="nonzero"></path>
                            <g id="Group" opacity="0.15" transform="translate(14.222222, 77.409091)" fill="#F2F3F4" fill-rule="nonzero">
                                <path d="M0.77037037,4.04181818 C0.673481634,4.04527105 0.589584652,3.97529294 0.575873768,3.87958941 C0.562162883,3.78388588 0.623054293,3.69328248 0.717037037,3.66954545 C2.0664901,3.27557866 2.84086516,1.86609462 2.44740741,0.52 C2.4191317,0.453079754 2.43178639,0.375924567 2.47996895,0.32147356 C2.5281515,0.267022552 2.60334899,0.244896168 2.67345807,0.264540612 C2.74356714,0.284185055 2.79620089,0.342129531 2.80888889,0.413636364 C3.25940982,1.96041232 2.36837583,3.57875643 0.817777778,4.03 L0.77037037,4.04181818 Z" id="Shape"></path>
                            </g>
                            <path d="M14.6251852,44.9623183 L14.6251852,44.9623183 C17.1795366,44.9544666 19.6319676,45.9607967 21.4409529,47.7590994 C23.2499382,49.557402 24.2666788,51.9997569 24.2666667,54.5468638 L24.2666667,77.8109547 L5.01333333,77.8109547 L5.01333333,54.5468638 C5.01333333,49.2534655 9.31670599,44.9623183 14.6251852,44.9623183 Z" id="Shape" fill="#D36142" fill-rule="nonzero" transform="translate(14.640000, 61.386614) rotate(180.000000) translate(-14.640000, -61.386614) "></path>
                            <path d="M67.3777778,21.6922727 L67.3777778,45.045 L13.4518519,45.045 L13.4518519,12.2377273 L57.8962963,12.2377273 C63.1327739,12.2377273 67.3777778,16.4706715 67.3777778,21.6922727 Z" id="Shape" fill="#E8724D" fill-rule="nonzero"></path>
                            <path d="M13.4637037,45.0390927 L13.4637037,45.0390927 C16.0129253,45.0390927 18.4577374,46.0488902 20.2603093,47.8463411 C22.0628812,49.643792 23.0755556,52.0816587 23.0755556,54.6236382 L23.0755556,77.8109109 L3.84592593,77.8109109 L3.84592593,54.6236382 C3.84592544,52.0806345 4.8594132,49.641872 6.66326696,47.8442511 C8.46712072,46.0466302 10.9134555,45.0375249 13.4637037,45.0390927 Z" id="Shape" fill="#E8724D" fill-rule="nonzero" transform="translate(13.460741, 61.425001) rotate(180.000000) translate(-13.460741, -61.425001) "></path>
                            <ellipse id="Oval" fill="#F77E66" fill-rule="nonzero" cx="29.0074074" cy="30.2131818" rx="2.57185185" ry="2.56454545"></ellipse>
                            <ellipse id="Oval" fill="#F77E66" fill-rule="nonzero" cx="29.0074074" cy="30.2131818" rx="1.44592593" ry="1.44181818"></ellipse>
                            <polygon id="Shape" fill="#F77E66" fill-rule="nonzero" points="35.9525926 3.61636364 28.1837037 3.99454545 28.1837037 0 35.9525926 0.378181818"></polygon>
                            <rect id="Rectangle-path" fill="#E8724D" fill-rule="nonzero" x="23.0755556" y="42.8172727" width="44.3022222" height="2.18045455"></rect>
                            <rect id="Rectangle-path" fill="#E8724D" fill-rule="nonzero" x="23.0755556" y="42.8172727" width="9.88444444" height="2.18045455"></rect>
                            <rect id="Rectangle-path" fill="#D86648" fill-rule="nonzero" x="32.96" y="42.8172727" width="9.88444444" height="2.18045455"></rect>
                            <rect id="Rectangle-path" fill="#E8724D" fill-rule="nonzero" x="42.8444444" y="42.8172727" width="9.88444444" height="2.18045455"></rect>
                            <rect id="Rectangle-path" fill="#D86648" fill-rule="nonzero" x="52.722963" y="42.8172727" width="9.88444444" height="2.18045455"></rect>
                            <path d="M17.8962963,13.195 L17.8014815,13.195 C16.0581378,12.8421465 14.9256983,11.1542337 15.2639293,9.41275222 C15.6021604,7.67127076 17.2846719,6.5269766 19.0340741,6.84863636 C19.2119129,6.88346976 19.3576065,7.01026352 19.4162734,7.18125566 C19.4749403,7.3522478 19.4376676,7.54146055 19.3184956,7.6776193 C19.1993236,7.81377805 19.0163574,7.87619703 18.8385185,7.84136364 C17.6292195,7.60802335 16.4591903,8.3964092 16.2251852,9.60227273 C15.9911801,10.8081363 16.7818121,11.9748415 17.9911111,12.2081818 C18.2558829,12.2475472 18.4435228,12.4865539 18.4182913,12.7523037 C18.3930599,13.0180536 18.1637724,13.2177 17.8962963,13.2068182 L17.8962963,13.195 Z" id="Shape" fill="#E8724D" fill-rule="nonzero"></path>
                            <path d="M15.7274074,9.49 C15.8661286,8.77426805 16.2861542,8.14358647 16.893913,7.738455 C17.5016719,7.33332353 18.246678,7.18739618 18.962963,7.33318182" id="Shape" stroke="#F0F5F7" stroke-width="0.75" opacity="0.15" stroke-linecap="round"></path>
                            <path d="M26.9511111,30.2131818 C26.9511111,29.080747 27.8717463,28.1627273 29.0074074,28.1627273" id="Shape" stroke="#FFFFFF" stroke-width="3" opacity="0.1" stroke-linecap="round"></path>
                            <path d="M13.4637037,47.06 L13.4637037,47.06 C18.1153088,47.0632619 21.8844456,50.8243358 21.8844444,55.4627273 L21.8844444,75.8963636 L5.03703704,75.8963636 L5.03703704,55.4627273 C5.03703704,50.8220291 8.80978421,47.06 13.4637037,47.06 Z" id="Shape" stroke="#2D2D2D" stroke-width="5" opacity="0.05" transform="translate(13.460741, 61.478182) rotate(-180.000000) translate(-13.460741, -61.478182) "></path>
                            <polygon id="Shape" fill="#204458" fill-rule="nonzero" opacity="0.2" points="45.2266667 46.5636364 37.9022222 48.7027273 37.9022222 44.9209091 45.2266667 44.9209091"></polygon>
                            <path d="M39.4074074,52.7445455 L39.4074074,96.4009091" id="Shape" stroke="#FFFFFF" stroke-width="12" opacity="0.1" stroke-linecap="round"></path>
                            <ellipse id="Oval" fill="#E8724D" fill-rule="nonzero" cx="27.5614815" cy="43.9695455" rx="1" ry="1"></ellipse>
                            <ellipse id="Oval" fill="#E8724D" fill-rule="nonzero" cx="37.9022222" cy="43.9695455" rx="1" ry="1"></ellipse>
                            <ellipse id="Oval" fill="#E8724D" fill-rule="nonzero" cx="48.242963" cy="43.9695455" rx="1" ry="1"></ellipse>
                            <ellipse id="Oval" fill="#E8724D" fill-rule="nonzero" cx="58.5777778" cy="43.9695455" rx="1" ry="1"></ellipse>
                            <rect id="Rectangle-path" fill="#141414" fill-rule="nonzero" opacity="0.1" x="23.1525926" y="41.8895455" width="44.2251852" height="1"></rect>
                            <path d="M67.3777778,21.6922727 L67.3777778,23.7486364 L67.2237037,23.7486364 L13.4696296,23.7486364 L13.4696296,12.2377273 L57.9140741,12.2377273 C63.1436077,12.2475048 67.377787,16.4775866 67.3777778,21.6922727 L67.3777778,21.6922727 Z" id="Shape" fill="#FFFFFF" fill-rule="nonzero" opacity="0.05"></path>
                            <path d="M23.1111111,21.8104545 L23.1111111,45.045 L3.85185185,45.045 L3.85185185,21.8104545 C3.85185193,16.5137928 8.15787769,12.2200001 13.4696296,12.2200001 C18.7813816,12.2200001 23.0874073,16.5137928 23.0874074,21.8104545 L23.1111111,21.8104545 Z" id="Shape" fill="#662B1B" fill-rule="nonzero"></path>
                            <g id="mail" transform="translate(0.000000, 26.059599)">
                                <mask id="mask-2" fill="white">
                                    <use xlink:href="#path-1"></use>
                                </mask>
                                <g id="Mask"></g>
                                <g mask="url(#mask-2)">
                                    <g transform="translate(2.370370, 2.363636)">
                                        <polygon id="Star" fill="#E63D3D" transform="translate(13.926079, 8.538531) scale(-1, 1) rotate(-90.000000) translate(-13.926079, -8.538531) " points="17.9213137 21.9658037 5.90131239 21.9658037 5.90131239 1.60216729 5.90131239 -4.8887418 19.9360802 18.52944 21.9508466 21.9658037"></polygon>
                                        <polygon id="Star" fill="#D02525" transform="translate(15.864789, 8.516015) rotate(-90.000000) translate(-15.864789, -8.516015) " points="19.8600236 21.9432873 7.84002229 21.9432873 7.84002229 1.57965089 7.84002229 -4.9112582 21.8747901 18.5069236 23.8895565 21.9432873"></polygon>
                                        <polygon id="Star-2" fill="#ED5454" transform="translate(14.895434, 5.870455) rotate(-180.000000) translate(-14.895434, -5.870455) " points="15.0893054 11.7090909 0.290486565 11.7090909 0.290486565 11.1045455 15.0893054 0.0318181818 29.5003823 11.1045455 29.5003823 11.7090909"></polygon>
                                    </g>
                                </g>
                            </g>
                            <path d="M19.8459259,71.6181818 C18.3434991,73.3124326 16.2276095,74.3420929 13.9637957,74.4806166 C11.6999819,74.6191403 9.47371354,73.8551785 7.77481481,72.3568182" id="Shape" fill="#FFFFFF" fill-rule="nonzero" opacity="0.08"></path>
                            <path d="M34.317037,14.6368182 L56.2074074,14.6368182" id="Shape" stroke="#FFFFFF" stroke-width="7" opacity="0.1" stroke-linecap="round"></path>
                            <rect id="Rectangle-path" fill="#F77E66" fill-rule="nonzero" x="28.1837037" y="3.37409091" width="1.64740741" height="25.0545455"></rect>
                        </g>
                        <g id="Flower" transform="translate(24.296296, 76.227273)">
                            <path d="M20.557037,24.9836364 C18.2923231,18.2195321 21.0225216,10.7929058 27.1348148,7.09090909" id="Shape" stroke="#9EF2DE" stroke-width="2" stroke-linecap="round"></path>
                            <path d="M34.4296296,5.10545455 C34.4296296,5.785 30.9333333,5.53681818 30.6133333,6.08636364 C30.2933333,6.63590909 32.237037,9.54909091 31.6681481,9.88 C31.0992593,10.2109091 29.5881481,7.09090909 28.9066667,7.09090909 C28.2251852,7.09090909 26.6903704,10.2168182 26.1392593,9.89772727 C25.5881481,9.57863636 27.5259259,6.67727273 27.1940741,6.11 C26.8622222,5.54272727 23.3777778,5.80863636 23.3777778,5.12909091 C23.3777778,4.44954545 26.8740741,4.69772727 27.1940741,4.14818182 C27.5140741,3.59863636 25.5703704,0.685454545 26.1392593,0.354545455 C26.7081481,0.0236363636 28.2192593,3.16136364 28.9066667,3.16136364 C29.5940741,3.16136364 31.122963,0.0354545455 31.6740741,0.354545455 C32.2251852,0.673636364 30.2814815,3.54545455 30.6133333,4.13636364 C30.9451852,4.72727273 34.4296296,4.42590909 34.4296296,5.10545455 Z" id="Shape" fill="#F8B883" fill-rule="nonzero"></path>
                            <path d="M14.957037,24.9836364 C16.6804223,18.0505601 13.3552916,10.852261 6.95111111,7.65227273" id="Shape" stroke="#6CFFDC" stroke-width="2" stroke-linecap="round"></path>
                            <path d="M3.06962963,5.99772727 C3.12296296,6.67727273 0.106666667,8.45 0.485925926,8.95227273 C0.865185185,9.45454545 3.59703704,7.31545455 4.18962963,7.59909091 C4.78222222,7.88272727 4.78222222,11.3690909 5.47555556,11.3159091 C6.16888889,11.2627273 5.6237037,7.80590909 6.15111111,7.43954545 C6.67851852,7.07318182 9.74222222,8.775 10.0266667,8.18409091 C10.3111111,7.59318182 7.0637037,6.34045455 6.99851852,5.66090909 C6.93333333,4.98136364 9.96148148,3.20863636 9.58222222,2.70636364 C9.20296296,2.20409091 6.47111111,4.34318182 5.87851852,4.05954545 C5.28592593,3.77590909 5.28592593,0.289545455 4.59259259,0.342727273 C3.89925926,0.395909091 4.44444444,3.85272727 3.91703704,4.21909091 C3.38962963,4.58545455 0.325925926,2.88363636 0.0414814815,3.47454545 C-0.242962963,4.06545455 3.0162963,5.31818182 3.06962963,5.99772727 Z" id="Shape" fill="#F15C5C" fill-rule="nonzero"></path>
                        </g>
                    </g>
                </g>
            </g>
        </g>
    </g>
</svg>