<?xml version="1.0" encoding="UTF-8"?>
<svg id="store" viewBox="0 0 49 49" version="1.1" xmlns="http://www.w3.org/2000/svg" xmlns:xlink="http://www.w3.org/1999/xlink">
    <defs>
        <polygon id="path-1" points="0.00748086735 0.124 48.875 0.124 48.875 32 0.00748086735 32"></polygon>
    </defs>
    <g id="Symbols" stroke="none" stroke-width="1" fill="none" fill-rule="evenodd">
        <g id="Card/illustration/store" transform="translate(-5.000000, -6.000000)">
            <g id="store" transform="translate(5.000000, 6.000000)">
                <polygon id="Fill-1" fill="#3F2823" points="26.0324728 0 21.9675272 0 21 11 27 11"></polygon>
                <polygon id="Fill-2" fill="#3F2823" points="34 11 31.5014097 0 28 0 28.8137779 11"></polygon>
                <path d="M23.9996699,17 C25.647653,17 27,15.9150424 27,14.5930085 L27,11 L21,11 L21,14.5930085 C21,15.9150424 22.3626461,17 23.9996699,17 Z" id="Fill-3" fill="#DCB78D"></path>
                <polygon id="Fill-4" fill="#3F2823" points="43.0587948 11 49 11 41.9608035 0 38 0"></polygon>
                <polygon id="Fill-5" fill="#3F2823" points="20.1862221 11 21 0 17.5078176 0 15 11"></polygon>
                <path d="M30,14.5930085 C30,15.9150424 31.3524493,17 32.9997359,17 C34.6476828,17 36,15.9150424 36,14.5930085 L36,11 L30,11 L30,14.5930085 Z" id="Fill-6" fill="#DCB78D"></path>
                <polygon id="Fill-7" fill="#3F2823" points="36.6236452 11 42 11 37.597528 0 34 0"></polygon>
                <path d="M36,14.5930085 C36,15.9150424 37.3520401,17 39,17 C40.6479599,17 42,15.9150424 42,14.5930085 L42,11 L36,11 L36,14.5930085 Z" id="Fill-8" fill="#DCB78D"></path>
                <polygon id="Fill-9" fill="#3F2823" points="11 0 7.03914559 0 0 11 5.94128162 11"></polygon>
                <path d="M42,11 L42,14.5933688 C42,15.9153793 43.3519081,17 45,17 C46.6479599,17 48,15.9153793 48,14.5933688 L48,11 L42,11 Z" id="Fill-10" fill="#DCB78D"></path>
                <polygon id="Fill-11" fill="#3F2823" points="8 11 13.3763548 11 16 0 12.4121611 0"></polygon>
                <path d="M15,14.5930085 C15,15.9150424 16.3518188,17 17.9998019,17 C19.647653,17 21,15.9150424 21,14.5930085 L21,11 L15,11 L15,14.5930085 Z" id="Fill-12" fill="#DCB78D"></path>
                <path d="M3.00026407,17 C4.64807887,17 6,15.9150424 6,14.5930085 L6,11 L0,11 L0,14.5930085 C0,15.9150424 1.35231724,17 3.00026407,17 Z" id="Fill-13" fill="#DCB78D"></path>
                <path d="M12,14.6099576 L12,11 L6,11 L6,14.6099576 C6,15.9319915 7.34066178,17 9.00033244,17 C10.6598701,17 12,15.9319915 12,14.6099576 Z" id="Fill-14" fill="#DCB78D"></path>
                <path d="M26.2823213,29.780093 L28.7749006,27.3094919 C29.0750331,27.0115251 29.0750331,26.521562 28.7749006,26.2234751 C28.4741619,25.9255083 27.9793553,25.9255083 27.6787378,26.2234751 L25.225554,28.6935956 C24.9248153,28.9915624 24.9248153,29.4820061 25.225554,29.780093 C25.3808326,29.9241503 25.8169703,30.1930413 26.2823213,29.780093 Z" id="Fill-15" fill="#DCB78D"></path>
                <g id="Group-19" transform="translate(0.000000, 17.000000)">
                    <mask id="mask-2" fill="white">
                        <use xlink:href="#path-1"></use>
                    </mask>
                    <g id="Clip-17"></g>
                    <path d="M27.3003033,17.4656774 C27.459521,17.6310968 27.9086224,17.9098065 28.387398,17.4656774 L34.2025255,11.5615484 C34.5118594,11.2414194 34.5118594,10.7147097 34.2025255,10.3947097 C33.8933163,10.0745806 33.3848667,10.0745806 33.0755328,10.3947097 L27.2604053,16.2993548 C26.9909694,16.6295484 26.9909694,17.1456774 27.3003033,17.4656774 Z" id="Fill-16" fill="#DCB78D" mask="url(#mask-2)"></path>
                    <path d="M42.5011763,0.124 C41.7234155,1.29032258 40.4064088,2.09522581 38.8907851,2.09522581 C37.4140619,2.09522581 36.0976786,1.3316129 35.2798951,0.124 C34.5016355,1.29032258 33.1851276,2.09522581 31.6690051,2.09522581 C30.1927806,2.09522581 28.8763973,1.3316129 28.0581151,0.124 C27.2803543,1.29032258 25.9633476,2.09522581 24.4472251,2.09522581 C22.9316014,2.09522581 21.6546173,1.3316129 20.8368339,0.124 C20.0585743,1.29032258 18.7420663,2.09522581 17.2259439,2.09522581 C15.7497194,2.09522581 14.4727353,1.3316129 13.6550765,0.206709677 C12.1589031,2.37393548 9.8945692,2.09522581 9.8945692,2.09522581 C8.45836735,2.09522581 7.18188202,1.3316129 6.40349777,0.206709677 C5.58583897,1.37303226 4.30885491,2.09522581 2.83263042,2.09522581 C1.74553571,2.09522581 0.777760842,1.69303226 0,1.05290323 L0,32 L3.57099203,32 L3.57099203,6.26567742 L19.5501247,6.26567742 L19.5501247,32 L48.875,32 L48.875,1.0116129 C48.0972392,1.65174194 47.1294643,2.05445161 46.0423696,2.05445161 C44.5959439,2.05445161 43.2794359,1.29032258 42.5011763,0.124 Z M45.9922478,22.4823226 L23.2305867,22.4823226 L23.2305867,6.26567742 L46.0024716,6.26567742 L46.0024716,22.4823226 L45.9922478,22.4823226 Z" id="Fill-18" fill="#D9A461" mask="url(#mask-2)"></path>
                </g>
            </g>
        </g>
    </g>
</svg>