<?xml version="1.0" encoding="UTF-8"?>
<svg id="production-old" viewBox="0 0 50 50" version="1.1" xmlns="http://www.w3.org/2000/svg" xmlns:xlink="http://www.w3.org/1999/xlink">
    <defs>
        <polygon id="path-1" points="0 0 59 0 59 60 0 60"></polygon>
    </defs>
    <g id="Symbols" stroke="none" stroke-width="1" fill="none" fill-rule="evenodd">
        <g id="Card/illustration/production" transform="translate(-5.000000, -6.000000)">
            <g>
                <mask id="mask-2" fill="white">
                    <use xlink:href="#path-1"></use>
                </mask>
                <g id="Clip-2"></g>
                <path d="M14.4307612,25.6755632 C15.4210043,25.6755632 16.393526,25.513705 17.3306046,25.2025951 L22.9007764,31 L29,24.6485854 L23.4332861,18.8446522 C24.5063016,15.3510815 23.6241164,11.4808922 21.1236552,8.87630342 C19.3432922,7.02089974 16.9727167,6 14.4560467,6 C13.0497804,6 11.6398401,6.33137032 10.3753459,6.9601185 C10.1845155,7.05511733 10.0503075,7.23993733 10.0148645,7.45627352 C9.98006986,7.67328507 10.0468497,7.89322312 10.1955374,8.04877807 L16.0550884,14.1541412 C16.4881848,14.6043726 16.7261284,15.2025051 16.7261284,15.8364309 C16.7261284,16.4721577 16.4873203,17.0684892 16.0550884,17.5187206 C15.194731,18.418283 13.6896997,18.418283 12.8267488,17.5169197 L6.96460438,11.412457 C6.81440382,11.2557765 6.59915236,11.1873413 6.39643562,11.2242603 C6.18809987,11.2611792 6.01153316,11.4000756 5.92033224,11.5988528 C4.19896892,15.3571596 4.93700479,19.8576728 7.75991098,22.7965584 C9.54113842,24.6528626 11.9108495,25.6755632 14.4307612,25.6755632 Z" id="Fill-1" fill="#D9A461" mask="url(#mask-2)"></path>
                <path d="M45.4171765,36.7989544 C44.4091058,36.7989544 43.4188285,36.9577787 42.465456,37.2615878 L36.2039511,31 L30,37.2022758 L36.2632623,43.465621 C35.174133,46.8740829 36.0701714,50.64962 38.6108873,53.1921269 C40.4205378,55.00268 42.83011,56 45.3881799,56 C46.8175797,56 48.250714,55.6746628 49.5368882,55.061992 C49.7308578,54.9692896 49.8663949,54.7891569 49.9032996,54.5780502 C49.9393257,54.3660648 49.8699096,54.1514433 49.7196546,53.9996485 L43.7628335,48.0401125 C43.32437,47.6025219 43.0822924,47.0199464 43.0816334,46.4011247 C43.0816334,45.781644 43.3234913,45.1990686 43.7637122,44.7597206 C44.6415179,43.8810246 46.1680123,43.8816836 47.0442803,44.7597206 L53.0019801,50.7166205 C53.1537728,50.8675366 53.3666341,50.9354158 53.5803741,50.900268 C53.7912583,50.8633628 53.9716083,50.7284829 54.0643095,50.5347305 C55.8139898,46.8670533 55.0646917,42.4762093 52.1944691,39.6074865 C50.3848187,37.7969334 47.9770038,36.7989544 45.4171765,36.7989544 Z" id="Fill-3" fill="#3F2823" mask="url(#mask-2)"></path>
                <path d="M41.5400983,21.9299937 C41.5400983,21.9299937 42.5763008,22.8438487 43.4295924,22.417103 C44.395529,21.9275615 47.1146,24.6273364 47.9826035,25.2588317 C47.9850189,25.261485 47.9911672,25.261485 48.0014875,25.2665706 L47.526973,25.7459409 C46.9000694,26.3694762 46.9009477,27.3879171 47.525436,28.0123367 C48.1497046,28.6385253 49.1542875,28.6376409 49.7794345,28.0123367 L53.534708,24.2353052 C54.1548046,23.6073477 54.1556829,22.5915602 53.5338296,21.9644872 C52.913733,21.339183 51.9032215,21.339183 51.2804899,21.9644872 L50.6553429,22.5942135 C50.1371318,21.8756002 49.2759353,20.650862 49.3857258,20.2449008 C49.8437717,18.4673832 46.2457182,14.269797 46.2457182,14.269797 C37.3096516,5.27320067 31.3414413,5.47795019 28.5016008,6.46079207 C27.3617561,6.85547661 27.5734321,7.10599627 28.757193,7.31583135 C37.3713539,8.83000486 38.440274,13.9458683 36.9802802,15.9195121 C36.4185921,16.6812422 37.2376291,17.6010672 37.2376291,17.6010672 L37.5454816,17.9095181 L23,32.5537517 C23.1974033,32.6738154 23.3886583,32.8093569 23.557516,32.9804975 L26.0047458,35.442135 C26.1711881,35.6095166 26.3066696,35.8014416 26.4241454,36 L40.9705053,21.354882 L41.5400983,21.9299937 Z" id="Fill-4" fill="#DCB78D" mask="url(#mask-2)"></path>
                <path d="M23.1962435,33.415925 C22.6722563,32.8918527 21.7807278,32.8573432 21.2198793,33.3447626 L5.44368376,47.490644 C4.88026351,47.977206 4.84940291,48.8043616 5.37424741,49.3292913 L9.67137156,53.6245413 C10.1970733,54.149471 11.0225943,54.1203201 11.5080058,53.5600236 L25.6567334,37.7765501 C26.1406447,37.2162535 26.1095698,36.3280097 25.5847253,35.80308 L23.1962435,33.415925 Z" id="Fill-5" fill="#3F2823" mask="url(#mask-2)"></path>
            </g>
        </g>
    </g>
</svg>