<svg width="16" height="16" viewBox="0 0 16 16" fill="none" xmlns="http://www.w3.org/2000/svg">
    <path fill="#F6F5F3" d="M0 0h16v16H0z"/>
    <path fill-rule="evenodd" clip-rule="evenodd" d="M13.19 10.003h1.806V7.486a3.326 3.326 0 0 0-1.806-2.955v5.472zM9.899 3.157h1.772c.168 0 .333.012.496.031a1.402 1.402 0 0 0-1.382-1.184c-.699 0-1.278.514-1.382 1.184a4.31 4.31 0 0 1 .496-.03zm3.29.248v.033A4.332 4.332 0 0 1 16 7.486v3.52l-5.109-.004c.002-.41-.06-.704-.175-1h1.47V4.206a3.303 3.303 0 0 0-.514-.044H9.899c-.176 0-.347.018-.515.044V7.72c-.31-.31-.73-.569-1.004-.678v-2.51c-.314.161-.73.48-.977.729-.21-.35-.349-.478-.733-.664.444-.46 1.1-.93 1.71-1.16v-.032A2.407 2.407 0 0 1 10.785 1a2.407 2.407 0 0 1 2.405 2.405zM1.005 13.835h8.422v-2.517A3.327 3.327 0 0 0 7.62 8.364v.795H6.616V8.037a3.301 3.301 0 0 0-.515-.044H4.33a3.3 3.3 0 0 0-.515.044V9.16H2.81v-.795a3.327 3.327 0 0 0-1.806 2.954v2.517zM6.597 7.02a1.402 1.402 0 0 0-1.382-1.184c-.699 0-1.278.514-1.383 1.184.164-.019.329-.03.497-.03H6.1c.168 0 .333.011.496.03zm1.023.217v.033a4.332 4.332 0 0 1 2.81 4.049v3.52H0v-3.52a4.332 4.332 0 0 1 2.81-4.05v-.032a2.407 2.407 0 0 1 2.405-2.405A2.407 2.407 0 0 1 7.62 7.237z" fill="#19110B"/>
</svg>
