<svg xmlns="http://www.w3.org/2000/svg" xmlns:xlink="http://www.w3.org/1999/xlink" width="31" height="31" viewBox="0 0 31 31">
    <defs>
        <path id="a" d="M0 0h18v18H0z"/>
    </defs>
    <g fill="none" fill-rule="evenodd" id="create-look">
        <circle cx="15.5" cy="15.5" r="15.5" fill="#F2EDF0"/>
        <g opacity=".801" transform="translate(7 7)">
            <mask id="b" fill="#fff">
                <use xlink:href="#a"/>
            </mask>
            <path fill="#A17C6B" d="M14.786 16.714H9.643V9.643h7.071v5.143a1.929 1.929 0 0 1-1.928 1.928zm-13.5-1.928V3.214c0-1.065.863-1.928 1.928-1.928h5.143v15.428H3.214a1.929 1.929 0 0 1-1.928-1.928zM16.714 3.214v5.143H9.643V1.286h5.143c1.065 0 1.928.863 1.928 1.928zM14.786 0H3.214A3.218 3.218 0 0 0 0 3.214v11.572A3.218 3.218 0 0 0 3.214 18h11.572A3.218 3.218 0 0 0 18 14.786V3.214A3.218 3.218 0 0 0 14.786 0z" mask="url(#b)"/>
        </g>
    </g>
</svg>
