<?xml version="1.0" encoding="UTF-8"?>
<svg width="100pt" height="100pt" version="1.1" viewBox="0 0 100 100" xmlns="http://www.w3.org/2000/svg">
 <path d="m28.684 68.488-9.7617 9.7617c-0.78125 0.78125-0.78125 2.0469 0 2.8281 0.39062 0.39062 0.90234 0.58594 1.4141 0.58594 0.51172 0 1.0234-0.19531 1.4141-0.58594l11.016-11.016c5.3125 1.8477 11.121 3.0586 17.234 3.0586 25.418 0 45.602-20.855 46.445-21.742 0.73828-0.77344 0.73828-1.9883 0-2.7617-0.58984-0.61719-10.559-10.906-25.133-17.105l9.7617-9.7617c0.78125-0.78125 0.78125-2.0469 0-2.8281s-2.0469-0.78125-2.8281 0l-11.012 11.016c-5.3125-1.8477-11.121-3.0586-17.234-3.0586-25.418 0-45.602 20.855-46.445 21.742-0.73828 0.77344-0.73828 1.9883 0 2.7617 0.58594 0.61719 10.555 10.906 25.129 17.105zm63.445-18.488c-4.9297 4.6055-22.066 19.121-42.129 19.121-4.8984 0-9.625-0.87109-14.043-2.2539l5.9414-5.9414c2.2695 1.6875 5.0664 2.6953 8.1016 2.6953 7.5117 0 13.625-6.1133 13.625-13.625 0-3.0352-1.0117-5.832-2.6953-8.1016l7.2852-7.2852c11.637 4.6289 20.574 12.277 23.914 15.391zm-51.754 0c0-5.3086 4.3164-9.625 9.625-9.625 1.9297 0 3.7266 0.57812 5.2344 1.5625l-13.297 13.297c-0.98438-1.5078-1.5625-3.3047-1.5625-5.2344zm19.25 0c0 5.3086-4.3164 9.625-9.625 9.625-1.9297 0-3.7266-0.57812-5.2344-1.5625l13.301-13.301c0.98047 1.5117 1.5586 3.3086 1.5586 5.2383zm-9.625-19.121c4.8984 0 9.625 0.87109 14.043 2.2539l-5.9414 5.9414c-2.2695-1.6875-5.0664-2.6953-8.1016-2.6953-7.5117 0-13.625 6.1133-13.625 13.625 0 3.0352 1.0117 5.832 2.6953 8.1016l-7.2852 7.2852c-11.637-4.6289-20.574-12.277-23.914-15.391 4.9297-4.6055 22.066-19.121 42.129-19.121z"/>
</svg>
