<svg width="20" height="20" xmlns="http://www.w3.org/2000/svg">
    <path d="M4.457.65c.519 0 1.01.214 1.422.617l.053.049.161.153.113.11.119.118.195.197.39.4.145.145L8.202 3.58c.436.43.668.934.668 1.45 0 .49-.212.97-.608 1.39l-.061.063-.276.277L7.69 7l-.28.281-.187.183-.118.113-.173.161-.062.056.015.032c.22.483.52.967.944 1.524l.086.112.09.114c1.085 1.325 2.216 2.352 3.458 3.138l.032.02.068.04.074.04.085.046.357.18.118.063 1.324-1.318c.382-.38.825-.601 1.289-.64l.077-.005.074-.002c.497 0 .97.206 1.367.591l2.371 2.363c.865.862.868 2.005.01 2.897l-.142.144-.151.15-.165.16-.34.329-.092.091-.111.113-.1.105-.045.049-.084.093-.039.045a.131.131 0 0 1-.012.02l-.019.022c-.646.699-1.443 1.04-2.428 1.04l-.087-.001-.181-.007c-1.219-.078-2.33-.442-3.705-1.09a19.79 19.79 0 0 1-6.586-5.14c-1.514-1.813-2.536-3.513-3.214-5.346-.443-1.19-.616-2.177-.541-3.11.06-.724.344-1.356.844-1.881l.066-.068 1.44-1.435c.43-.408.924-.622 1.44-.622zm.039 1.2c-.195 0-.397.087-.586.255l-.046.043-1.422 1.437a1.95 1.95 0 0 0-.58 1.25c-.06.765.09 1.606.477 2.648.63 1.719 1.584 3.323 3.002 5.047a18.515 18.515 0 0 0 6.16 4.876c1.222.587 2.214.919 3.257.986l.079.005.088.003h.026c.65 0 1.146-.213 1.562-.666.089-.107.18-.21.285-.321l.131-.138.185-.185.206-.202.178-.174.103-.103.094-.096.044-.046.086-.092c.416-.437.432-.863.052-1.275l-.04-.04-2.306-2.327c-.176-.192-.384-.312-.603-.312-.19 0-.39.091-.58.268l-.048.046-1.43 1.444c-.067.069-.128.12-.213.171a.82.82 0 0 1-.784.043l-.067-.033-.043-.024-.064-.04-.07-.04-.078-.044-.143-.075-.281-.144-.03-.015a3.52 3.52 0 0 1-.211-.122l-.047-.03c-1.344-.862-2.559-1.979-3.709-3.411-.602-.766-1.009-1.424-1.308-2.119l-.059-.14-.002-.007c-.113-.344-.086-.631.176-.918L6 7.17c.123-.11.246-.226.379-.355l.165-.162.249-.251.612-.626c.221-.223.33-.442.33-.651 0-.194-.094-.397-.284-.604l-.046-.048-1.14-1.151-.74-.76-.148-.15-.135-.132-.13-.123c-.198-.203-.41-.306-.616-.306z" fill="#8E8E93" fill-rule="evenodd"/>
</svg>
