<svg width="17" height="19" viewBox="0 0 17 19" fill="none" xmlns="http://www.w3.org/2000/svg">
<path d="M0.962963 17.5376C1.60489 18.174 2.28002 18.4949 2.98835 18.5005C3.70222 18.506 4.37458 18.1961 5.00544 17.5708C5.24893 17.3217 5.49242 17.0091 5.73591 16.6328C5.9794 16.262 6.21736 15.8691 6.44978 15.4541C6.6822 15.039 6.90632 14.6517 7.12214 14.292C7.33796 13.9267 7.53995 13.6307 7.7281 13.4038L9.45466 15.1469C9.74242 15.4347 10.0523 15.5786 10.3843 15.5786C10.7164 15.5786 11.0235 15.4402 11.3057 15.1635L12.2935 14.1591C12.5758 13.8769 12.7169 13.5753 12.7169 13.2544C12.7169 12.9279 12.573 12.618 12.2852 12.3247L6.17585 6.22359C5.88256 5.92477 5.57266 5.77535 5.24617 5.77535C4.9252 5.77535 4.62084 5.91923 4.33308 6.20699L3.33699 7.19479C3.06029 7.47701 2.91918 7.78414 2.91365 8.11617C2.91365 8.44267 3.06029 8.75257 3.35359 9.04586L5.08845 10.7724C4.86156 10.9606 4.5655 11.1626 4.20027 11.3784C3.84057 11.5942 3.4532 11.8183 3.03816 12.0507C2.62865 12.2832 2.23575 12.5211 1.85945 12.7646C1.48868 13.0026 1.17878 13.2461 0.92976 13.4951C0.304435 14.1259 -0.00546104 14.7955 7.28139e-05 15.5039C0.00560667 16.2177 0.32657 16.8956 0.962963 17.5376ZM4.31648 7.83395L4.98884 7.18648C5.19913 6.97066 5.40942 6.9679 5.6197 7.17818L11.3223 12.8808C11.5216 13.0856 11.5188 13.2959 11.314 13.5117L10.6666 14.1674C10.4508 14.3888 10.2349 14.3888 10.0191 14.1674L8.11824 12.2666C7.98542 12.1282 7.83601 12.0646 7.66999 12.0756C7.50398 12.0867 7.34073 12.167 7.18025 12.3164C7.01977 12.4768 6.83162 12.7397 6.6158 13.1049C6.40551 13.4702 6.17309 13.8824 5.91853 14.3418C5.66397 14.7955 5.39558 15.241 5.11335 15.6782C4.83113 16.1154 4.53507 16.4861 4.22517 16.7905C3.84333 17.1834 3.43106 17.3771 2.98835 17.3715C2.54565 17.3715 2.12231 17.1751 1.71833 16.7822C1.3199 16.3782 1.11791 15.9521 1.11238 15.5039C1.11238 15.0612 1.30883 14.6489 1.70173 14.2671C2.00609 13.9627 2.37686 13.6694 2.81404 13.3872C3.25675 13.1049 3.70499 12.8365 4.15876 12.582C4.61807 12.3274 5.03035 12.095 5.39558 11.8847C5.76082 11.6689 6.02367 11.4808 6.18415 11.3203C6.32804 11.1598 6.40551 10.9965 6.41658 10.8305C6.42764 10.659 6.36677 10.5068 6.23396 10.374L4.31648 8.47311C4.10619 8.26282 4.10619 8.04977 4.31648 7.83395ZM2.93025 16.5249C3.19587 16.5249 3.41999 16.4308 3.60261 16.2426C3.78523 16.06 3.87654 15.8387 3.87654 15.5786C3.87654 15.3129 3.78523 15.0861 3.60261 14.8979C3.41999 14.7153 3.19587 14.624 2.93025 14.624C2.66462 14.624 2.43774 14.7153 2.24958 14.8979C2.06697 15.0861 1.97566 15.3129 1.97566 15.5786C1.97566 15.8387 2.06697 16.06 2.24958 16.2426C2.43774 16.4308 2.66462 16.5249 2.93025 16.5249ZM12.1939 13.0219L15.8961 9.32809C16.3222 8.90198 16.5297 8.4482 16.5186 7.96676C16.5131 7.47978 16.2945 7.02047 15.8629 6.58883L9.72859 0.437949C9.52384 0.23873 9.29695 0.108685 9.04792 0.0478125C8.7989 -0.0185938 8.54988 -0.0158268 8.30085 0.0561133C8.05736 0.12252 7.84154 0.252565 7.65339 0.44625C7.47078 0.634401 7.34626 0.883424 7.27986 1.19332C7.14151 1.81311 7.01977 2.33883 6.91462 2.77047C6.81501 3.20211 6.71817 3.57564 6.6241 3.89107C6.53002 4.2065 6.42764 4.4915 6.31697 4.74605C6.20629 5.00061 6.07071 5.25794 5.91023 5.51803C5.75528 5.77258 5.56436 6.06311 5.33748 6.38961L6.15925 7.21139C6.48575 6.76868 6.74861 6.36747 6.94783 6.00777C7.15258 5.64254 7.32413 5.269 7.46248 4.88717C7.60082 4.50533 7.73363 4.06816 7.86091 3.57564C7.99373 3.0776 8.15421 2.47717 8.34236 1.77437C8.39216 1.54749 8.49454 1.41191 8.64949 1.36764C8.80997 1.31783 8.95938 1.3621 9.09773 1.50045L14.9996 7.3857C15.1933 7.57939 15.2901 7.78691 15.2901 8.00826C15.2901 8.22408 15.196 8.42607 15.0079 8.61422L11.4053 12.2251L12.1939 13.0219ZM11.0235 8.55611C11.1287 8.65572 11.3279 8.66402 11.6212 8.58102C11.92 8.49801 12.2548 8.35689 12.6256 8.15768C13.0019 7.95292 13.3616 7.7205 13.7047 7.46041C14.0533 7.20032 14.3272 6.94576 14.5264 6.69674L12.7999 4.97848C12.7224 5.67574 12.5204 6.28723 12.1939 6.81295C11.8674 7.33313 11.4856 7.81181 11.0484 8.24898C10.9433 8.35966 10.935 8.46204 11.0235 8.55611Z" fill="#27262C"/>
</svg>
