<svg width="17" height="17" viewBox="0 0 17 17" fill="none" xmlns="http://www.w3.org/2000/svg">
<path id="&#244;&#128;&#137;&#163;" d="M8.17212 5.05728C8.70337 5.12922 9.14331 5.25373 9.49194 5.43081C9.84611 5.60236 10.1588 5.82095 10.4299 6.08658C11.0553 6.7119 11.4703 7.40087 11.675 8.15347C11.8798 8.90054 11.877 9.64761 11.6667 10.3947C11.462 11.1418 11.0497 11.8224 10.4299 12.4367L7.75708 15.1261C7.14282 15.7404 6.45939 16.1527 5.70679 16.3629C4.95972 16.5732 4.20988 16.5732 3.45728 16.3629C2.71021 16.1582 2.02401 15.7432 1.39868 15.1178C0.773356 14.4925 0.358317 13.8063 0.153564 13.0592C-0.0511882 12.3066 -0.0511882 11.5568 0.153564 10.8097C0.363851 10.0626 0.776123 9.37922 1.39038 8.75943L3.7561 6.3937C3.71737 6.63166 3.70907 6.88068 3.7312 7.14077C3.75887 7.39533 3.81974 7.63329 3.91382 7.85464L2.26196 9.5148C1.80265 9.97964 1.49552 10.4915 1.34058 11.0504C1.18563 11.6094 1.18286 12.1683 1.33228 12.7272C1.48722 13.2861 1.79712 13.798 2.26196 14.2628C2.72127 14.7222 3.23039 15.0265 3.78931 15.1759C4.34823 15.3309 4.90715 15.3309 5.46606 15.1759C6.03052 15.021 6.5424 14.7111 7.00171 14.2462L9.56665 11.6896C10.026 11.2303 10.3331 10.7212 10.488 10.1623C10.643 9.60334 10.643 9.04442 10.488 8.4855C10.3331 7.92105 10.026 7.40917 9.56665 6.94986C9.28996 6.67316 8.96346 6.45734 8.58716 6.3024C8.21086 6.14191 7.75155 6.04784 7.20923 6.02017L8.17212 5.05728ZM8.32153 11.4655C7.79028 11.388 7.34481 11.2635 6.98511 11.0919C6.63094 10.9149 6.32104 10.6963 6.05542 10.4362C5.43009 9.81086 5.01506 9.12466 4.8103 8.37759C4.60555 7.62499 4.60555 6.87515 4.8103 6.12808C5.02059 5.37548 5.43286 4.69204 6.04712 4.07779L8.73657 1.39663C9.35083 0.782376 10.0315 0.370104 10.7786 0.159818C11.5256 -0.0504687 12.2727 -0.0532357 13.0198 0.151517C13.7668 0.35627 14.4558 0.774076 15.0867 1.40493C15.712 2.03026 16.127 2.71923 16.3318 3.47183C16.5365 4.2189 16.5365 4.96597 16.3318 5.71304C16.127 6.45458 15.7148 7.13524 15.095 7.75503L12.7292 10.1208C12.768 9.8828 12.7735 9.63654 12.7458 9.38199C12.7182 9.12743 12.6573 8.88947 12.5632 8.66812L14.2234 7.00796C14.6827 6.54312 14.9898 6.034 15.1448 5.48062C15.3053 4.9217 15.308 4.36278 15.1531 3.80386C14.9981 3.23941 14.6882 2.72476 14.2234 2.25992C13.7641 1.80061 13.2522 1.49348 12.6877 1.33853C12.1288 1.18358 11.5699 1.18635 11.011 1.34683C10.4521 1.50178 9.94295 1.81167 9.48364 2.27652L6.9187 4.82486C6.45939 5.2897 6.15226 5.80158 5.99731 6.3605C5.84237 6.91942 5.8396 7.48111 5.98901 8.04556C6.14396 8.60448 6.45386 9.11359 6.9187 9.5729C7.19539 9.8496 7.51912 10.0654 7.88989 10.2204C8.26619 10.3753 8.7255 10.4666 9.26782 10.4943L8.32153 11.4655Z" fill="#2C2C2C"/>
</svg>
